<?xml version="1.0" encoding="utf-8"?>
<svg version="1.1"
	 xmlns="http://www.w3.org/2000/svg" xmlns:xlink="http://www.w3.org/1999/xlink"
	 x="0px" y="0px" width="16px" height="16px" viewBox="0 0 16 16" enable-background="new 0 0 16 16" xml:space="preserve">
<defs>
</defs>
<g>
	<rect fill="#00A99D" width="16" height="16"/>
	<path fill="#FFFFFF" d="M13,0h-1.5v0.75H13V0L13,0z M10,0H8.5v0.75H10V0L10,0z M7,0H5.5v0.75H7V0L7,0z M4,0H2.5v0.75H4V0L4,0z M1,0
		H0v0.75h1V0L1,0z M0.75,2H0v1.5h0.75V2L0.75,2z M0.75,5H0v1.5h0.75V5L0.75,5z M0.75,8H0v1.5h0.75V8L0.75,8z M0.75,11H0v1.5h0.75V11
		L0.75,11z M0.75,14H0v1.5h0.75V14L0.75,14z M2.5,15.25H1V16h1.5V15.25L2.5,15.25z M5.5,15.25H4V16h1.5V15.25L5.5,15.25z M8.5,15.25
		H7V16h1.5V15.25L8.5,15.25z M11.5,15.25H10V16h1.5V15.25L11.5,15.25z M14.5,15.25H13V16h1.5V15.25L14.5,15.25z M16,14.5h-0.75V16
		H16V14.5L16,14.5z M16,11.5h-0.75V13H16V11.5L16,11.5z M16,8.5h-0.75V10H16V8.5L16,8.5z M16,5.5h-0.75V7H16V5.5L16,5.5z M16,2.5
		h-0.75V4H16V2.5L16,2.5z M16,0h-1.5v0.75h0.75V1H16V0L16,0z"/>
</g>
<path d="M2.646,3.487v1.225H1.516V3.745c0-0.523,0.063-0.902,0.188-1.137C1.867,2.296,2.127,2.06,2.482,1.899L2.74,2.31
	c-0.215,0.09-0.373,0.224-0.475,0.401s-0.158,0.437-0.17,0.776H2.646z M4.463,3.487v1.225H3.332V3.745
	c0-0.523,0.063-0.902,0.188-1.137C3.684,2.296,3.942,2.06,4.299,1.899l0.258,0.41c-0.216,0.09-0.374,0.224-0.475,0.401
	c-0.103,0.178-0.158,0.437-0.17,0.776H4.463z"/>
<path d="M5.115,8.101V6.899h1.201v1.201H5.115z"/>
<path d="M7.449,8.101V6.899H8.65v1.201H7.449z"/>
<path d="M9.783,8.101V6.899h1.201v1.201H9.783z"/>
<path d="M11.537,3.183V1.958h1.131v0.967c0,0.523-0.061,0.9-0.182,1.131c-0.168,0.316-0.43,0.555-0.785,0.715l-0.258-0.416
	c0.211-0.086,0.368-0.222,0.472-0.407s0.161-0.44,0.173-0.765H11.537z M13.354,3.183V1.958h1.131v0.967
	c0,0.523-0.061,0.9-0.182,1.131c-0.168,0.316-0.43,0.555-0.785,0.715L13.26,4.354c0.211-0.086,0.368-0.222,0.472-0.407
	s0.161-0.44,0.173-0.765H13.354z"/>
<path d="M6,14.01l-3-1.648v-0.913l3-1.64v1.074l-2.645,1.012L6,12.942V14.01z"/>
<path d="M7.007,14.734l1.37-6h0.795l-1.384,6H7.007z"/>
<path d="M10,14.014v-1.067l2.65-1.041L10,10.875v-1.06l3,1.642v0.904L10,14.014z"/>
</svg>
