<?xml version="1.0" encoding="utf-8"?>
<svg version="1.1"
	 xmlns="http://www.w3.org/2000/svg" xmlns:xlink="http://www.w3.org/1999/xlink"
	 x="0px" y="0px" width="16px" height="16px" viewBox="0 0 16 16" enable-background="new 0 0 16 16" xml:space="preserve">
<defs>
</defs>
<g>
	<path fill="#3FA9F5" d="M1.077,13.625c-0.387,0-0.702-0.354-0.702-0.791V1.167c0-0.437,0.315-0.792,0.702-0.792h9.693
		c0.387,0,0.701,0.355,0.701,0.792v11.667c0,0.437-0.314,0.791-0.701,0.791H1.077z"/>
	<path fill="#FFFFFF" d="M10.77,0.75c0.177,0,0.326,0.191,0.326,0.417v11.667c0,0.226-0.149,0.416-0.326,0.416H1.077
		c-0.177,0-0.327-0.19-0.327-0.416V1.167c0-0.226,0.149-0.417,0.327-0.417H10.77 M10.77,0H1.077C0.483,0,0,0.522,0,1.167v11.667
		C0,13.479,0.483,14,1.077,14h9.693c0.595,0,1.076-0.521,1.076-1.166V1.167C11.846,0.522,11.364,0,10.77,0L10.77,0z"/>
</g>
<g>
	<path fill="#E6E6E6" d="M12.499,15.625c-1.723,0-3.124-1.402-3.124-3.126c0-1.723,1.401-3.124,3.124-3.124
		c1.724,0,3.126,1.401,3.126,3.124C15.625,14.223,14.223,15.625,12.499,15.625z"/>
	<path fill="#FFFFFF" d="M12.499,9.75c1.517,0,2.751,1.233,2.751,2.749c0,1.517-1.234,2.751-2.751,2.751
		c-1.516,0-2.749-1.234-2.749-2.751C9.75,10.983,10.983,9.75,12.499,9.75 M12.499,9C10.566,9,9,10.566,9,12.499
		C9,14.433,10.566,16,12.499,16C14.434,16,16,14.433,16,12.499C16,10.566,14.434,9,12.499,9L12.499,9z"/>
</g>
<line fill="none" stroke="#333333" stroke-width="0.75" stroke-linecap="round" stroke-miterlimit="10" x1="10.555" y1="12.499" x2="14.445" y2="12.499"/>
</svg>
