<?xml version="1.0" encoding="utf-8"?>
<svg version="1.1"
	 xmlns="http://www.w3.org/2000/svg" xmlns:xlink="http://www.w3.org/1999/xlink"
	 x="0px" y="0px" width="16px" height="16px" viewBox="0 0 16 16" enable-background="new 0 0 16 16" xml:space="preserve">
<defs>
</defs>
<g>
	<polygon fill="#FCEE21" points="7.036,12.848 5.297,14.523 5.253,12.11 3.007,12.992 3.89,10.746 1.476,10.702 3.152,8.965 
		0.938,8 3.152,7.035 1.476,5.298 3.89,5.254 3.007,3.007 5.253,3.89 5.297,1.476 7.035,3.152 8,0.939 8.963,3.152 10.701,1.476 
		10.745,3.89 12.992,3.007 12.11,5.254 14.523,5.298 12.848,7.036 15.062,8 12.848,8.964 14.523,10.702 12.11,10.746 12.992,12.993 
		10.745,12.11 10.701,14.523 8.963,12.848 8,15.061 	"/>
	<path fill="#FFFFFF" d="M8,1.878l0.405,0.929l0.431,0.99l0.777-0.75l0.729-0.704l0.019,1.014l0.02,1.079l1.005-0.395l0.944-0.371
		l-0.371,0.944l-0.395,1.004l1.079,0.02l1.014,0.019l-0.704,0.729l-0.749,0.777l0.989,0.431L14.122,8l-0.93,0.405l-0.989,0.431
		l0.749,0.777l0.704,0.729l-1.014,0.019l-1.079,0.02l0.395,1.005l0.371,0.943l-0.944-0.371l-1.005-0.395l-0.02,1.079l-0.019,1.014
		l-0.729-0.704l-0.777-0.749l-0.431,0.989L8,14.122l-0.405-0.93l-0.431-0.989l-0.777,0.749l-0.73,0.704l-0.019-1.014l-0.02-1.079
		l-1.004,0.395L3.67,12.329l0.371-0.943l0.395-1.005l-1.079-0.02l-1.013-0.019l0.704-0.729l0.749-0.777L2.807,8.405L1.877,8
		l0.93-0.405l0.989-0.431L3.047,6.387L2.344,5.657l1.013-0.019l1.079-0.02L4.042,4.614L3.67,3.671l0.943,0.371l1.004,0.395
		l0.02-1.079l0.019-1.014l0.73,0.704l0.777,0.749l0.431-0.989L8,1.878 M8,0L6.907,2.507L4.938,0.609l-0.05,2.735L2.343,2.343
		l1,2.546l-2.734,0.05l1.898,1.969L0,8l2.507,1.093l-1.898,1.969l2.734,0.05l-1,2.545l2.545-1l0.05,2.734l1.969-1.898L8,16
		l1.092-2.508l1.969,1.898l0.05-2.734l2.546,1l-1-2.545l2.734-0.05l-1.898-1.969L16,8l-2.508-1.093l1.898-1.969l-2.734-0.05l1-2.546
		L11.11,3.344l-0.05-2.735L9.092,2.507L8,0L8,0z"/>
</g>
<g>
	<path fill="#E6E6E6" d="M12.499,15.625c-1.723,0-3.124-1.402-3.124-3.126c0-1.723,1.401-3.124,3.124-3.124
		c1.724,0,3.126,1.401,3.126,3.124C15.625,14.223,14.223,15.625,12.499,15.625z"/>
	<path fill="#FFFFFF" d="M12.499,9.75c1.517,0,2.751,1.233,2.751,2.749c0,1.517-1.234,2.751-2.751,2.751
		c-1.516,0-2.749-1.234-2.749-2.751C9.75,10.983,10.983,9.75,12.499,9.75 M12.499,9C10.566,9,9,10.566,9,12.499
		C9,14.433,10.566,16,12.499,16C14.434,16,16,14.433,16,12.499C16,10.566,14.434,9,12.499,9L12.499,9z"/>
</g>
<polyline fill="none" stroke="#333333" stroke-width="0.75" stroke-linecap="round" stroke-miterlimit="10" points="14.316,12.269 
	12.596,10.515 10.809,12.269 "/>
<line fill="none" stroke="#333333" stroke-width="0.75" stroke-linecap="round" stroke-miterlimit="10" x1="12.596" y1="10.589" x2="12.595" y2="14.479"/>
</svg>
