<?xml version="1.0" encoding="utf-8"?>
<svg version="1.1"
	 xmlns="http://www.w3.org/2000/svg" xmlns:xlink="http://www.w3.org/1999/xlink"
	 x="0px" y="0px" width="16px" height="16px" viewBox="0 0 16 16" enable-background="new 0 0 16 16" xml:space="preserve">
<defs>
</defs>
<rect display="none" fill="#4D4D4D" width="16" height="16"/>
<polyline fill="none" stroke="#FFFFFF" stroke-width="0.75" stroke-linecap="round" stroke-miterlimit="10" points="1.959,3.143 
	5.689,14.96 8.23,3.405 13.453,3.405 "/>
<g>
	<circle fill="#0071BC" cx="2.001" cy="3.3" r="1.125"/>
	<path fill="#FFFFFF" d="M2.001,2.55c0.413,0,0.749,0.337,0.749,0.752c0,0.413-0.336,0.749-0.749,0.749
		c-0.415,0-0.751-0.336-0.751-0.749C1.25,2.887,1.587,2.55,2.001,2.55 M2.001,1.8C1.172,1.8,0.5,2.472,0.5,3.302
		C0.5,4.128,1.172,4.8,2.001,4.8C2.83,4.8,3.5,4.128,3.5,3.302C3.5,2.472,2.83,1.8,2.001,1.8L2.001,1.8z"/>
</g>
<g>
	<circle fill="#0071BC" cx="8.256" cy="3.3" r="1.125"/>
	<path fill="#FFFFFF" d="M8.256,2.55c0.415,0,0.752,0.337,0.752,0.752c0,0.413-0.337,0.749-0.752,0.749
		c-0.413,0-0.748-0.336-0.748-0.749C7.508,2.887,7.843,2.55,8.256,2.55 M8.256,1.8c-0.828,0-1.498,0.672-1.498,1.502
		c0,0.827,0.67,1.499,1.498,1.499c0.832,0,1.502-0.672,1.502-1.499C9.758,2.472,9.088,1.8,8.256,1.8L8.256,1.8z"/>
</g>
<g>
	<circle fill="#0071BC" cx="13.256" cy="3.299" r="1.124"/>
	<path fill="#FFFFFF" d="M13.256,2.55c0.415,0,0.752,0.336,0.752,0.75c0,0.412-0.337,0.748-0.752,0.748
		c-0.412,0-0.748-0.335-0.748-0.748C12.508,2.886,12.844,2.55,13.256,2.55 M13.256,1.8c-0.828,0-1.498,0.671-1.498,1.5
		c0,0.826,0.67,1.498,1.498,1.498c0.834,0,1.502-0.671,1.502-1.498C14.758,2.471,14.09,1.8,13.256,1.8L13.256,1.8z"/>
</g>
<g>
	<path fill="#E6E6E6" d="M12.5,15.625c-1.723,0-3.125-1.402-3.125-3.125s1.402-3.125,3.125-3.125s3.125,1.402,3.125,3.125
		S14.223,15.625,12.5,15.625z"/>
	<path fill="#FFFFFF" d="M12.5,9.75c1.517,0,2.75,1.233,2.75,2.75s-1.233,2.75-2.75,2.75s-2.75-1.233-2.75-2.75
		S10.983,9.75,12.5,9.75 M12.5,9C10.565,9,9,10.565,9,12.5c0,1.934,1.565,3.5,3.5,3.5s3.5-1.566,3.5-3.5C16,10.565,14.435,9,12.5,9
		L12.5,9z"/>
</g>
<line fill="#333333" stroke="#333333" stroke-width="0.75" stroke-linecap="round" stroke-miterlimit="10" x1="12.498" y1="10.553" x2="12.498" y2="14.447"/>
<line fill="#333333" stroke="#333333" stroke-width="0.75" stroke-linecap="round" stroke-miterlimit="10" x1="10.555" y1="12.5" x2="14.445" y2="12.5"/>
</svg>
