<?xml version="1.0" encoding="utf-8"?>
<svg version="1.1"
	 xmlns="http://www.w3.org/2000/svg" xmlns:xlink="http://www.w3.org/1999/xlink"
	 x="0px" y="0px" width="16px" height="16px" viewBox="0 0 16 16" enable-background="new 0 0 16 16" xml:space="preserve">
<defs>
</defs>
<rect display="none" fill="#4D4D4D" width="16" height="16"/>
<polyline fill="none" stroke="#FFFFFF" stroke-width="0.75" stroke-linecap="round" stroke-miterlimit="10" points="1.69,1.819 
	5.844,14.977 8.673,2.112 14.488,2.112 "/>
<g>
	<path fill="#662D91" d="M2.002,3.375c-0.759,0-1.377-0.616-1.377-1.373c0-0.759,0.618-1.377,1.377-1.377
		c0.757,0,1.373,0.618,1.373,1.377C3.375,2.759,2.759,3.375,2.002,3.375z"/>
	<path fill="#FFFFFF" d="M2.002,1C2.552,1,3,1.45,3,2.002C3,2.552,2.552,3,2.002,3C1.45,3,1,2.552,1,2.002C1,1.45,1.45,1,2.002,1
		 M2.002,0.25c-0.969,0-1.752,0.783-1.752,1.752c0,0.963,0.783,1.748,1.752,1.748c0.966,0,1.748-0.785,1.748-1.748
		C3.75,1.033,2.968,0.25,2.002,0.25L2.002,0.25z"/>
</g>
<g>
	<path fill="#662D91" d="M8.979,3.375c-0.756,0-1.372-0.616-1.372-1.373c0-0.759,0.615-1.377,1.372-1.377
		c0.761,0,1.379,0.618,1.379,1.377C10.357,2.759,9.739,3.375,8.979,3.375z"/>
	<path fill="#FFFFFF" d="M8.979,1c0.554,0,1.004,0.45,1.004,1.002C9.982,2.552,9.532,3,8.979,3C8.429,3,7.982,2.552,7.982,2.002
		C7.982,1.45,8.429,1,8.979,1 M8.979,0.25c-0.964,0-1.747,0.783-1.747,1.752c0,0.963,0.783,1.748,1.747,1.748
		c0.973,0,1.754-0.785,1.754-1.748C10.732,1.033,9.951,0.25,8.979,0.25L8.979,0.25z"/>
</g>
<g>
	<path fill="#662D91" d="M13.634,3.375c-0.759,0-1.377-0.616-1.377-1.373c0-0.759,0.618-1.377,1.377-1.377
		c0.757,0,1.373,0.618,1.373,1.377C15.007,2.759,14.391,3.375,13.634,3.375z"/>
	<path fill="#FFFFFF" d="M13.634,1c0.551,0,0.998,0.45,0.998,1.002c0,0.55-0.447,0.998-0.998,0.998
		c-0.553,0-1.002-0.448-1.002-0.998C12.632,1.45,13.081,1,13.634,1 M13.634,0.25c-0.968,0-1.752,0.783-1.752,1.752
		c0,0.963,0.784,1.748,1.752,1.748s1.748-0.785,1.748-1.748C15.382,1.033,14.602,0.25,13.634,0.25L13.634,0.25z"/>
</g>
<path fill="#333333" d="M15.236,14.346c0.056,0.727-0.28,1.027-0.991,0.947H9.48c-0.779,0.063-1.07-0.34-0.952-0.947v-2.838
	c-0.088-0.639,0.165-1.021,0.952-0.947h4.765c0.727-0.09,1.071,0.25,0.991,0.947V14.346z"/>
<path fill="none" stroke="#FFFFFF" stroke-width="0.75" stroke-miterlimit="10" d="M8.121,11.678v-0.5c0-0.553,0.447-1,0.999-1h1.5"
	/>
<path fill="none" stroke="#FFFFFF" stroke-width="0.75" stroke-miterlimit="10" d="M15.62,11.678v-0.5c0-0.553-0.447-1-1-1h-1.5"/>
<path fill="none" stroke="#FFFFFF" stroke-width="0.75" stroke-miterlimit="10" d="M10.62,15.678h-1.5c-0.552,0-0.999-0.447-0.999-1
	v-0.5"/>
<path fill="none" stroke="#FFFFFF" stroke-width="0.75" stroke-miterlimit="10" d="M15.62,14.178v0.5c0,0.553-0.447,1-1,1h-1.5"/>
<circle fill="#FFFFFF" stroke="#FFFFFF" stroke-width="0.75" stroke-miterlimit="10" cx="11.87" cy="12.928" r="1.283"/>
</svg>
