<?xml version="1.0" encoding="utf-8"?>
<svg version="1.1"
	 xmlns="http://www.w3.org/2000/svg" xmlns:xlink="http://www.w3.org/1999/xlink"
	 x="0px" y="0px" width="16px" height="16px" viewBox="0.125 -1.294 16 16" enable-background="new 0.125 -1.294 16 16"
	 xml:space="preserve">
<defs>
</defs>
<g>
	<path fill="#E6E6E6" d="M12.625,14.331c-1.723,0-3.125-1.402-3.125-3.125s1.402-3.125,3.125-3.125s3.125,1.402,3.125,3.125
		S14.348,14.331,12.625,14.331z"/>
	<path fill="#FFFFFF" d="M12.625,8.456c1.517,0,2.75,1.233,2.75,2.75s-1.233,2.75-2.75,2.75s-2.75-1.233-2.75-2.75
		S11.108,8.456,12.625,8.456 M12.625,7.706c-1.935,0-3.5,1.565-3.5,3.5c0,1.934,1.565,3.5,3.5,3.5s3.5-1.566,3.5-3.5
		C16.125,9.271,14.56,7.706,12.625,7.706L12.625,7.706z"/>
</g>
<line fill="#333333" stroke="#333333" stroke-width="0.75" stroke-linecap="round" stroke-miterlimit="10" x1="12.623" y1="9.258" x2="12.623" y2="13.153"/>
<line fill="#333333" stroke="#333333" stroke-width="0.75" stroke-linecap="round" stroke-miterlimit="10" x1="10.68" y1="11.206" x2="14.57" y2="11.206"/>
<path fill="#0071BC" stroke="#FFFFFF" stroke-width="0.75" stroke-linecap="round" stroke-miterlimit="10" d="M0.779,4.413
	c2.19,0.585,4.208,0.394,4.107,7.933c-0.02,1.12,3.653-4.098,6.782-6.076c3.33-2.099,5.005-2.442,3.835-3.613
	c-1.01-1.019-2.442-3.128-9.002-1.917C4.291,1.143,1,2.879,0.728,3.111C0.274,3.495,0.224,4.261,0.779,4.413
	C2.969,4.998,0.224,4.261,0.779,4.413C2.969,4.998,0.224,4.261,0.779,4.413z"/>
<path fill="#0071BC" stroke="#FFFFFF" stroke-width="0.5" stroke-linecap="round" stroke-miterlimit="10" d="M4.089,1.718
	c0,0,2.765,2.352,3.038,3.532c0.272,1.191-0.142,5.146-0.162,5.207"/>
<path fill="#0071BC" stroke="#FFFFFF" stroke-width="0.5" stroke-linecap="round" stroke-miterlimit="10" d="M7.752,0.83
	c0,0,1.767,1.322,2.402,3.078C10.477,4.796,10.073,7.4,10.073,7.4"/>
<path fill="#0071BC" stroke="#FFFFFF" stroke-width="0.5" stroke-linecap="round" stroke-miterlimit="10" d="M11.647,0.578
	c0,0,0.959,1.362,1.302,2.553c0.344,1.19-0.02,2.402-0.02,2.402"/>
</svg>
