<?xml version="1.0" encoding="utf-8"?>
<svg version="1.1"
	 xmlns="http://www.w3.org/2000/svg" xmlns:xlink="http://www.w3.org/1999/xlink"
	 x="0px" y="0px" width="16px" height="16px" viewBox="0 -1.064 16 16" enable-background="new 0 -1.064 16 16"
	 xml:space="preserve">
<defs>
</defs>
<g>
	<path fill="#29ABE2" d="M12.073,5.882H1.533c-0.638,0-1.158-0.515-1.158-1.147V1.524c0-0.633,0.52-1.149,1.158-1.149h10.726
		c0.639,0,1.158,0.516,1.158,1.149v2.871l0.079,4.187L12.073,5.882z"/>
	<path fill="#FFFFFF" d="M12.259,0.75c0.432,0,0.783,0.347,0.783,0.774v2.885l0.05,2.601L12.51,5.907l-0.211-0.4h-0.452H1.533
		c-0.432,0-0.783-0.347-0.783-0.772V1.524c0-0.427,0.351-0.774,0.783-0.774H12.259 M12.259,0H1.533C0.686,0,0,0.682,0,1.524v3.211
		c0,0.841,0.686,1.522,1.533,1.522h10.314l2.055,3.895l-0.109-5.758V1.524C13.792,0.682,13.107,0,12.259,0L12.259,0z"/>
</g>
<line fill="none" stroke="#FFFFFF" stroke-width="0.5" stroke-miterlimit="10" x1="2.486" y1="3.093" x2="10.486" y2="3.093"/>
<g>
	<path fill="#E6E6E6" d="M12.5,14.561c-1.723,0-3.125-1.402-3.125-3.125s1.402-3.125,3.125-3.125s3.125,1.402,3.125,3.125
		S14.223,14.561,12.5,14.561z"/>
	<path fill="#FFFFFF" d="M12.5,8.686c1.517,0,2.75,1.233,2.75,2.75s-1.233,2.75-2.75,2.75s-2.75-1.233-2.75-2.75
		S10.983,8.686,12.5,8.686 M12.5,7.936c-1.935,0-3.5,1.565-3.5,3.5c0,1.934,1.565,3.5,3.5,3.5s3.5-1.566,3.5-3.5
		C16,9.501,14.435,7.936,12.5,7.936L12.5,7.936z"/>
</g>
<line fill="#333333" stroke="#333333" stroke-width="0.75" stroke-linecap="round" stroke-miterlimit="10" x1="12.498" y1="9.488" x2="12.498" y2="13.383"/>
<line fill="#333333" stroke="#333333" stroke-width="0.75" stroke-linecap="round" stroke-miterlimit="10" x1="10.555" y1="11.436" x2="14.445" y2="11.436"/>
</svg>
