<?xml version="1.0" encoding="utf-8"?>
<svg version="1.1"
	 xmlns="http://www.w3.org/2000/svg" xmlns:xlink="http://www.w3.org/1999/xlink"
	 x="0px" y="0px" width="16px" height="16px" viewBox="-0.29 -0.194 16 16" enable-background="new -0.29 -0.194 16 16"
	 xml:space="preserve">
<defs>
</defs>
<path fill="#662D91" stroke="#FFFFFF" stroke-width="0.75" stroke-miterlimit="10" d="M3.308,8.595
	C6.454,7.189,6.8,6.845,7.634,5.211c0.83-1.632,0.929-5.277,4.389-4.792c2.928,0.409,4.353,5.627,1.888,6.788
	c-2.458,1.16-5.137-0.038-6.136,2.724c-1.595,4.417-4.861,5.855-6.356,4.989C-0.433,13.845,0.168,9.998,3.308,8.595z"/>
<g>
	<path fill="#C09AE2" d="M3.253,13.375c-0.116,0-0.231-0.014-0.345-0.043c-0.624-0.164-0.805-0.629-0.848-0.988
		c-0.105-0.887,0.523-2.225,1.893-2.955c0.23-0.123,0.46-0.242,0.688-0.359c1.822-0.94,3.542-1.828,4.526-4.338
		C9.226,4.54,9.282,4.328,9.348,4.081c0.324-1.229,0.708-2.333,1.835-2.333c0.121,0,0.249,0.012,0.387,0.038
		c1.383,0.258,2.087,1.615,2.156,2.767c0.045,0.736-0.175,1.563-0.765,1.749c-0.469,0.148-1.069,0.232-1.706,0.322
		C9.728,6.839,7.997,7.083,7.442,8.37C6.092,11.503,4.526,13.375,3.253,13.375z"/>
	<path fill="#FFFFFF" d="M11.183,2.123L11.183,2.123c0.099,0,0.205,0.011,0.318,0.032c1.185,0.221,1.789,1.41,1.851,2.421
		c0.041,0.688-0.17,1.264-0.504,1.369c-0.438,0.138-1.024,0.221-1.645,0.308C10.15,6.401,9.007,6.562,8.158,7.06
		c0.529-0.585,0.995-1.305,1.358-2.232c0.071-0.181,0.128-0.398,0.194-0.65C10.062,2.845,10.399,2.123,11.183,2.123 M7.283,7.874
		c-0.07,0.108-0.132,0.224-0.186,0.348C5.828,11.169,4.354,13,3.253,13c-0.085,0-0.167-0.01-0.25-0.031
		c-0.218-0.057-0.513-0.189-0.57-0.67c-0.091-0.773,0.519-1.949,1.697-2.58c0.229-0.123,0.457-0.24,0.683-0.357
		C5.653,8.929,6.506,8.488,7.283,7.874 M11.183,1.373c-1.854,0-2.069,2.425-2.365,3.181C7.764,7.242,5.792,7.98,3.776,9.056
		c-2.307,1.234-2.845,4.145-0.963,4.637c0.146,0.039,0.293,0.057,0.44,0.057c1.623,0,3.259-2.273,4.534-5.231
		c0.678-1.574,3.652-1.344,5.287-1.859c1.724-0.543,1.321-4.728-1.435-5.242C11.477,1.387,11.325,1.373,11.183,1.373L11.183,1.373z"
		/>
</g>
</svg>
