<?xml version="1.0" encoding="utf-8"?>
<svg version="1.1"
	 xmlns="http://www.w3.org/2000/svg" xmlns:xlink="http://www.w3.org/1999/xlink"
	 x="0px" y="0px" width="16px" height="16px" viewBox="0 0 16 16" enable-background="new 0 0 16 16" xml:space="preserve">
<defs>
</defs>
<g>
	<rect x="0.375" y="0.375" fill="#666666" width="15.25" height="15.25"/>
	<path fill="#FFFFFF" d="M15.25,0.75v14.5H0.75V0.75H15.25 M16,0H0v16h16V0L16,0z"/>
</g>
<g>
	<circle fill="#EED303" cx="6.744" cy="6.969" r="4.003"/>
	<g>
		<path fill="#FFFFFF" d="M6.746,2.215c-0.394,0-0.788,0.049-1.172,0.147c-0.192,0.049-0.383,0.11-0.566,0.182l0.273,0.698
			c0.13-0.051,0.265-0.096,0.402-0.133h0c0.005-0.001,0.01-0.003,0.015-0.004h0c0,0,0.001,0,0.002-0.001c0,0,0,0,0,0
			C5.706,3.103,5.71,3.102,5.714,3.101c0,0,0.001,0,0.001,0c0.001,0,0.001,0,0.002,0c0,0,0,0,0.001,0c0.001,0,0.001,0,0.002,0
			c0,0,0,0,0.001,0c0.001,0,0.003-0.001,0.005-0.001l0,0c0,0,0.001,0,0.002-0.001c0,0,0,0,0.001,0c0,0,0.001,0,0.002,0
			c0,0,0.001,0,0.001,0c0.001,0,0.001,0,0.002,0s0.001,0,0.002,0s0.001,0,0.001,0c0.001,0,0.002,0,0.003-0.001c0,0,0.001,0,0.001,0
			c0,0,0.001,0,0.002,0c0,0,0.001,0,0.001,0c0.001,0,0.001,0,0.002-0.001c0,0,0.001,0,0.001,0c0,0,0.001,0,0.002-0.001
			c0,0,0.001,0,0.001,0c0.001,0,0.002,0,0.003-0.001l0,0C6.089,3.005,6.42,2.965,6.746,2.965V2.215L6.746,2.215z M3.507,3.488
			c-0.437,0.407-0.79,0.887-1.048,1.426l0.676,0.325c0.216-0.45,0.515-0.859,0.883-1.202L3.507,3.488L3.507,3.488z M2.003,6.625
			C1.966,7.133,2.011,7.643,2.138,8.14c0.021,0.083,0.044,0.164,0.069,0.244l0.716-0.223C2.917,8.144,2.913,8.127,2.907,8.11
			c0,0,0,0,0,0C2.894,8.063,2.88,8.016,2.868,7.969c0,0,0-0.001,0-0.001c0,0,0-0.001,0-0.002s0-0.002-0.001-0.004
			c0,0,0-0.001,0-0.001c0-0.001,0-0.003-0.001-0.004l0,0c0-0.001-0.001-0.003-0.001-0.004c0,0,0,0,0-0.001
			c0-0.001,0-0.003-0.001-0.004c0,0,0,0,0-0.001c0-0.001-0.001-0.002-0.001-0.004v0c0-0.001,0-0.003-0.001-0.004
			c0,0,0-0.001,0-0.001c0-0.003-0.001-0.006-0.002-0.009c0,0,0,0,0,0c0-0.001,0-0.003-0.001-0.005c0,0,0,0,0,0
			c0-0.001-0.001-0.002-0.001-0.004c0,0,0,0,0-0.001c0-0.001,0-0.003-0.001-0.004v0C2.853,7.906,2.852,7.903,2.851,7.9l0,0
			c0-0.002-0.001-0.003-0.001-0.005v0c0-0.001-0.001-0.003-0.001-0.004v0c0-0.001,0-0.003-0.001-0.004c0,0,0,0,0-0.001
			C2.847,7.881,2.846,7.878,2.845,7.875v0c-0.001-0.003-0.001-0.006-0.002-0.01l0,0c0-0.002,0-0.003-0.001-0.005c0,0,0,0,0,0
			C2.84,7.851,2.838,7.843,2.836,7.834l0,0C2.772,7.547,2.741,7.259,2.741,6.975c0,0,0,0,0,0c0-0.003,0-0.006,0-0.01l0,0
			c0-0.002,0-0.003,0-0.005l0,0c0-0.003,0-0.006,0-0.01v0c0-0.001,0-0.003,0-0.004l0,0c0-0.002,0-0.003,0-0.005v0
			c0-0.001,0-0.003,0-0.004c0,0,0,0,0-0.001c0-0.001,0-0.002,0-0.004v0c0-0.001,0-0.003,0-0.004c0,0,0-0.001,0-0.001
			c0-0.001,0-0.002,0-0.004c0,0,0-0.001,0-0.001c0-0.001,0-0.002,0-0.003c0,0,0-0.001,0-0.002c0-0.001,0-0.002,0-0.003
			c0,0,0-0.001,0-0.002c0-0.001,0-0.001,0-0.002c0,0,0-0.001,0-0.001c0-0.001,0-0.002,0-0.004c0,0,0-0.001,0-0.001
			c0-0.001,0-0.002,0-0.003s0-0.002,0-0.003c0,0,0-0.001,0-0.002c0-0.001,0-0.001,0-0.002s0-0.002,0-0.003c0,0,0-0.001,0-0.002
			s0-0.001,0-0.002c0-0.001,0-0.002,0-0.003c0,0,0-0.001,0-0.002s0-0.001,0-0.002c0,0,0-0.001,0-0.001c0-0.001,0-0.003,0-0.004
			c0,0,0,0,0-0.001c0-0.003,0-0.006,0-0.009c0,0,0,0,0,0c0-0.003,0-0.006,0-0.009v0c0.002-0.057,0.004-0.113,0.009-0.17L2.003,6.625
			L2.003,6.625z M3.624,9.477L3.04,9.947c0.374,0.465,0.827,0.851,1.347,1.147l0.372-0.651c-0.243-0.139-0.472-0.303-0.682-0.49
			c0,0,0,0,0,0C4.076,9.952,4.075,9.951,4.073,9.949h0C4.072,9.948,4.07,9.946,4.069,9.945c0,0,0,0,0,0
			c-0.007-0.007-0.014-0.013-0.021-0.02l0,0C4.045,9.925,4.044,9.923,4.043,9.922c0,0,0,0,0,0C4.041,9.921,4.04,9.919,4.039,9.918
			c0,0,0,0,0,0C4.032,9.913,4.027,9.907,4.021,9.902c0,0,0,0,0-0.001C4.02,9.9,4.018,9.899,4.017,9.898c0,0,0-0.001-0.001-0.001
			C4.015,9.896,4.014,9.896,4.013,9.895l0-0.001C4.011,9.893,4.01,9.892,4.009,9.891c0,0,0-0.001-0.001-0.001
			C4.002,9.885,3.997,9.88,3.991,9.874h0C3.989,9.872,3.988,9.871,3.987,9.87c0,0,0,0-0.001-0.001
			C3.985,9.868,3.984,9.867,3.983,9.866c0,0,0,0,0-0.001C3.981,9.864,3.98,9.863,3.979,9.862c0,0,0,0,0-0.001
			C3.974,9.857,3.97,9.854,3.966,9.85c0,0,0,0,0,0C3.964,9.849,3.963,9.848,3.961,9.846h0C3.96,9.844,3.958,9.843,3.958,9.842
			c0,0,0,0-0.001-0.001C3.956,9.84,3.955,9.839,3.953,9.838c0,0,0,0,0-0.001C3.952,9.836,3.95,9.835,3.949,9.834
			c0,0,0-0.001,0-0.001C3.946,9.83,3.943,9.828,3.94,9.825l0,0C3.939,9.824,3.938,9.822,3.936,9.821c0,0,0,0,0-0.001
			C3.935,9.819,3.934,9.818,3.932,9.817c0,0,0-0.001-0.001-0.001C3.93,9.815,3.929,9.814,3.928,9.813c0,0,0-0.001-0.001-0.001
			C3.926,9.812,3.925,9.811,3.924,9.81c0-0.001-0.001-0.001-0.001-0.001C3.922,9.808,3.921,9.806,3.92,9.805c0,0,0,0,0,0
			C3.917,9.802,3.914,9.799,3.911,9.797c0-0.001,0-0.001,0-0.001C3.91,9.795,3.908,9.794,3.907,9.793c0-0.001,0-0.001-0.001-0.002
			C3.905,9.79,3.904,9.789,3.903,9.788c0,0-0.001,0-0.001-0.001C3.901,9.786,3.9,9.785,3.899,9.784c0,0-0.001,0-0.001-0.001
			C3.897,9.782,3.896,9.781,3.895,9.78c0,0,0-0.001-0.001-0.001C3.893,9.778,3.892,9.777,3.891,9.775c0,0,0,0,0,0
			C3.888,9.772,3.885,9.77,3.882,9.768c0-0.001,0-0.001-0.001-0.001C3.88,9.766,3.879,9.765,3.878,9.764
			c0-0.001,0-0.001-0.001-0.001C3.876,9.762,3.875,9.761,3.875,9.76c0-0.001-0.001-0.001-0.001-0.002
			C3.873,9.757,3.872,9.756,3.871,9.755c0,0-0.001,0-0.001-0.001C3.868,9.753,3.868,9.752,3.867,9.751c0,0-0.001-0.001-0.001-0.001
			C3.863,9.747,3.86,9.744,3.858,9.742c0,0,0-0.001-0.001-0.001C3.856,9.74,3.855,9.739,3.854,9.738
			c0-0.001-0.001-0.001-0.001-0.001C3.852,9.736,3.851,9.734,3.85,9.733c0,0-0.001,0-0.001-0.001
			C3.848,9.731,3.847,9.73,3.846,9.729c0,0-0.001-0.001-0.001-0.001C3.844,9.728,3.843,9.727,3.842,9.726
			c0,0-0.001-0.001-0.001-0.001C3.84,9.724,3.839,9.723,3.838,9.721c0,0,0,0,0,0C3.834,9.718,3.832,9.715,3.829,9.712c0,0,0,0,0,0
			C3.828,9.711,3.827,9.709,3.826,9.708c0,0-0.001-0.001-0.001-0.001C3.824,9.706,3.823,9.705,3.822,9.704
			c0,0-0.001-0.001-0.001-0.001C3.82,9.702,3.819,9.701,3.818,9.7c0-0.001-0.001-0.001-0.001-0.001
			C3.816,9.697,3.815,9.696,3.814,9.695c0,0-0.001,0-0.001-0.001C3.812,9.693,3.811,9.692,3.81,9.691l0-0.001
			C3.808,9.689,3.807,9.688,3.805,9.687l0,0C3.804,9.685,3.803,9.684,3.801,9.683c0-0.001,0-0.001-0.001-0.001
			C3.799,9.68,3.798,9.679,3.797,9.678c0,0,0,0-0.001-0.001C3.795,9.676,3.794,9.675,3.793,9.674c0,0,0-0.001-0.001-0.001
			C3.792,9.672,3.791,9.671,3.79,9.67S3.789,9.669,3.789,9.669C3.788,9.667,3.787,9.666,3.786,9.665c0,0,0,0,0-0.001
			C3.782,9.662,3.78,9.659,3.777,9.656l0-0.001C3.776,9.654,3.774,9.653,3.773,9.652c0-0.001,0-0.001-0.001-0.002
			C3.771,9.649,3.771,9.648,3.77,9.647c0,0-0.001-0.001-0.001-0.001C3.768,9.646,3.767,9.645,3.766,9.644
			c0-0.001-0.001-0.001-0.001-0.001C3.764,9.642,3.763,9.641,3.762,9.64c0-0.001-0.001-0.001-0.001-0.002
			C3.76,9.637,3.759,9.636,3.758,9.635c0,0,0-0.001,0-0.001C3.755,9.631,3.752,9.628,3.75,9.625c0,0,0,0-0.001,0
			C3.748,9.624,3.747,9.622,3.746,9.621c0,0,0-0.001-0.001-0.001C3.744,9.619,3.743,9.618,3.742,9.617c0-0.001,0-0.001-0.001-0.001
			C3.74,9.615,3.739,9.613,3.739,9.612c0,0-0.001,0-0.001-0.001C3.736,9.61,3.736,9.609,3.734,9.608l0-0.001
			C3.733,9.606,3.731,9.604,3.73,9.604c0,0,0,0,0,0C3.728,9.601,3.725,9.598,3.723,9.595c0-0.001,0-0.001,0-0.001
			C3.721,9.593,3.72,9.592,3.719,9.59c0,0,0,0,0-0.001C3.717,9.588,3.716,9.587,3.715,9.586c0,0-0.001-0.001-0.001-0.001
			C3.713,9.584,3.712,9.583,3.711,9.581c0,0,0,0-0.001,0C3.709,9.579,3.708,9.578,3.708,9.577c0,0,0-0.001,0-0.001
			C3.703,9.572,3.699,9.567,3.696,9.563c0,0,0-0.001-0.001-0.001C3.694,9.562,3.693,9.561,3.692,9.559c0,0,0,0,0-0.001
			C3.69,9.557,3.689,9.556,3.688,9.555c0,0,0-0.001-0.001-0.001C3.687,9.553,3.686,9.552,3.685,9.55c0,0,0,0-0.001-0.001
			C3.683,9.548,3.682,9.547,3.681,9.545c0,0,0,0,0,0C3.678,9.542,3.675,9.539,3.673,9.536h0C3.671,9.534,3.67,9.533,3.669,9.532
			c0-0.001,0-0.001,0-0.001C3.667,9.529,3.667,9.528,3.666,9.527c0,0,0-0.001-0.001-0.001C3.664,9.525,3.663,9.524,3.662,9.522h0
			C3.66,9.521,3.659,9.52,3.658,9.519c0-0.001,0-0.001,0-0.001C3.652,9.512,3.647,9.506,3.643,9.5c0,0,0-0.001,0-0.001
			C3.641,9.498,3.64,9.497,3.639,9.495c0,0,0,0,0,0C3.637,9.493,3.636,9.492,3.635,9.491c0-0.001,0-0.001,0-0.001
			C3.634,9.489,3.632,9.487,3.631,9.486l0,0C3.629,9.482,3.626,9.479,3.624,9.477L3.624,9.477z M7.659,10.865
			c-0.246,0.058-0.491,0.091-0.735,0.103l0,0c-0.001,0-0.002,0-0.003,0l0,0c-0.001,0-0.002,0-0.003,0h0c-0.001,0-0.002,0-0.003,0
			c0,0,0,0-0.001,0c-0.001,0-0.002,0-0.002,0s0,0-0.001,0c-0.001,0-0.002,0.001-0.003,0.001h0c-0.001,0-0.002,0-0.003,0c0,0,0,0,0,0
			c-0.007,0-0.014,0-0.021,0.001l0,0c-0.001,0-0.002,0-0.003,0c0,0,0,0-0.001,0c-0.001,0-0.002,0-0.003,0c0,0,0,0-0.001,0
			s-0.001,0-0.002,0c0,0,0,0-0.001,0c-0.001,0-0.002,0-0.002,0s-0.001,0-0.001,0c-0.001,0-0.002,0-0.003,0c0,0,0,0-0.001,0
			c-0.001,0-0.001,0-0.002,0c0,0-0.001,0-0.001,0s-0.001,0-0.002,0s-0.001,0-0.002,0s-0.001,0-0.002,0s-0.001,0-0.001,0
			c0,0.001-0.001,0.001-0.002,0.001c0,0,0,0-0.001,0c-0.001,0-0.001,0-0.002,0l0,0c-0.003,0-0.007,0-0.01,0c0,0-0.001,0-0.001,0
			c-0.001,0-0.001,0-0.002,0c0,0-0.001,0-0.001,0s-0.001,0-0.002,0s-0.001,0-0.002,0c0,0-0.001,0-0.001,0c-0.001,0-0.001,0-0.002,0
			s-0.001,0-0.002,0s-0.001,0-0.002,0c0,0-0.001,0-0.002,0c0,0-0.001,0-0.001,0s-0.001,0-0.002,0s-0.001,0-0.002,0s-0.001,0-0.002,0
			c0,0-0.001,0-0.001,0c-0.001,0-0.001,0-0.002,0s-0.001,0.001-0.002,0.001s-0.001,0-0.002,0c0,0-0.001,0-0.002,0
			c0,0-0.001,0-0.001,0c-0.001,0-0.001,0-0.002,0c0,0-0.001,0-0.001,0c-0.001,0-0.002,0-0.003,0c0,0,0,0,0,0
			c-0.001,0-0.002,0-0.004,0c0,0-0.001,0-0.001,0c-0.001,0-0.002,0-0.003,0c0,0,0,0-0.001,0c-0.001,0-0.001,0-0.002,0
			c0,0-0.001,0-0.001,0c-0.001,0-0.001,0-0.002,0c0,0-0.001,0-0.001,0s-0.001,0-0.002,0s-0.001,0-0.002,0c0,0-0.001,0-0.002,0
			c0,0-0.001,0-0.001,0s-0.001,0-0.002,0s-0.001,0-0.002,0s-0.001,0-0.002,0c0,0-0.001,0-0.001,0c-0.001,0-0.001,0-0.002,0
			c0,0-0.001,0-0.001,0s-0.001,0-0.002,0s-0.001,0-0.001,0c-0.001,0-0.001,0-0.002,0c0,0-0.001,0-0.001,0c-0.001,0-0.001,0-0.002,0
			c0,0-0.001,0-0.001,0c-0.001,0-0.003,0-0.004,0l0,0l0,0c-0.001,0-0.003,0-0.005,0c0,0-0.001,0-0.002,0c-0.001,0-0.002,0-0.003,0
			s-0.001,0-0.002,0c-0.001,0-0.002,0-0.003,0s-0.001,0-0.002,0c-0.001,0-0.002,0-0.003,0c0,0-0.001,0-0.002,0s-0.002,0-0.003,0
			c0,0-0.001,0-0.002,0s-0.002,0-0.003,0c0,0-0.001,0-0.001,0c-0.001,0-0.003,0-0.005,0c0,0,0,0-0.001,0c-0.001,0-0.002,0-0.004,0
			c0,0-0.001,0-0.002,0s-0.002,0-0.003,0c0,0-0.001,0-0.002,0c-0.001,0-0.002,0-0.003,0c0,0-0.001,0-0.002,0
			c-0.001,0-0.002,0-0.003,0s-0.001,0-0.002,0c-0.001,0-0.002,0-0.003,0c0,0-0.001,0-0.001,0c-0.003-0.001-0.007-0.001-0.01-0.001
			c0,0-0.001,0-0.002,0c-0.001,0-0.002,0-0.003,0s-0.001,0-0.002,0c0,0-0.001,0-0.002,0s-0.001,0-0.002,0s-0.002,0-0.002,0
			c-0.001,0-0.001,0-0.002,0s-0.002,0-0.003,0c0,0-0.001,0-0.002,0s-0.002,0-0.003,0c0,0-0.001,0-0.001,0c-0.001,0-0.003,0-0.005,0
			c0,0-0.001,0-0.001,0c-0.001,0-0.002,0-0.003-0.001c0,0-0.001,0-0.002,0s-0.002,0-0.003,0c0,0-0.001,0-0.002,0
			c-0.001,0-0.002,0-0.003,0c0,0-0.001,0-0.002,0c-0.001,0-0.002,0-0.003,0c0,0-0.001,0-0.002,0c-0.001,0-0.002,0-0.003,0
			c0,0-0.001,0-0.001,0c-0.001,0-0.003,0-0.005,0c0,0-0.001,0-0.001,0c-0.001,0-0.002,0-0.003-0.001c0,0-0.001,0-0.002,0
			c-0.001,0-0.002,0-0.003,0c0,0-0.001,0-0.002,0c-0.001,0-0.002,0-0.003,0c0,0-0.001,0-0.002,0c0,0-0.001,0-0.002,0
			s-0.001,0-0.002,0s-0.002,0-0.002,0c-0.001,0-0.001,0-0.002,0s-0.002,0-0.003-0.001c-0.001,0-0.002,0-0.003,0
			c-0.001,0-0.002,0-0.003,0s-0.002,0-0.002,0c-0.001,0-0.001,0-0.002,0s-0.001,0-0.002,0s-0.001,0-0.002,0s-0.002,0-0.002,0
			c-0.001,0-0.001,0-0.002,0c-0.001-0.001-0.001-0.001-0.002-0.001s-0.002,0-0.002,0c-0.001,0-0.001,0-0.002,0s-0.002,0-0.003,0
			c0,0-0.001,0-0.002,0c-0.001,0-0.003,0-0.004,0c0,0-0.001,0-0.002,0s-0.001-0.001-0.002-0.001s-0.002,0-0.002,0
			c-0.001,0-0.002,0-0.002,0c-0.001,0-0.002,0-0.002,0c-0.001,0-0.002,0-0.002,0c-0.001,0-0.001,0-0.002,0s-0.002,0-0.002,0
			c-0.001,0-0.001,0-0.002-0.001c-0.001,0-0.001,0-0.002,0s-0.002,0-0.002,0c-0.001,0-0.002,0-0.002,0c-0.001,0-0.002,0-0.003,0
			c-0.001,0-0.002,0-0.004,0c0,0-0.001,0-0.002-0.001c-0.001,0-0.002,0-0.002,0c-0.001,0-0.002,0-0.002,0c-0.001,0-0.002,0-0.002,0
			c-0.001,0-0.002,0-0.002,0c-0.001,0-0.002,0-0.002,0c-0.001,0-0.002,0-0.002,0c-0.001-0.001-0.002-0.001-0.002-0.001
			c-0.001,0-0.002,0-0.002,0c-0.001,0-0.002,0-0.003,0c0,0-0.001,0-0.002,0c-0.001,0-0.003,0-0.005,0c0,0-0.001-0.001-0.001-0.001
			c-0.001,0-0.002,0-0.003,0c0,0-0.001,0-0.002,0s-0.002,0-0.003,0c0,0-0.001,0-0.002,0c-0.001,0-0.002,0-0.003,0
			c0-0.001-0.001-0.001-0.002-0.001s-0.002,0-0.003,0c0,0-0.001,0-0.002,0c-0.001,0-0.002,0-0.003,0c0,0-0.001,0-0.002,0
			c-0.001,0-0.002-0.001-0.003-0.001s-0.001,0-0.002,0c-0.001,0-0.003,0-0.004,0c0,0-0.001,0-0.001,0c-0.001,0-0.002,0-0.003-0.001
			c-0.001,0-0.001,0-0.002,0s-0.002,0-0.002,0c-0.001,0-0.001,0-0.002,0s-0.002,0-0.003,0c0,0-0.001,0-0.002,0
			c-0.001-0.001-0.002-0.001-0.003-0.001c0,0-0.001,0-0.002,0c-0.001,0-0.002,0-0.003,0c0,0-0.001,0-0.002,0
			c-0.001,0-0.003-0.001-0.004-0.001c0,0-0.001,0-0.002,0c-0.001,0-0.002,0-0.003,0s-0.001,0-0.002,0
			c-0.001,0-0.002-0.001-0.003-0.001s-0.001,0-0.002,0c-0.001,0-0.002,0-0.003,0s-0.001,0-0.002,0c-0.001,0-0.002,0-0.003-0.001
			c0,0-0.001,0-0.001,0c-0.001,0-0.002,0-0.004,0c0,0,0,0-0.001,0c-0.003,0-0.007-0.001-0.01-0.001c0,0-0.001,0-0.001,0
			c-0.001,0-0.003,0-0.004-0.001c0,0,0,0-0.001,0c-0.001,0-0.002,0-0.004,0c0,0,0,0-0.001,0c-0.001,0-0.003,0-0.004-0.001
			c0,0-0.001,0-0.001,0c-0.001,0-0.003,0-0.004,0h0c-0.005-0.001-0.01-0.001-0.016-0.002l0,0c-0.001,0-0.003,0-0.005,0c0,0,0,0,0,0
			c-0.001-0.001-0.003-0.001-0.005-0.001l0,0c-0.051-0.005-0.102-0.012-0.153-0.02l-0.108,0.742c0.225,0.033,0.455,0.05,0.682,0.05
			c0.364,0,0.73-0.043,1.087-0.126L7.659,10.865L7.659,10.865z M10.067,9.197c-0.008,0.013-0.017,0.025-0.025,0.038v0.001
			C10.04,9.237,10.04,9.239,10.038,9.24c0,0,0,0,0,0.001c-0.001,0.001-0.002,0.002-0.003,0.004c0,0,0,0,0,0.001
			c-0.001,0.001-0.002,0.002-0.003,0.004c0,0-0.001,0-0.001,0.001c-0.001,0.001-0.002,0.002-0.003,0.004c0,0,0,0,0,0.001
			c-0.001,0.001-0.002,0.002-0.003,0.003c0,0.001,0,0.001-0.001,0.002s-0.001,0.002-0.002,0.003s-0.001,0.001-0.001,0.002
			c-0.001,0.001-0.002,0.002-0.003,0.003c0,0.001,0,0.001-0.001,0.002s-0.001,0.002-0.002,0.003c0,0-0.001,0.001-0.001,0.002
			c-0.001,0.001-0.002,0.002-0.003,0.003c0,0,0,0.001-0.001,0.002s-0.001,0.002-0.002,0.003c0,0-0.001,0.001-0.001,0.002
			c-0.001,0-0.002,0.001-0.002,0.002c-0.001,0.001-0.001,0.002-0.002,0.003c0,0-0.001,0.001-0.001,0.002
			c-0.001,0.001-0.002,0.002-0.002,0.002C10,9.295,10,9.296,9.999,9.297S9.998,9.299,9.997,9.299c0,0.001-0.001,0.002-0.001,0.002
			C9.995,9.302,9.994,9.303,9.994,9.304C9.993,9.305,9.993,9.306,9.992,9.306c0,0.001-0.001,0.002-0.002,0.004
			c0,0-0.001,0-0.001,0.001C9.988,9.312,9.987,9.313,9.986,9.314c0,0,0,0-0.001,0.001S9.984,9.317,9.983,9.319
			c-0.001,0-0.001,0-0.001,0C9.981,9.321,9.98,9.322,9.979,9.324c0,0,0,0-0.001,0C9.978,9.326,9.977,9.327,9.976,9.329l0,0
			C9.975,9.331,9.974,9.332,9.973,9.334c-0.001,0-0.001,0-0.001,0c-0.176,0.241-0.379,0.463-0.606,0.66l0,0
			C9.363,9.995,9.362,9.996,9.36,9.998l0,0c-0.001,0.001-0.003,0.003-0.004,0.004c-0.001,0-0.001,0-0.001,0
			c-0.001,0.001-0.002,0.003-0.004,0.004c0,0,0,0-0.001,0.001s-0.002,0.002-0.003,0.003c-0.001,0-0.001,0-0.001,0.001
			c-0.002,0.001-0.003,0.002-0.004,0.003c0,0-0.001,0-0.001,0.001c-0.001,0.001-0.002,0.002-0.004,0.002
			c0,0.001,0,0.001-0.001,0.002c-0.001,0-0.002,0.001-0.003,0.002s-0.001,0.001-0.002,0.002s-0.002,0.001-0.003,0.002
			c0,0.001-0.001,0.001-0.001,0.002c-0.001,0-0.002,0.001-0.003,0.002c-0.001,0-0.001,0.001-0.002,0.002
			c-0.001,0-0.002,0.001-0.002,0.001c-0.001,0.001-0.002,0.002-0.003,0.003l-0.001,0.001c-0.002,0.001-0.003,0.002-0.004,0.003
			l-0.001,0.001c-0.001,0.001-0.002,0.002-0.003,0.003c-0.001,0-0.001,0-0.002,0.001s-0.002,0.002-0.003,0.003
			c0,0-0.001,0-0.001,0.001C9.302,10.048,9.301,10.049,9.3,10.05H9.299c-0.001,0.002-0.002,0.002-0.004,0.003
			c0,0.001,0,0.001,0,0.001c-0.002,0.001-0.003,0.002-0.004,0.003S9.29,10.058,9.29,10.058c-0.001,0.001-0.003,0.002-0.004,0.003
			c0,0,0,0.001-0.001,0.001c-0.001,0.001-0.002,0.002-0.004,0.003l0,0c-0.084,0.069-0.17,0.134-0.259,0.196l0.427,0.616
			c0.49-0.34,0.908-0.765,1.241-1.262L10.067,9.197L10.067,9.197z M11.436,6.216l-0.74,0.12c0.045,0.278,0.06,0.556,0.047,0.829l0,0
			c-0.001,0.014-0.002,0.027-0.003,0.04c0,0,0,0,0,0c0,0.001,0,0.004,0,0.005v0c0,0.002,0,0.004,0,0.006c0,0,0,0,0,0
			c0,0.001-0.001,0.004-0.001,0.005v0c0,0.002,0,0.004,0,0.006l0,0c-0.001,0.011-0.002,0.022-0.002,0.034v0
			c-0.001,0.001-0.001,0.003-0.001,0.005v0c0,0.002,0,0.004,0,0.006c0,0,0,0,0,0c-0.001,0.009-0.002,0.018-0.003,0.027l0,0
			c0,0.002,0,0.004,0,0.006v0c0,0.002-0.001,0.003-0.001,0.005c0,0,0,0,0,0.001c0,0.001,0,0.003,0,0.005c0,0,0,0.001,0,0.001
			c0,0.002-0.001,0.003-0.001,0.005c0,0,0,0.001,0,0.001c0,0.001,0,0.003,0,0.005c0,0,0,0,0,0.001
			c-0.001,0.001-0.001,0.003-0.001,0.005c0,0,0,0,0,0.001c0,0.002,0,0.003-0.001,0.005v0c0,0.002,0,0.004,0,0.006v0
			c0,0.001,0,0.002,0,0.003l0,0c-0.001,0.002-0.001,0.004-0.001,0.006c0,0,0,0.001,0,0.001c0,0.002,0,0.003-0.001,0.005
			c0,0,0,0.001,0,0.001c0,0.002,0,0.003,0,0.005c0,0,0,0.001,0,0.001c-0.001,0.001-0.001,0.003-0.001,0.004c0,0,0,0.001,0,0.002
			c0,0.001,0,0.002,0,0.004c-0.001,0-0.001,0.001-0.001,0.001c0,0.001,0,0.003,0,0.004c0,0,0,0.001,0,0.002
			c0,0.001-0.001,0.003-0.001,0.004s0,0.001,0,0.002c0,0.001,0,0.002,0,0.003s-0.001,0.002-0.001,0.003s0,0.002,0,0.003
			s0,0.002,0,0.003s0,0.002-0.001,0.003c0,0,0,0.001,0,0.002s0,0.002,0,0.003c0,0,0,0.001-0.001,0.002c0,0.001,0,0.002,0,0.004
			c0,0,0,0.001,0,0.002c0,0.001,0,0.002-0.001,0.004c0,0,0,0.001,0,0.002c0,0.001,0,0.002,0,0.004c0,0-0.001,0.001-0.001,0.002
			c0,0.001,0,0.002,0,0.004c0,0,0,0.001,0,0.002c0,0.001-0.001,0.002-0.001,0.003s0,0.001,0,0.002s0,0.002,0,0.003
			c-0.001,0-0.001,0.001-0.001,0.002s0,0.002,0,0.002c0,0.001,0,0.002-0.001,0.003c0,0.001,0,0.002,0,0.002c0,0.001,0,0.002,0,0.003
			s0,0.002-0.001,0.002c0,0.001,0,0.002,0,0.004c0,0,0,0.001,0,0.002c0,0.001-0.001,0.002-0.001,0.003s0,0.002,0,0.003
			s0,0.002,0,0.003c-0.001,0.001-0.001,0.002-0.001,0.003s0,0.002,0,0.003s-0.001,0.001-0.001,0.002s0,0.002,0,0.003
			c0,0,0,0.001,0,0.002c-0.001,0.001-0.001,0.002-0.001,0.003s0,0.001,0,0.002s0,0.002-0.001,0.003c0,0.001,0,0.001,0,0.002
			c0,0.001,0,0.003,0,0.004c-0.001,0.001-0.001,0.001-0.001,0.002c0,0.001,0,0.003,0,0.004s0,0.001-0.001,0.002
			c0,0.001,0,0.003,0,0.004c0,0,0,0.001,0,0.001c-0.001,0.001-0.001,0.002-0.001,0.004c0,0.001,0,0.001,0,0.002
			c0,0.001-0.001,0.003-0.001,0.004c0,0,0,0,0,0.001c0,0.001,0,0.003-0.001,0.004c0,0,0,0.001,0,0.001c0,0.001,0,0.003-0.001,0.004
			c0,0,0,0.001,0,0.001c0,0.001,0,0.003,0,0.004c0,0,0,0.001-0.001,0.001c0,0.001,0,0.003,0,0.004c0,0,0,0,0,0.001
			c-0.001,0.001-0.001,0.003-0.001,0.005c0,0,0,0,0,0.001c-0.001,0.001-0.001,0.003-0.001,0.005c0,0,0,0,0,0.001
			c0,0.001-0.001,0.003-0.001,0.004c0,0,0,0.001,0,0.001c0,0.002-0.001,0.003-0.001,0.005c0,0,0,0,0,0.001
			c0,0.001-0.001,0.003-0.001,0.005c0,0,0,0,0,0.001c0,0.001,0,0.003-0.001,0.005v0c0,0.002,0,0.003-0.001,0.005c0,0,0,0,0,0
			c0,0.001,0,0.003-0.001,0.005c0,0,0,0,0,0c0,0.001,0,0.003-0.001,0.005c0,0,0,0,0,0c0,0.001,0,0.003,0,0.005
			c-0.001,0-0.001,0-0.001,0c0,0.002,0,0.004,0,0.005l-0.001,0c0,0.002,0,0.003,0,0.005v0c-0.001,0.001-0.001,0.003-0.001,0.005
			c0,0,0,0,0,0C10.69,7.636,10.69,7.638,10.69,7.639c0,0,0,0,0,0c-0.001,0.002-0.001,0.003-0.001,0.005v0
			c-0.011,0.061-0.022,0.121-0.036,0.181l0.732,0.161C11.515,7.403,11.531,6.807,11.436,6.216L11.436,6.216z M9.666,3.221
			L9.205,3.813c0.391,0.304,0.727,0.682,0.985,1.12l0.646-0.381C10.532,4.037,10.139,3.589,9.666,3.221L9.666,3.221z M6.746,2.215
			L6.746,2.215v0.75l0,0c0.002,0,0.003,0,0.005,0c0,0,0,0,0.001,0c0.001,0,0.002,0,0.004,0c0,0,0.001,0,0.001,0
			c0.001,0,0.002,0,0.003,0c0,0,0.001,0,0.001,0c0.001,0,0.002,0,0.004,0c0,0,0,0,0.001,0c0.001,0,0.003,0,0.004,0h0
			c0.379,0.002,0.751,0.06,1.106,0.165l0.213-0.719C7.655,2.281,7.202,2.215,6.746,2.215L6.746,2.215z"/>
	</g>
</g>
<rect x="10.223" y="9.638" transform="matrix(0.8174 -0.5761 0.5761 0.8174 -4.9028 8.6348)" fill="#FFFFFF" width="1.89" height="4.825"/>
<g>
	<polygon fill="#333333" points="7.002,6.478 13.156,10.66 10.38,12.719 9.201,13.587 	"/>
	<path fill="#FFFFFF" d="M7.677,7.389l4.832,3.284l-0.753,0.557l-1.598,1.187l-0.755,0.557L7.677,7.389 M6.328,5.565l2.671,8.637
		l1.605-1.183l1.6-1.188l1.602-1.185L6.328,5.565L6.328,5.565z"/>
</g>
</svg>
