<?xml version="1.0" encoding="utf-8"?>
<svg version="1.1"
	 xmlns="http://www.w3.org/2000/svg" xmlns:xlink="http://www.w3.org/1999/xlink"
	 x="0px" y="0px" width="16px" height="16px" viewBox="0.161 0 16 16" enable-background="new 0.161 0 16 16" xml:space="preserve">
<defs>
</defs>
<line fill="none" stroke="#B3B3B3" stroke-width="0.75" stroke-miterlimit="10" x1="4.286" y1="3.641" x2="4.286" y2="15.615"/>
<line fill="none" stroke="#B3B3B3" stroke-width="0.75" stroke-miterlimit="10" x1="12.518" y1="11.873" x2="0.544" y2="11.873"/>
<line fill="none" stroke="#B3B3B3" stroke-width="0.75" stroke-miterlimit="10" x1="12.518" y1="7.383" x2="0.544" y2="7.383"/>
<line fill="none" stroke="#B3B3B3" stroke-width="0.75" stroke-miterlimit="10" x1="8.776" y1="3.641" x2="8.776" y2="15.615"/>
<line fill="none" stroke="#FFFFFF" stroke-width="0.75" stroke-miterlimit="10" x1="1.936" y1="5.183" x2="7.071" y2="16"/>
<line fill="none" stroke="#FFFFFF" stroke-width="0.75" stroke-miterlimit="10" x1="12.903" y1="9.089" x2="2.086" y2="14.225"/>
<line fill="none" stroke="#FFFFFF" stroke-width="0.75" stroke-miterlimit="10" x1="10.977" y1="5.032" x2="0.161" y2="10.167"/>
<line fill="none" stroke="#FFFFFF" stroke-width="0.75" stroke-miterlimit="10" x1="5.992" y1="3.257" x2="11.127" y2="14.074"/>
<g>
	<path fill="#39B54A" d="M4.708,13.008c-0.204-0.916-0.683-3.959,1.491-5.562c1.006-0.742,2.082-1.119,3.2-1.119
		c1.466,0,2.633,0.646,3.125,0.969l-0.327,0.588c-0.462-0.167-1.362-0.441-2.313-0.441c-1.258,0-2.216,0.487-2.772,1.409
		c-0.76,1.26-0.428,3.243-0.215,4.155H4.708z"/>
	<path fill="#FFFFFF" d="M9.399,6.703c1.123,0,2.068,0.415,2.619,0.726c-0.526-0.167-1.313-0.36-2.135-0.36
		c-1.396,0-2.466,0.55-3.094,1.591c-0.72,1.194-0.563,2.902-0.359,3.973H5.015c-0.196-1.085-0.4-3.553,1.406-4.885
		C7.361,7.055,8.363,6.703,9.399,6.703 M9.399,5.953c-1.035,0-2.213,0.299-3.423,1.192c-2.815,2.076-1.561,6.238-1.561,6.238h2.967
		c0,0-0.866-2.816,0.05-4.336c0.574-0.951,1.531-1.228,2.451-1.228c1.277,0,2.482,0.535,2.482,0.535l0.648-1.168
		C13.014,7.186,11.5,5.953,9.399,5.953L9.399,5.953z"/>
</g>
<g>
	<polygon fill="#39B54A" points="3.663,12.926 8.004,12.926 5.833,15.428 	"/>
	<path fill="#FFFFFF" d="M7.182,13.301l-1.349,1.555l-1.349-1.555h0.351H6.83H7.182 M8.826,12.551H6.83H4.835H2.841L5.833,16
		L8.826,12.551L8.826,12.551z"/>
</g>
<path fill="#D9E021" d="M15.098,6.28c0.278,0.193,0.461,0.314,0.546,0.364c0.128,0.072,0.3,0.156,0.517,0.251l-0.62,1.249
	c-0.312-0.151-0.619-0.33-0.925-0.539c-0.305-0.208-0.518-0.365-0.639-0.47c-0.492,0.213-1.108,0.32-1.85,0.32
	c-1.095,0-1.959-0.285-2.592-0.856C8.789,5.924,8.415,4.975,8.415,3.752c0-1.187,0.327-2.109,0.981-2.767
	C10.05,0.329,10.963,0,12.137,0c1.197,0,2.121,0.321,2.772,0.964c0.649,0.643,0.976,1.563,0.976,2.759
	C15.885,4.789,15.623,5.641,15.098,6.28z M13.391,5.139c0.178-0.318,0.266-0.793,0.266-1.426c0-0.728-0.134-1.248-0.404-1.559
	c-0.271-0.311-0.645-0.467-1.12-0.467c-0.442,0-0.802,0.159-1.077,0.477c-0.275,0.318-0.412,0.814-0.412,1.49
	c0,0.787,0.134,1.339,0.402,1.658c0.27,0.318,0.638,0.477,1.106,0.477c0.151,0,0.294-0.015,0.429-0.044
	c-0.188-0.18-0.482-0.351-0.886-0.512l0.35-0.801c0.196,0.036,0.35,0.08,0.46,0.133c0.109,0.052,0.323,0.19,0.642,0.413
	C13.221,5.029,13.303,5.083,13.391,5.139z"/>
</svg>
