<?xml version="1.0" encoding="utf-8"?>
<svg version="1.1"
	 xmlns="http://www.w3.org/2000/svg" xmlns:xlink="http://www.w3.org/1999/xlink"
	 x="0px" y="0px" width="16px" height="16px" viewBox="0 0 16 16" enable-background="new 0 0 16 16" xml:space="preserve">
<defs>
</defs>
<g>
	<path fill="#00A99D" d="M5.08,15.625c-0.262,0-0.511-0.062-0.686-0.167c-0.113-0.068-0.183-0.149-0.183-0.212L4.213,3.175
		c0-0.132,0.332-0.378,0.872-0.378c0.405,0,0.684,0.137,0.801,0.254C5.917,3.083,5.955,3.13,5.954,3.176L5.95,15.246
		C5.95,15.379,5.619,15.625,5.08,15.625z"/>
	<path fill="#FFFFFF" d="M5.087,3.172c0.242,0,0.413,0.063,0.492,0.112L5.575,15.138c-0.079,0.049-0.25,0.112-0.494,0.112
		c-0.243,0-0.415-0.064-0.494-0.113L4.588,3.286c0.079-0.049,0.251-0.114,0.497-0.114H5.087 M5.087,2.422c-0.001,0-0.002,0-0.003,0
		c-0.689,0-1.245,0.337-1.247,0.753l-0.001,12.07C3.835,15.663,4.393,15.999,5.08,16c0.69,0,1.245-0.336,1.245-0.754L6.329,3.178
		C6.332,2.76,5.775,2.422,5.087,2.422L5.087,2.422z"/>
</g>
<g>
	<polygon fill="#00A99D" points="0.375,5.67 0.375,0.375 10.896,0.375 15.275,3.022 10.896,5.67 	"/>
	<path fill="#FFFFFF" d="M10.791,0.75l3.76,2.272l-3.76,2.273H0.75V0.75H10.791 M11,0H0v6.045h11l5-3.023L11,0L11,0z"/>
</g>
<g>
	<path fill="#ED1C24" d="M10.354,9.063c-1.701,0-3.085-1.384-3.085-3.084c0-1.701,1.384-3.085,3.085-3.085s3.085,1.384,3.085,3.085
		C13.438,7.679,12.055,9.063,10.354,9.063z"/>
	<path fill="#FFFFFF" d="M10.354,3.268c1.494,0,2.71,1.216,2.71,2.71s-1.216,2.709-2.71,2.709s-2.71-1.215-2.71-2.709
		S8.859,3.268,10.354,3.268 M10.354,2.518c-1.911,0-3.46,1.549-3.46,3.46s1.549,3.459,3.46,3.459c1.911,0,3.46-1.549,3.46-3.459
		S12.265,2.518,10.354,2.518L10.354,2.518z"/>
</g>
</svg>
