<?xml version="1.0" encoding="utf-8"?>
<svg version="1.1"
	 xmlns="http://www.w3.org/2000/svg" xmlns:xlink="http://www.w3.org/1999/xlink"
	 x="0px" y="0px" width="16px" height="16px" viewBox="-2.5 -2.5 16 16" enable-background="new -2.5 -2.5 16 16"
	 xml:space="preserve">
<defs>
</defs>
<g>
	<rect fill="#CCCCCC" width="11" height="11"/>
	<path fill="#FFFFFF" d="M11,0H9.5v0.75h0.75V2H11V0L11,0z M8,0H6.5v0.75H8V0L8,0z M5,0H3.5v0.75H5V0L5,0z M2,0H0.5v0.75H2V0L2,0z
		 M0.75,1H0v1.5h0.75V1L0.75,1z M0.75,4H0v1.5h0.75V4L0.75,4z M0.75,7H0v1.5h0.75V7L0.75,7z M0.75,10H0v1h0.75l0,0l0,0l0,0V10
		L0.75,10z M3.5,10.25H2V11h1.5V10.25L3.5,10.25z M6.5,10.25H5V11h1.5V10.25L6.5,10.25z M9.5,10.25H8V11h1.5V10.25L9.5,10.25z
		 M11,9.5h-0.75V11H11V9.5L11,9.5z M11,6.5h-0.75V8H11V6.5L11,6.5z M11,3.5h-0.75V5H11V3.5L11,3.5z"/>
</g>
<g>
	<path fill="#E6E6E6" d="M9.999,13.125c-1.723,0-3.124-1.402-3.124-3.126c0-1.723,1.401-3.124,3.124-3.124
		c1.724,0,3.126,1.401,3.126,3.124C13.125,11.723,11.723,13.125,9.999,13.125z"/>
	<path fill="#FFFFFF" d="M9.999,7.25c1.517,0,2.751,1.233,2.751,2.749c0,1.517-1.234,2.751-2.751,2.751
		c-1.516,0-2.749-1.234-2.749-2.751C7.25,8.483,8.483,7.25,9.999,7.25 M9.999,6.5C8.066,6.5,6.5,8.066,6.5,9.999
		c0,1.934,1.566,3.501,3.499,3.501c1.935,0,3.501-1.567,3.501-3.501C13.5,8.066,11.934,6.5,9.999,6.5L9.999,6.5z"/>
</g>
<line fill="none" stroke="#333333" stroke-width="0.75" stroke-linecap="round" stroke-miterlimit="10" x1="8.055" y1="9.999" x2="11.945" y2="9.999"/>
</svg>
