<?xml version="1.0" encoding="utf-8"?>
<svg version="1.1"
	 xmlns="http://www.w3.org/2000/svg" xmlns:xlink="http://www.w3.org/1999/xlink"
	 x="0px" y="0px" width="16px" height="16px" viewBox="-0.758 -0.043 16 16" enable-background="new -0.758 -0.043 16 16"
	 xml:space="preserve">
<defs>
</defs>
<path fill="#CFB5E5" stroke="#FFFFFF" stroke-width="0.75" stroke-miterlimit="10" d="M4.747,9.227
	c1.793,1.465,2.105,1.571,3.337,1.579c1.233,0.007,3.451-1.034,4.207,1.191c0.636,1.883-2.07,4.312-3.511,3.183
	c-1.438-1.129-1.528-3.1-3.488-2.866c-3.136,0.375-4.984-1.154-4.915-2.315C0.462,8.562,2.957,7.763,4.747,9.227z"/>
<path fill="#662D91" stroke="#FFFFFF" stroke-width="0.75" stroke-miterlimit="10" d="M1.934,7.059
	c1.848-1.397,2.023-1.676,2.322-2.873c0.296-1.194-0.192-3.597,2.149-3.805c1.979-0.176,3.703,3.026,2.265,4.161
	C7.233,5.675,5.298,5.296,5.063,7.256c-0.375,3.136-2.297,4.572-3.408,4.232C0.279,11.065,0.089,8.454,1.934,7.059z"/>
<path fill="none" stroke="#FFFFFF" stroke-width="0.5" stroke-miterlimit="10" d="M9.879,4.389c2.058,0.756,3.09,3.096,2.305,5.23"
	/>
<polygon stroke="#FFFFFF" stroke-width="0.5" stroke-miterlimit="10" points="12.852,8.854 13.85,9.198 11.732,10.477 10.853,8.165 
	11.838,8.504 "/>
</svg>
