<?xml version="1.0" encoding="utf-8"?>
<svg version="1.1"
	 xmlns="http://www.w3.org/2000/svg" xmlns:xlink="http://www.w3.org/1999/xlink"
	 x="0px" y="0px" width="16px" height="16px" viewBox="0 0 16 16" enable-background="new 0 0 16 16" xml:space="preserve">
<defs>
</defs>
<rect display="none" fill="#666666" width="16" height="16"/>
<g>
	<path fill="#C09AE2" d="M0.753,13.75c0,0,2.824,2.316,4.791,1.087s3.713-0.524,5.97-1.217c1.305-0.401,1.675-6.574,2.514-8.206
		C14.81,3.895,8.24,6.8,8.24,6.8"/>
	<g>
		<path fill="none" stroke="#FFFFFF" stroke-width="0.75" stroke-miterlimit="10" d="M0.753,13.75c0,0,0.231,0.189,0.608,0.432"/>
		<path fill="none" stroke="#FFFFFF" stroke-width="0.75" stroke-miterlimit="10" stroke-dasharray="1.4743,1.4743" d="
			M2.665,14.861c0.905,0.359,1.981,0.537,2.879-0.024c1.967-1.229,3.713-0.524,5.97-1.217c1.305-0.401,1.675-6.574,2.514-8.206
			c0.55-1.067-2.529,0.049-4.409,0.807"/>
		<path fill="none" stroke="#FFFFFF" stroke-width="0.75" stroke-miterlimit="10" d="M8.929,6.505C8.507,6.682,8.24,6.8,8.24,6.8"/>
	</g>
</g>
<g>
	<path fill="#662D91" d="M1.879,14.355c-0.144,0-0.288-0.019-0.428-0.055c-0.781-0.205-1.008-0.786-1.062-1.237
		c-0.127-1.078,0.632-2.703,2.29-3.588c0.274-0.146,0.547-0.287,0.818-0.427c2.156-1.113,4.192-2.163,5.355-5.126
		c0.069-0.178,0.137-0.428,0.213-0.718c0.393-1.491,0.86-2.83,2.253-2.83c0.147,0,0.306,0.015,0.474,0.047
		c1.683,0.314,2.54,1.961,2.624,3.359c0.066,1.103-0.311,1.948-0.96,2.153c-0.564,0.178-1.282,0.279-2.042,0.386
		c-1.8,0.253-3.839,0.541-4.482,2.036C5.289,12.169,3.447,14.355,1.879,14.355z"/>
	<path fill="#FFFFFF" d="M11.317,0.75L11.317,0.75c0.126,0,0.263,0.014,0.405,0.041c1.484,0.277,2.242,1.756,2.318,3.013
		c0.054,0.897-0.233,1.626-0.699,1.773c-0.534,0.168-1.237,0.267-1.981,0.372c-1.897,0.268-4.048,0.57-4.774,2.259
		C5.029,11.822,3.27,13.98,1.879,13.98c-0.113,0-0.222-0.014-0.333-0.043c-0.469-0.123-0.726-0.423-0.784-0.918
		c-0.113-0.955,0.583-2.406,2.093-3.213c0.272-0.146,0.544-0.286,0.813-0.425c2.123-1.095,4.318-2.228,5.533-5.323
		C9.282,3.851,9.35,3.596,9.427,3.3C9.794,1.905,10.19,0.75,11.317,0.75 M11.317,0C9.11,0,8.854,2.886,8.502,3.786
		c-1.255,3.199-3.602,4.079-6,5.359c-2.746,1.467-3.386,4.933-1.146,5.519c0.174,0.046,0.349,0.067,0.523,0.067
		c1.931,0,3.88-2.705,5.396-6.226c0.805-1.873,4.346-1.6,6.292-2.212c2.052-0.646,1.572-5.626-1.707-6.239
		C11.667,0.017,11.486,0,11.317,0L11.317,0z"/>
</g>
</svg>
