<?xml version="1.0" encoding="utf-8"?>
<svg version="1.1"
	 xmlns="http://www.w3.org/2000/svg" xmlns:xlink="http://www.w3.org/1999/xlink"
	 x="0px" y="0px" width="16px" height="16px" viewBox="-2.113 0 16 16" enable-background="new -2.113 0 16 16"
	 xml:space="preserve">
<defs>
</defs>
<g>
	<polygon fill="#333333" points="1.645,9.717 6.037,2.464 7.93,3.612 3.442,10.867 0.684,13.426 	"/>
	<path fill="#FFFFFF" d="M6.164,2.979l1.249,0.757l-4.236,6.847l-1.805,1.684l0.622-2.402L6.164,2.979 M5.911,1.949L1.295,9.568
		L0,14.572l3.761-3.508L8.45,3.488L5.911,1.949L5.911,1.949z"/>
</g>
<path fill="#C39CE5" stroke="#FFFFFF" stroke-width="0.75" stroke-miterlimit="10" d="M1.72,9.705c0,0,0.305,0.672,0.646,0.861
	c0.403,0.221,1.222,0.193,1.222,0.193l3.688-5.97L5.389,3.62L1.72,9.705z"/>
<g>
	<polygon fill="#333333" points="3.307,9.806 8.935,0.515 11.509,2.075 5.765,11.357 2,14.853 	"/>
	<path fill="#FFFFFF" d="M9.062,1.03l1.93,1.169l-5.493,8.875l-2.813,2.622l0.97-3.743L9.062,1.03 M8.809,0L2.958,9.658L1.315,16
		l4.769-4.445l5.944-9.604L8.809,0L8.809,0z"/>
</g>
<path fill="#662D91" stroke="#FFFFFF" stroke-width="0.75" stroke-miterlimit="10" d="M3.406,9.833c0,0,0.476,0.848,0.909,1.088
	c0.511,0.281,1.549,0.246,1.549,0.246l4.677-7.566L8.076,2.083L3.406,9.833z"/>
</svg>
