<?xml version="1.0" encoding="utf-8"?>
<svg version="1.1"
	 xmlns="http://www.w3.org/2000/svg" xmlns:xlink="http://www.w3.org/1999/xlink"
	 x="0px" y="0px" width="16px" height="16px" viewBox="0 -0.667 16 16" enable-background="new 0 -0.667 16 16"
	 xml:space="preserve">
<defs>
</defs>
<g>
	<polygon fill="#3FA9F5" points="0.978,5.402 8,3.063 15.022,5.402 8,8.915 	"/>
	<path fill="#FFFFFF" d="M8,3.458l6.045,2.015L8,8.495L1.955,5.472L8,3.458 M8,2.667L0,5.333l8,4.001l8-4.001L8,2.667L8,2.667z"/>
</g>
<g>
	<path fill="#0E6B99" d="M8,12.958c-3.469,0-6.292-2.822-6.292-6.291c0-3.469,2.823-6.292,6.292-6.292
		c3.469,0,6.291,2.823,6.291,6.292C14.291,10.136,11.469,12.958,8,12.958z"/>
	<path fill="#FFFFFF" d="M8,0.75c3.262,0,5.916,2.654,5.916,5.917c0,3.262-2.654,5.916-5.916,5.916
		c-3.263,0-5.917-2.654-5.917-5.916C2.083,3.404,4.737,0.75,8,0.75 M8,0C4.319,0,1.333,2.985,1.333,6.667
		c0,3.681,2.986,6.666,6.667,6.666c3.682,0,6.666-2.985,6.666-6.666C14.666,2.985,11.682,0,8,0L8,0z"/>
</g>
<path fill="none" stroke="#FFFFFF" stroke-width="0.75" stroke-miterlimit="10" d="M1.62,5.714c0,0,2.284-1.93,6.38-1.904
	c4.088,0.025,6.382,1.904,6.382,1.904"/>
<path fill="none" stroke="#FFFFFF" stroke-width="0.75" stroke-miterlimit="10" d="M1.695,7.619c0,0,2.208,1.865,6.305,1.904
	c4.414,0.043,6.389-1.904,6.389-1.904"/>
<path fill="none" stroke="#FFFFFF" stroke-width="0.75" stroke-miterlimit="10" d="M7.047,0.286c0,0-1.896,2.119-1.904,6.381
	c-0.007,3.976,1.904,6.381,1.904,6.381"/>
<path fill="none" stroke="#FFFFFF" stroke-width="0.75" stroke-miterlimit="10" d="M8.953,0.286c0,0,1.885,2.299,1.904,6.381
	c0.018,4.084-1.904,6.257-1.904,6.257"/>
<g>
	<polygon fill="#3FA9F5" points="0.375,11.729 0.375,5.854 8,8.396 15.625,5.854 15.625,11.729 8,14.271 	"/>
	<path fill="#FFFFFF" d="M15.25,6.374v5.085L8,13.875l-7.25-2.416V6.374l7.013,2.338L8,8.791l0.237-0.079L15.25,6.374 M16,5.333L8,8
		L0,5.333V12l8,2.666L16,12V5.333L16,5.333z"/>
</g>
<line fill="none" stroke="#FFFFFF" stroke-width="0.75" stroke-miterlimit="10" x1="8" y1="8.167" x2="8" y2="14.393"/>
<g>
	<path fill="#E6E6E6" d="M12.498,14.958c-1.723,0-3.123-1.402-3.123-3.126c0-1.723,1.4-3.124,3.123-3.124
		c1.725,0,3.127,1.401,3.127,3.124C15.625,13.556,14.223,14.958,12.498,14.958z"/>
	<path fill="#FFFFFF" d="M12.498,9.083c1.518,0,2.752,1.233,2.752,2.749c0,1.517-1.234,2.751-2.752,2.751
		c-1.516,0-2.748-1.234-2.748-2.751C9.75,10.316,10.982,9.083,12.498,9.083 M12.498,8.333C10.566,8.333,9,9.899,9,11.832
		c0,1.934,1.567,3.501,3.499,3.501c1.936,0,3.502-1.567,3.502-3.501C16,9.899,14.434,8.333,12.498,8.333L12.498,8.333z"/>
</g>
<line fill="none" stroke="#333333" stroke-width="0.75" stroke-linecap="round" stroke-miterlimit="10" x1="10.959" y1="10.354" x2="13.918" y2="13.312"/>
<line fill="none" stroke="#333333" stroke-width="0.75" stroke-linecap="round" stroke-miterlimit="10" x1="13.918" y1="10.354" x2="10.959" y2="13.312"/>
<line fill="none" stroke="#333333" stroke-width="0.75" stroke-linecap="round" stroke-miterlimit="10" x1="12.459" y1="9.86" x2="12.459" y2="13.806"/>
<line fill="none" stroke="#333333" stroke-width="0.75" stroke-linecap="round" stroke-miterlimit="10" x1="10.527" y1="11.833" x2="14.473" y2="11.833"/>
</svg>
