<?xml version="1.0" encoding="utf-8"?>
<svg version="1.1"
	 xmlns="http://www.w3.org/2000/svg" xmlns:xlink="http://www.w3.org/1999/xlink"
	 x="0px" y="0px" width="16px" height="16px" viewBox="0 0 16 16" enable-background="new 0 0 16 16" xml:space="preserve">
<defs>
</defs>
<g>
	<path fill="#333333" d="M0.402,10.768c0.218-2.388,1.42-6.191,3.36-6.32c3.879-0.255,4.5-3.029,4.596-4.073h7.132l-3.242,10.393
		H0.402z"/>
	<path fill="#FFFFFF" d="M14.98,0.75l-3.009,9.643H0.818c0.303-2.44,1.461-5.471,2.969-5.57C7.274,4.593,8.475,2.371,8.708,0.75
		H14.98 M16,0H8c0,0,0.188,3.781-4.263,4.074C1.391,4.229,0.118,8.655,0,11.143h12.523L16,0L16,0z"/>
</g>
<line fill="#CCCCCC" stroke="#FFFFFF" stroke-width="0.75" stroke-miterlimit="10" x1="7.257" y1="3.039" x2="14.857" y2="3.039"/>
<line fill="#CCCCCC" stroke="#FFFFFF" stroke-width="0.75" stroke-miterlimit="10" x1="2.042" y1="5.811" x2="13.732" y2="5.811"/>
<line fill="#CCCCCC" stroke="#FFFFFF" stroke-width="0.75" stroke-miterlimit="10" x1="0.934" y1="8.469" x2="12.884" y2="8.469"/>
<path fill="none" stroke="#FFFFFF" stroke-width="0.75" stroke-miterlimit="10" d="M2.825,10.468c0,0,0.847-3.967,4.128-4.891
	c2.385-0.672,3.064-4.853,3.303-5.007"/>
<path fill="none" stroke="#FFFFFF" stroke-width="0.75" stroke-miterlimit="10" d="M6.344,10.892c0,0,1.543-3.851,3.172-4.776
	c0.986-0.561,2.434-4.622,2.607-5.43"/>
<line fill="#CCCCCC" stroke="#FFFFFF" stroke-width="0.75" stroke-miterlimit="10" x1="10.343" y1="10.584" x2="13.948" y2="0.57"/>
<g>
	<path fill="#333333" d="M12.5,15.625c-1.723,0-3.125-1.402-3.125-3.125s1.402-3.125,3.125-3.125s3.125,1.402,3.125,3.125
		S14.223,15.625,12.5,15.625z"/>
	<path fill="#FFFFFF" d="M12.5,9.75c1.517,0,2.75,1.233,2.75,2.75s-1.233,2.75-2.75,2.75s-2.75-1.233-2.75-2.75
		S10.983,9.75,12.5,9.75 M12.5,9C10.566,9,9,10.565,9,12.5c0,1.934,1.566,3.5,3.5,3.5c1.936,0,3.5-1.566,3.5-3.5
		C16,10.565,14.436,9,12.5,9L12.5,9z"/>
</g>
<g>
	<polygon fill="#FBB03B" points="12.281,13.047 11.657,13.349 11.948,12.714 11.325,12.501 11.948,12.286 11.657,11.652 
		12.282,11.954 12.5,11.329 12.718,11.954 13.344,11.652 13.053,12.286 13.676,12.501 13.053,12.714 13.344,13.349 12.718,13.047 
		12.5,13.672 	"/>
	<polygon fill="#FFFFFF" points="12.501,10.19 12.066,11.434 10.881,10.861 11.435,12.066 10.17,12.501 11.435,12.935 10.881,14.14 
		12.066,13.567 12.501,14.81 12.934,13.567 14.119,14.14 13.566,12.935 14.83,12.501 13.566,12.066 14.119,10.861 12.934,11.434 
		12.501,10.19 	"/>
</g>
<g>
	<polygon fill="#FFFFFF" points="12.378,12.832 12.012,13.009 12.182,12.639 11.834,12.52 12.182,12.4 12.012,12.031 12.378,12.208 
		12.5,11.856 12.623,12.208 12.989,12.031 12.819,12.4 13.167,12.52 12.819,12.64 12.989,13.009 12.623,12.831 12.5,13.184 	"/>
	<polygon fill="#FFFFFF" points="12.501,10.716 12.162,11.688 11.235,11.239 11.668,12.181 10.68,12.521 11.668,12.859 
		11.235,13.801 12.162,13.353 12.501,14.325 12.839,13.353 13.766,13.801 13.333,12.859 14.32,12.521 13.333,12.181 13.766,11.239 
		12.839,11.688 12.501,10.716 	"/>
</g>
<g>
	<polygon fill="#333333" points="12.501,11.835 12.627,12.19 12.972,12.03 12.811,12.374 13.167,12.5 12.811,12.627 12.972,12.971 
		12.627,12.81 12.501,13.166 12.375,12.81 12.03,12.971 12.191,12.627 11.836,12.5 12.191,12.374 12.03,12.03 12.375,12.19 	"/>
	<polygon fill="#333333" points="12.501,11.835 12.375,12.19 12.03,12.03 12.191,12.374 11.836,12.5 12.191,12.627 12.03,12.971 
		12.375,12.81 12.501,13.166 12.627,12.81 12.972,12.971 12.811,12.627 13.167,12.5 12.811,12.374 12.972,12.03 12.627,12.19 
		12.501,11.835 	"/>
</g>
</svg>
