<?xml version="1.0" encoding="utf-8"?>
<svg version="1.1"
	 xmlns="http://www.w3.org/2000/svg" xmlns:xlink="http://www.w3.org/1999/xlink"
	 x="0px" y="0px" width="16px" height="16px" viewBox="-0.2 0 16 16" enable-background="new -0.2 0 16 16" xml:space="preserve">
<defs>
</defs>
<g>
	<circle fill="#999999" cx="2.5" cy="7.237" r="2.124"/>
	<path fill="#FFFFFF" d="M2.5,5.488c0.965,0,1.75,0.785,1.75,1.749S3.465,8.986,2.5,8.986c-0.965,0-1.75-0.785-1.75-1.749
		S1.535,5.488,2.5,5.488 M2.5,4.738C1.12,4.738,0,5.857,0,7.237s1.12,2.499,2.5,2.499c1.38,0,2.5-1.119,2.5-2.499
		S3.88,4.738,2.5,4.738L2.5,4.738z"/>
</g>
<g>
	<path fill="#999999" d="M6.824,4.624c-1.172,0-2.126-0.953-2.126-2.124s0.954-2.125,2.126-2.125c1.171,0,2.124,0.953,2.124,2.125
		S7.995,4.624,6.824,4.624z"/>
	<path fill="#FFFFFF" d="M6.824,0.75c0.964,0,1.749,0.785,1.749,1.75c0,0.964-0.784,1.749-1.749,1.749
		c-0.965,0-1.751-0.785-1.751-1.749C5.073,1.535,5.858,0.75,6.824,0.75 M6.824,0C5.443,0,4.323,1.12,4.323,2.5
		c0,1.381,1.12,2.499,2.501,2.499c1.379,0,2.499-1.118,2.499-2.499C9.322,1.12,8.203,0,6.824,0L6.824,0z"/>
</g>
<g>
	<circle fill="#999999" cx="13.1" cy="4.049" r="2.124"/>
	<path fill="#FFFFFF" d="M13.1,2.3c0.965,0,1.75,0.785,1.75,1.75c0,0.964-0.785,1.749-1.75,1.749s-1.75-0.784-1.75-1.749
		C11.35,3.084,12.135,2.3,13.1,2.3 M13.1,1.55c-1.381,0-2.5,1.119-2.5,2.5s1.119,2.499,2.5,2.499c1.379,0,2.5-1.118,2.5-2.499
		S14.479,1.55,13.1,1.55L13.1,1.55z"/>
</g>
<g>
	<polygon fill="#662D91" points="9.275,10.209 8.438,11.046 8.438,8.639 10.845,8.638 10.008,9.475 11.095,10.562 10.361,11.296 	
		"/>
	<path fill="#FFFFFF" d="M10.24,8.888l-0.232,0.233L9.654,9.475l0.354,0.354l0.733,0.733l-0.38,0.381l-0.732-0.733L9.275,9.855
		l-0.354,0.354l-0.234,0.233V8.889L10.24,8.888 M11.448,8.388l-3.26,0v3.261l1.087-1.087l1.086,1.087l1.087-1.088l-1.087-1.087
		L11.448,8.388L11.448,8.388z"/>
</g>
<g>
	<polygon fill="#662D91" points="13.14,15.75 13.978,14.912 12.89,13.825 13.624,13.092 14.711,14.179 15.55,13.341 15.55,15.75 	
		"/>
	<path fill="#FFFFFF" d="M13.624,13.445l0.733,0.733l0.354,0.354l0.354-0.354l0.235-0.235V15.5h-1.557l0.234-0.234l0.354-0.354
		l-0.354-0.354l-0.734-0.733L13.624,13.445 M15.8,12.738l-1.089,1.087l-1.087-1.087l-1.088,1.087l1.088,1.087L12.536,16H15.8V12.738
		L15.8,12.738z"/>
</g>
<g>
	<polygon fill="#662D91" points="12.892,10.562 13.979,9.475 13.142,8.638 15.55,8.639 15.55,11.046 14.711,10.208 13.625,11.295 	
		"/>
	<path fill="#FFFFFF" d="M13.746,8.888l1.554,0v1.555l-0.235-0.235l-0.354-0.354l-0.354,0.354l-0.732,0.733l-0.38-0.38l0.733-0.733
		l0.354-0.354l-0.354-0.354L13.746,8.888 M12.538,8.388l1.087,1.086l-1.087,1.087l1.087,1.087l1.086-1.087l1.089,1.088V8.389
		L12.538,8.388L12.538,8.388z"/>
</g>
<g>
	<polygon fill="#662D91" points="8.422,15.748 8.422,13.34 9.26,14.178 10.346,13.09 11.08,13.824 9.994,14.91 10.831,15.748 	"/>
	<path fill="#FFFFFF" d="M10.346,13.443l0.381,0.381l-0.732,0.732L9.641,14.91l0.354,0.354l0.233,0.234H8.672v-1.555l0.234,0.234
		l0.354,0.354l0.354-0.354L10.346,13.443 M8.172,12.735v3.263h3.261l-1.086-1.088l1.086-1.086l-1.088-1.088L9.26,13.824
		L8.172,12.735L8.172,12.735z"/>
</g>
<g>
	<circle fill="#662D91" cx="2.5" cy="8.501" r="2.124"/>
	<path fill="#FFFFFF" d="M2.5,6.752c0.965,0,1.75,0.785,1.75,1.749c0,0.965-0.785,1.749-1.75,1.749c-0.965,0-1.75-0.784-1.75-1.749
		C0.75,7.537,1.535,6.752,2.5,6.752 M2.5,6.002C1.12,6.002,0,7.121,0,8.501S1.12,11,2.5,11C3.88,11,5,9.881,5,8.501
		S3.88,6.002,2.5,6.002L2.5,6.002z"/>
</g>
<g>
	<path fill="#662D91" d="M6.824,5.887c-1.172,0-2.126-0.953-2.126-2.124s0.954-2.125,2.126-2.125c1.171,0,2.124,0.953,2.124,2.125
		S7.995,5.887,6.824,5.887z"/>
	<path fill="#FFFFFF" d="M6.824,2.014c0.964,0,1.749,0.785,1.749,1.75c0,0.964-0.784,1.749-1.749,1.749
		c-0.965,0-1.751-0.785-1.751-1.749C5.073,2.798,5.858,2.014,6.824,2.014 M6.824,1.264c-1.381,0-2.501,1.12-2.501,2.5
		c0,1.381,1.12,2.499,2.501,2.499c1.379,0,2.499-1.118,2.499-2.499C9.322,2.383,8.203,1.264,6.824,1.264L6.824,1.264z"/>
</g>
<g>
	<circle fill="#662D91" cx="13.1" cy="5.313" r="2.124"/>
	<path fill="#FFFFFF" d="M13.1,3.563c0.965,0,1.75,0.785,1.75,1.75c0,0.964-0.785,1.749-1.75,1.749s-1.75-0.784-1.75-1.749
		C11.35,4.348,12.135,3.563,13.1,3.563 M13.1,2.813c-1.381,0-2.5,1.119-2.5,2.5s1.119,2.499,2.5,2.499c1.379,0,2.5-1.118,2.5-2.499
		S14.479,2.813,13.1,2.813L13.1,2.813z"/>
</g>
</svg>
