<?xml version="1.0" encoding="utf-8"?>
<svg version="1.1"
	 xmlns="http://www.w3.org/2000/svg" xmlns:xlink="http://www.w3.org/1999/xlink"
	 x="0px" y="0px" width="16px" height="16px" viewBox="0 0 16 16" enable-background="new 0 0 16 16" xml:space="preserve">
<defs>
</defs>
<g>
	<circle fill="#F4C9CC" cx="8" cy="8" r="8"/>
	<path fill="#FFFFFF" d="M8.001,0C7.999,0,7.997,0,7.995,0c0,0-0.001,0-0.002,0C7.991,0,7.99,0,7.988,0c0,0-0.001,0-0.002,0
		S7.983,0,7.982,0S7.98,0,7.979,0S7.978,0,7.976,0C7.975,0,7.974,0,7.973,0S7.971,0,7.97,0C7.969,0,7.968,0,7.967,0
		C7.966,0,7.964,0,7.963,0S7.962,0,7.961,0S7.958,0,7.957,0c0,0-0.001,0-0.002,0C7.953,0,7.952,0,7.951,0c0,0-0.001,0-0.002,0
		C7.947,0,7.946,0,7.945,0C7.944,0,7.943,0,7.942,0S7.939,0,7.938,0C7.938,0,7.937,0,7.936,0C7.935,0,7.933,0,7.932,0
		c0,0-0.001,0-0.002,0C7.928,0,7.926,0,7.924,0c0,0-0.001,0-0.002,0C7.92,0,7.919,0,7.917,0c0,0-0.001,0-0.002,0
		C7.914,0,7.912,0,7.911,0S7.909,0,7.908,0S7.906,0,7.905,0S7.903,0,7.902,0S7.9,0,7.899,0C7.897,0,7.896,0,7.896,0S7.893,0,7.893,0
		c-0.001,0-0.002,0-0.003,0s-0.002,0-0.003,0s-0.002,0-0.003,0c-0.001,0-0.002,0-0.003,0s-0.002,0-0.003,0s-0.002,0-0.003,0
		c-0.001,0-0.002,0-0.003,0s-0.002,0-0.003,0c0,0-0.001,0-0.002,0c-0.001,0-0.002,0-0.003,0s-0.002,0-0.003,0s-0.002,0-0.003,0
		s-0.002,0-0.003,0s-0.002,0-0.003,0c-0.002,0-0.004,0-0.007,0c0,0-0.001,0-0.002,0s-0.002,0-0.003,0s-0.002,0-0.003,0
		c-0.001,0-0.002,0-0.003,0s-0.002,0-0.003,0s-0.002,0-0.003,0c-0.001,0-0.002,0-0.003,0s-0.002,0-0.003,0s-0.002,0-0.003,0
		s-0.002,0-0.003,0c-0.001,0-0.002,0-0.003,0c-0.001,0-0.002,0-0.002,0c-0.001,0-0.002,0-0.003,0s-0.002,0-0.003,0s-0.002,0-0.003,0
		c-0.001,0-0.002,0-0.003,0c-0.001,0-0.002,0-0.003,0s-0.002,0-0.003,0c-0.001,0-0.002,0-0.003,0s-0.002,0-0.003,0
		c-0.001,0-0.002,0-0.003,0s-0.002,0-0.003,0s-0.002,0-0.003,0c-0.002,0-0.004,0-0.006,0c-0.001,0-0.002,0-0.003,0s-0.002,0-0.003,0
		s-0.002,0-0.003,0c-0.001,0-0.002,0-0.003,0s-0.002,0-0.003,0c-0.001,0-0.002,0-0.003,0c0,0-0.002,0-0.003,0s-0.002,0-0.003,0
		c0,0-0.002,0-0.002,0c-0.001,0-0.002,0-0.003,0c-0.001,0-0.002,0-0.003,0s-0.002,0-0.003,0s-0.002,0-0.003,0
		c-0.001,0-0.002,0-0.003,0c0,0-0.001,0-0.002,0s-0.002,0-0.003,0s-0.002,0-0.003,0s-0.002,0-0.003,0s-0.001,0-0.002,0
		c-0.001,0-0.003,0-0.004,0c0,0,0,0-0.001,0c-0.007,0-0.014,0-0.021,0.001c0,0-0.001,0-0.001,0c-0.001,0-0.002,0-0.004,0
		c-0.001,0-0.001,0-0.002,0c-0.001,0-0.002,0-0.003,0s-0.002,0-0.002,0c-0.001,0-0.002,0-0.004,0c0,0-0.001,0-0.002,0
		c-0.001,0-0.002,0-0.003,0s-0.001,0-0.002,0c-0.001,0-0.002,0-0.004,0c-0.001,0-0.001,0-0.002,0c-0.001,0-0.002,0-0.003,0
		s-0.001,0-0.002,0c-0.001,0-0.003,0-0.004,0c0,0-0.001,0-0.002,0c-0.001,0-0.003,0-0.004,0c0,0-0.001,0-0.002,0s-0.002,0-0.004,0
		c0,0-0.001,0-0.001,0c-0.005,0-0.011,0-0.016,0h0c-0.001,0-0.003,0-0.005,0c0,0,0,0-0.001,0c-0.001,0-0.003,0-0.004,0
		c0,0-0.001,0-0.002,0c-0.001,0-0.003,0-0.004,0c0,0-0.001,0-0.001,0c-0.001,0-0.003,0-0.004,0c0,0-0.001,0-0.001,0
		c-0.001,0-0.003,0-0.004,0c0,0-0.001,0-0.002,0c-0.001,0-0.003,0-0.004,0c0,0-0.001,0-0.001,0c-0.001,0-0.003,0-0.004,0
		c0,0-0.001,0-0.001,0c-0.001,0-0.003,0-0.005,0c0,0,0,0-0.001,0c-0.001,0-0.003,0-0.005,0h0c-0.01,0-0.02,0.001-0.029,0.001
		c0,0,0,0,0,0c-0.001,0-0.003,0-0.005,0c0,0-0.001,0-0.001,0c-0.001,0-0.003,0-0.005,0c0,0,0,0-0.001,0c-0.001,0-0.003,0-0.004,0
		c0,0-0.001,0-0.001,0c-0.001,0-0.003,0-0.004,0c0,0-0.001,0-0.001,0c-0.002,0-0.003,0-0.005,0c0,0-0.001,0-0.001,0
		c-0.002,0-0.003,0-0.005,0c0,0,0,0-0.001,0c-0.002,0-0.003,0-0.005,0l0,0c-0.002,0-0.004,0-0.006,0h0
		C7.468,0.018,7.456,0.018,7.444,0.019l0,0c-0.002,0-0.004,0-0.005,0c0,0,0,0-0.001,0c-0.001,0-0.003,0-0.005,0c0,0-0.001,0-0.001,0
		c-0.002,0-0.003,0-0.005,0h0c-0.001,0-0.003,0-0.005,0c0,0,0,0,0,0c-0.002,0-0.003,0-0.005,0h0
		C7.393,0.023,7.372,0.024,7.351,0.026l0,0C7.101,0.046,6.854,0.078,6.612,0.12h0c-0.001,0-0.003,0-0.005,0.001c0,0,0,0-0.001,0
		c-0.001,0-0.003,0-0.005,0.001c0,0,0,0-0.001,0c-0.001,0-0.003,0.001-0.005,0.001c0,0,0,0,0,0c-0.002,0-0.003,0.001-0.005,0.001
		l0,0C6.578,0.126,6.566,0.128,6.555,0.13l0,0c-0.001,0-0.003,0-0.005,0.001H6.549c-0.001,0-0.003,0-0.004,0.001
		c0,0-0.001,0-0.001,0c-0.001,0-0.003,0-0.004,0.001c-0.001,0-0.001,0-0.002,0c-0.001,0-0.002,0-0.004,0c-0.001,0-0.001,0-0.002,0
		c-0.001,0-0.002,0-0.004,0c0,0-0.001,0-0.002,0c-0.001,0-0.002,0-0.003,0c-0.001,0-0.002,0-0.003,0.001c-0.001,0-0.002,0-0.003,0
		c-0.001,0-0.002,0-0.003,0c-0.001,0-0.002,0-0.003,0c0,0,0,0-0.001,0l0.139,0.737C7.091,0.792,7.546,0.75,8.001,0.75V0L8.001,0
		L8.001,0z M5.07,0.554c-0.152,0.06-0.303,0.125-0.45,0.193c0,0,0,0,0,0C4.618,0.749,4.616,0.749,4.615,0.75c0,0,0,0-0.001,0
		C4.613,0.751,4.611,0.751,4.609,0.752c0,0,0,0-0.001,0c-0.001,0-0.003,0.001-0.004,0.002c0,0-0.001,0-0.001,0
		c-0.001,0-0.003,0.001-0.004,0.002c0,0-0.001,0-0.001,0C4.596,0.759,4.594,0.759,4.593,0.76c0,0-0.001,0-0.001,0.001
		c-0.001,0-0.002,0.001-0.004,0.001c0,0-0.001,0-0.002,0.001c-0.001,0-0.002,0.001-0.003,0.002c0,0-0.001,0-0.002,0
		c-0.001,0-0.002,0.001-0.003,0.002c0,0-0.001,0-0.002,0.001c-0.001,0-0.002,0.001-0.003,0.001s-0.001,0-0.002,0.001
		c-0.001,0-0.002,0.001-0.003,0.001c0,0-0.001,0.001-0.002,0.001c-0.001,0-0.002,0.001-0.003,0.001S4.56,0.776,4.559,0.776
		c-0.001,0-0.002,0.001-0.003,0.001c-0.001,0-0.001,0-0.002,0.001S4.551,0.78,4.55,0.78s-0.001,0-0.002,0.001
		S4.546,0.782,4.545,0.783c-0.001,0-0.002,0.001-0.003,0.001c0,0-0.001,0-0.002,0.001S4.538,0.786,4.537,0.787
		c0,0-0.001,0-0.001,0.001c-0.001,0-0.003,0.001-0.004,0.001c0,0-0.001,0-0.001,0.001c-0.001,0-0.002,0.001-0.004,0.002
		c0,0,0,0-0.001,0C4.51,0.8,4.495,0.807,4.479,0.815h0C4.477,0.816,4.475,0.816,4.474,0.817l0,0C4.472,0.818,4.47,0.819,4.469,0.82
		c0,0,0,0,0,0c-0.002,0-0.003,0.001-0.005,0.002c0,0,0,0,0,0C4.461,0.824,4.459,0.824,4.458,0.825h0
		C4.456,0.826,4.454,0.827,4.453,0.828v0c-0.007,0.003-0.014,0.007-0.021,0.01l0,0C4.43,0.839,4.428,0.84,4.426,0.841l0,0
		C4.188,0.96,3.958,1.09,3.734,1.231l0.4,0.634c0.383-0.242,0.79-0.448,1.21-0.614L5.07,0.554L5.07,0.554z M2.548,2.146
		C2.494,2.196,2.44,2.248,2.388,2.299l0,0C2.386,2.301,2.385,2.302,2.383,2.304l0,0C2.382,2.305,2.38,2.306,2.379,2.308h0
		C2.378,2.309,2.376,2.311,2.375,2.312c0,0,0,0,0,0C2.374,2.313,2.372,2.314,2.371,2.316c0,0,0,0,0,0
		C2.37,2.317,2.368,2.319,2.367,2.32c0,0,0,0,0,0C2.365,2.321,2.364,2.323,2.363,2.324h0C2.361,2.326,2.36,2.327,2.358,2.328v0
		C2.357,2.33,2.355,2.331,2.354,2.333c0,0,0,0,0,0C2.353,2.334,2.352,2.335,2.35,2.336c0,0,0,0,0,0
		C2.349,2.338,2.347,2.339,2.346,2.34c0,0,0,0,0,0C2.344,2.342,2.343,2.344,2.342,2.345l0,0C2.34,2.346,2.339,2.348,2.338,2.349h0
		C2.336,2.351,2.335,2.352,2.333,2.353l0,0C2.332,2.354,2.331,2.356,2.33,2.357c0,0,0,0,0,0C2.328,2.359,2.327,2.36,2.325,2.361l0,0
		C2.324,2.363,2.322,2.364,2.321,2.366h0C2.318,2.369,2.315,2.371,2.313,2.374l0,0C2.291,2.396,2.269,2.418,2.248,2.441c0,0,0,0,0,0
		C2.245,2.444,2.242,2.446,2.239,2.449l0,0C2.238,2.451,2.237,2.452,2.235,2.454h0C2.234,2.455,2.233,2.456,2.231,2.458l0,0
		C2.229,2.459,2.229,2.46,2.228,2.462c0,0,0,0,0,0C2.226,2.463,2.225,2.465,2.223,2.466c0,0,0,0,0,0
		C2.222,2.468,2.221,2.469,2.219,2.47l0,0C2.218,2.472,2.216,2.473,2.215,2.474c0,0,0,0-0.001,0.001
		C2.213,2.476,2.212,2.478,2.211,2.479c0,0,0,0,0,0C2.209,2.48,2.208,2.481,2.207,2.483l0,0C2.206,2.485,2.204,2.486,2.203,2.487
		c0,0,0,0,0,0C2.201,2.489,2.2,2.49,2.199,2.491c0,0,0,0-0.001,0.001C2.197,2.493,2.196,2.495,2.195,2.496c0,0,0,0,0,0
		C2.193,2.498,2.192,2.499,2.191,2.5l0,0C2.189,2.501,2.188,2.503,2.187,2.504c0,0,0,0-0.001,0.001
		C2.185,2.506,2.184,2.507,2.183,2.508c0,0,0,0-0.001,0.001C2.181,2.51,2.18,2.512,2.179,2.513c0,0,0,0,0,0
		C2.177,2.515,2.176,2.516,2.175,2.517c0,0,0,0,0,0C2.173,2.519,2.172,2.52,2.171,2.521h0C2.169,2.523,2.168,2.524,2.167,2.525
		c0,0,0,0,0,0.001C2.165,2.527,2.164,2.529,2.163,2.53v0C2.161,2.532,2.16,2.533,2.159,2.534c0,0,0,0,0,0
		C2.157,2.536,2.156,2.537,2.155,2.539c0,0,0,0,0,0C2.153,2.54,2.152,2.542,2.15,2.543l0,0C2.001,2.703,1.858,2.869,1.723,3.04v0
		c-0.005,0.006-0.01,0.012-0.014,0.018l0,0C1.706,3.062,1.704,3.065,1.701,3.068h0C1.7,3.069,1.699,3.071,1.698,3.072c0,0,0,0,0,0
		C1.696,3.074,1.695,3.076,1.694,3.077c0,0,0,0.001,0,0.001C1.692,3.079,1.691,3.08,1.69,3.082l0,0
		C1.689,3.083,1.688,3.085,1.687,3.086c0,0,0,0-0.001,0.001C1.685,3.088,1.684,3.089,1.683,3.091c0,0,0,0,0,0.001
		C1.682,3.093,1.681,3.094,1.68,3.095c0,0,0,0.001-0.001,0.001C1.678,3.098,1.677,3.099,1.676,3.1c0,0,0,0,0,0.001
		C1.674,3.102,1.673,3.104,1.672,3.104c0,0,0,0.001-0.001,0.001C1.67,3.107,1.67,3.108,1.669,3.109c0,0-0.001,0.001-0.001,0.001
		c0,0.001-0.001,0.002-0.002,0.003c0,0-0.001,0.001-0.002,0.002c0,0.001-0.001,0.002-0.002,0.003c0,0-0.001,0.001-0.001,0.001
		c0,0.001-0.001,0.002-0.002,0.003S1.657,3.125,1.657,3.125C1.656,3.126,1.655,3.127,1.654,3.128c0,0-0.001,0.001-0.001,0.002
		c0,0.001-0.001,0.002-0.002,0.002c0,0.001-0.001,0.002-0.001,0.002C1.648,3.136,1.648,3.136,1.647,3.137
		C1.646,3.138,1.646,3.139,1.645,3.14c0,0-0.001,0.001-0.001,0.001c0,0.001-0.001,0.002-0.002,0.004c0,0,0,0-0.001,0.001
		C1.61,3.186,1.581,3.225,1.552,3.264l0.604,0.444C2.424,3.344,2.728,3.003,3.06,2.694L2.548,2.146L2.548,2.146z M0.781,4.548
		c-0.005,0.01-0.01,0.021-0.015,0.031l0,0C0.765,4.582,0.765,4.583,0.764,4.585l0,0C0.763,4.586,0.762,4.588,0.761,4.59c0,0,0,0,0,0
		C0.76,4.592,0.759,4.594,0.759,4.595v0C0.758,4.597,0.757,4.599,0.756,4.601l0,0c0,0.001-0.001,0.003-0.002,0.005l0,0
		c0,0.002-0.001,0.003-0.002,0.005l0,0C0.697,4.727,0.646,4.844,0.597,4.963c0,0,0,0,0,0C0.596,4.965,0.595,4.967,0.595,4.968
		c0,0,0,0,0,0c0,0.001-0.001,0.003-0.002,0.005c0,0,0,0,0,0.001c0,0.001-0.001,0.003-0.001,0.004c0,0,0,0,0,0.001
		c0,0.001-0.001,0.003-0.002,0.004c0,0,0,0,0,0.001c0,0.001-0.001,0.003-0.001,0.004c0,0,0,0,0,0.001
		c0,0.001-0.001,0.003-0.002,0.004c0,0,0,0.001,0,0.001c0,0.001-0.001,0.002-0.001,0.004c0,0,0,0.001,0,0.001
		C0.58,5.003,0.58,5.004,0.579,5.006c0,0,0,0.001,0,0.001c0,0.001-0.001,0.003-0.001,0.004c0,0,0,0.001-0.001,0.001
		c0,0.001-0.001,0.002-0.001,0.004c0,0,0,0.001,0,0.001c0,0.001-0.001,0.002-0.001,0.004c0,0,0,0.001-0.001,0.001
		c0,0.001-0.001,0.002-0.001,0.004c0,0,0,0.001,0,0.001c0,0.001-0.001,0.003-0.001,0.004c0,0,0,0.001-0.001,0.002
		c0,0.001-0.001,0.002-0.001,0.004c0,0,0,0.001-0.001,0.002c0,0.001,0,0.002-0.001,0.003c0,0,0,0.001-0.001,0.001
		c0,0.001-0.001,0.003-0.001,0.004c0,0.001-0.001,0.003-0.001,0.004c0,0,0,0.001-0.001,0.002c0,0.001-0.001,0.003-0.002,0.005
		c0,0,0,0,0,0.001c0,0.001-0.001,0.003-0.001,0.004c0,0.001-0.001,0.001-0.001,0.002c0,0.001-0.001,0.002-0.001,0.003
		c0,0,0,0.001,0,0.002c0,0.001-0.001,0.002-0.001,0.003c0,0,0,0.001-0.001,0.002c0,0.001-0.001,0.002-0.001,0.004
		c0,0,0,0.001,0,0.002c0,0.001-0.001,0.002-0.001,0.003c0,0,0,0.001-0.001,0.002c0,0.001-0.001,0.002-0.001,0.003
		c0,0.001,0,0.001,0,0.002c0,0.001-0.001,0.002-0.001,0.003c0,0,0,0.001-0.001,0.002c0,0.001-0.001,0.002-0.001,0.004
		c0,0,0,0.001,0,0.002c0,0.001-0.001,0.002-0.001,0.003c0,0,0,0.001-0.001,0.002c0,0.001-0.001,0.002-0.001,0.004
		c0,0,0,0.001,0,0.001c0,0.001-0.001,0.003-0.001,0.004c0,0,0,0.001,0,0.002C0.532,5.125,0.531,5.127,0.531,5.128
		c0,0,0,0.001,0,0.001c0,0.001-0.001,0.003-0.001,0.004c0,0,0,0.001,0,0.001c0,0.001-0.001,0.003-0.002,0.005c0,0,0,0,0,0.001
		c0,0.002-0.001,0.003-0.002,0.005v0c0,0.002-0.001,0.003-0.002,0.005v0C0.521,5.154,0.521,5.156,0.52,5.158l0,0
		c-0.071,0.188-0.136,0.38-0.194,0.575c0,0,0,0,0,0.001c0,0.001-0.001,0.003-0.001,0.005c0,0,0,0.001,0,0.001
		c0,0.001-0.001,0.003-0.001,0.004c0,0.001,0,0.001,0,0.002c0,0.001,0,0.003-0.001,0.004c0,0.001,0,0.001,0,0.002
		c0,0.001-0.001,0.002-0.001,0.003c0,0.001,0,0.001-0.001,0.002s0,0.002-0.001,0.003c0,0.001,0,0.002-0.001,0.003
		c0,0,0,0.002,0,0.002c0,0.001,0,0.002-0.001,0.003s0,0.002-0.001,0.003c0,0.001,0,0.002-0.001,0.003c0,0.001,0,0.001,0,0.002
		s0,0.002-0.001,0.003c0,0,0,0.001,0,0.002c0,0.001-0.001,0.002-0.001,0.004c0,0,0,0.001,0,0.001c0,0.001-0.001,0.003-0.001,0.004
		c0,0,0,0.001,0,0.001c0,0.001-0.001,0.003-0.001,0.004c0,0,0,0,0,0.001c0,0.001-0.001,0.003-0.001,0.005v0
		C0.291,5.855,0.277,5.904,0.264,5.954l0.725,0.191C1.104,5.708,1.262,5.28,1.458,4.873L0.781,4.548L0.781,4.548z M0.02,7.432
		L0.02,7.432c-0.009,0.129-0.015,0.259-0.018,0.39l0,0c0,0.003,0,0.006,0,0.009l0,0c0,0.006,0,0.012,0,0.018c0,0,0,0,0,0.001
		c0,0.005,0,0.011,0,0.017v0c0,0.003,0,0.005,0,0.008c0,0.001,0,0,0,0.001c0,0.005,0,0.011,0,0.017c0,0,0,0.001,0,0.001
		c0,0.002,0,0.005,0,0.007c0,0,0,0,0,0.001C0,7.905,0,7.908,0,7.91c0,0,0,0.001,0,0.001c0,0.002,0,0.005,0,0.007
		c0,0,0,0.001,0,0.002c0,0.002,0,0.005,0,0.008c0,0,0,0,0,0c0,0.002,0,0.005,0,0.008c0,0,0,0.001,0,0.002c0,0.002,0,0.004,0,0.006
		c0,0.001,0,0.001,0,0.002C0,7.95,0,7.952,0,7.955c0,0,0,0,0,0.001c0,0.002,0,0.005,0,0.007c0,0.001,0,0.002,0,0.002
		C0,7.968,0,7.97,0,7.972c0,0,0,0.001,0,0.001c0,0.002,0,0.005,0,0.008c0,0.001,0,0.001,0,0.002C0,7.985,0,7.988,0,7.99
		c0,0.001,0,0.001,0,0.002C0,7.995,0,7.998,0,8l0,0c0,0.002,0,0.005,0,0.007c0,0,0,0.002,0,0.002c0,0.001,0,0.003,0,0.005
		c0,0,0,0.001,0,0.002C0,8.018,0,8.02,0,8.021c0,0.001,0,0.002,0,0.003s0,0.002,0,0.004C0,8.029,0,8.03,0,8.031
		c0,0.001,0,0.003,0,0.004c0,0.001,0,0.002,0,0.003c0,0.001,0,0.003,0,0.004c0,0.001,0,0.002,0,0.003C0,8.046,0,8.048,0,8.05
		c0,0,0,0.001,0,0.002c0,0.002,0,0.004,0,0.007C0,8.06,0,8.061,0,8.062s0,0.002,0,0.004c0,0.001,0,0.002,0,0.003
		C0,8.07,0,8.071,0,8.072s0,0.002,0,0.003S0,8.078,0,8.08c0,0.001,0,0.002,0,0.003c0,0.001,0,0.002,0,0.004c0,0.001,0,0.002,0,0.003
		c0,0.001,0,0.003,0,0.004c0,0,0,0.001,0,0.002C0,8.098,0,8.1,0,8.101c0,0.001,0,0.001,0,0.002c0,0.002,0,0.005,0,0.007
		c0,0.001,0,0.002,0,0.003c0,0.001,0,0.002,0,0.004s0,0.002,0,0.003c0,0.001,0,0.002,0,0.004c0,0.001,0,0.002,0,0.003
		c0,0.001,0,0.002,0,0.004c0,0.001,0,0.002,0,0.003s0,0.002,0,0.003s0,0.002,0,0.003c0,0.001,0,0.002,0,0.003s0,0.002,0,0.003
		c0,0.001,0,0.002,0,0.003c0,0.001,0,0.002,0,0.003c0,0.001,0,0.003,0,0.005s0,0.003,0,0.005c0,0.001,0,0.002,0,0.003
		c0,0.001,0,0.002,0,0.004c0,0,0,0.001,0,0.002c0,0.001,0,0.003,0,0.004c0,0.001,0,0.002,0,0.002c0,0.001,0,0.003,0,0.004
		c0,0.001,0,0.001,0,0.002c0,0.001,0,0.003,0,0.004c0,0.001,0,0.001,0,0.002c0,0.001,0,0.003,0,0.004c0,0,0,0.001,0,0.002
		c0,0.001,0,0.003,0,0.005c0,0,0,0,0,0c0,0.006,0,0.011,0,0.018c0,0,0,0.001,0,0.001c0,0.002,0,0.003,0,0.005c0,0,0,0.001,0,0.002
		c0,0.001,0,0.003,0,0.005c0,0,0,0.001,0,0.002c0,0.001,0,0.003,0,0.005c0,0,0,0.001,0,0.001c0,0.002,0,0.003,0,0.005
		c0,0,0,0,0,0.001c0,0.008,0,0.017,0.001,0.025l0,0c0,0.002,0,0.004,0,0.005c0,0,0,0.001,0,0.001c0,0.001,0,0.003,0,0.005
		c0,0,0,0,0,0.001c0,0.001,0,0.004,0,0.005c0,0,0,0.001,0,0.001c0,0.002,0,0.004,0,0.006v0c0,0.011,0,0.021,0.001,0.032l0,0
		c0,0.002,0,0.004,0,0.006l0,0c0,0.002,0,0.004,0,0.006l0,0c0.007,0.173,0.021,0.344,0.039,0.514v0c0,0.002,0,0.004,0,0.006v0
		c0,0.002,0,0.004,0.001,0.006v0c0.001,0.01,0.002,0.02,0.003,0.03c0,0,0,0.001,0,0.001c0,0.001,0,0.003,0,0.004
		c0,0,0,0.001,0,0.002c0,0.001,0,0.003,0,0.004c0,0.001,0,0.002,0,0.002c0,0.001,0,0.003,0,0.004s0,0.002,0,0.003s0,0.001,0,0.003
		l0.745-0.086C0.766,8.565,0.75,8.282,0.75,8c0-0.173,0.006-0.345,0.018-0.516L0.02,7.432L0.02,7.432z M1.08,10.17l-0.715,0.225
		c0.15,0.481,0.346,0.943,0.58,1.381l0.661-0.354C1.392,11.022,1.215,10.602,1.08,10.17L1.08,10.17z M2.357,12.552l-0.583,0.472
		c0.013,0.017,0.027,0.033,0.041,0.05l0,0c0.001,0.002,0.002,0.003,0.003,0.004c0,0.001,0,0.001,0,0.001
		c0.001,0.001,0.002,0.003,0.003,0.004c0,0,0,0,0,0.001c0.001,0.001,0.002,0.002,0.003,0.004l0,0
		c0.001,0.002,0.002,0.003,0.003,0.004c0,0.001,0,0.001,0,0.001c0.001,0.001,0.002,0.002,0.003,0.004c0,0,0.001,0.001,0.001,0.001
		c0,0.001,0.001,0.002,0.002,0.003c0,0.001,0.001,0.001,0.001,0.002c0.001,0.001,0.002,0.002,0.003,0.003c0,0,0,0.001,0.001,0.001
		c0.001,0.001,0.002,0.002,0.002,0.004c0,0,0.001,0,0.001,0.001s0.001,0.002,0.002,0.003c0,0.001,0.001,0.001,0.001,0.002
		s0.001,0.002,0.002,0.003c0,0,0.001,0.001,0.001,0.001c0,0.001,0.001,0.002,0.002,0.003s0.001,0.002,0.001,0.002
		c0.001,0.001,0.002,0.002,0.002,0.003s0.001,0.001,0.002,0.002s0.001,0.002,0.002,0.002c0,0.001,0.001,0.002,0.002,0.003
		c0,0.001,0.001,0.001,0.001,0.002c0.001,0.001,0.001,0.002,0.002,0.003c0,0,0.001,0.001,0.001,0.002
		c0.001,0.001,0.001,0.002,0.002,0.003c0,0,0.001,0.001,0.001,0.001c0,0.001,0.002,0.003,0.002,0.004c0,0,0.001,0,0.001,0.001
		c0.001,0.001,0.002,0.002,0.003,0.003c0,0.001,0,0.001,0,0.001c0.001,0.002,0.002,0.003,0.003,0.005h0
		c0.001,0.001,0.002,0.003,0.003,0.004l0,0.001c0.132,0.155,0.269,0.306,0.413,0.451l0,0c0.001,0.002,0.002,0.003,0.004,0.005h0
		c0.001,0.001,0.002,0.002,0.003,0.004c0,0,0,0,0.001,0.001c0.001,0.001,0.002,0.002,0.003,0.003c0,0,0,0.001,0,0.001
		c0.001,0.001,0.002,0.002,0.004,0.004h0c0.001,0.001,0.002,0.003,0.003,0.004c0,0,0,0,0.001,0.001
		c0.001,0.001,0.002,0.002,0.003,0.003c0,0,0,0.001,0.001,0.001c0.001,0.001,0.002,0.002,0.003,0.003c0,0.001,0,0.001,0.001,0.001
		c0.001,0.001,0.002,0.003,0.003,0.004c0,0,0,0,0.001,0.001c0.001,0.001,0.002,0.002,0.003,0.003c0,0,0,0.001,0.001,0.001
		c0.001,0.001,0.002,0.002,0.003,0.003c0,0.001,0.001,0.001,0.001,0.002c0.001,0.001,0.001,0.001,0.002,0.002
		c0,0.001,0.001,0.001,0.001,0.002c0.001,0.001,0.002,0.002,0.003,0.003c0,0,0.001,0.001,0.001,0.001
		c0.001,0.001,0.002,0.002,0.003,0.003c0,0.001,0,0.001,0.001,0.001c0.001,0.001,0.002,0.002,0.003,0.003
		c0,0.001,0.001,0.001,0.001,0.002c0.001,0.001,0.002,0.002,0.003,0.003c0,0,0.001,0.001,0.001,0.001
		c0.001,0.001,0.002,0.002,0.003,0.003c0,0.001,0,0.001,0.001,0.001c0.001,0.001,0.002,0.002,0.003,0.003
		c0,0.001,0,0.001,0.001,0.002c0.001,0,0.002,0.001,0.003,0.002c0,0.001,0.001,0.001,0.001,0.002
		c0.001,0.001,0.002,0.002,0.003,0.003c0,0,0,0.001,0.001,0.001c0.001,0.001,0.002,0.002,0.003,0.003c0,0.001,0,0.001,0.001,0.001
		c0.001,0.001,0.002,0.003,0.003,0.004c0,0,0.001,0,0.001,0.001c0.001,0.001,0.002,0.002,0.003,0.003c0,0,0.001,0.001,0.001,0.001
		c0.001,0.001,0.002,0.002,0.003,0.003c0,0.001,0,0.001,0.001,0.001c0.001,0.001,0.002,0.003,0.004,0.004c0,0,0,0,0,0
		c0.001,0.002,0.002,0.003,0.004,0.005l0,0c0.001,0.001,0.002,0.002,0.003,0.003c0,0,0.001,0.001,0.001,0.001
		c0.001,0.001,0.003,0.003,0.004,0.004h0c0.004,0.005,0.008,0.009,0.013,0.013c0,0,0.001,0.001,0.001,0.001
		c0.001,0.001,0.002,0.002,0.003,0.003c0,0.001,0.001,0.001,0.001,0.001c0.001,0.002,0.002,0.002,0.003,0.004c0,0,0,0,0.001,0.001
		c0.001,0.001,0.002,0.002,0.003,0.003c0.001,0,0.001,0.001,0.002,0.002c0.001,0,0.001,0.001,0.002,0.002s0.001,0.001,0.002,0.002
		c0,0.001,0.001,0.002,0.002,0.002c0,0.001,0.001,0.001,0.002,0.002s0.001,0.002,0.002,0.002c0,0.001,0.001,0.002,0.002,0.003
		c0.001,0,0.001,0.001,0.002,0.001c0.001,0.001,0.001,0.002,0.002,0.003c0,0,0.001,0.001,0.002,0.002
		c0.001,0,0.001,0.001,0.002,0.002c0,0.001,0.001,0.001,0.002,0.002c0,0.001,0.001,0.001,0.002,0.002
		c0.001,0.001,0.001,0.001,0.002,0.002c0,0.001,0.001,0.002,0.002,0.002c0,0.001,0.001,0.001,0.001,0.002
		c0.001,0.001,0.002,0.002,0.003,0.003c0,0,0.001,0.001,0.001,0.001c0.001,0.001,0.002,0.002,0.003,0.003l0.001,0.001
		c0.001,0.001,0.002,0.002,0.003,0.003c0,0.001,0.001,0.001,0.001,0.002C2.489,13.8,2.49,13.8,2.491,13.801
		c0,0.001,0.001,0.001,0.001,0.002c0.001,0.001,0.002,0.002,0.003,0.002c0,0.001,0.001,0.002,0.001,0.002
		c0.001,0.001,0.002,0.002,0.002,0.003c0,0,0.001,0.001,0.002,0.001c0,0.001,0.001,0.002,0.002,0.003c0,0,0.001,0.001,0.002,0.001
		c0,0.001,0.001,0.002,0.002,0.003c0,0,0.001,0.001,0.001,0.002c0.001,0,0.002,0.001,0.003,0.002c0,0,0.001,0.001,0.001,0.002
		c0.001,0.001,0.002,0.001,0.003,0.002c0,0.001,0.001,0.001,0.001,0.002c0.001,0.001,0.001,0.001,0.002,0.002
		c0,0.001,0.001,0.002,0.002,0.002c0.001,0.001,0.001,0.002,0.002,0.003c0,0,0.001,0.001,0.002,0.001
		c0,0.001,0.001,0.002,0.002,0.003c0,0,0.001,0.001,0.001,0.001c0.001,0.001,0.002,0.002,0.003,0.003c0,0,0.001,0.001,0.001,0.001
		c0.001,0.001,0.002,0.002,0.003,0.003c0,0,0.001,0.001,0.001,0.002c0.001,0,0.002,0.001,0.003,0.002
		c0,0.001,0.001,0.001,0.001,0.001c0.001,0.001,0.002,0.002,0.003,0.003c0,0.001,0,0.001,0.001,0.001
		c0.001,0.002,0.002,0.003,0.003,0.004c0,0,0,0,0.001,0c0.001,0.001,0.002,0.003,0.003,0.004c0,0,0.001,0,0.001,0.001
		c0.001,0.001,0.002,0.002,0.003,0.003c0,0,0.001,0,0.001,0.001c0.001,0.001,0.002,0.002,0.003,0.003c0,0,0,0,0.001,0.001
		c0.001,0.001,0.002,0.002,0.003,0.003h0c0.001,0.002,0.002,0.003,0.004,0.004c0,0,0,0,0,0.001c0.026,0.023,0.052,0.047,0.078,0.07
		l0,0c0.003,0.003,0.005,0.005,0.008,0.008c0,0,0,0,0,0c0.001,0.001,0.003,0.003,0.004,0.004c0,0,0,0,0,0
		c0.001,0.001,0.002,0.002,0.004,0.004h0c0.001,0.001,0.002,0.002,0.004,0.004h0c0.001,0.001,0.002,0.002,0.003,0.003
		c0,0.001,0.001,0.001,0.001,0.001c0.001,0.001,0.002,0.002,0.004,0.004h0c0.001,0.001,0.002,0.002,0.004,0.004h0
		c0.001,0.001,0.002,0.003,0.004,0.004c0,0,0,0,0,0c0.001,0.001,0.002,0.002,0.004,0.004c0,0,0,0,0,0
		c0.001,0.001,0.002,0.003,0.004,0.004h0c0.001,0.001,0.002,0.002,0.004,0.004c0,0,0,0,0,0C2.706,13.997,2.707,13.999,2.708,14
		c0,0,0,0,0,0c0.001,0.001,0.002,0.002,0.004,0.004h0c0.001,0.001,0.002,0.002,0.004,0.004h0c0.001,0.001,0.002,0.002,0.004,0.004h0
		c0.001,0.001,0.002,0.002,0.004,0.004h0c0.001,0.001,0.002,0.002,0.004,0.004h0c0.001,0.001,0.003,0.002,0.004,0.004c0,0,0,0,0,0
		c0.001,0.001,0.003,0.002,0.004,0.004c0,0,0,0,0,0c0.001,0.001,0.003,0.002,0.004,0.003l0,0.001
		c0.001,0.001,0.003,0.002,0.004,0.003l0,0.001c0.022,0.019,0.044,0.038,0.066,0.057h0c0.001,0.001,0.002,0.002,0.003,0.003
		c0,0.001,0,0.001,0.001,0.001l0.486-0.571C2.96,13.231,2.641,12.904,2.357,12.552L2.357,12.552z M4.417,14.304l-0.371,0.652
		c0.432,0.245,0.888,0.452,1.365,0.615l0.243-0.709C5.226,14.716,4.81,14.528,4.417,14.304L4.417,14.304z M6.973,15.178L6.867,15.92
		c0.081,0.012,0.162,0.022,0.244,0.031c0,0,0,0,0.001,0c0.005,0.001,0.011,0.001,0.017,0.002c0,0,0.001,0,0.001,0
		c0.002,0,0.005,0.001,0.007,0.001c0,0,0,0,0,0c0.003,0,0.006,0.001,0.008,0.001c0,0,0.001,0,0.001,0c0.002,0,0.004,0,0.007,0.001
		c0,0,0.001,0,0.001,0c0.005,0,0.011,0.001,0.016,0.002c0.001,0,0.001,0,0.002,0c0.002,0,0.004,0,0.007,0
		c0,0.001,0.001,0.001,0.001,0.001c0.002,0,0.005,0,0.008,0c0,0,0.001,0.001,0.002,0.001c0.002,0,0.004,0,0.006,0
		c0.001,0,0.002,0,0.002,0.001c0.002,0,0.004,0,0.007,0c0,0,0.001,0,0.002,0c0.002,0.001,0.004,0.001,0.006,0.001
		c0.001,0,0.002,0,0.003,0c0.001,0.001,0.003,0.001,0.005,0.001c0.001,0,0.002,0,0.003,0c0.002,0,0.005,0.001,0.007,0.001
		c0.001,0,0.001,0,0.002,0c0.002,0,0.003,0,0.005,0.001c0.001,0,0.002,0,0.003,0c0.002,0,0.003,0,0.005,0s0.003,0.001,0.005,0.001
		c0.001,0,0.003,0,0.005,0s0.002,0.001,0.004,0.001s0.002,0,0.004,0c0.001,0,0.003,0,0.004,0c0.001,0.001,0.003,0.001,0.005,0.001
		c0.001,0,0.004,0,0.006,0c0.001,0,0.002,0.001,0.003,0.001s0.002,0,0.004,0c0.001,0,0.002,0,0.003,0
		C7.295,15.97,7.298,15.97,7.3,15.97c0.001,0,0.002,0,0.003,0c0.001,0,0.003,0.001,0.004,0.001c0.001,0,0.002,0,0.003,0
		c0.001,0,0.002,0,0.004,0c0.001,0,0.002,0.001,0.003,0.001c0.002,0,0.005,0,0.008,0c0.001,0,0.002,0,0.003,0.001
		c0.002,0,0.003,0,0.004,0c0.001,0,0.002,0,0.003,0c0.003,0,0.006,0.001,0.009,0.001c0,0,0.001,0,0.002,0c0.001,0,0.003,0,0.004,0
		c0.001,0.001,0.002,0.001,0.003,0.001c0.001,0,0.003,0,0.005,0c0,0,0.001,0,0.002,0c0.003,0,0.006,0.001,0.009,0.001
		c0.001,0,0.002,0,0.003,0c0.001,0,0.003,0,0.004,0.001c0.001,0,0.002,0,0.003,0c0.005,0,0.011,0.001,0.016,0.001
		c0,0,0.001,0,0.002,0c0.002,0,0.003,0,0.005,0.001c0,0,0.001,0,0.001,0c0.003,0,0.007,0,0.01,0c0.001,0,0.001,0.001,0.002,0.001
		c0.002,0,0.003,0,0.005,0c0,0,0.001,0,0.002,0c0.005,0,0.011,0.001,0.016,0.001c0.001,0,0.002,0,0.002,0
		c0.002,0.001,0.003,0.001,0.005,0.001c0,0,0.001,0,0.002,0c0.003,0,0.006,0,0.009,0.001c0,0,0.001,0,0.002,0
		c0.002,0,0.003,0,0.005,0c0,0,0.001,0,0.002,0c0.005,0.001,0.011,0.001,0.016,0.001c0.001,0,0.002,0,0.003,0
		c0.001,0.001,0.003,0.001,0.005,0.001c0,0,0.001,0,0.002,0c0.003,0,0.007,0,0.01,0.001c0,0,0.001,0,0.001,0
		c0.002,0,0.003,0,0.005,0c0,0,0.001,0,0.002,0c0.005,0,0.011,0.001,0.016,0.001c0,0,0.001,0,0.002,0c0.001,0,0.003,0,0.005,0
		c0,0.001,0.001,0.001,0.002,0.001c0.003,0,0.006,0,0.009,0c0,0,0.001,0,0.002,0c0.002,0,0.003,0,0.005,0.001
		c0.001,0,0.001,0,0.002,0c0.001,0,0.003,0,0.005,0c0,0,0.001,0,0.001,0c0.003,0,0.006,0,0.01,0.001c0.001,0,0.002,0,0.002,0
		c0.002,0,0.003,0,0.005,0c0.001,0,0.002,0,0.003,0c0.002,0,0.005,0,0.008,0.001c0.001,0,0.002,0,0.003,0c0.002,0,0.003,0,0.005,0
		c0.001,0,0.002,0,0.003,0c0.001,0,0.003,0,0.004,0c0.001,0,0.002,0,0.003,0c0.002,0.001,0.006,0.001,0.008,0.001
		c0.001,0,0.002,0,0.003,0c0.001,0,0.003,0,0.004,0c0.001,0,0.002,0,0.003,0c0.002,0,0.005,0.001,0.007,0.001
		c0.001,0,0.002,0,0.003,0c0.001,0,0.003,0,0.004,0c0.001,0,0.002,0,0.003,0c0.001,0,0.003,0,0.004,0c0.001,0,0.002,0,0.004,0.001
		c0.002,0,0.004,0,0.006,0c0.001,0,0.002,0,0.004,0s0.003,0,0.004,0c0.001,0,0.003,0,0.004,0c0.001,0,0.002,0,0.004,0
		c0.002,0.001,0.004,0.001,0.007,0.001c0.001,0,0.002,0,0.004,0s0.002,0,0.004,0s0.002,0,0.004,0s0.003,0,0.004,0
		c0.002,0,0.004,0.001,0.006,0.001c0.001,0,0.002,0,0.004,0c0.001,0,0.002,0,0.004,0s0.002,0,0.004,0s0.002,0,0.004,0
		c0.002,0,0.004,0,0.007,0c0.001,0,0.002,0,0.003,0.001c0.001,0,0.003,0,0.004,0s0.002,0,0.003,0c0.002,0,0.003,0,0.005,0
		c0.001,0,0.003,0,0.004,0c0.002,0,0.003,0,0.005,0c0.001,0,0.002,0,0.003,0c0.001,0,0.003,0,0.005,0.001c0.001,0,0.002,0,0.003,0
		c0.002,0,0.005,0,0.007,0c0.001,0,0.002,0,0.003,0c0.002,0,0.003,0,0.005,0s0.002,0,0.003,0c0.002,0,0.004,0,0.006,0
		c0,0,0.001,0,0.002,0c0.002,0,0.005,0,0.007,0.001c0.001,0,0.002,0,0.003,0c0.002,0,0.004,0,0.005,0c0.001,0,0.002,0,0.003,0
		c0.002,0,0.005,0,0.007,0c0.001,0,0.002,0,0.002,0c0.002,0,0.004,0,0.006,0c0.001,0,0.002,0,0.003,0c0.002,0,0.004,0,0.006,0
		c0.001,0,0.001,0,0.002,0c0.002,0,0.005,0,0.008,0.001c0.001,0,0.001,0,0.002,0c0.002,0,0.004,0,0.005,0c0.001,0,0.002,0,0.003,0
		c0.002,0,0.005,0,0.007,0c0.001,0,0.001,0,0.002,0c0.002,0,0.004,0,0.006,0c0.001,0,0.002,0,0.003,0c0.002,0,0.004,0,0.006,0
		c0.001,0,0.001,0,0.002,0c0.002,0,0.005,0,0.008,0c0.001,0,0.001,0,0.002,0c0.002,0,0.004,0,0.006,0c0,0,0.002,0,0.002,0
		c0.002,0,0.005,0,0.008,0c0,0,0.001,0,0.001,0.001c0.002,0,0.004,0,0.007,0c0,0,0.001,0,0.002,0c0.002,0,0.004,0,0.006,0
		c0,0,0.001,0,0.002,0c0.003,0,0.005,0,0.008,0c0.001,0,0.001,0,0.002,0c0.002,0,0.004,0,0.006,0c0.001,0,0.001,0,0.002,0
		c0.003,0,0.005,0,0.008,0c0,0,0,0,0,0c0.002,0,0.005,0,0.007,0c0.001,0,0.001,0,0.002,0c0.002,0,0.004,0,0.006,0
		c0,0,0.001,0,0.001,0c0.003,0,0.005,0,0.008,0c0,0,0.001,0,0.002,0c0.002,0,0.004,0,0.006,0c0.001,0,0.001,0,0.002,0
		c0.003,0,0.006,0,0.008,0l0,0c0.002,0,0.004,0,0.006,0c0,0,0.001,0,0.002,0s0.002,0,0.004,0c0.001,0,0.001,0,0.002,0
		c0.001,0,0.002,0,0.004,0c0,0,0.001,0,0.002,0s0.002,0,0.003,0s0.002,0,0.002,0c0.001,0,0.002,0,0.004,0c0.001,0,0.001,0,0.002,0
		c0.001,0,0.002,0,0.004,0c0.001,0,0.001,0,0.002,0c0.002,0,0.004,0,0.006,0c0,0,0,0,0,0c0.002,0,0.004,0,0.006,0
		c0.001,0,0.001,0,0.002,0s0.002,0,0.004,0c0.001,0,0.001,0,0.002,0s0.002,0,0.004,0c0,0,0.001,0,0.002,0c0.001,0,0.002,0,0.004,0
		c0.001,0,0.002,0,0.002,0c0.001,0,0.003,0,0.004,0c0,0,0.001,0,0.002,0s0.002,0,0.004,0c0,0,0.001,0,0.002,0
		c0.001,0,0.003,0,0.005-0.001c0,0,0,0,0.001,0c0.002,0,0.004,0,0.006,0c0,0,0,0,0.001,0c0.001,0,0.004,0,0.005,0
		c0,0,0.001,0,0.002,0c0.001,0,0.003,0,0.004,0s0.001,0,0.002,0c0.001,0,0.002,0,0.004,0c0.001,0,0.001,0,0.002,0
		c0.001,0,0.002,0,0.004,0c0,0,0.001,0,0.002,0c0.001,0,0.003,0,0.004,0c0,0,0.001,0,0.002,0c0.001,0,0.003,0,0.005,0
		c0,0,0,0,0.001,0c0.004,0,0.008,0,0.013,0c0,0,0.001,0,0.001,0c0.001,0,0.003,0,0.004,0c0-0.001,0.001-0.001,0.002-0.001
		c0.001,0,0.003,0,0.004,0c0,0,0.001,0,0.002,0c0.001,0,0.002,0,0.004,0c0,0,0.001,0,0.002,0c0.001,0,0.003,0,0.004,0
		c0,0,0.001,0,0.001,0c0.001,0,0.003,0,0.005,0c0,0,0.001,0,0.001,0c0.006,0,0.012,0,0.019-0.001c0,0,0,0,0.001,0
		c0.001,0,0.004,0,0.005,0c0,0,0.001,0,0.001,0c0.001,0,0.003,0,0.005,0c0,0,0,0,0.001,0c0.002,0,0.004,0,0.005,0c0,0,0,0,0.001,0
		c0.013,0,0.025-0.001,0.038-0.001l0,0c0.035-0.001,0.07-0.003,0.105-0.004l-0.034-0.75c-0.109,0.005-0.219,0.008-0.329,0.008
		C7.657,15.25,7.311,15.226,6.973,15.178L6.973,15.178z M10.959,14.621c-0.412,0.185-0.845,0.331-1.284,0.435l0.173,0.73
		c0.491-0.116,0.966-0.278,1.418-0.48L10.959,14.621L10.959,14.621z M13.178,13.075c-0.317,0.324-0.666,0.619-1.037,0.878
		l0.429,0.615c0.104-0.073,0.208-0.148,0.309-0.227l0,0c0.002-0.001,0.003-0.002,0.005-0.004l0,0
		c0.002-0.001,0.003-0.002,0.005-0.003v-0.001c0.002-0.001,0.003-0.002,0.004-0.003c0.001,0,0.001,0,0.001-0.001
		c0.002-0.001,0.003-0.002,0.004-0.003c0.001,0,0.001,0,0.001-0.001c0.002-0.001,0.003-0.001,0.004-0.002
		c0-0.001,0.001-0.001,0.001-0.001c0.001-0.001,0.003-0.002,0.004-0.003l0.001-0.001c0.001-0.001,0.002-0.002,0.004-0.003
		c0,0,0-0.001,0.001-0.001c0.001-0.001,0.002-0.002,0.003-0.003c0.001,0,0.001,0,0.002-0.001s0.002-0.001,0.003-0.002
		s0.001-0.001,0.002-0.002s0.002-0.001,0.003-0.002c0,0,0.001-0.001,0.002-0.001c0.001-0.001,0.002-0.002,0.003-0.003l0.001-0.001
		c0.001-0.001,0.002-0.002,0.003-0.002c0.001-0.001,0.002-0.001,0.002-0.002c0.001-0.001,0.002-0.001,0.003-0.002
		s0.001-0.001,0.002-0.002s0.002-0.001,0.003-0.002c0.001,0,0.001-0.001,0.002-0.002c0.001,0,0.002-0.001,0.003-0.002
		c0,0,0.001-0.001,0.002-0.001c0.001-0.001,0.002-0.002,0.002-0.002c0.001-0.001,0.002-0.002,0.003-0.002
		c0-0.001,0.001-0.001,0.002-0.002s0.002-0.001,0.002-0.002c0.001-0.001,0.002-0.001,0.003-0.002c0,0,0.001-0.001,0.002-0.002
		c0.001,0,0.002-0.001,0.002-0.002c0.001,0,0.002-0.001,0.003-0.002c0.001,0,0.001-0.001,0.002-0.001
		c0.001-0.001,0.002-0.002,0.003-0.002c0.001-0.001,0.001-0.001,0.002-0.002s0.002-0.001,0.003-0.002
		c0-0.001,0.001-0.001,0.001-0.002c0.001,0,0.002-0.001,0.003-0.002c0.001,0,0.002-0.001,0.002-0.001
		c0.001-0.001,0.002-0.002,0.003-0.003c0.001,0,0.001,0,0.002-0.001s0.002-0.002,0.003-0.003c0,0,0.001,0,0.001-0.001
		c0.001-0.001,0.003-0.002,0.004-0.002c0-0.001,0-0.001,0-0.001c0.002-0.001,0.003-0.002,0.004-0.003
		c0.001,0,0.001-0.001,0.001-0.001c0.25-0.2,0.487-0.415,0.711-0.644L13.178,13.075L13.178,13.075z M14.679,10.827
		c-0.177,0.416-0.394,0.817-0.645,1.194l0.623,0.417c0.057-0.084,0.111-0.17,0.164-0.256l0,0c0.002-0.003,0.004-0.007,0.006-0.01
		l0,0c0.002-0.004,0.004-0.007,0.006-0.01c0,0,0,0,0.001-0.001s0.002-0.003,0.002-0.004l0.001-0.001
		c0.001-0.001,0.002-0.003,0.003-0.005l0,0c0.006-0.01,0.012-0.02,0.018-0.029c0-0.001,0.001-0.001,0.001-0.002
		c0.001-0.002,0.003-0.004,0.004-0.006c0-0.001,0.001-0.002,0.001-0.003c0.001-0.001,0.002-0.001,0.002-0.002
		s0.001-0.002,0.002-0.003c0-0.001,0-0.001,0.001-0.002s0.001-0.002,0.002-0.003c0-0.001,0-0.001,0.001-0.002
		c0-0.001,0.001-0.002,0.002-0.003c0-0.001,0.001-0.002,0.001-0.002c0.001-0.002,0.001-0.002,0.002-0.004l0.001-0.001
		c0.001-0.001,0.002-0.003,0.002-0.004c0,0,0.001-0.001,0.001-0.002c0.001-0.001,0.002-0.002,0.002-0.003
		c0.001-0.001,0.001-0.001,0.001-0.002c0.001-0.001,0.002-0.002,0.002-0.003c0.001-0.001,0.001-0.002,0.001-0.002
		c0.001-0.001,0.002-0.003,0.003-0.004V12.07c0.001-0.002,0.002-0.003,0.003-0.004c0-0.001,0-0.001,0.001-0.002
		c0-0.001,0.001-0.002,0.002-0.004c0,0,0,0,0.001-0.001c0-0.001,0.001-0.002,0.002-0.004c0,0,0-0.001,0.001-0.001
		c0-0.001,0.001-0.003,0.002-0.004c0-0.001,0.001-0.001,0.001-0.001c0.001-0.002,0.001-0.003,0.002-0.005c0.001,0,0.001,0,0.001,0
		c0.001-0.002,0.002-0.003,0.003-0.005l0,0c0.001-0.002,0.002-0.004,0.003-0.005c0-0.001,0-0.001,0-0.001
		c0.001-0.002,0.002-0.003,0.003-0.005l0,0c0.001-0.002,0.002-0.003,0.003-0.005l0,0c0.096-0.164,0.185-0.331,0.269-0.501l0,0
		c0.001-0.002,0.002-0.004,0.003-0.006l0,0c0.001-0.002,0.002-0.003,0.002-0.005c0.001,0,0.001,0,0.001-0.001
		c0.001-0.003,0.003-0.007,0.005-0.011l0,0c0.002-0.003,0.004-0.007,0.005-0.011c0,0,0,0,0.001,0
		c0.005-0.011,0.01-0.021,0.016-0.032v-0.001c0.001-0.002,0.001-0.003,0.002-0.005c0.001,0,0.001-0.001,0.001-0.001
		c0.001-0.002,0.001-0.003,0.002-0.004c0-0.001,0.001-0.002,0.001-0.003s0.001-0.002,0.002-0.003c0-0.001,0-0.002,0.001-0.003
		c0-0.001,0.001-0.001,0.001-0.002c0.001-0.001,0.001-0.002,0.002-0.003c0-0.001,0-0.002,0.001-0.003
		c0-0.001,0.001-0.002,0.001-0.003c0.001-0.001,0.001-0.001,0.001-0.002c0.001-0.001,0.001-0.002,0.002-0.003
		c0-0.001,0.001-0.002,0.001-0.003c0.001-0.001,0.001-0.002,0.002-0.003c0-0.001,0-0.001,0.001-0.002
		c0-0.001,0.001-0.003,0.001-0.004c0.001,0,0.001-0.001,0.001-0.001c0.001-0.002,0.001-0.003,0.002-0.005c0,0,0,0,0.001-0.001
		c0-0.001,0.001-0.003,0.002-0.004v-0.001c0.001-0.002,0.002-0.003,0.002-0.005c0,0,0.001,0,0.001-0.001s0.001-0.003,0.002-0.004
		v-0.001c0.001-0.002,0.002-0.003,0.003-0.005l0,0c0-0.002,0.001-0.004,0.002-0.005c0-0.001,0-0.001,0-0.001
		c0.001-0.002,0.002-0.003,0.003-0.005l0,0c0.039-0.084,0.076-0.168,0.112-0.253L14.679,10.827L14.679,10.827z M15.248,8.186
		c-0.012,0.455-0.065,0.908-0.16,1.349l0.732,0.158c0.001-0.005,0.002-0.009,0.003-0.013l0,0c0.001-0.002,0.001-0.004,0.002-0.006
		V9.673c0-0.002,0-0.004,0.001-0.005c0-0.001,0-0.001,0-0.001c0-0.002,0.001-0.003,0.001-0.006l0,0
		c0.001-0.002,0.001-0.004,0.001-0.006c0.001,0,0.001,0,0.001,0c0.099-0.47,0.156-0.955,0.168-1.451L15.248,8.186L15.248,8.186z
		 M15.519,5.261l-0.704,0.257c0.154,0.424,0.27,0.866,0.342,1.313l0.74-0.12C15.815,6.21,15.688,5.725,15.519,5.261L15.519,5.261z
		 M13.992,2.699l-0.562,0.497c0.3,0.339,0.569,0.708,0.801,1.096l0.645-0.384c-0.028-0.046-0.056-0.092-0.085-0.138l0,0
		c-0.002-0.003-0.004-0.006-0.006-0.01c0,0,0,0,0,0c-0.001-0.001-0.002-0.003-0.003-0.005l0,0C14.78,3.752,14.78,3.751,14.778,3.75
		c0,0,0,0,0,0c-0.001-0.001-0.002-0.003-0.003-0.005l0,0c-0.001-0.001-0.002-0.003-0.003-0.005c0,0,0,0,0,0
		c-0.001-0.001-0.002-0.003-0.003-0.004l-0.001,0c-0.001-0.001-0.001-0.002-0.002-0.004c-0.001,0-0.001,0-0.001-0.001
		c-0.001-0.001-0.002-0.002-0.003-0.004c0,0,0,0,0-0.001c-0.001-0.001-0.002-0.002-0.003-0.004c0,0,0-0.001-0.001-0.001
		c0-0.001-0.001-0.002-0.002-0.003c0,0-0.001-0.001-0.001-0.001c-0.001-0.001-0.002-0.002-0.002-0.004c-0.001,0-0.001,0-0.001-0.001
		c-0.001-0.001-0.002-0.002-0.003-0.004c0,0,0-0.001,0-0.001c-0.001-0.001-0.002-0.002-0.003-0.003c0,0,0-0.001-0.001-0.001
		c0-0.001-0.001-0.002-0.002-0.003c0,0-0.001-0.001-0.001-0.001c-0.001-0.001-0.001-0.002-0.002-0.003c0,0-0.001-0.001-0.001-0.002
		c-0.001,0-0.001,0-0.001-0.001c-0.003-0.004-0.006-0.009-0.009-0.014l0,0c-0.001-0.001-0.002-0.002-0.002-0.003
		c-0.001,0-0.001-0.001-0.002-0.002c0-0.001-0.001-0.002-0.002-0.003c0,0,0-0.001-0.001-0.002s-0.001-0.002-0.002-0.003
		c0,0-0.001-0.001-0.001-0.002c-0.001-0.001-0.002-0.002-0.002-0.003c-0.001,0-0.001-0.001-0.001-0.001
		c-0.001-0.001-0.002-0.002-0.003-0.003c0,0,0-0.001-0.001-0.001c-0.001-0.001-0.001-0.002-0.002-0.004
		c-0.001,0-0.001,0-0.001-0.001c-0.001-0.001-0.002-0.002-0.002-0.004c-0.001,0-0.001,0-0.001-0.001
		c-0.001-0.001-0.002-0.002-0.003-0.004c0,0,0-0.001-0.001-0.001c0-0.001-0.001-0.002-0.002-0.004c0,0-0.001-0.001-0.001-0.001
		c-0.001-0.001-0.002-0.002-0.003-0.004v0c-0.001-0.001-0.002-0.003-0.003-0.004c0,0,0,0,0-0.001
		c-0.001-0.001-0.002-0.002-0.003-0.004c0,0,0,0-0.001-0.001c-0.001-0.001-0.002-0.002-0.002-0.004c-0.001,0-0.001,0-0.001-0.001
		c-0.001-0.001-0.002-0.002-0.003-0.004c0,0,0,0,0-0.001c-0.001-0.001-0.002-0.002-0.003-0.004l-0.001-0.001
		c-0.001-0.001-0.001-0.002-0.002-0.004c-0.001,0-0.001,0-0.001-0.001c-0.001-0.001-0.002-0.002-0.003-0.004c0,0,0,0,0-0.001
		c-0.001-0.001-0.002-0.003-0.003-0.004c0,0,0,0-0.001,0C14.671,3.583,14.67,3.582,14.67,3.58c-0.001,0-0.001,0-0.001,0
		c-0.001-0.001-0.002-0.003-0.003-0.004c0,0,0,0,0,0c-0.001-0.001-0.002-0.003-0.003-0.004c0,0,0,0,0,0
		c-0.074-0.11-0.15-0.219-0.229-0.326l0,0c-0.001-0.001-0.002-0.003-0.003-0.005H14.43c-0.001-0.001-0.002-0.003-0.003-0.004l0,0
		c-0.001-0.002-0.002-0.003-0.004-0.005l0,0c-0.001-0.001-0.002-0.003-0.003-0.004v0c-0.002-0.001-0.003-0.003-0.004-0.004l0,0
		c-0.001-0.001-0.002-0.003-0.003-0.004l-0.001,0c-0.001-0.001-0.002-0.003-0.003-0.004v0c-0.001-0.001-0.002-0.002-0.003-0.004
		c-0.001,0-0.001,0-0.001-0.001c-0.001-0.001-0.002-0.002-0.003-0.004c0,0,0,0-0.001,0C14.4,3.2,14.399,3.199,14.398,3.197v0
		c-0.001-0.001-0.002-0.003-0.003-0.004c0,0-0.001,0-0.001-0.001c-0.001-0.001-0.002-0.002-0.003-0.003c0,0,0-0.001-0.001-0.001
		c-0.001-0.001-0.001-0.002-0.002-0.003c-0.001,0-0.001-0.001-0.001-0.001c-0.001-0.001-0.002-0.002-0.003-0.004
		c0,0-0.001,0-0.001-0.001c-0.001-0.001-0.002-0.002-0.003-0.004c0,0,0,0,0-0.001c-0.001-0.001-0.002-0.002-0.003-0.003
		c-0.001,0-0.001-0.001-0.001-0.001c-0.001-0.001-0.002-0.002-0.003-0.003l-0.001-0.001c-0.001-0.001-0.002-0.002-0.003-0.003
		c0,0,0-0.001-0.001-0.001c0-0.001-0.001-0.002-0.002-0.003c-0.001,0-0.001,0-0.001-0.001c-0.001-0.001-0.002-0.002-0.003-0.003
		c0,0-0.001-0.001-0.001-0.002c-0.001-0.001-0.002-0.002-0.003-0.003c0,0,0-0.001-0.001-0.001c0-0.001-0.001-0.002-0.002-0.003
		c0,0-0.001-0.001-0.001-0.002c-0.001-0.001-0.002-0.002-0.003-0.003v0c-0.001-0.001-0.002-0.003-0.003-0.004
		c-0.001,0-0.002-0.001-0.002-0.002c-0.001,0-0.002-0.001-0.002-0.002s0,0,0,0c-0.003-0.003-0.006-0.007-0.009-0.011
		c-0.001-0.001-0.002-0.002-0.002-0.003l-0.001,0c-0.001-0.001-0.002-0.003-0.003-0.004c0,0-0.001-0.001-0.001-0.001
		c-0.001-0.001-0.002-0.002-0.003-0.003c0-0.001-0.001-0.001-0.001-0.002c-0.001-0.001-0.002-0.001-0.002-0.003
		c-0.001,0-0.001-0.001-0.002-0.001c-0.001-0.001-0.001-0.002-0.002-0.003c-0.001,0-0.001,0-0.001-0.001
		c-0.001-0.001-0.002-0.002-0.003-0.003c0,0-0.001-0.001-0.001-0.001c-0.001-0.001-0.002-0.002-0.003-0.003c0,0,0-0.001-0.001-0.001
		C14.311,3.083,14.31,3.081,14.31,3.08c-0.001,0-0.001,0-0.002-0.001c-0.001-0.001-0.001-0.002-0.002-0.003
		c-0.001,0-0.001-0.001-0.001-0.001c-0.001-0.001-0.002-0.003-0.003-0.004c0,0-0.001,0-0.001-0.001
		c-0.001-0.001-0.002-0.002-0.003-0.004c0,0,0,0-0.001-0.001c-0.001-0.001-0.002-0.002-0.003-0.003c0,0,0-0.001,0-0.001
		c-0.002-0.001-0.002-0.002-0.004-0.004c0,0,0,0,0-0.001c-0.001-0.001-0.002-0.002-0.003-0.004c-0.001,0-0.001,0-0.001,0
		c-0.001-0.001-0.002-0.003-0.003-0.004c0,0,0,0-0.001,0c-0.001-0.001-0.002-0.002-0.003-0.004c0,0,0,0,0,0
		c-0.002-0.001-0.003-0.003-0.004-0.004c0,0,0,0,0,0c-0.001-0.001-0.002-0.002-0.004-0.004l0,0
		c-0.001-0.001-0.002-0.003-0.004-0.005l0,0c-0.001-0.001-0.002-0.003-0.003-0.004l0,0C14.176,2.913,14.085,2.805,13.992,2.699
		L13.992,2.699z M11.635,0.871l-0.341,0.668c0.401,0.206,0.787,0.451,1.146,0.728l0.459-0.593c-0.138-0.107-0.279-0.209-0.425-0.308
		c0,0,0,0,0,0c-0.014-0.009-0.026-0.018-0.04-0.026c0,0-0.001,0-0.001-0.001c-0.002-0.001-0.003-0.001-0.004-0.002
		c0,0-0.001,0-0.001-0.001c-0.002-0.001-0.003-0.001-0.004-0.002c-0.001,0-0.001,0-0.001-0.001c-0.002,0-0.003-0.001-0.004-0.002
		c-0.001,0-0.001,0-0.002-0.001s-0.002-0.001-0.003-0.002s-0.001-0.001-0.002-0.001s-0.002-0.001-0.003-0.002
		s-0.002-0.001-0.002-0.001c-0.001-0.001-0.002-0.001-0.003-0.002c-0.001,0-0.002-0.001-0.002-0.001
		c-0.001-0.001-0.002-0.001-0.003-0.002s-0.002-0.001-0.003-0.001c-0.001-0.001-0.001-0.001-0.002-0.002s-0.002-0.001-0.003-0.001
		S12.39,1.311,12.39,1.31c-0.001,0-0.002-0.001-0.003-0.001s-0.002-0.001-0.003-0.001c0,0-0.001-0.001-0.002-0.002
		s-0.002-0.001-0.003-0.001c0,0-0.001-0.001-0.002-0.001c-0.001-0.001-0.002-0.001-0.003-0.002c0,0-0.001-0.001-0.002-0.001
		s-0.002-0.001-0.003-0.001s-0.001-0.001-0.002-0.002c-0.001,0-0.002-0.001-0.003-0.001s-0.002-0.001-0.003-0.001
		c0,0-0.001-0.001-0.002-0.001c-0.001-0.001-0.002-0.001-0.003-0.002c0,0-0.001-0.001-0.002-0.001s-0.002-0.001-0.003-0.002
		s-0.001-0.001-0.002-0.001c-0.001-0.001-0.002-0.001-0.003-0.002s-0.001-0.001-0.002-0.001s-0.002-0.001-0.003-0.002
		s-0.001-0.001-0.002-0.001s-0.002-0.001-0.003-0.002c-0.001,0-0.001,0-0.002-0.001c-0.001-0.001-0.002-0.001-0.003-0.002
		s-0.001-0.001-0.002-0.001s-0.002-0.001-0.003-0.002c-0.001,0-0.002,0-0.002-0.001c-0.001,0-0.002-0.001-0.003-0.001
		S12.32,1.266,12.32,1.265c-0.001,0-0.003-0.001-0.004-0.002c0,0,0,0-0.001-0.001s-0.003-0.001-0.004-0.002l0,0
		c-0.002-0.001-0.003-0.002-0.005-0.003c0,0-0.001,0-0.001-0.001c-0.001,0-0.003-0.001-0.004-0.002l0,0
		C12.3,1.252,12.298,1.251,12.297,1.25l-0.001,0c-0.003-0.002-0.006-0.004-0.009-0.006l-0.001,0c-0.01-0.006-0.02-0.012-0.028-0.018
		l-0.001,0c-0.001-0.001-0.003-0.002-0.005-0.003l0,0c-0.001-0.001-0.002-0.001-0.004-0.002c0,0-0.001,0-0.001-0.001
		c-0.001-0.001-0.003-0.001-0.004-0.002c-0.001,0-0.001,0-0.001,0c-0.001-0.001-0.003-0.002-0.004-0.002c0,0-0.001,0-0.001,0
		c-0.002-0.001-0.003-0.002-0.005-0.003c0,0,0,0,0,0c-0.002,0-0.003-0.001-0.004-0.002c-0.001,0-0.001,0-0.002,0
		c-0.001-0.001-0.002-0.002-0.003-0.002s-0.001,0-0.002-0.001s-0.002-0.001-0.003-0.002S12.218,1.2,12.217,1.2
		c-0.001-0.001-0.002-0.001-0.004-0.002c0,0-0.001,0-0.001-0.001c-0.001,0-0.002-0.001-0.004-0.002c0,0-0.001,0-0.001-0.001
		c-0.001-0.001-0.003-0.001-0.004-0.002c0,0-0.001-0.001-0.001-0.001c-0.001-0.001-0.003-0.001-0.004-0.002c0,0-0.001,0-0.002-0.001
		s-0.002-0.001-0.003-0.002s-0.001,0-0.002-0.001c-0.001-0.001-0.002-0.001-0.003-0.002c-0.001,0-0.001,0-0.002,0
		c-0.001-0.001-0.002-0.001-0.003-0.002c-0.001,0-0.001,0-0.002-0.001s-0.002-0.001-0.004-0.002c0,0,0,0-0.001-0.001
		c-0.001-0.001-0.003-0.001-0.004-0.002l-0.001,0c-0.001-0.001-0.003-0.001-0.004-0.002c0,0-0.001,0-0.001-0.001
		c-0.002,0-0.003-0.001-0.004-0.002s-0.001,0-0.001-0.001c-0.002,0-0.003-0.001-0.004-0.002c-0.001,0-0.001,0-0.001,0
		c-0.002-0.001-0.003-0.001-0.005-0.002v0c-0.002-0.001-0.003-0.002-0.005-0.002c0,0,0,0-0.001,0
		c-0.001-0.001-0.002-0.002-0.004-0.003c0,0,0,0-0.001,0s-0.003-0.001-0.004-0.002l-0.001,0c-0.001-0.001-0.003-0.001-0.004-0.002
		c-0.001,0-0.001,0-0.001,0c-0.002-0.001-0.003-0.002-0.004-0.002s-0.001,0-0.002-0.001s-0.002-0.001-0.004-0.002l0,0
		c-0.012-0.007-0.023-0.014-0.035-0.021l0,0c-0.001-0.001-0.003-0.002-0.005-0.003l0,0c-0.001-0.001-0.003-0.002-0.004-0.002
		s-0.001,0-0.001,0c-0.002-0.001-0.003-0.002-0.004-0.002s-0.001,0-0.001,0C12.07,1.111,12.069,1.11,12.068,1.11
		s-0.001,0-0.002-0.001s-0.002-0.001-0.003-0.002s-0.001,0-0.002-0.001s-0.002-0.001-0.003-0.002s-0.001,0-0.002-0.001
		s-0.002-0.001-0.003-0.002S12.052,1.1,12.052,1.1c-0.001,0-0.002-0.001-0.003-0.002s-0.002-0.001-0.003-0.001
		s-0.002-0.001-0.003-0.001c0,0-0.001-0.001-0.002-0.001s-0.002-0.001-0.003-0.001s-0.002-0.001-0.002-0.001
		c-0.001,0-0.002-0.001-0.003-0.001s-0.002-0.001-0.002-0.001c-0.001,0-0.002-0.001-0.003-0.001s-0.002-0.001-0.003-0.001
		s-0.002-0.001-0.003-0.002c0,0-0.001-0.001-0.002-0.001c-0.001,0-0.002-0.001-0.003-0.001c-0.001-0.001-0.002-0.001-0.002-0.002
		c-0.001,0-0.002-0.001-0.003-0.001s-0.002-0.001-0.003-0.001s-0.001-0.001-0.002-0.001s-0.002-0.001-0.003-0.001
		s-0.002-0.001-0.003-0.001c0,0-0.001-0.001-0.002-0.001s-0.002-0.001-0.003-0.001s-0.002-0.001-0.003-0.001
		c0,0-0.001-0.001-0.002-0.001s-0.002-0.001-0.003-0.001s-0.001-0.001-0.002-0.001s-0.002-0.001-0.003-0.001
		S11.982,1.06,11.981,1.06c-0.001-0.001-0.001-0.001-0.002-0.001s-0.002-0.001-0.003-0.001s-0.002-0.001-0.003-0.002
		c-0.001,0-0.001,0-0.002-0.001c-0.001-0.001-0.002-0.001-0.004-0.002c0,0-0.001,0-0.001-0.001c-0.001,0-0.003-0.001-0.004-0.002
		s-0.001-0.001-0.002-0.001c-0.001-0.001-0.002-0.001-0.003-0.002s-0.001-0.001-0.002-0.001c-0.001-0.001-0.002-0.001-0.004-0.002
		l-0.001,0c-0.002-0.001-0.003-0.002-0.004-0.002c-0.001,0-0.001,0-0.001,0c-0.002-0.001-0.003-0.001-0.004-0.002
		c-0.001,0-0.001,0-0.002-0.001c-0.002-0.001-0.003-0.001-0.005-0.002l0,0c-0.013-0.007-0.024-0.014-0.037-0.021l0,0
		C11.892,1.008,11.885,1.004,11.878,1c-0.001,0-0.001,0-0.001,0C11.876,1,11.874,0.999,11.872,0.998l0,0
		c-0.002-0.001-0.003-0.002-0.005-0.003c0,0,0,0-0.001,0c-0.001-0.001-0.003-0.002-0.005-0.003l0,0
		c-0.001-0.001-0.003-0.002-0.005-0.002c0,0,0,0-0.001-0.001s-0.003-0.001-0.004-0.002c-0.001,0-0.001,0-0.001,0
		c-0.002-0.001-0.003-0.002-0.005-0.002c0,0,0,0,0,0c-0.002-0.001-0.004-0.002-0.005-0.002c0,0-0.001,0-0.001,0
		c-0.001-0.001-0.003-0.002-0.004-0.002s-0.001,0-0.001,0c-0.002-0.001-0.003-0.002-0.005-0.002c0,0,0,0-0.001,0
		c-0.001-0.001-0.003-0.002-0.004-0.002c-0.001,0-0.001,0-0.001,0c-0.001-0.001-0.003-0.002-0.005-0.002v0
		c-0.002-0.001-0.003-0.001-0.005-0.002l-0.001,0c-0.002-0.001-0.003-0.001-0.005-0.002l0,0C11.751,0.932,11.693,0.901,11.635,0.871
		L11.635,0.871z M8.771,0.037L8.7,0.783C9.151,0.826,9.6,0.912,10.033,1.039l0.209-0.72l0,0c-0.203-0.06-0.41-0.111-0.62-0.154l0,0
		c-0.002,0-0.004-0.001-0.006-0.001c0,0,0.001,0,0,0c-0.002,0-0.003,0-0.005-0.001H9.61c-0.002,0-0.003-0.001-0.005-0.001l0,0
		C9.59,0.158,9.575,0.155,9.56,0.152l0,0c-0.002,0-0.004-0.001-0.005-0.001l-0.001,0c-0.002,0-0.003,0-0.005,0c0,0-0.001,0-0.002,0
		c-0.001,0-0.002,0-0.004-0.001c0,0-0.001,0-0.002,0c-0.001,0-0.002-0.001-0.004-0.001c-0.001,0-0.001,0-0.002,0s-0.002,0-0.004,0
		c0,0-0.001,0-0.002,0c-0.001,0-0.002,0-0.004-0.001c0,0-0.001,0-0.002,0c-0.001,0-0.002,0-0.004,0c0,0-0.001,0-0.002,0
		s-0.002,0-0.004,0c0,0-0.001,0-0.002,0c-0.001,0-0.002,0-0.004-0.001c-0.001,0-0.001,0-0.002,0c-0.001,0-0.002,0-0.004-0.001
		c-0.001,0-0.001,0-0.002,0s-0.003,0-0.004,0l-0.002,0c-0.002,0-0.003,0-0.004-0.001c-0.001,0-0.002,0-0.003,0
		c-0.001,0-0.002,0-0.003,0c-0.002,0-0.004,0-0.006-0.001c-0.001,0-0.002,0-0.002,0c-0.002,0-0.003,0-0.004,0
		c-0.001,0-0.002,0-0.003,0c-0.001,0-0.002,0-0.003-0.001c-0.001,0-0.002,0-0.003,0c-0.001,0-0.002,0-0.003,0
		c-0.001,0-0.002,0-0.003,0c-0.001,0-0.002,0-0.003,0s-0.002,0-0.003,0c-0.001,0-0.002,0-0.004,0c0,0-0.001,0-0.002,0
		c-0.001,0-0.002,0-0.004-0.001c0,0-0.001,0-0.002,0c-0.001,0-0.003,0-0.004,0c-0.001,0-0.001,0-0.002,0c-0.002,0-0.003,0-0.004,0
		s-0.002,0-0.002,0c-0.002,0-0.003,0-0.004,0c-0.001,0-0.002,0-0.002,0c-0.002,0-0.003,0-0.004-0.001c-0.001,0-0.002,0-0.003,0
		c-0.001,0-0.003,0-0.004-0.001c-0.001,0-0.001,0-0.002,0c-0.001,0-0.003-0.001-0.005-0.001c0,0,0,0-0.001,0
		C9.393,0.121,9.38,0.119,9.368,0.116c-0.001,0-0.001,0-0.001,0c-0.002,0-0.004,0-0.006-0.001l0,0c-0.002,0-0.004,0-0.006-0.001
		c0,0,0,0-0.001,0c-0.001,0-0.003-0.001-0.005-0.001H9.349c-0.002,0-0.003-0.001-0.005-0.001c-0.001,0-0.001,0-0.001,0
		c-0.002,0-0.004,0-0.006,0c0,0,0,0,0,0c-0.002,0-0.004,0-0.006-0.001c0,0,0,0-0.001,0c-0.002,0-0.004,0-0.006-0.001l0,0
		c-0.002,0-0.004,0-0.006-0.001l0,0C9.138,0.078,8.956,0.054,8.771,0.037L8.771,0.037z"/>
</g>
<g>
	<path fill="#4D4D4D" d="M5.622,3.023c1.516,0,2.749,1.233,2.749,2.75s-1.233,2.75-2.749,2.75c-1.517,0-2.75-1.233-2.75-2.75
		S4.105,3.023,5.622,3.023 M5.622,2.273c-1.934,0-3.5,1.567-3.5,3.5c0,1.933,1.567,3.5,3.5,3.5c1.933,0,3.499-1.567,3.499-3.5
		C9.121,3.84,7.555,2.273,5.622,2.273L5.622,2.273z"/>
</g>
<path fill="#FBB03B" stroke="#4D4D4D" stroke-width="0.75" stroke-linecap="round" stroke-miterlimit="10" d="M5.644,4.879
	C5.936,4.894,4.839,7.664,5.338,7.74"/>
<circle fill="#4D4D4D" cx="5.705" cy="3.966" r="0.407"/>
<rect x="9.787" y="9.76" transform="matrix(0.8172 -0.5763 0.5763 0.8172 -4.8958 8.2815)" fill="#C1272D" width="1.645" height="4.199"/>
<g>
	<polygon fill="#FFFFFF" points="7.071,7.127 12.255,10.651 8.923,13.116 	"/>
	<path fill="#C1272D" d="M7.745,8.04l3.862,2.625l-0.545,0.402l-1.391,1.032l-0.547,0.403L7.745,8.04 M6.396,6.215l2.325,7.516
		l1.396-1.029l1.393-1.033l1.394-1.03L6.396,6.215L6.396,6.215z"/>
</g>
</svg>
