<?xml version="1.0" encoding="utf-8"?>
<svg version="1.1"
	 xmlns="http://www.w3.org/2000/svg" xmlns:xlink="http://www.w3.org/1999/xlink"
	 x="0px" y="0px" width="16px" height="16px" viewBox="0 0 16 16" enable-background="new 0 0 16 16" xml:space="preserve">
<defs>
</defs>
<rect display="none" fill="#333333" width="16" height="16"/>
<g>
	<rect x="0.375" y="10.474" fill="#FBB03B" width="15.25" height="5.151"/>
	<path fill="#FFFFFF" d="M15.25,10.849v4.401H0.75v-4.401H15.25 M16,10.099H0V16h16V10.099L16,10.099z"/>
</g>
<line fill="none" stroke="#FFFFFF" stroke-width="0.75" stroke-miterlimit="10" x1="2.286" y1="10.099" x2="2.286" y2="13.05"/>
<line fill="none" stroke="#FFFFFF" stroke-width="0.75" stroke-miterlimit="10" x1="9.143" y1="10.099" x2="9.143" y2="13.05"/>
<line fill="none" stroke="#FFFFFF" stroke-width="0.75" stroke-miterlimit="10" x1="11.429" y1="10.099" x2="11.429" y2="14.329"/>
<line fill="none" stroke="#FFFFFF" stroke-width="0.75" stroke-miterlimit="10" x1="13.714" y1="10.099" x2="13.714" y2="13.05"/>
<line fill="none" stroke="#FFFFFF" stroke-width="0.75" stroke-miterlimit="10" x1="6.857" y1="10.099" x2="6.857" y2="13.05"/>
<line fill="none" stroke="#FFFFFF" stroke-width="0.75" stroke-miterlimit="10" x1="4.571" y1="10.099" x2="4.571" y2="13.05"/>
<g>
	<polygon fill="#FBB03B" points="11.594,6.499 15,3.547 15,9.452 	"/>
	<path fill="#FBB03B" d="M14.75,4.095v1.238v2.336v1.236l-2.774-2.406L14.75,4.095 M15.25,3l-4.038,3.499L15.25,10V7.669V5.333V3
		L15.25,3z"/>
</g>
<g>
	<polygon fill="#FBB03B" points="1,3.548 4.405,6.501 1,9.452 	"/>
	<path fill="#FBB03B" d="M1.25,4.096l2.774,2.406L1.25,8.905v-1.24V5.332V4.096 M0.75,3v2.332v2.333V10l4.037-3.499L0.75,3L0.75,3z"
		/>
</g>
</svg>
