<?xml version="1.0" encoding="utf-8"?>
<svg version="1.1"
	 xmlns="http://www.w3.org/2000/svg" xmlns:xlink="http://www.w3.org/1999/xlink"
	 x="0px" y="0px" width="16px" height="16px" viewBox="0 0 16 16" enable-background="new 0 0 16 16" xml:space="preserve">
<defs>
</defs>
<rect display="none" fill="#4D4D4D" width="16" height="16"/>
<path fill="none" stroke="#FFFFFF" stroke-width="0.5" stroke-miterlimit="10" d="M1.375,8.952c0-1.784,1.752-3.229,3.918-3.229"/>
<g>
	<path fill="#662D91" d="M11.477,14.981c-0.779,0-1.628-0.256-2.522-0.76c-1.696-0.958-5.112-4.631-6.058-5.665L4.695,6.88
		c1.111,1.297,4.318,4.979,5.246,5.374c0.452,0.191,0.877,0.289,1.264,0.289c0.619,0,1.118-0.25,1.404-0.704
		c0.356-0.565,0.33-1.375-0.073-2.221C12.229,8.973,9.067,5.42,7.958,4.183l1.85-1.635c0.978,1.229,4.567,5.764,5.137,6.884
		c0.959,1.887,0.145,3.572-0.938,4.52C13.215,14.645,12.387,14.981,11.477,14.981z"/>
	<path fill="#FFFFFF" d="M9.76,3.09c1.534,1.931,4.377,5.58,4.85,6.511c1.085,2.134-0.377,3.652-0.851,4.067
		c-0.72,0.631-1.467,0.938-2.282,0.938c-0.714,0-1.5-0.239-2.338-0.712c-1.407-0.794-4.254-3.731-5.715-5.316l1.242-1.157
		c1.53,1.778,4.207,4.786,5.13,5.179c0.499,0.211,0.973,0.318,1.41,0.318c0.742,0,1.369-0.32,1.722-0.879
		c0.427-0.677,0.407-1.618-0.052-2.582C12.569,8.816,9.871,5.76,8.489,4.213L9.76,3.09 M9.854,2.006L7.426,4.152
		c0,0,4.442,4.935,4.771,5.627c0.641,1.342,0.169,2.389-0.992,2.389c-0.322,0-0.697-0.081-1.117-0.259
		C9.103,11.49,4.726,6.338,4.726,6.338L2.37,8.535c0,0,4.352,4.857,6.4,6.013c1.018,0.574,1.915,0.809,2.707,0.809
		c1.124,0,2.035-0.474,2.776-1.123c1.221-1.068,2.071-2.915,1.025-4.972C14.597,7.92,9.854,2.006,9.854,2.006L9.854,2.006z"/>
</g>
<path fill="none" stroke="#FFFFFF" stroke-width="0.5" stroke-miterlimit="10" d="M0.25,7.828c0-1.785,1.752-3.229,3.917-3.229"/>
<path fill="none" stroke="#FFFFFF" stroke-width="0.5" stroke-miterlimit="10" d="M6.591,4.603c0-1.785,1.752-3.229,3.918-3.229"/>
<path fill="none" stroke="#FFFFFF" stroke-width="0.5" stroke-miterlimit="10" d="M5.466,3.479c0-1.785,1.752-3.229,3.918-3.229"/>
</svg>
