<?xml version="1.0" encoding="utf-8"?>
<svg version="1.1"
	 xmlns="http://www.w3.org/2000/svg" xmlns:xlink="http://www.w3.org/1999/xlink"
	 x="0px" y="0px" width="16px" height="16px" viewBox="0 0 16 16" enable-background="new 0 0 16 16" xml:space="preserve">
<defs>
</defs>
<rect display="none" fill="#4D4D4D" width="16" height="16"/>
<g>
	<path fill="#0E6B99" d="M8,15.625c-4.205,0-7.625-3.42-7.625-7.624c0-4.205,3.42-7.626,7.625-7.626
		c4.204,0,7.625,3.421,7.625,7.626C15.625,12.205,12.204,15.625,8,15.625z"/>
	<path fill="#FFFFFF" d="M8,0.75c3.998,0,7.25,3.253,7.25,7.251c0,3.997-3.252,7.249-7.25,7.249c-3.998,0-7.25-3.252-7.25-7.249
		C0.75,4.003,4.002,0.75,8,0.75 M8,0C3.583,0,0,3.583,0,8.001C0,12.417,3.583,16,8,16c4.419,0,8-3.583,8-7.999
		C16,3.583,12.419,0,8,0L8,0z"/>
</g>
<g>
	<path fill="#666666" d="M4.631,8.887c-2.347,0-4.256-1.909-4.256-4.256s1.909-4.256,4.256-4.256s4.256,1.909,4.256,4.256
		S6.978,8.887,4.631,8.887z"/>
	<path fill="#FFFFFF" d="M4.631,0.75c2.14,0,3.881,1.741,3.881,3.881S6.771,8.512,4.631,8.512S0.75,6.771,0.75,4.631
		S2.491,0.75,4.631,0.75 M4.631,0C2.074,0,0,2.073,0,4.631c0,2.555,2.074,4.631,4.631,4.631c2.557,0,4.631-2.076,4.631-4.631
		C9.262,2.073,7.188,0,4.631,0L4.631,0z"/>
</g>
<g>
	<g>
		<path fill="#FFFFFF" d="M5.965,0.519C4.835,0.133,2.852-0.087,2.312,1.344C1.762,2.803,3.647,3.965,4.674,4.51
			c0.801,0.425,2.746,1.85,1.461,2.817C5.013,8.172,3.495,7.105,2.865,6.184C2.403,5.509,0.551,6.222,1.089,7.01
			c1.499,2.191,5.394,2.764,7.047,0.377c0.752-1.086,0.19-2.291-0.716-3.075C6.607,3.607,5.556,3.263,4.772,2.534
			c-0.271-0.252-0.474-0.556-0.577-0.91C4.095,1.277,4.382,1.492,3.976,1.54c0.272-0.032,0.607,0.131,0.856,0.216
			C5.602,2.019,7.107,0.91,5.965,0.519L5.965,0.519z"/>
	</g>
</g>
<g>
	<path fill="#E6E6E6" d="M12.5,15.625c-1.723,0-3.125-1.402-3.125-3.125s1.402-3.125,3.125-3.125s3.125,1.402,3.125,3.125
		S14.223,15.625,12.5,15.625z"/>
	<path fill="#FFFFFF" d="M12.5,9.75c1.517,0,2.75,1.233,2.75,2.75s-1.233,2.75-2.75,2.75s-2.75-1.233-2.75-2.75
		S10.983,9.75,12.5,9.75 M12.5,9C10.565,9,9,10.565,9,12.5c0,1.934,1.565,3.5,3.5,3.5s3.5-1.566,3.5-3.5C16,10.565,14.435,9,12.5,9
		L12.5,9z"/>
</g>
<line fill="#333333" stroke="#333333" stroke-width="0.75" stroke-linecap="round" stroke-miterlimit="10" x1="12.498" y1="10.553" x2="12.498" y2="14.447"/>
<line fill="#333333" stroke="#333333" stroke-width="0.75" stroke-linecap="round" stroke-miterlimit="10" x1="10.555" y1="12.5" x2="14.445" y2="12.5"/>
</svg>
