<?xml version="1.0" encoding="utf-8"?>
<svg version="1.1"
	 xmlns="http://www.w3.org/2000/svg" xmlns:xlink="http://www.w3.org/1999/xlink"
	 x="0px" y="0px" width="16px" height="16px" viewBox="0 0 16 16" enable-background="new 0 0 16 16" xml:space="preserve">
<defs>
</defs>
<rect display="none" fill="#4D4D4D" width="16" height="16"/>
<g>
	<path fill="#CCCCCC" d="M2.687,14.977c-0.307,0-0.573-0.064-0.79-0.189c-0.589-0.342-0.9-1.052-0.853-1.949
		c0.062-1.181,0.808-2.859,2.706-3.707C7,7.679,7.378,7.296,8.257,5.575C8.46,5.177,8.616,4.688,8.78,4.169
		c0.505-1.585,1.025-3.225,2.931-3.225c0.173,0,0.355,0.013,0.55,0.041c1.499,0.209,2.549,1.908,2.775,3.4
		c0.195,1.29-0.177,2.29-0.997,2.675c-0.84,0.396-1.718,0.5-2.566,0.601C9.975,7.838,8.425,8.022,7.712,9.995
		C6.531,13.266,4.29,14.977,2.687,14.977z"/>
	<path fill="#FFFFFF" d="M11.712,1.319L11.712,1.319c0.155,0,0.322,0.012,0.497,0.037c1.319,0.185,2.25,1.727,2.456,3.085
		c0.063,0.418,0.194,1.819-0.786,2.28c-0.784,0.37-1.631,0.47-2.45,0.567c-1.536,0.182-3.278,0.389-4.07,2.58
		c-1.254,3.473-3.481,4.733-4.672,4.733c-0.237,0-0.445-0.049-0.602-0.139c-0.463-0.269-0.706-0.854-0.666-1.605
		c0.061-1.159,0.853-2.655,2.484-3.385c3.203-1.431,3.729-1.849,4.688-3.728C8.808,5.32,8.968,4.816,9.138,4.283
		C9.707,2.493,10.194,1.319,11.712,1.319 M11.711,0.569c-2.874,0-3.009,3.304-3.788,4.835C7.089,7.038,6.743,7.383,3.597,8.788
		c-3.139,1.402-3.74,5.25-1.888,6.323c0.273,0.158,0.606,0.24,0.978,0.24c1.657,0,4.075-1.621,5.378-5.229
		c0.998-2.762,3.677-1.564,6.135-2.724c2.465-1.16,1.04-6.377-1.887-6.786C12.1,0.583,11.899,0.569,11.711,0.569L11.711,0.569z"/>
</g>
<g>
	<path fill="#BF9BDD" d="M1.841,4.847c0.631-0.329,1.41-1.538,1.961-2.912c0.865-2.153,3.33-1.71,3.576,0.183
		c0.178,1.374-0.569,3.711-1.92,4.725C4.579,7.502,1.229,8.271,0.677,7.265C0.264,6.511,0.544,5.522,1.841,4.847z"/>
	<path fill="none" stroke="#FFFFFF" stroke-width="0.75" stroke-miterlimit="10" stroke-dasharray="1.0005,1.0005" d="M1.841,4.847
		c0.631-0.329,1.41-1.538,1.961-2.912c0.865-2.153,3.33-1.71,3.576,0.183c0.178,1.374-0.569,3.711-1.92,4.725
		C4.579,7.502,1.229,8.271,0.677,7.265C0.264,6.511,0.544,5.522,1.841,4.847z"/>
</g>
<line fill="none" stroke="#9E005D" stroke-width="0.75" stroke-linecap="round" stroke-miterlimit="10" x1="10.555" y1="12.499" x2="14.445" y2="12.499"/>
<g>
	<path fill="#E6E6E6" d="M12.499,15.625c-1.723,0-3.124-1.402-3.124-3.126c0-1.723,1.401-3.124,3.124-3.124
		c1.724,0,3.126,1.401,3.126,3.124C15.625,14.223,14.223,15.625,12.499,15.625z"/>
	<path fill="#FFFFFF" d="M12.499,9.75c1.517,0,2.751,1.233,2.751,2.749c0,1.517-1.234,2.751-2.751,2.751
		c-1.516,0-2.749-1.234-2.749-2.751C9.75,10.983,10.983,9.75,12.499,9.75 M12.499,9C10.566,9,9,10.566,9,12.499
		C9,14.433,10.566,16,12.499,16C14.434,16,16,14.433,16,12.499C16,10.566,14.434,9,12.499,9L12.499,9z"/>
</g>
<line fill="none" stroke="#333333" stroke-width="0.75" stroke-linecap="round" stroke-miterlimit="10" x1="10.555" y1="12.499" x2="14.445" y2="12.499"/>
</svg>
