<?xml version="1.0" encoding="utf-8"?>
<svg version="1.1"
	 xmlns="http://www.w3.org/2000/svg" xmlns:xlink="http://www.w3.org/1999/xlink"
	 x="0px" y="0px" width="16px" height="16px" viewBox="-2.286 0 16 16" enable-background="new -2.286 0 16 16"
	 xml:space="preserve">
<defs>
</defs>
<g>
	<rect x="0.25" y="0.25" fill="#00A99D" width="10.929" height="15.5"/>
	<path fill="#FFFFFF" d="M10.929,0.5v15H0.5v-15H10.929 M11.429,0H0v16h11.429V0L11.429,0z"/>
</g>
<rect x="1.84" y="2" fill="#333333" stroke="#FFFFFF" stroke-width="0.5" stroke-miterlimit="10" width="7.75" height="1.292"/>
<rect x="1.84" y="5" fill="#333333" stroke="#FFFFFF" stroke-width="0.5" stroke-miterlimit="10" width="7.75" height="1.292"/>
<rect x="1.84" y="8" fill="#333333" stroke="#FFFFFF" stroke-width="0.5" stroke-miterlimit="10" width="7.75" height="1.291"/>
<path d="M2.327,11.265v0.779h-0.72v-0.615c0-0.334,0.04-0.574,0.12-0.724c0.104-0.199,0.27-0.35,0.496-0.451l0.164,0.261
	c-0.137,0.058-0.238,0.142-0.302,0.256c-0.064,0.112-0.101,0.277-0.108,0.494H2.327z M3.483,11.265v0.779h-0.72v-0.615
	c0-0.334,0.04-0.574,0.12-0.724c0.104-0.199,0.269-0.35,0.496-0.451l0.164,0.261c-0.137,0.058-0.238,0.142-0.302,0.256
	c-0.065,0.112-0.101,0.277-0.108,0.494H3.483z"/>
<path d="M3.899,14.201v-0.764h0.765v0.764H3.899z"/>
<path d="M5.385,14.201v-0.764H6.15v0.764H5.385z"/>
<path d="M6.872,14.201v-0.764h0.766v0.764H6.872z"/>
<path d="M7.988,11.07v-0.779h0.721v0.615c0,0.333-0.039,0.574-0.116,0.721c-0.106,0.202-0.273,0.353-0.499,0.456l-0.165-0.267
	c0.135-0.055,0.234-0.141,0.301-0.259s0.103-0.28,0.109-0.487H7.988z M9.145,11.07v-0.779h0.72v0.615
	c0,0.333-0.038,0.574-0.115,0.721c-0.107,0.202-0.273,0.353-0.5,0.456l-0.165-0.267c0.135-0.055,0.235-0.141,0.302-0.259
	c0.065-0.118,0.102-0.28,0.109-0.487H9.145z"/>
</svg>
