<?xml version="1.0" encoding="utf-8"?>
<svg version="1.1"
	 xmlns="http://www.w3.org/2000/svg" xmlns:xlink="http://www.w3.org/1999/xlink"
	 x="0px" y="0px" width="16px" height="16px" viewBox="0 0 16 16" enable-background="new 0 0 16 16" xml:space="preserve">
<defs>
</defs>
<g>
	<path fill="#00A99D" d="M5.08,15.625c-0.262,0-0.511-0.062-0.686-0.167c-0.113-0.068-0.183-0.149-0.183-0.212L4.213,3.175
		c0-0.132,0.332-0.378,0.872-0.378c0.405,0,0.684,0.137,0.801,0.254C5.917,3.083,5.955,3.13,5.954,3.176L5.95,15.246
		C5.95,15.379,5.619,15.625,5.08,15.625z"/>
	<path fill="#FFFFFF" d="M5.087,3.172c0.242,0,0.413,0.063,0.492,0.112L5.575,15.138c-0.079,0.049-0.25,0.112-0.494,0.112
		c-0.243,0-0.415-0.064-0.494-0.113L4.588,3.286c0.079-0.049,0.251-0.114,0.497-0.114H5.087 M5.087,2.422c-0.001,0-0.002,0-0.003,0
		c-0.689,0-1.245,0.337-1.247,0.753l-0.001,12.07C3.835,15.663,4.393,15.999,5.08,16c0.69,0,1.245-0.336,1.245-0.754L6.329,3.178
		C6.332,2.76,5.775,2.422,5.087,2.422L5.087,2.422z"/>
</g>
<g>
	<polygon fill="#00A99D" points="0,0 11,0 16,3.022 11,6.045 0,6.045 	"/>
	<path fill="#FFFFFF" d="M8,0H6.5v0.75H8V0L8,0z M5,0H3.5v0.75H5V0L5,0z M2,0H0.5v0.75H2V0L2,0z M0.75,1H0v1.5h0.75V1L0.75,1z
		 M0.75,4H0v1.5h0.75V4L0.75,4z M2.455,5.295h-1.5v0.75h1.5V5.295L2.455,5.295z M5.455,5.295h-1.5v0.75h1.5V5.295L5.455,5.295z
		 M8.455,5.295h-1.5v0.75h1.5V5.295L8.455,5.295z M11.001,5.168l-0.21,0.127H9.954v0.75H11l0,0l0,0l0,0l0,0l0,0l0,0l0,0l0,0l0,0l0,0
		c0,0,0.006-0.003,0.017-0.01l0.001,0c0.002-0.001,0.005-0.003,0.008-0.005v0c0.003-0.001,0.007-0.003,0.01-0.006l0.003-0.001l0,0
		l0.003-0.001v0l0.004-0.002h0.001l0.006-0.004l0,0l0.337-0.204L11.001,5.168L11.001,5.168z M13.568,3.616l-1.284,0.776l0.389,0.642
		l1.283-0.776L13.568,3.616L13.568,3.616z M15.275,2.584L14.852,2.84l0.272,0.449l-0.035,0.058l0.11,0.067l0.041,0.067
		c0,0,0.013-0.008,0.035-0.021l0,0L16,3.022l0,0L15.275,2.584L15.275,2.584z M12.909,1.154l-0.388,0.642l1.283,0.776l0.388-0.642
		L12.909,1.154L12.909,1.154z M11,0H9.5v0.75h1.291l0.446,0.27l0.388-0.642L11,0L11,0L11,0z"/>
</g>
</svg>
