<?xml version="1.0" encoding="utf-8"?>
<svg version="1.1"
	 xmlns="http://www.w3.org/2000/svg" xmlns:xlink="http://www.w3.org/1999/xlink"
	 x="0px" y="0px" width="16px" height="16px" viewBox="-0.576 -0.111 16 16" enable-background="new -0.576 -0.111 16 16"
	 xml:space="preserve">
<defs>
</defs>
<rect x="3.454" y="4.092" transform="matrix(0.8659 0.5003 -0.5003 0.8659 3.9958 -3.4279)" fill="#17C934" width="9.872" height="3.291"/>
<rect x="1.808" y="6.941" transform="matrix(0.8659 0.5003 -0.5003 0.8659 5.2005 -2.222)" fill="#FFC522" width="9.872" height="3.291"/>
<rect x="0.161" y="9.791" transform="matrix(0.8658 0.5003 -0.5003 0.8658 6.4058 -1.0159)" fill="#2E3192" width="9.872" height="3.291"/>
<path fill="#B3B3B3" stroke="#FFFFFF" stroke-width="0.75" stroke-miterlimit="10" d="M7.955,9.891
	c-0.391,0.516-1.003,0.706-1.37,0.428L5.921,9.816c-0.367-0.278-0.35-0.92,0.041-1.434L11.61,0.93
	c0.39-0.514,1.003-0.706,1.37-0.428l0.664,0.503c0.367,0.278,0.348,0.921-0.041,1.435L7.955,9.891z"/>
<g>
	<path fill="#808080" d="M7.295,13.779c-0.295,0-0.531-0.183-0.959-0.515L3.15,10.85c-0.835-0.673-1.027-0.948-0.337-1.831
		l1.581-2.086c0.225-0.296,0.58-0.466,0.974-0.466c0.309,0,0.621,0.107,0.876,0.301l3.188,2.416c0.285,0.216,0.48,0.52,0.549,0.854
		c0.073,0.354-0.001,0.699-0.208,0.973l-1.584,2.091C7.898,13.48,7.668,13.779,7.295,13.779z"/>
	<path fill="#FFFFFF" d="M5.368,6.841c0.22,0,0.451,0.074,0.65,0.225l3.188,2.416c0.439,0.333,0.561,0.917,0.269,1.302l-1.584,2.091
		c-0.277,0.36-0.42,0.529-0.596,0.529c-0.167,0-0.362-0.152-0.73-0.437l-3.188-2.416C2.647,9.962,2.575,9.932,3.108,9.25l1.584-2.09
		C4.853,6.949,5.103,6.841,5.368,6.841 M5.368,6.091L5.368,6.091c-0.512,0-0.976,0.224-1.272,0.614L2.511,8.796
		c-0.828,1.06-0.563,1.566,0.344,2.297l0.052,0.042l3.206,2.43c0.455,0.353,0.76,0.589,1.183,0.589c0.559,0,0.879-0.418,1.19-0.822
		l1.587-2.095c0.27-0.355,0.371-0.82,0.276-1.275c-0.087-0.424-0.332-0.807-0.689-1.077L6.471,6.469
		C6.15,6.226,5.759,6.091,5.368,6.091L5.368,6.091z"/>
</g>
<line fill="#808080" stroke="#FFFFFF" stroke-miterlimit="10" x1="4.934" y1="6.694" x2="9.888" y2="10.449"/>
<line fill="none" stroke="#FFFFFF" stroke-width="0.5" stroke-miterlimit="10" x1="5.254" y1="8.839" x2="3.638" y2="10.969"/>
<line fill="none" stroke="#FFFFFF" stroke-width="0.5" stroke-miterlimit="10" x1="6.45" y1="9.744" x2="4.834" y2="11.875"/>
<line fill="none" stroke="#FFFFFF" stroke-width="0.5" stroke-miterlimit="10" x1="7.645" y1="10.65" x2="6.029" y2="12.782"/>
</svg>
