<?xml version="1.0" encoding="utf-8"?>
<svg version="1.1"
	 xmlns="http://www.w3.org/2000/svg" xmlns:xlink="http://www.w3.org/1999/xlink"
	 x="0px" y="0px" width="16px" height="16px" viewBox="0 0 16 16" enable-background="new 0 0 16 16" xml:space="preserve">
<defs>
</defs>
<rect display="none" fill="#4D4D4D" width="16" height="16"/>
<path fill="#CCCCCC" stroke="#FFFFFF" stroke-width="0.75" stroke-miterlimit="10" d="M3.598,8.789
	c3.146-1.406,3.492-1.75,4.326-3.384c0.83-1.632,0.929-5.277,4.389-4.792C15.241,1.021,16.665,6.24,14.2,7.4
	c-2.458,1.159-5.137-0.039-6.134,2.724c-1.596,4.416-4.862,5.854-6.357,4.988C-0.143,14.039,0.458,10.19,3.598,8.789z"/>
<g>
	<path fill="#E6E6E6" d="M12.5,15.625c-1.723,0-3.125-1.401-3.125-3.125c0-1.723,1.402-3.125,3.125-3.125s3.125,1.402,3.125,3.125
		C15.625,14.224,14.223,15.625,12.5,15.625z"/>
	<path fill="#FFFFFF" d="M12.5,9.75c1.517,0,2.75,1.234,2.75,2.75c0,1.518-1.233,2.75-2.75,2.75s-2.75-1.232-2.75-2.75
		C9.75,10.984,10.983,9.75,12.5,9.75 M12.5,9C10.565,9,9,10.566,9,12.5s1.565,3.5,3.5,3.5s3.5-1.566,3.5-3.5S14.435,9,12.5,9L12.5,9
		z"/>
</g>
<line fill="#333333" stroke="#333333" stroke-width="0.75" stroke-linecap="round" stroke-miterlimit="10" x1="12.498" y1="10.553" x2="12.498" y2="14.447"/>
<line fill="#333333" stroke="#333333" stroke-width="0.75" stroke-linecap="round" stroke-miterlimit="10" x1="10.555" y1="12.5" x2="14.445" y2="12.5"/>
<path fill="#FFFFFF" stroke="#FFFFFF" stroke-width="0.5" stroke-miterlimit="10" d="M10.956,2.232
	c1.759-1.022,2.596,0.408,2.801,0.776c0.369,0.664,0.981,2.391-0.042,3.311c-0.511,0.458-3.073,0.747-3.697-0.716
	C9.424,4.214,9.659,2.986,10.956,2.232z"/>
</svg>
