<?xml version="1.0" encoding="utf-8"?>
<svg version="1.1"
	 xmlns="http://www.w3.org/2000/svg" xmlns:xlink="http://www.w3.org/1999/xlink"
	 x="0px" y="0px" width="16px" height="16px" viewBox="-0.322 -0.041 16 16" enable-background="new -0.322 -0.041 16 16"
	 xml:space="preserve">
<defs>
</defs>
<path fill="#C09AE2" stroke="#FFFFFF" stroke-width="0.75" stroke-miterlimit="10" d="M3.583,4.556
	C6.18,4.267,6.51,4.098,7.489,3.111c0.977-0.987,1.889-3.598,4.279-2.449c2.02,0.971,1.843,5.069-0.204,5.339
	C9.519,6.27,7.861,4.787,6.503,6.551C4.331,9.375,1.639,9.66,0.759,8.688C-0.332,7.486,0.992,4.845,3.583,4.556z"/>
<path fill="#662D91" stroke="#FFFFFF" stroke-width="0.75" stroke-miterlimit="10" d="M5.583,5.556
	C8.18,5.267,8.51,5.098,9.489,4.111c0.977-0.987,1.889-3.598,4.279-2.449c2.02,0.971,1.843,5.069-0.204,5.339
	c-2.045,0.269-3.703-1.214-5.061,0.55c-2.172,2.823-4.864,3.108-5.744,2.137C1.668,8.486,2.992,5.845,5.583,5.556z"/>
<g>
	<polygon fill="#662D91" points="9.154,10.168 8.316,11.005 8.316,8.598 10.723,8.598 9.886,9.434 10.973,10.521 10.24,11.255 	"/>
	<path fill="#FFFFFF" d="M10.119,8.848L9.886,9.081L9.533,9.434l0.354,0.354l0.733,0.733l-0.38,0.381l-0.732-0.733L9.154,9.815
		L8.8,10.168l-0.234,0.233V8.848L10.119,8.848 M11.327,8.348l-3.26,0v3.261l1.087-1.087l1.086,1.087l1.087-1.088L10.24,9.434
		L11.327,8.348L11.327,8.348z"/>
</g>
<g>
	<polygon fill="#662D91" points="13.018,15.709 13.856,14.872 12.768,13.785 13.502,13.051 14.589,14.138 15.428,13.3 
		15.428,15.709 	"/>
	<path fill="#FFFFFF" d="M13.502,13.405l0.733,0.733l0.354,0.354l0.354-0.354l0.235-0.235v1.557h-1.557l0.234-0.234l0.354-0.354
		l-0.354-0.354l-0.734-0.733L13.502,13.405 M15.678,12.698l-1.089,1.087l-1.087-1.087l-1.088,1.087l1.088,1.087l-1.088,1.088h3.264
		V12.698L15.678,12.698z"/>
</g>
<g>
	<polygon fill="#662D91" points="12.77,10.521 13.857,9.434 13.02,8.598 15.428,8.598 15.428,11.005 14.589,10.167 13.503,11.254 	
		"/>
	<path fill="#FFFFFF" d="M13.625,8.848l1.554,0v1.555l-0.235-0.235l-0.354-0.354l-0.354,0.354l-0.732,0.733l-0.38-0.38l0.733-0.733
		l0.354-0.354l-0.354-0.354L13.625,8.848 M12.417,8.348l1.087,1.086l-1.087,1.087l1.087,1.087l1.086-1.087l1.089,1.088V8.348
		L12.417,8.348L12.417,8.348z"/>
</g>
<g>
	<polygon fill="#662D91" points="8.301,15.708 8.301,13.299 9.138,14.137 10.224,13.049 10.958,13.784 9.873,14.87 10.709,15.708 	
		"/>
	<path fill="#FFFFFF" d="M10.224,13.403l0.381,0.381l-0.732,0.732L9.519,14.87l0.354,0.354l0.233,0.234H8.551v-1.555l0.234,0.234
		l0.354,0.354l0.354-0.354L10.224,13.403 M8.051,12.695v3.263h3.261l-1.086-1.088l1.086-1.086l-1.088-1.088l-1.086,1.088
		L8.051,12.695L8.051,12.695z"/>
</g>
</svg>
