<?xml version="1.0" encoding="utf-8"?>
<svg version="1.1"
	 xmlns="http://www.w3.org/2000/svg" xmlns:xlink="http://www.w3.org/1999/xlink"
	 x="0px" y="0px" width="16px" height="16px" viewBox="0 0 16 16" enable-background="new 0 0 16 16" xml:space="preserve">
<defs>
</defs>
<g>
	<path fill="#999999" d="M8,15.625c-4.205,0-7.625-3.42-7.625-7.624c0-4.205,3.42-7.626,7.625-7.626
		c4.204,0,7.625,3.421,7.625,7.626C15.625,12.205,12.204,15.625,8,15.625z"/>
	<path fill="#FFFFFF" d="M8,0.75c3.998,0,7.25,3.253,7.25,7.251c0,3.997-3.252,7.249-7.25,7.249c-3.998,0-7.25-3.252-7.25-7.249
		C0.75,4.003,4.002,0.75,8,0.75 M8,0C3.583,0,0,3.583,0,8.001C0,12.417,3.583,16,8,16c4.419,0,8-3.583,8-7.999
		C16,3.583,12.419,0,8,0L8,0z"/>
</g>
<path fill="none" stroke="#FFFFFF" stroke-width="0.75" stroke-miterlimit="10" d="M0.343,6.857c0,0,2.743-2.316,7.657-2.286
	c4.906,0.031,7.657,2.286,7.657,2.286"/>
<path fill="none" stroke="#FFFFFF" stroke-width="0.75" stroke-miterlimit="10" d="M0.435,9.143c0,0,2.651,2.238,7.565,2.286
	c5.297,0.051,7.665-2.286,7.665-2.286"/>
<path fill="none" stroke="#FFFFFF" stroke-width="0.75" stroke-miterlimit="10" d="M6.857,0.343c0,0-2.276,2.543-2.286,7.657
	c-0.009,4.771,2.286,7.657,2.286,7.657"/>
<path fill="none" stroke="#FFFFFF" stroke-width="0.75" stroke-miterlimit="10" d="M9.143,0.343c0,0,2.265,2.759,2.286,7.657
	c0.021,4.901-2.286,7.509-2.286,7.509"/>
<g>
	<path fill="#E6E6E6" d="M12.5,15.625c-1.723,0-3.125-1.402-3.125-3.125s1.402-3.125,3.125-3.125s3.125,1.402,3.125,3.125
		S14.223,15.625,12.5,15.625z"/>
	<path fill="#FFFFFF" d="M12.5,9.75c1.517,0,2.75,1.233,2.75,2.75s-1.233,2.75-2.75,2.75s-2.75-1.233-2.75-2.75
		S10.983,9.75,12.5,9.75 M12.5,9C10.565,9,9,10.565,9,12.5c0,1.934,1.565,3.5,3.5,3.5s3.5-1.566,3.5-3.5C16,10.565,14.435,9,12.5,9
		L12.5,9z"/>
</g>
<line fill="#333333" stroke="#333333" stroke-width="0.75" stroke-linecap="round" stroke-miterlimit="10" x1="12.498" y1="10.553" x2="12.498" y2="14.447"/>
<line fill="#333333" stroke="#333333" stroke-width="0.75" stroke-linecap="round" stroke-miterlimit="10" x1="10.555" y1="12.5" x2="14.445" y2="12.5"/>
</svg>
