<?xml version="1.0" encoding="utf-8"?>
<svg version="1.1"
	 xmlns="http://www.w3.org/2000/svg" xmlns:xlink="http://www.w3.org/1999/xlink"
	 x="0px" y="0px" width="16px" height="16px" viewBox="0 0 16 16" enable-background="new 0 0 16 16" xml:space="preserve">
<defs>
</defs>
<g>
	<path fill="#999999" d="M11.618,15.625c-2.211,0-4.01-1.799-4.01-4.01s1.799-4.009,4.01-4.009c2.209,0,4.007,1.798,4.007,4.009
		S13.827,15.625,11.618,15.625z"/>
	<path fill="#FFFFFF" d="M11.618,7.981c2.003,0,3.632,1.63,3.632,3.634s-1.629,3.635-3.632,3.635c-2.005,0-3.635-1.631-3.635-3.635
		S9.613,7.981,11.618,7.981 M11.618,7.231c-2.423,0-4.385,1.963-4.385,4.384S9.195,16,11.618,16C14.038,16,16,14.036,16,11.615
		S14.038,7.231,11.618,7.231L11.618,7.231z"/>
</g>
<path fill="#FBB03B" stroke="#FFFFFF" stroke-width="0.75" stroke-linecap="round" stroke-miterlimit="10" d="M11.646,10.495
	c0.365,0.019-1.009,3.489-0.384,3.583"/>
<circle fill="#FFFFFF" cx="11.793" cy="9.423" r="0.438"/>
<g>
	<path fill="#333333" d="M5.849,11.321c-3.019,0-5.474-2.455-5.474-5.473s2.456-5.473,5.474-5.473c3.017,0,5.471,2.455,5.471,5.473
		S8.866,11.321,5.849,11.321z"/>
	<path fill="#FFFFFF" d="M5.849,0.75c2.81,0,5.096,2.287,5.096,5.098s-2.286,5.098-5.096,5.098c-2.812,0-5.099-2.287-5.099-5.098
		S3.038,0.75,5.849,0.75 M5.849,0C2.618,0,0,2.618,0,5.848c0,3.229,2.618,5.848,5.849,5.848c3.229,0,5.846-2.619,5.846-5.848
		C11.695,2.618,9.078,0,5.849,0L5.849,0z"/>
</g>
<path fill="#FBB03B" stroke="#FFFFFF" stroke-width="0.75" stroke-linecap="round" stroke-miterlimit="10" d="M5.886,4.354
	c0.487,0.024-1.345,4.652-0.512,4.78"/>
<circle fill="#FFFFFF" cx="6.083" cy="2.924" r="0.585"/>
</svg>
