<?xml version="1.0" encoding="utf-8"?>
<svg version="1.1"
	 xmlns="http://www.w3.org/2000/svg" xmlns:xlink="http://www.w3.org/1999/xlink"
	 x="0px" y="0px" width="16px" height="16px" viewBox="0 0 16 16" enable-background="new 0 0 16 16" xml:space="preserve">
<defs>
</defs>
<g>
	<path fill="#333333" d="M4.221,15.25C3.043,13.151-0.89,5.681,0.772,2.301c0.354-0.719,1.27-1.926,3.423-1.926
		c2.079,0.014,3.03,1.079,3.467,1.971C9.332,5.745,5.401,13.162,4.221,15.25z"/>
	<path fill="#FFFFFF" d="M4.195,0l0.037,0.75c1.849,0.012,2.703,0.964,3.095,1.761c1.353,2.754-1.367,8.806-3.105,11.979
		c-1.737-3.192-4.46-9.282-3.113-12.022C1.495,1.684,2.343,0.75,4.195,0.75V0 M4.195,0C2.168,0,0.998,0.995,0.436,2.136
		C-1.612,6.301,4.219,16,4.219,16S10.057,6.368,8,2.18C7.433,1.027,6.287,0.014,4.237,0C4.223,0,4.209,0,4.195,0L4.195,0z"/>
</g>
<circle fill="#FFFFFF" stroke="#FFFFFF" stroke-width="0.75" stroke-miterlimit="10" cx="4.313" cy="4.252" r="1.784"/>
<polyline fill="none" stroke="#FFFFFF" stroke-width="0.75" stroke-linecap="round" stroke-miterlimit="10" points="10.773,12.711 
	12.574,14.547 14.443,12.711 "/>
<line fill="none" stroke="#FFFFFF" stroke-width="0.75" stroke-linecap="round" stroke-miterlimit="10" x1="12.574" y1="14.47" x2="12.574" y2="10.397"/>
<rect x="14" y="6.826" fill="#F2F2F2" width="2" height="9.174"/>
<rect x="11.259" y="8.423" fill="#F2F2F2" width="2" height="7.577"/>
<rect x="8.476" y="10.002" fill="#F2F2F2" width="2" height="5.998"/>
</svg>
