<?xml version="1.0" encoding="utf-8"?>
<svg version="1.1"
	 xmlns="http://www.w3.org/2000/svg" xmlns:xlink="http://www.w3.org/1999/xlink"
	 x="0px" y="0px" width="16px" height="16px" viewBox="-1.558 -0.271 16 16" enable-background="new -1.558 -0.271 16 16"
	 xml:space="preserve">
<defs>
</defs>
<g>
	<linearGradient id="SVGID_1_" gradientUnits="userSpaceOnUse" x1="0.6079" y1="14.0864" x2="13.4701" y2="0.6109">
		<stop  offset="0" style="stop-color:#733B00"/>
		<stop  offset="0.1526" style="stop-color:#743D02"/>
		<stop  offset="0.2392" style="stop-color:#77420B"/>
		<stop  offset="0.3092" style="stop-color:#7C4B18"/>
		<stop  offset="0.3704" style="stop-color:#83592C"/>
		<stop  offset="0.4258" style="stop-color:#8C6A46"/>
		<stop  offset="0.4771" style="stop-color:#987F65"/>
		<stop  offset="0.5242" style="stop-color:#A5988A"/>
		<stop  offset="0.5685" style="stop-color:#B4B4B4"/>
		<stop  offset="0.9888" style="stop-color:#181818"/>
	</linearGradient>
	<path fill="url(#SVGID_1_)" d="M0.907,14.387c-0.145,0-0.273-0.049-0.373-0.143c-0.071-0.066-0.156-0.188-0.159-0.379
		c-0.015-0.999,3.643-4.798,5.825-6.974c0.701-0.698,0.999-1.188,0.908-1.497C7.087,5.32,7.021,5.188,6.94,5.021
		C6.55,4.206,5.896,2.841,6.758,2.29C6.85,2.231,6.954,2.2,7.058,2.2c0.407,0,0.653,0.412,0.937,0.888
		c0.121,0.203,0.356,0.597,0.511,0.715c0.169-0.148,0.489-0.599,0.73-0.938c0.789-1.109,1.771-2.49,2.909-2.49
		c0.38,0,0.734,0.153,1.055,0.455c0.439,0.416,0.646,0.878,0.611,1.376c-0.079,1.159-1.477,2.156-2.497,2.884
		c-0.291,0.208-0.642,0.458-0.795,0.607c0.182,0.218,0.651,0.521,0.923,0.697c0.517,0.333,0.858,0.554,0.683,0.927
		C11.939,7.72,11.594,7.94,11.152,7.94c-0.494,0-1.033-0.265-1.509-0.498C9.409,7.328,9.143,7.197,9.023,7.18
		c-0.002,0-0.005,0-0.007,0c-0.395,0-0.836,0.37-1.484,1.005C7.119,8.591,6.519,9.234,5.85,9.952
		C2.932,13.08,1.601,14.387,0.907,14.387z"/>
	<path fill="#FFFFFF" d="M12.146,0.75c0.268,0,0.534,0.105,0.797,0.353c2.081,1.964-3.051,4.045-2.84,4.619
		c0.21,0.575,1.769,1.259,1.684,1.439c-0.138,0.296-0.365,0.404-0.634,0.404c-0.684,0-1.636-0.694-2.076-0.757
		C9.037,6.803,8.999,6.8,8.96,6.8c-0.477,0-0.967,0.408-1.69,1.117C5.758,9.4,1.794,14.012,0.907,14.012
		c-0.047,0-0.086-0.013-0.115-0.04c-0.528-0.497,4.055-5.201,5.673-6.814C7.287,6.34,7.608,5.769,7.469,5.29
		C7.353,4.892,6.217,3.082,6.96,2.605c0.032-0.021,0.065-0.03,0.098-0.03c0.411,0,0.854,1.508,1.435,1.628
		c0.009,0.002,0.019,0.003,0.027,0.003C9.102,4.207,10.618,0.75,12.146,0.75 M12.146,0C10.813,0,9.77,1.468,8.931,2.647
		c-0.128,0.18-0.281,0.396-0.415,0.571C8.442,3.105,8.369,2.983,8.317,2.896C8.003,2.37,7.678,1.825,7.058,1.825
		c-0.176,0-0.35,0.051-0.501,0.148c-1.141,0.73-0.369,2.343,0.046,3.21c0.066,0.139,0.124,0.252,0.148,0.324l0,0
		c0,0,0.05,0.257-0.815,1.118C-0.019,12.565-0.005,13.514,0,13.871c0.003,0.253,0.103,0.482,0.278,0.647
		c0.167,0.157,0.39,0.244,0.629,0.244c0.829,0,2.029-1.137,5.217-4.555C6.803,9.479,7.39,8.85,7.795,8.452
		C8.047,8.206,8.716,7.55,8.96,7.55c0.089,0.019,0.348,0.145,0.519,0.229c0.512,0.251,1.093,0.536,1.674,0.536
		c0.587,0,1.065-0.305,1.313-0.837c0.314-0.667-0.314-1.073-0.82-1.399c-0.139-0.089-0.36-0.232-0.546-0.37
		c0.14-0.104,0.298-0.217,0.433-0.313c1.081-0.771,2.562-1.828,2.653-3.164c0.029-0.423-0.074-1.056-0.729-1.674
		C13.065,0.188,12.624,0,12.146,0L12.146,0z"/>
</g>
<path fill="#FFFFFF" stroke="#FFFFFF" stroke-width="0.75" stroke-linecap="round" stroke-miterlimit="10" d="M7.142,5.421
	c0,0,0.487,0.741,0.716,0.958c0.229,0.217,1.185,0.772,1.185,0.772"/>
</svg>
