<?xml version="1.0" encoding="utf-8"?>
<svg version="1.1"
	 xmlns="http://www.w3.org/2000/svg" xmlns:xlink="http://www.w3.org/1999/xlink"
	 x="0px" y="0px" width="16px" height="16px" viewBox="0 0 16 16" enable-background="new 0 0 16 16" xml:space="preserve">
<defs>
</defs>
<g>
	<rect x="0.375" y="0.375" fill="#006837" width="15.25" height="15.25"/>
	<path fill="#FFFFFF" d="M15.25,0.75v14.5H0.75V0.75H15.25 M16,0H0v16h16V0L16,0z"/>
</g>
<g>
	<polygon fill="#FFFFFF" points="7.476,11.959 5.905,9.37 5.921,8.66 9.811,8.66 9.811,9.436 8.278,11.894 8.26,13.951 
		7.476,14.343 	"/>
	<path fill="#FFFFFF" d="M9.686,8.785v0.581l-1.514,2.463l-0.037,0.061v0.07v1.915l-0.534,0.267v-2.182v-0.07l-0.037-0.061
		L6.049,9.365V8.785h0.478H9.686 M9.936,8.535H6.527H5.799v0.901l1.552,2.523v2.586l1.034-0.517v-2.069l1.551-2.523V8.535
		L9.936,8.535z"/>
</g>
<line fill="none" stroke="#FFFFFF" stroke-width="0.25" stroke-miterlimit="10" x1="5.872" y1="9.32" x2="9.912" y2="9.32"/>
<path fill="#FFFFFF" d="M5.194,10.073L1.942,6.978v-1.95l3.252-3.101v2.331L3.219,6.007l1.976,1.749V10.073z"/>
<path fill="#FFFFFF" d="M5.395,5.577h1.244v1.342H5.395V5.577z"/>
<path fill="#FFFFFF" d="M7.346,5.577H8.59V6.92H7.346V5.577z"/>
<path fill="#FFFFFF" d="M9.298,5.577h1.244v1.342H9.298V5.577z"/>
<path fill="#FFFFFF" d="M10.748,7.756l1.976-1.749l-1.976-1.749V1.927L14,5.027v1.95l-3.252,3.096V7.756z"/>
</svg>
