<?xml version="1.0" encoding="utf-8"?>
<svg version="1.1"
	 xmlns="http://www.w3.org/2000/svg" xmlns:xlink="http://www.w3.org/1999/xlink"
	 x="0px" y="0px" width="16px" height="16px" viewBox="0 -0.857 16 16" enable-background="new 0 -0.857 16 16"
	 xml:space="preserve">
<defs>
</defs>
<g>
	<path fill="#0071BC" d="M1.333,8.893c-0.598,0-1.083-0.474-1.083-1.056V1.307c0-0.583,0.486-1.057,1.083-1.057h13.333
		c0.597,0,1.083,0.474,1.083,1.057v6.531c0,0.582-0.486,1.056-1.083,1.056H1.333z"/>
	<path fill="#FFFFFF" d="M14.667,0.5c0.459,0,0.833,0.362,0.833,0.807v6.531c0,0.444-0.374,0.806-0.833,0.806H1.333
		C0.874,8.643,0.5,8.282,0.5,7.837V1.307C0.5,0.862,0.874,0.5,1.333,0.5H14.667 M14.667,0H1.333C0.597,0,0,0.585,0,1.307v6.531
		c0,0.722,0.597,1.306,1.333,1.306h13.333C15.404,9.143,16,8.559,16,7.837V1.307C16,0.585,15.404,0,14.667,0L14.667,0z"/>
</g>
<g>
	<path fill="#E6E6E6" d="M12.5,14.768c-1.723,0-3.125-1.402-3.125-3.125s1.402-3.125,3.125-3.125s3.125,1.402,3.125,3.125
		S14.223,14.768,12.5,14.768z"/>
	<path fill="#FFFFFF" d="M12.5,8.893c1.517,0,2.75,1.233,2.75,2.75s-1.233,2.75-2.75,2.75s-2.75-1.233-2.75-2.75
		S10.983,8.893,12.5,8.893 M12.5,8.143c-1.935,0-3.5,1.565-3.5,3.5c0,1.934,1.565,3.5,3.5,3.5s3.5-1.566,3.5-3.5
		C16,9.708,14.435,8.143,12.5,8.143L12.5,8.143z"/>
</g>
<line fill="#333333" stroke="#333333" stroke-width="0.75" stroke-linecap="round" stroke-miterlimit="10" x1="12.498" y1="9.696" x2="12.498" y2="13.59"/>
<line fill="#333333" stroke="#333333" stroke-width="0.75" stroke-linecap="round" stroke-miterlimit="10" x1="10.555" y1="11.643" x2="14.445" y2="11.643"/>
</svg>
