<?xml version="1.0" encoding="utf-8"?>
<svg version="1.1"
	 xmlns="http://www.w3.org/2000/svg" xmlns:xlink="http://www.w3.org/1999/xlink"
	 x="0px" y="0px" width="16px" height="16px" viewBox="0 -0.392 16 16" enable-background="new 0 -0.392 16 16"
	 xml:space="preserve">
<defs>
</defs>
<g>
	<polygon fill="#29ABE2" points="4.403,9.581 0.806,6.075 5.777,5.352 8,0.847 10.224,5.352 15.194,6.075 11.597,9.581 
		12.446,14.531 8,12.194 3.553,14.531 	"/>
	<path fill="#FFFFFF" d="M8,1.694l1.8,3.647l0.175,0.354l0.39,0.057l4.024,0.585l-2.912,2.838L11.194,9.45l0.066,0.389l0.688,4.007
		l-3.599-1.892L8,11.771l-0.349,0.184l-3.6,1.892l0.688-4.007L4.806,9.45L4.523,9.175L1.612,6.336l4.024-0.585l0.39-0.057L6.2,5.341
		L8,1.694 M8,0L5.528,5.009L0,5.813l4,3.899l-0.945,5.505L8,12.618l4.944,2.599L12,9.712l4-3.899l-5.527-0.804L8,0L8,0z"/>
</g>
</svg>
