<?xml version="1.0" encoding="utf-8"?>
<svg version="1.1"
	 xmlns="http://www.w3.org/2000/svg" xmlns:xlink="http://www.w3.org/1999/xlink"
	 x="0px" y="0px" width="16px" height="16px" viewBox="-0.5 -0.5 16 16" enable-background="new -0.5 -0.5 16 16"
	 xml:space="preserve">
<defs>
</defs>
<polyline fill="none" stroke="#FFFFFF" stroke-width="0.75" stroke-linecap="round" stroke-miterlimit="10" points="2.702,1.343 
	6.432,13.16 8.973,1.605 14.196,1.605 "/>
<g>
	<circle fill="#999999" cx="2.744" cy="1.5" r="1.125"/>
	<path fill="#FFFFFF" d="M2.744,0.75c0.413,0,0.749,0.337,0.749,0.752c0,0.413-0.336,0.749-0.749,0.749
		c-0.415,0-0.751-0.336-0.751-0.749C1.993,1.087,2.33,0.75,2.744,0.75 M2.744,0c-0.83,0-1.501,0.672-1.501,1.502
		C1.243,2.329,1.915,3,2.744,3c0.828,0,1.499-0.672,1.499-1.499C4.243,0.672,3.572,0,2.744,0L2.744,0z"/>
</g>
<g>
	<circle fill="#999999" cx="8.999" cy="1.5" r="1.125"/>
	<path fill="#FFFFFF" d="M8.999,0.75c0.414,0,0.751,0.337,0.751,0.752c0,0.413-0.337,0.749-0.751,0.749
		c-0.413,0-0.749-0.336-0.749-0.749C8.25,1.087,8.586,0.75,8.999,0.75 M8.999,0C8.171,0,7.5,0.672,7.5,1.502
		c0,0.827,0.671,1.499,1.499,1.499c0.832,0,1.501-0.672,1.501-1.499C10.5,0.672,9.831,0,8.999,0L8.999,0z"/>
</g>
<g>
	<circle fill="#999999" cx="13.999" cy="1.499" r="1.124"/>
	<path fill="#FFFFFF" d="M13.999,0.75c0.414,0,0.751,0.336,0.751,0.75c0,0.412-0.337,0.748-0.751,0.748
		c-0.413,0-0.749-0.335-0.749-0.748C13.25,1.086,13.586,0.75,13.999,0.75 M13.999,0C13.171,0,12.5,0.671,12.5,1.5
		c0,0.826,0.671,1.498,1.499,1.498c0.833,0,1.501-0.671,1.501-1.498C15.5,0.671,14.832,0,13.999,0L13.999,0z"/>
</g>
<polyline fill="none" stroke="#FFFFFF" stroke-width="0.75" stroke-linecap="round" stroke-miterlimit="10" points="1.459,2.643 
	5.189,14.46 7.73,2.905 12.953,2.905 "/>
<g>
	<circle fill="#662D91" cx="1.501" cy="2.8" r="1.125"/>
	<path fill="#FFFFFF" d="M1.501,2.05c0.413,0,0.749,0.337,0.749,0.752c0,0.413-0.336,0.749-0.749,0.749
		c-0.415,0-0.751-0.336-0.751-0.749C0.75,2.387,1.087,2.05,1.501,2.05 M1.501,1.3C0.672,1.3,0,1.972,0,2.802
		C0,3.628,0.672,4.3,1.501,4.3C2.33,4.3,3,3.628,3,2.802C3,1.972,2.33,1.3,1.501,1.3L1.501,1.3z"/>
</g>
<g>
	<circle fill="#662D91" cx="7.756" cy="2.8" r="1.125"/>
	<path fill="#FFFFFF" d="M7.756,2.05c0.415,0,0.752,0.337,0.752,0.752c0,0.413-0.337,0.749-0.752,0.749
		c-0.413,0-0.748-0.336-0.748-0.749C7.008,2.387,7.343,2.05,7.756,2.05 M7.756,1.3c-0.828,0-1.498,0.672-1.498,1.502
		c0,0.827,0.67,1.499,1.498,1.499c0.832,0,1.502-0.672,1.502-1.499C9.258,1.972,8.588,1.3,7.756,1.3L7.756,1.3z"/>
</g>
<g>
	<circle fill="#662D91" cx="12.756" cy="2.799" r="1.124"/>
	<path fill="#FFFFFF" d="M12.756,2.05c0.415,0,0.752,0.336,0.752,0.75c0,0.412-0.337,0.748-0.752,0.748
		c-0.412,0-0.748-0.335-0.748-0.748C12.008,2.386,12.344,2.05,12.756,2.05 M12.756,1.3c-0.828,0-1.498,0.671-1.498,1.5
		c0,0.826,0.67,1.498,1.498,1.498c0.834,0,1.502-0.671,1.502-1.498C14.258,1.971,13.59,1.3,12.756,1.3L12.756,1.3z"/>
</g>
<g>
	<polygon fill="#662D91" points="8.976,9.709 8.138,10.546 8.138,8.139 10.545,8.138 9.708,8.975 10.795,10.062 10.062,10.796 	"/>
	<path fill="#FFFFFF" d="M9.94,8.388L9.708,8.621L9.354,8.975l0.354,0.354l0.733,0.733l-0.38,0.381L9.329,9.709L8.976,9.355
		L8.622,9.709L8.388,9.942V8.389L9.94,8.388 M11.148,7.888l-3.26,0v3.261l1.087-1.087l1.086,1.087l1.087-1.088l-1.087-1.087
		L11.148,7.888L11.148,7.888z"/>
</g>
<g>
	<polygon fill="#662D91" points="12.84,15.25 13.678,14.412 12.59,13.325 13.324,12.592 14.411,13.679 15.25,12.841 15.25,15.25 	
		"/>
	<path fill="#FFFFFF" d="M13.324,12.945l0.733,0.733l0.354,0.354l0.354-0.354L15,13.443V15h-1.557l0.234-0.234l0.354-0.354
		l-0.354-0.354l-0.734-0.733L13.324,12.945 M15.5,12.238l-1.089,1.087l-1.087-1.087l-1.088,1.087l1.088,1.087L12.236,15.5H15.5
		V12.238L15.5,12.238z"/>
</g>
<g>
	<polygon fill="#662D91" points="12.592,10.062 13.679,8.975 12.842,8.138 15.25,8.139 15.25,10.546 14.411,9.708 13.325,10.795 	
		"/>
	<path fill="#FFFFFF" d="M13.446,8.388l1.554,0v1.555l-0.235-0.235l-0.354-0.354l-0.354,0.354l-0.732,0.733l-0.38-0.38l0.733-0.733
		l0.354-0.354l-0.354-0.354L13.446,8.388 M12.238,7.888l1.087,1.086l-1.087,1.087l1.087,1.087l1.086-1.087l1.089,1.088V7.889
		L12.238,7.888L12.238,7.888z"/>
</g>
<g>
	<polygon fill="#662D91" points="8.123,15.248 8.123,12.84 8.96,13.678 10.046,12.59 10.78,13.324 9.694,14.41 10.531,15.248 	"/>
	<path fill="#FFFFFF" d="M10.046,12.943l0.381,0.381l-0.732,0.732L9.341,14.41l0.354,0.354l0.233,0.234H8.373v-1.555l0.234,0.234
		l0.354,0.354l0.354-0.354L10.046,12.943 M7.873,12.235v3.263h3.261l-1.086-1.088l1.086-1.086l-1.088-1.088L8.96,13.324
		L7.873,12.235L7.873,12.235z"/>
</g>
</svg>
