<?xml version="1.0" encoding="utf-8"?>
<svg version="1.1"
	 xmlns="http://www.w3.org/2000/svg" xmlns:xlink="http://www.w3.org/1999/xlink"
	 x="0px" y="0px" width="16px" height="16px" viewBox="0 0.037 16 16" enable-background="new 0 0.037 16 16" xml:space="preserve">
<defs>
</defs>
<rect y="0.037" display="none" fill="#4D4D4D" width="16" height="16"/>
<g>
	<path fill="#0071BC" d="M3.774,8.412c-1.856,0-3.149-0.837-3.149-1.588s1.293-1.588,3.149-1.588c1.854,0,3.146,0.837,3.146,1.588
		S5.628,8.412,3.774,8.412z"/>
	<path fill="#FFFFFF" d="M3.774,5.61c1.692,0,2.771,0.719,2.771,1.213s-1.08,1.213-2.771,1.213C2.081,8.037,1,7.318,1,6.824
		S2.081,5.61,3.774,5.61 M3.774,4.86c-1.945,0-3.524,0.879-3.524,1.963c0,1.083,1.579,1.963,3.524,1.963
		c1.944,0,3.521-0.881,3.521-1.963C7.295,5.739,5.718,4.86,3.774,4.86L3.774,4.86z"/>
</g>
<g>
	<path fill="#0071BC" d="M12.229,8.412c-1.856,0-3.15-0.837-3.15-1.588s1.294-1.588,3.15-1.588c1.854,0,3.146,0.837,3.146,1.588
		S14.083,8.412,12.229,8.412z"/>
	<path fill="#FFFFFF" d="M12.229,5.61C13.92,5.61,15,6.329,15,6.824s-1.08,1.213-2.771,1.213c-1.668,0-2.774-0.73-2.774-1.213
		C9.454,6.329,10.534,5.61,12.229,5.61 M12.229,4.86c-1.945,0-3.525,0.879-3.525,1.963c0,1.083,1.58,1.963,3.525,1.963
		c1.944,0,3.521-0.881,3.521-1.963C15.75,5.739,14.173,4.86,12.229,4.86L12.229,4.86z"/>
</g>
<line fill="none" stroke="#FFFFFF" stroke-width="0.75" stroke-miterlimit="10" x1="6.704" y1="6.863" x2="9.305" y2="6.863"/>
<line fill="none" stroke="#FFFFFF" stroke-width="0.75" stroke-linecap="round" stroke-miterlimit="10" x1="0.411" y1="6.804" x2="4.831" y2="0.375"/>
<line fill="none" stroke="#FFFFFF" stroke-width="0.75" stroke-linecap="round" stroke-miterlimit="10" x1="15.586" y1="6.804" x2="11.166" y2="0.375"/>
<g>
	<path fill="#E6E6E6" d="M12.499,15.662c-1.723,0-3.124-1.402-3.124-3.126c0-1.723,1.401-3.124,3.124-3.124
		c1.724,0,3.126,1.401,3.126,3.124C15.625,14.26,14.223,15.662,12.499,15.662z"/>
	<path fill="#FFFFFF" d="M12.499,9.787c1.517,0,2.751,1.233,2.751,2.749c0,1.517-1.234,2.751-2.751,2.751
		c-1.516,0-2.749-1.234-2.749-2.751C9.75,11.021,10.983,9.787,12.499,9.787 M12.499,9.037C10.566,9.037,9,10.604,9,12.536
		c0,1.934,1.566,3.501,3.499,3.501c1.935,0,3.501-1.567,3.501-3.501C16,10.604,14.434,9.037,12.499,9.037L12.499,9.037z"/>
</g>
<line fill="none" stroke="#333333" stroke-width="0.75" stroke-linecap="round" stroke-miterlimit="10" x1="10.555" y1="12.536" x2="14.445" y2="12.536"/>
</svg>
