<?xml version="1.0" encoding="utf-8"?>
<svg version="1.1"
	 xmlns="http://www.w3.org/2000/svg" xmlns:xlink="http://www.w3.org/1999/xlink"
	 x="0px" y="0px" width="16px" height="16px" viewBox="0 0 16 16" enable-background="new 0 0 16 16" xml:space="preserve">
<defs>
</defs>
<rect display="none" fill="#4D4D4D" width="16" height="16"/>
<g>
	<circle fill="#662D91" cx="2.701" cy="7.487" r="2.124"/>
	<path fill="#FFFFFF" d="M2.701,5.738c0.965,0,1.75,0.785,1.75,1.749s-0.785,1.749-1.75,1.749c-0.965,0-1.75-0.785-1.75-1.749
		S1.735,5.738,2.701,5.738 M2.701,4.988c-1.381,0-2.5,1.119-2.5,2.499c0,1.38,1.12,2.499,2.5,2.499c1.38,0,2.5-1.119,2.5-2.499
		C5.2,6.107,4.081,4.988,2.701,4.988L2.701,4.988z"/>
</g>
<g>
	<path fill="#662D91" d="M7.024,4.874c-1.172,0-2.126-0.953-2.126-2.124s0.954-2.125,2.126-2.125c1.171,0,2.124,0.953,2.124,2.125
		S8.195,4.874,7.024,4.874z"/>
	<path fill="#FFFFFF" d="M7.024,1c0.964,0,1.749,0.785,1.749,1.75c0,0.964-0.784,1.749-1.749,1.749
		c-0.965,0-1.751-0.785-1.751-1.749C5.273,1.785,6.059,1,7.024,1 M7.024,0.25c-1.381,0-2.501,1.12-2.501,2.5
		c0,1.381,1.12,2.499,2.501,2.499c1.379,0,2.499-1.118,2.499-2.499C9.522,1.37,8.403,0.25,7.024,0.25L7.024,0.25z"/>
</g>
<g>
	<circle fill="#662D91" cx="13.3" cy="4.299" r="2.124"/>
	<path fill="#FFFFFF" d="M13.3,2.55c0.965,0,1.75,0.785,1.75,1.75c0,0.964-0.785,1.749-1.75,1.749s-1.75-0.784-1.75-1.749
		C11.55,3.334,12.335,2.55,13.3,2.55 M13.3,1.8c-1.381,0-2.5,1.119-2.5,2.5s1.119,2.499,2.5,2.499c1.379,0,2.5-1.118,2.5-2.499
		S14.679,1.8,13.3,1.8L13.3,1.8z"/>
</g>
<path fill="#333333" d="M15.236,14.346c0.056,0.727-0.28,1.027-0.991,0.947H9.48c-0.779,0.063-1.07-0.34-0.952-0.947v-2.838
	c-0.088-0.639,0.165-1.021,0.952-0.947h4.765c0.727-0.09,1.071,0.25,0.991,0.947V14.346z"/>
<path fill="none" stroke="#FFFFFF" stroke-width="0.75" stroke-miterlimit="10" d="M8.121,11.678v-0.5c0-0.553,0.447-1,0.999-1h1.5"
	/>
<path fill="none" stroke="#FFFFFF" stroke-width="0.75" stroke-miterlimit="10" d="M15.62,11.678v-0.5c0-0.553-0.447-1-1-1h-1.5"/>
<path fill="none" stroke="#FFFFFF" stroke-width="0.75" stroke-miterlimit="10" d="M10.62,15.678h-1.5c-0.552,0-0.999-0.447-0.999-1
	v-0.5"/>
<path fill="none" stroke="#FFFFFF" stroke-width="0.75" stroke-miterlimit="10" d="M15.62,14.178v0.5c0,0.553-0.447,1-1,1h-1.5"/>
<circle fill="#FFFFFF" stroke="#FFFFFF" stroke-width="0.75" stroke-miterlimit="10" cx="11.87" cy="12.928" r="1.283"/>
</svg>
