<?xml version="1.0" encoding="utf-8"?>
<svg version="1.1"
	 xmlns="http://www.w3.org/2000/svg" xmlns:xlink="http://www.w3.org/1999/xlink"
	 x="0px" y="0px" width="16px" height="16px" viewBox="-0.167 -0.069 16 16" enable-background="new -0.167 -0.069 16 16"
	 xml:space="preserve">
<defs>
</defs>
<line fill="none" stroke="#FFFFFF" stroke-width="0.75" stroke-miterlimit="10" x1="2.159" y1="10.91" x2="9.424" y2="10.91"/>
<line fill="none" stroke="#FFFFFF" stroke-width="0.75" stroke-miterlimit="10" x1="9.97" y1="4.719" x2="9.97" y2="1.29"/>
<line fill="none" stroke="#FFFFFF" stroke-width="0.75" stroke-miterlimit="10" x1="5.473" y1="4.716" x2="14.467" y2="4.716"/>
<line fill="none" stroke="#FFFFFF" stroke-width="0.75" stroke-miterlimit="10" x1="5.837" y1="10.995" x2="5.837" y2="4.764"/>
<line fill="none" stroke="#FFFFFF" stroke-width="0.75" stroke-miterlimit="10" x1="14.089" y1="8.358" x2="14.089" y2="4.862"/>
<line fill="none" stroke="#FFFFFF" stroke-width="0.75" stroke-miterlimit="10" x1="2.526" y1="14.444" x2="2.526" y2="10.795"/>
<line fill="none" stroke="#FFFFFF" stroke-width="0.75" stroke-miterlimit="10" x1="9.129" y1="14.426" x2="9.129" y2="10.776"/>
<g>
	<rect x="8.843" y="1.515" fill="#C1272D" width="2.25" height="1.982"/>
	<path fill="#FFFFFF" d="M10.718,1.89v1.232h-1.5V1.89H10.718 M11.468,1.14h-3v2.732h3V1.14L11.468,1.14z"/>
</g>
<g>
	<rect x="4.658" y="6.798" fill="#C1272D" width="2.25" height="1.982"/>
	<path fill="#FFFFFF" d="M6.533,7.173v1.232h-1.5V7.173H6.533 M7.283,6.423h-3v2.732h3V6.423L7.283,6.423z"/>
</g>
<g>
	<rect x="13.108" y="6.742" fill="#C1272D" width="2.25" height="1.982"/>
	<path fill="#FFFFFF" d="M14.983,7.117v1.232h-1.5V7.117H14.983 M15.733,6.367h-3v2.732h3V6.367L15.733,6.367z"/>
</g>
<g>
	<rect x="1.308" y="12.573" fill="#C1272D" width="2.25" height="1.982"/>
	<path fill="#FFFFFF" d="M3.183,12.948v1.232h-1.5v-1.232H3.183 M3.933,12.198h-3v2.732h3V12.198L3.933,12.198z"/>
</g>
<polyline fill="none" stroke="#FFFFFF" stroke-width="0.75" stroke-linecap="round" stroke-miterlimit="10" points="0.375,3.473 
	2.787,5.931 5.29,3.473 "/>
<line fill="none" stroke="#FFFFFF" stroke-width="0.75" stroke-linecap="round" stroke-miterlimit="10" x1="2.787" y1="5.828" x2="2.787" y2="0.375"/>
</svg>
