<?xml version="1.0" encoding="utf-8"?>
<svg version="1.1"
	 xmlns="http://www.w3.org/2000/svg" xmlns:xlink="http://www.w3.org/1999/xlink"
	 x="0px" y="0px" width="16px" height="16px" viewBox="-0.039 0 16 16" enable-background="new -0.039 0 16 16"
	 xml:space="preserve">
<defs>
</defs>
<g>
	<path fill="#00A99D" d="M5.076,15.613c-0.403,0-0.682-0.136-0.798-0.253c-0.031-0.031-0.069-0.079-0.069-0.125L4.21,3.173
		c0.001-0.131,0.332-0.377,0.872-0.377c0.405,0,0.684,0.136,0.8,0.253C5.913,3.08,5.95,3.127,5.95,3.174L5.945,15.236
		C5.945,15.369,5.615,15.613,5.076,15.613z"/>
	<path fill="#FFFFFF" d="M5.085,3.17c0.241,0,0.411,0.063,0.489,0.111L5.57,15.126c-0.08,0.049-0.251,0.112-0.494,0.112
		c-0.242,0-0.413-0.063-0.492-0.111L4.585,3.284C4.664,3.235,4.836,3.17,5.081,3.17H5.085 M5.085,2.42c-0.001,0-0.003,0-0.004,0
		c-0.689,0-1.244,0.336-1.246,0.752L3.834,15.234c-0.001,0.418,0.555,0.754,1.242,0.754c0.689,0,1.244-0.336,1.244-0.752
		L6.325,3.176C6.327,2.758,5.772,2.42,5.085,2.42L5.085,2.42z"/>
</g>
<g>
	<polygon fill="#00A99D" points="0.375,5.666 0.375,0.375 10.888,0.375 15.264,3.02 10.888,5.666 	"/>
	<path fill="#FFFFFF" d="M10.783,0.75l3.756,2.27l-3.756,2.271H0.75V0.75H10.783 M10.992,0H0v6.041h10.992l4.996-3.021L10.992,0
		L10.992,0z"/>
</g>
<g>
	<path fill="#333333" d="M12.461,15.625c-1.723,0-3.125-1.402-3.125-3.125s1.402-3.125,3.125-3.125s3.125,1.402,3.125,3.125
		S14.184,15.625,12.461,15.625z"/>
	<path fill="#FFFFFF" d="M12.461,9.75c1.517,0,2.75,1.233,2.75,2.75s-1.233,2.75-2.75,2.75s-2.75-1.233-2.75-2.75
		S10.944,9.75,12.461,9.75 M12.461,9c-1.934,0-3.5,1.565-3.5,3.5c0,1.934,1.566,3.5,3.5,3.5c1.936,0,3.5-1.566,3.5-3.5
		C15.961,10.565,14.396,9,12.461,9L12.461,9z"/>
</g>
<g>
	<polygon fill="#FBB03B" points="12.242,13.047 11.618,13.349 11.909,12.715 11.286,12.5 11.909,12.287 11.618,11.652 
		12.242,11.954 12.461,11.329 12.679,11.954 13.305,11.652 13.014,12.287 13.637,12.5 13.014,12.715 13.305,13.35 12.679,13.047 
		12.461,13.672 	"/>
	<polygon fill="#FFFFFF" points="12.462,10.19 12.027,11.434 10.842,10.861 11.396,12.066 10.131,12.501 11.396,12.935 
		10.842,14.14 12.027,13.567 12.462,14.81 12.895,13.567 14.08,14.14 13.527,12.935 14.791,12.501 13.527,12.066 14.08,10.861 
		12.895,11.434 12.462,10.19 	"/>
</g>
<g>
	<polygon fill="#FFFFFF" points="12.339,12.832 11.973,13.008 12.143,12.639 11.795,12.52 12.143,12.4 11.973,12.031 12.338,12.209 
		12.461,11.855 12.584,12.209 12.949,12.031 12.78,12.4 13.128,12.52 12.78,12.639 12.949,13.008 12.584,12.832 12.461,13.184 	"/>
	<polygon fill="#FFFFFF" points="12.462,10.716 12.123,11.688 11.196,11.239 11.629,12.181 10.641,12.521 11.629,12.859 
		11.196,13.801 12.123,13.353 12.462,14.325 12.8,13.353 13.727,13.801 13.294,12.859 14.281,12.521 13.294,12.181 13.727,11.239 
		12.8,11.688 12.462,10.716 	"/>
</g>
<g>
	<polygon fill="#333333" points="12.462,11.835 12.588,12.19 12.933,12.03 12.771,12.374 13.128,12.5 12.771,12.627 12.933,12.971 
		12.588,12.81 12.462,13.166 12.336,12.81 11.991,12.971 12.152,12.627 11.797,12.5 12.152,12.374 11.991,12.03 12.336,12.19 	"/>
	<polygon fill="#333333" points="12.462,11.835 12.336,12.19 11.991,12.03 12.152,12.374 11.797,12.5 12.152,12.627 11.991,12.971 
		12.336,12.81 12.462,13.166 12.588,12.81 12.933,12.971 12.771,12.627 13.128,12.5 12.771,12.374 12.933,12.03 12.588,12.19 
		12.462,11.835 	"/>
</g>
</svg>
