<?xml version="1.0" encoding="utf-8"?>
<svg version="1.1"
	 xmlns="http://www.w3.org/2000/svg" xmlns:xlink="http://www.w3.org/1999/xlink"
	 x="0px" y="0px" width="16px" height="16px" viewBox="-2.292 -0.118 16 16" enable-background="new -2.292 -0.118 16 16"
	 xml:space="preserve">
<defs>
</defs>
<path fill="#FBB03B" stroke="#FFFFFF" stroke-width="0.75" stroke-linejoin="round" stroke-miterlimit="10" d="M10.112,15.389
	c-1.187-0.006-4.348-0.006-5.532-0.008c-0.295,0-1.722,0.023-1.976-1.508C2.278,11.896,0.798,8.428,0.45,7.56
	C0.036,6.521,1.434,5.531,2.118,6.57C2.927,7.801,3.459,9.205,3.61,9.205c0.119,0,0-5.129,0-6.561c0-1.247,1.898-1.276,1.968,0.028
	c0.057,2.187,0.114,4.164,0.133,4.183c0.084,0.084-0.137-4.646-0.157-5.144C5.496,0.08,7.419-0.184,7.46,1.627
	c0.032,1.276,0.259,5.295,0.209,5.22C7.611,6.758,7.544,3.692,7.555,3.063c-0.051-1.989,1.718-1.95,1.825,0
	C9.372,3.835,9.57,7.759,9.513,7.778C9.43,7.806,9.461,4.416,9.475,4.147c0.057-1.275,1.499-1.08,1.559,0.285
	c0.03,0.698-0.028,6.179-0.079,6.837C10.778,13.617,10.468,15.357,10.112,15.389z"/>
</svg>
