<?xml version="1.0" encoding="utf-8"?>
<svg version="1.1"
	 xmlns="http://www.w3.org/2000/svg" xmlns:xlink="http://www.w3.org/1999/xlink"
	 x="0px" y="0px" width="16px" height="16px" viewBox="0 0 16 16" enable-background="new 0 0 16 16" xml:space="preserve">
<defs>
</defs>
<g>
	<rect x="0.25" y="0.25" fill="#CCCCCC" width="15.5" height="15.5"/>
	<path fill="#FFFFFF" d="M15.5,0.5v15h-15v-15H15.5 M16,0H0v16h16V0L16,0z"/>
</g>
<g>
	<rect x="2.375" y="2.375" fill="#FF7BAC" width="8.837" height="2.75"/>
	<path fill="#FFFFFF" d="M10.837,2.75v2H2.75v-2H10.837 M11.587,2H2v3.5h9.587V2L11.587,2z"/>
</g>
<g>
	<rect x="2.375" y="6.785" fill="#ED1E79" width="8.835" height="2.75"/>
	<path fill="#FFFFFF" d="M10.835,7.16v2H2.75v-2H10.835 M11.585,6.41H2v3.5h9.585V6.41L11.585,6.41z"/>
</g>
<g>
	<rect x="2.375" y="11.196" fill="#9E005D" width="8.838" height="2.75"/>
	<path fill="#FFFFFF" d="M10.838,11.571v2H2.75v-2H10.838 M11.588,10.821H2v3.5h9.588V10.821L11.588,10.821z"/>
</g>
<rect x="11.391" y="9.501" transform="matrix(0.8172 -0.5763 0.5763 0.8172 -4.6117 9.2871)" fill="#333333" width="1.889" height="4.825"/>
<g>
	<polygon fill="#FFFFFF" points="8.17,6.341 14.324,10.523 11.548,12.582 10.369,13.45 	"/>
	<path fill="#333333" d="M8.845,7.253l4.831,3.284l-0.752,0.556l-1.598,1.187l-0.755,0.557L8.845,7.253 M7.495,5.429l2.672,8.637
		l1.604-1.183l1.6-1.188l1.601-1.185L7.495,5.429L7.495,5.429z"/>
</g>
</svg>
