<?xml version="1.0" encoding="utf-8"?>
<svg version="1.1"
	 xmlns="http://www.w3.org/2000/svg" xmlns:xlink="http://www.w3.org/1999/xlink"
	 x="0px" y="0px" width="16px" height="16px" viewBox="-0.826 -0.25 16 16" enable-background="new -0.826 -0.25 16 16"
	 xml:space="preserve">
<defs>
</defs>
<g>
	<rect x="0.375" y="0.375" fill="#9E005D" width="13.75" height="4.035"/>
	<path fill="#FFFFFF" d="M13.75,0.75v3.285h-13V0.75H13.75 M14.5,0h-0.75h-13H0v0.75v3.285v0.75h0.75h13h0.75v-0.75V0.75V0L14.5,0z"
		/>
</g>
<g>
	<rect x="0.375" y="4.383" fill="#FF92D8" width="13.75" height="10.742"/>
	<path fill="#FFFFFF" d="M13.75,4.758v9.992h-13V4.758H13.75 M14.5,4.008h-0.75h-13H0v0.75v9.992v0.75h0.75h13h0.75v-0.75V4.758
		V4.008L14.5,4.008z"/>
</g>
<line fill="#FFFFFF" stroke="#FFFFFF" stroke-miterlimit="10" x1="2.174" y1="2.35" x2="5.314" y2="2.35"/>
<line fill="#FFFFFF" stroke="#FFFFFF" stroke-miterlimit="10" x1="6.847" y1="2.35" x2="12.417" y2="2.35"/>
<line fill="#FFFFFF" stroke="#000000" stroke-miterlimit="10" x1="2.174" y1="7.25" x2="5.314" y2="7.25"/>
<line fill="#FFFFFF" stroke="#000000" stroke-miterlimit="10" x1="6.847" y1="7.25" x2="12.417" y2="7.25"/>
<line fill="#FFFFFF" stroke="#FFFFFF" stroke-miterlimit="10" x1="2.174" y1="9.75" x2="5.314" y2="9.75"/>
<line fill="#FFFFFF" stroke="#FFFFFF" stroke-miterlimit="10" x1="6.847" y1="9.75" x2="12.417" y2="9.75"/>
<line fill="#FFFFFF" stroke="#FFFFFF" stroke-miterlimit="10" x1="2.174" y1="12.25" x2="5.314" y2="12.25"/>
<line fill="#FFFFFF" stroke="#FFFFFF" stroke-miterlimit="10" x1="6.847" y1="12.25" x2="12.417" y2="12.25"/>
<g>
	<path fill="#FFCCEF" d="M11.813,15.375c-1.724,0-3.126-1.401-3.126-3.124c0-1.724,1.402-3.126,3.126-3.126
		c1.723,0,3.124,1.402,3.124,3.126C14.938,13.974,13.536,15.375,11.813,15.375z"/>
	<path fill="#FFFFFF" d="M11.813,9.5c1.516,0,2.749,1.234,2.749,2.751c0,1.516-1.233,2.749-2.749,2.749
		c-1.517,0-2.751-1.233-2.751-2.749C9.063,10.734,10.297,9.5,11.813,9.5 M11.813,8.75c-1.935,0-3.501,1.567-3.501,3.501
		c0,1.933,1.566,3.499,3.501,3.499c1.933,0,3.499-1.566,3.499-3.499C15.313,10.317,13.746,8.75,11.813,8.75L11.813,8.75z"/>
</g>
<polyline fill="none" stroke="#1A1A1A" stroke-width="0.75" stroke-linecap="round" stroke-miterlimit="10" points="13.678,12.039 
	11.877,10.203 10.008,12.039 "/>
<line fill="none" stroke="#1A1A1A" stroke-width="0.75" stroke-linecap="round" stroke-miterlimit="10" x1="11.877" y1="10.28" x2="11.877" y2="14.353"/>
</svg>
