<?xml version="1.0" encoding="utf-8"?>
<svg version="1.1"
	 xmlns="http://www.w3.org/2000/svg" xmlns:xlink="http://www.w3.org/1999/xlink"
	 x="0px" y="0px" width="16px" height="16px" viewBox="0 -1 16 16" enable-background="new 0 -1 16 16" xml:space="preserve">
<defs>
</defs>
<g>
	<polygon fill="#3FA9F5" points="0.978,5.402 8,3.062 15.022,5.402 8,8.915 	"/>
	<path fill="#FFFFFF" d="M8,3.457l6.045,2.015L8,8.495L1.955,5.472L8,3.457 M8,2.667L0,5.333l8,4.001l8-4.001L8,2.667L8,2.667z"/>
</g>
<g>
	<path fill="#0E6B99" d="M8,12.959c-3.469,0-6.292-2.822-6.292-6.292c0-3.469,2.823-6.292,6.292-6.292
		c3.469,0,6.291,2.823,6.291,6.292C14.291,10.137,11.469,12.959,8,12.959z"/>
	<path fill="#FFFFFF" d="M8,0.75c3.262,0,5.916,2.654,5.916,5.917S11.262,12.584,8,12.584c-3.263,0-5.917-2.654-5.917-5.917
		S4.737,0.75,8,0.75 M8,0C4.319,0,1.333,2.985,1.333,6.667c0,3.681,2.986,6.667,6.667,6.667c3.682,0,6.666-2.986,6.666-6.667
		C14.666,2.985,11.682,0,8,0L8,0z"/>
</g>
<path fill="none" stroke="#FFFFFF" stroke-width="0.75" stroke-miterlimit="10" d="M1.62,5.714c0,0,2.284-1.93,6.38-1.905
	c4.088,0.026,6.382,1.905,6.382,1.905"/>
<path fill="none" stroke="#FFFFFF" stroke-width="0.75" stroke-miterlimit="10" d="M1.695,7.619c0,0,2.208,1.866,6.305,1.905
	c4.414,0.043,6.389-1.905,6.389-1.905"/>
<path fill="none" stroke="#FFFFFF" stroke-width="0.75" stroke-miterlimit="10" d="M7.047,0.286c0,0-1.896,2.119-1.904,6.381
	c-0.007,3.976,1.904,6.38,1.904,6.38"/>
<path fill="none" stroke="#FFFFFF" stroke-width="0.75" stroke-miterlimit="10" d="M8.953,0.286c0,0,1.885,2.299,1.904,6.381
	c0.018,4.083-1.904,6.257-1.904,6.257"/>
<g>
	<polygon fill="#CCCCCC" points="0.375,11.729 0.375,5.854 8,8.395 15.625,5.854 15.625,11.729 8,14.271 	"/>
	<path fill="#FFFFFF" d="M15.25,6.374v5.085L8,13.875l-7.25-2.416V6.374l7.013,2.337L8,8.79l0.237-0.079L15.25,6.374 M16,5.333L8,8
		L0,5.333V12l8,2.666L16,12V5.333L16,5.333z"/>
</g>
<line fill="none" stroke="#FFFFFF" stroke-width="0.75" stroke-miterlimit="10" x1="8" y1="8.166" x2="8" y2="14.393"/>
</svg>
