<?xml version="1.0" encoding="utf-8"?>
<svg version="1.1"
	 xmlns="http://www.w3.org/2000/svg" xmlns:xlink="http://www.w3.org/1999/xlink"
	 x="0px" y="0px" width="16px" height="16px" viewBox="0 0 16 16" enable-background="new 0 0 16 16" xml:space="preserve">
<defs>
</defs>
<g>
	<polygon fill="#F4C9CC" points="1.83,0.044 12.361,0 10.957,5.824 15.844,12.787 11.805,16 2.142,13.791 0,7.788 	"/>
	<path fill="#FFFFFF" d="M12.361,0l-0.772,0.003l0,0c-0.367,0.001-0.728,0.003-0.728,0.003l0.003,0.75l1.316-0.005L12.361,0
		L12.361,0z M9.361,0.013l-1.5,0.006l0.003,0.75l1.5-0.006L9.361,0.013L9.361,0.013z M6.361,0.025l-1.5,0.006l0.003,0.75l1.5-0.006
		L6.361,0.025L6.361,0.025z M3.361,0.038l-1.5,0.006l0.003,0.75l1.5-0.006L3.361,0.038L3.361,0.038z M1.492,1.473l-0.175,0.74
		c0,0,0,0.001,0,0.001l0,0.003c0,0,0,0.001,0,0.001l0,0.003C1.23,2.58,1.147,2.933,1.147,2.933l0.73,0.172l0.345-1.46L1.492,1.473
		L1.492,1.473z M0.802,4.393L0.732,4.69c0,0.001-0.001,0.003-0.001,0.004l0,0.001c0,0.001,0,0.002,0,0.003L0.729,4.703
		C0.627,5.132,0.458,5.852,0.458,5.852l0.73,0.173l0.345-1.46L0.802,4.393L0.802,4.393z M0.112,7.312L0,7.788l0,0l0,0l0,0l0,0l0,0
		l0,0l0,0l0,0l0,0l0,0l0,0l0,0l0,0l0,0l0,0l0,0C0.004,7.799,0.34,8.74,0.34,8.74l0.706-0.252L0.781,7.745l0.062-0.26L0.112,7.312
		L0.112,7.312z M1.55,9.9l-0.707,0.253c0,0,0.028,0.077,0.07,0.195l0,0.001c0,0.002,0.001,0.003,0.001,0.005l0.001,0.002
		c0,0.001,0.001,0.002,0.001,0.004l0.43,1.205l0.706-0.252L1.55,9.9L1.55,9.9z M2.559,12.727l-0.707,0.252l0.29,0.813l0,0
		l0.621,0.142l0.167-0.73l-0.22-0.051L2.559,12.727L2.559,12.727z M4.393,13.536l-0.167,0.731c0,0,0.437,0.1,0.833,0.19h0.003
		c0.003,0.001,0.007,0.002,0.01,0.003l0.617,0.141l0.167-0.731L4.393,13.536L4.393,13.536z M7.317,14.205l-0.167,0.73l0.409,0.094h0
		l0.007,0.002c0.002,0,0.003,0.001,0.005,0.001l0.002,0.001c0,0,0.001,0,0.001,0h0.002c0,0.001,0.001,0.001,0.002,0.001l0.003,0.001
		c0.009,0.002,0.018,0.004,0.026,0.006l0,0c0.001,0,0.002,0,0.003,0l0.002,0.001c0.428,0.098,0.999,0.229,0.999,0.229l0.167-0.731
		L7.317,14.205L7.317,14.205z M10.242,14.873l-0.168,0.731c0,0,0.554,0.127,0.979,0.224l0.483,0.11l0.167-0.73L10.242,14.873
		L10.242,14.873z M13.471,13.717l-1.174,0.934l0.467,0.587l1.174-0.934L13.471,13.717L13.471,13.717z M15.377,12.2l0.115,0.145l0,0
		L15.377,12.2l-0.732,0.582l0.467,0.588l0,0c0,0,0-0.001,0.001-0.001l0,0c0.001-0.001,0.003-0.003,0.007-0.006h0.001
		c0.005-0.005,0.013-0.011,0.022-0.019h0.001c0.01-0.008,0.021-0.018,0.035-0.029l0,0c0.014-0.011,0.029-0.022,0.046-0.036
		l0.002-0.001c0.034-0.027,0.073-0.059,0.116-0.093l0.001-0.001c0.021-0.017,0.043-0.034,0.065-0.052l0,0
		c0.017-0.014,0.034-0.027,0.051-0.041h0.001c0.005-0.004,0.011-0.009,0.017-0.014h0.001c0.002-0.002,0.005-0.004,0.008-0.007l0,0
		c0.043-0.034,0.085-0.067,0.126-0.1l0,0c0.043-0.034,0.083-0.066,0.117-0.094l0,0c0.034-0.027,0.063-0.05,0.083-0.065l0,0
		c0.02-0.017,0.031-0.025,0.031-0.025l0,0l0,0l0,0l0,0l0,0l0,0l0,0l0,0l0,0l0,0l0,0l0,0l0,0l0,0l0,0l0,0l0,0l0,0l0,0l0,0l0,0l0,0
		c0-0.001-0.001-0.001-0.001-0.001l0,0l0,0l0,0c0,0,0,0,0-0.001l0,0c-0.021-0.03-0.323-0.46-0.323-0.46l-0.027,0.02L15.377,12.2
		L15.377,12.2z M13.796,9.87l-0.613,0.431l0.861,1.228l0.614-0.431l-0.536-0.764C13.947,10.084,13.796,9.87,13.796,9.87L13.796,9.87
		z M12.073,7.414l-0.614,0.431l0.861,1.228l0.614-0.43l-0.604-0.861c-0.001,0-0.001-0.001-0.001-0.001l-0.002-0.002v0l-0.002-0.002
		C12.184,7.572,12.073,7.414,12.073,7.414L12.073,7.414z M10.476,4.62l-0.248,1.028l-0.079,0.329l0.194,0.277l0.255,0.362
		l0.613-0.431l-0.247-0.352v0l-0.001-0.001c0,0,0,0,0,0l-0.001,0c0,0,0,0,0-0.001h-0.001c0,0,0-0.001,0-0.001v0
		c-0.001,0-0.001,0-0.001,0v0c-0.002-0.002-0.003-0.004-0.003-0.004l0,0l0,0l0,0l0.248-1.028L10.476,4.62L10.476,4.62z
		 M11.179,1.704l-0.352,1.458l0.729,0.176l0.352-1.458L11.179,1.704L11.179,1.704z"/>
</g>
<g>
	<path fill="#4D4D4D" d="M5.622,3.023c1.516,0,2.749,1.233,2.749,2.75s-1.233,2.75-2.749,2.75c-1.517,0-2.75-1.233-2.75-2.75
		S4.105,3.023,5.622,3.023 M5.622,2.273c-1.934,0-3.5,1.567-3.5,3.5c0,1.933,1.567,3.5,3.5,3.5c1.933,0,3.499-1.567,3.499-3.5
		C9.121,3.84,7.555,2.273,5.622,2.273L5.622,2.273z"/>
</g>
<path fill="#FBB03B" stroke="#4D4D4D" stroke-width="0.75" stroke-linecap="round" stroke-miterlimit="10" d="M5.644,4.879
	C5.936,4.894,4.839,7.664,5.338,7.74"/>
<circle fill="#4D4D4D" cx="5.705" cy="3.966" r="0.407"/>
<rect x="9.787" y="9.76" transform="matrix(0.8172 -0.5763 0.5763 0.8172 -4.8958 8.2815)" fill="#C1272D" width="1.645" height="4.199"/>
<g>
	<polygon fill="#FFFFFF" points="7.071,7.127 12.255,10.651 8.923,13.116 	"/>
	<path fill="#C1272D" d="M7.745,8.04l3.862,2.625l-0.545,0.402l-1.391,1.032l-0.547,0.403L7.745,8.04 M6.396,6.215l2.325,7.516
		l1.396-1.029l1.393-1.033l1.394-1.03L6.396,6.215L6.396,6.215z"/>
</g>
</svg>
