<?xml version="1.0" encoding="utf-8"?>
<svg version="1.1"
	 xmlns="http://www.w3.org/2000/svg" xmlns:xlink="http://www.w3.org/1999/xlink"
	 x="0px" y="0px" width="16px" height="16px" viewBox="0 0 16 16" enable-background="new 0 0 16 16" xml:space="preserve">
<defs>
</defs>
<g>
	<path fill="#808080" d="M8,15.625c-4.205,0-7.625-3.421-7.625-7.625c0-4.205,3.42-7.625,7.625-7.625
		c4.204,0,7.625,3.42,7.625,7.625C15.625,12.204,12.204,15.625,8,15.625z"/>
	<path fill="#FFFFFF" d="M8,0.75c3.998,0,7.25,3.252,7.25,7.25c0,3.998-3.252,7.25-7.25,7.25c-3.998,0-7.25-3.252-7.25-7.25
		C0.75,4.002,4.002,0.75,8,0.75 M8,0C3.583,0,0,3.58,0,8c0,4.417,3.583,8,8,8c4.419,0,8-3.583,8-8C16,3.58,12.419,0,8,0L8,0z"/>
</g>
<g>
	<g>
		<path fill="#FFFFFF" d="M9.893,1.345C8.286,0.797,5.445,0.306,4.661,2.386C3.797,4.675,7.075,6.584,8.619,7.404
			c1.795,0.954,5.007,3.611,2.437,5.546c-2.279,1.716-5.387,0.029-6.753-1.971c-0.461-0.675-2.314,0.038-1.775,0.826
			c2.25,3.293,8.258,4.651,10.859,0.893c1.184-1.709,0.324-3.613-1.116-4.861C10.831,6.59,8.988,5.972,7.597,4.678
			C7.101,4.216,6.732,3.643,6.544,2.994C6.146,1.619,8.182,2.385,8.76,2.583C9.529,2.845,11.035,1.735,9.893,1.345L9.893,1.345z"/>
	</g>
</g>
<path fill="#F2F2F2" stroke="#2E3192" stroke-width="0.75" stroke-miterlimit="10" d="M3.85,11.5c0,0,1.428-1.422,4.25-1.417
	c2.617,0.006,4.25,1.417,4.25,1.417s-1.175,1.434-4.25,1.417C5.116,12.9,3.85,11.5,3.85,11.5z"/>
<circle fill="#2E3192" cx="8.18" cy="11.438" r="1.355"/>
</svg>
