<?xml version="1.0" encoding="utf-8"?>
<svg version="1.1"
	 xmlns="http://www.w3.org/2000/svg" xmlns:xlink="http://www.w3.org/1999/xlink"
	 x="0px" y="0px" width="16px" height="16px" viewBox="0 0 16 16" enable-background="new 0 0 16 16" xml:space="preserve">
<defs>
</defs>
<g>
	<path fill="#FBB03B" d="M5,9.625C2.45,9.625,0.375,7.55,0.375,5S2.45,0.375,5,0.375S9.625,2.45,9.625,5S7.55,9.625,5,9.625z"/>
	<path fill="#FFFFFF" d="M5,0.75c2.343,0,4.25,1.907,4.25,4.25S7.343,9.25,5,9.25S0.75,7.343,0.75,5S2.657,0.75,5,0.75 M5,0
		C2.239,0,0,2.237,0,5c0,2.761,2.239,5,5,5s5-2.239,5-5C10,2.237,7.761,0,5,0L5,0z"/>
</g>
<g>
	<g>
		<path fill="#FFFFFF" d="M6.395,0.609c-1.182-0.403-3.259-0.653-3.826,0.85C1.984,3.008,4.022,4.252,5.105,4.828
			c0.91,0.483,2.996,2.042,1.568,3.116c-1.25,0.942-2.941-0.196-3.651-1.236C2.562,6.032,0.708,6.745,1.247,7.533
			c1.58,2.313,5.707,2.975,7.464,0.436c0.799-1.154,0.204-2.436-0.76-3.271c-0.882-0.764-2.02-1.138-2.87-1.93
			C4.785,2.494,4.564,2.161,4.452,1.774C4.354,1.437,4.606,1.574,4.3,1.61c0.31-0.037,0.678,0.139,0.962,0.236
			C6.032,2.109,7.538,0.999,6.395,0.609L6.395,0.609z"/>
	</g>
</g>
<g>
	<path fill="#CCCCCC" d="M5.236,15.625c-0.535,0-0.971-0.432-0.971-0.962v-2.521L4.199,8.658l1.173,2.224h9.282
		c0.535,0,0.971,0.432,0.971,0.962v2.819c0,0.53-0.436,0.962-0.971,0.962H5.236z"/>
	<path fill="#FFFFFF" d="M4.604,10.229l0.331,0.627l0.211,0.4h0.452h9.056c0.328,0,0.596,0.264,0.596,0.587v2.819
		c0,0.323-0.268,0.587-0.596,0.587H5.236c-0.329,0-0.596-0.264-0.596-0.587v-2.535L4.604,10.229 M3.794,7.086l0.096,5.057v2.521
		C3.891,15.402,4.493,16,5.236,16h9.418C15.398,16,16,15.402,16,14.663v-2.819c0-0.739-0.602-1.337-1.346-1.337H5.599L3.794,7.086
		L3.794,7.086z"/>
</g>
</svg>
