<?xml version="1.0" encoding="utf-8"?>
<svg version="1.1"
	 xmlns="http://www.w3.org/2000/svg" xmlns:xlink="http://www.w3.org/1999/xlink"
	 x="0px" y="0px" width="16px" height="16px" viewBox="0 0 16 16" enable-background="new 0 0 16 16" xml:space="preserve">
<defs>
</defs>
<g>
	<rect fill="#F4C9CC" width="16" height="16"/>
	<path fill="#FFFFFF" d="M13,0h-1.5v0.75H13V0L13,0z M10,0H8.5v0.75H10V0L10,0z M7,0H5.5v0.75H7V0L7,0z M4,0H2.5v0.75H4V0L4,0z M1,0
		H0v0.75h1V0L1,0z M0.75,2H0v1.5h0.75V2L0.75,2z M0.75,5H0v1.5h0.75V5L0.75,5z M0.75,8H0v1.5h0.75V8L0.75,8z M0.75,11H0v1.5h0.75V11
		L0.75,11z M0.75,14H0v1.5h0.75V14L0.75,14z M2.5,15.25H1V16h1.5V15.25L2.5,15.25z M5.5,15.25H4V16h1.5V15.25L5.5,15.25z M8.5,15.25
		H7V16h1.5V15.25L8.5,15.25z M11.5,15.25H10V16h1.5V15.25L11.5,15.25z M14.5,15.25H13V16h1.5V15.25L14.5,15.25z M16,14.5h-0.75V16
		H16V14.5L16,14.5z M16,11.5h-0.75V13H16V11.5L16,11.5z M16,8.5h-0.75V10H16V8.5L16,8.5z M16,5.5h-0.75V7H16V5.5L16,5.5z M16,2.5
		h-0.75V4H16V2.5L16,2.5z M16,0h-1.5v0.75h0.75V1H16V0L16,0z"/>
</g>
<g>
	<path fill="#4D4D4D" d="M5.622,3.023c1.516,0,2.749,1.233,2.749,2.75s-1.233,2.75-2.749,2.75c-1.517,0-2.75-1.233-2.75-2.75
		S4.105,3.023,5.622,3.023 M5.622,2.273c-1.934,0-3.5,1.567-3.5,3.5c0,1.933,1.567,3.5,3.5,3.5c1.933,0,3.499-1.567,3.499-3.5
		C9.121,3.84,7.555,2.273,5.622,2.273L5.622,2.273z"/>
</g>
<path fill="#FBB03B" stroke="#4D4D4D" stroke-width="0.75" stroke-linecap="round" stroke-miterlimit="10" d="M5.644,4.879
	C5.936,4.894,4.839,7.664,5.338,7.74"/>
<circle fill="#4D4D4D" cx="5.705" cy="3.966" r="0.407"/>
<rect x="9.787" y="9.76" transform="matrix(0.8172 -0.5763 0.5763 0.8172 -4.8958 8.2815)" fill="#C1272D" width="1.645" height="4.199"/>
<g>
	<polygon fill="#FFFFFF" points="7.071,7.127 12.255,10.651 8.923,13.116 	"/>
	<path fill="#C1272D" d="M7.745,8.04l3.862,2.625l-0.545,0.402l-1.391,1.032l-0.547,0.403L7.745,8.04 M6.396,6.215l2.325,7.516
		l1.396-1.029l1.393-1.033l1.394-1.03L6.396,6.215L6.396,6.215z"/>
</g>
</svg>
