<?xml version="1.0" encoding="utf-8"?>
<svg version="1.1"
	 xmlns="http://www.w3.org/2000/svg" xmlns:xlink="http://www.w3.org/1999/xlink"
	 x="0px" y="0px" width="16px" height="16px" viewBox="-3.733 0 16 16" enable-background="new -3.733 0 16 16"
	 xml:space="preserve">
<defs>
</defs>
<g>
	<path fill="#9E005D" d="M1.067,15.625c-0.381,0-0.692-0.311-0.692-0.691V1.067c0-0.381,0.311-0.692,0.692-0.692h6.4
		c0.381,0,0.691,0.311,0.691,0.692v13.867c0,0.381-0.311,0.691-0.691,0.691H1.067z"/>
	<path fill="#FFFFFF" d="M7.467,0.75c0.175,0,0.316,0.142,0.316,0.317v13.867c0,0.175-0.142,0.316-0.316,0.316h-6.4
		c-0.175,0-0.317-0.142-0.317-0.316V1.067c0-0.175,0.142-0.317,0.317-0.317H7.467 M7.467,0h-6.4C0.478,0,0,0.478,0,1.067v13.867
		C0,15.522,0.478,16,1.067,16h6.4c0.59,0,1.066-0.478,1.066-1.066V1.067C8.533,0.478,8.057,0,7.467,0L7.467,0z"/>
</g>
<line fill="none" stroke="#FFFFFF" stroke-width="0.75" stroke-miterlimit="10" x1="0.267" y1="3.5" x2="8.267" y2="3.5"/>
<path fill="#E6E6E6" d="M2.136,8.742V7.805H1.19V7.157h0.945V6.22h0.63v0.938h0.947v0.647H2.766v0.937H2.136z"/>
<path fill="#E6E6E6" d="M5.086,7.828V7.137h1.358v0.691H5.086z"/>
<path fill="#E6E6E6" d="M2.084,10.729v-0.691h0.692v0.691H2.084z M2.084,12.65v-0.691h0.692v0.691H2.084z"/>
<path fill="#E6E6E6" d="M4.475,12.65l0.942-1.346l-0.903-1.268h0.845l0.463,0.719l0.487-0.719H7.12l-0.885,1.238l0.967,1.375h-0.85
	l-0.531-0.809L5.284,12.65H4.475z"/>
<path fill="#E6E6E6" d="M3.072,1.712V1.11h2.389v0.602H3.072z M3.072,2.747V2.143h2.389v0.604H3.072z"/>
</svg>
