<?xml version="1.0" encoding="utf-8"?>
<svg version="1.1"
	 xmlns="http://www.w3.org/2000/svg" xmlns:xlink="http://www.w3.org/1999/xlink"
	 x="0px" y="0px" width="16px" height="16px" viewBox="-0.11 -0.217 16 16" enable-background="new -0.11 -0.217 16 16"
	 xml:space="preserve">
<defs>
</defs>
<path fill="#EAEA8F" stroke="#FFFFFF" stroke-width="0.75" stroke-miterlimit="10" d="M0.69,15.282c0,0,2.844-4.388,3.357-9.444
	c0.292-2.875-0.153-5.45,0.856-5.463c1.445-0.019,0.472,4.916,1.369,8.998c0.622,2.832,1.175,5.985,5.547,5.909H0.69z"/>
<path fill="#D9E021" stroke="#FFFFFF" stroke-width="0.75" stroke-miterlimit="10" d="M2.507,15.282c0,0,3.424-4.388,4.042-9.444
	C6.9,2.963,7.012,0.433,9.198,0.433c3.289,0,2.365,4.795,2.529,9.015c0.133,3.423-0.172,5.21,4.18,5.834H2.507z"/>
<g>
	<polygon fill="#333333" points="12.511,12.905 5.506,12.905 5.506,11.151 12.511,11.15 12.511,9.179 15.36,12.027 12.511,14.878 	
		"/>
	<path fill="#FFFFFF" d="M12.886,10.084l1.943,1.943l-1.943,1.944V13.28v-0.75h-0.75H5.881v-1.004l6.255-0.001h0.75v-0.75V10.084
		 M12.136,8.273v2.502l-7.005,0.001v2.504h7.005v2.503l3.754-3.756L12.136,8.273L12.136,8.273z"/>
</g>
</svg>
