<?xml version="1.0" encoding="utf-8"?>
<svg version="1.1"
	 xmlns="http://www.w3.org/2000/svg" xmlns:xlink="http://www.w3.org/1999/xlink"
	 x="0px" y="0px" width="16px" height="16px" viewBox="0 0 16 16" enable-background="new 0 0 16 16" xml:space="preserve">
<defs>
</defs>
<g>
	<path fill="#48BDE5" d="M1.053,13.31c-0.374,0-0.678-0.343-0.678-0.765V1.141c0-0.422,0.304-0.766,0.678-0.766h9.475
		c0.373,0,0.677,0.344,0.677,0.766v11.404c0,0.422-0.304,0.765-0.677,0.765H1.053z"/>
	<g>
		<path fill="#FFFFFF" d="M10.527,0.75c0.163,0,0.302,0.179,0.302,0.391v11.404c0,0.211-0.139,0.39-0.302,0.39H1.053
			c-0.164,0-0.303-0.179-0.303-0.39V1.141c0-0.212,0.139-0.391,0.303-0.391H10.527 M10.527,0H1.053C0.473,0,0,0.511,0,1.141v11.404
			c0,0.631,0.473,1.14,1.053,1.14h9.475c0.581,0,1.052-0.509,1.052-1.14V1.141C11.579,0.511,11.108,0,10.527,0L10.527,0z"/>
	</g>
</g>
<g>
	<path fill="#48BDE5" d="M3.369,15.625c-0.374,0-0.678-0.343-0.678-0.765V3.457c0-0.422,0.304-0.766,0.678-0.766h9.474
		c0.373,0,0.677,0.343,0.677,0.766V14.86c0,0.422-0.304,0.765-0.677,0.765H3.369z"/>
	<path fill="#FFFFFF" d="M12.843,3.066c0.163,0,0.302,0.179,0.302,0.391V14.86c0,0.211-0.139,0.39-0.302,0.39H3.369
		c-0.164,0-0.303-0.179-0.303-0.39V3.457c0-0.212,0.139-0.391,0.303-0.391H12.843 M12.843,2.316H3.369
		c-0.58,0-1.053,0.51-1.053,1.141V14.86c0,0.631,0.473,1.14,1.053,1.14h9.474c0.581,0,1.052-0.509,1.052-1.14V3.457
		C13.895,2.826,13.424,2.316,12.843,2.316L12.843,2.316z"/>
</g>
<path fill="#F2F2F2" stroke="#2E3192" stroke-width="0.75" stroke-miterlimit="10" d="M3.869,11.056c0,0,1.428-1.422,4.252-1.417
	c2.62,0.005,4.251,1.417,4.251,1.417s-1.174,1.435-4.251,1.418C5.135,12.457,3.869,11.056,3.869,11.056z"/>
<line fill="none" stroke="#2E3192" stroke-width="0.75" stroke-miterlimit="10" x1="4.669" y1="11.574" x2="3.753" y2="12.814"/>
<line fill="none" stroke="#2E3192" stroke-width="0.75" stroke-miterlimit="10" x1="11.839" y1="11.572" x2="12.753" y2="12.706"/>
<line fill="none" stroke="#2E3192" stroke-width="0.75" stroke-miterlimit="10" x1="10.124" y1="12.423" x2="10.372" y2="13.556"/>
<line fill="none" stroke="#2E3192" stroke-width="0.75" stroke-miterlimit="10" x1="6.155" y1="12.268" x2="5.835" y2="13.55"/>
<line fill="none" stroke="#2E3192" stroke-width="0.75" stroke-miterlimit="10" x1="8.102" y1="12.533" x2="8.093" y2="13.854"/>
</svg>
