<?xml version="1.0" encoding="utf-8"?>
<svg version="1.1"
	 xmlns="http://www.w3.org/2000/svg" xmlns:xlink="http://www.w3.org/1999/xlink"
	 x="0px" y="0px" width="16px" height="16px" viewBox="0 0 16 16" enable-background="new 0 0 16 16" xml:space="preserve">
<defs>
</defs>
<g>
	<path fill="#F4C9CC" d="M7.292,0.766c3.019,2.088,2.461,2.9,5.978,4.109s3.12,7.979,1.604,9.713
		c-1.516,1.735-10.086,2.267-11.295-0.726C2.134,10.289-0.905,5.556,0.26,2.919C1.425,0.282,4.897-0.891,7.292,0.766z"/>
	<path fill="#FFFFFF" d="M4.797,0C4.795,0,4.793,0,4.792,0c0,0,0,0-0.001,0C4.789,0,4.788,0,4.786,0c0,0-0.001,0-0.002,0
		S4.782,0,4.78,0c0,0-0.001,0-0.001,0C4.777,0,4.776,0,4.774,0c0,0-0.001,0-0.001,0C4.771,0,4.77,0,4.769,0S4.768,0,4.767,0
		C4.766,0,4.765,0,4.763,0c0,0-0.001,0-0.002,0C4.76,0,4.759,0,4.757,0c0,0-0.001,0-0.001,0C4.754,0,4.753,0,4.751,0
		c0,0-0.001,0-0.001,0C4.749,0,4.747,0,4.746,0c0,0-0.001,0-0.001,0C4.743,0,4.741,0,4.74,0c0,0-0.001,0-0.001,0
		C4.737,0,4.735,0,4.733,0h0C4.731,0,4.729,0,4.728,0l0,0c-0.476,0.007-0.95,0.086-1.406,0.23l0.226,0.715
		c0.412-0.13,0.833-0.196,1.25-0.196V0L4.797,0z M1.976,0.882C1.687,1.079,1.417,1.306,1.173,1.561l0,0
		C1.172,1.562,1.17,1.563,1.169,1.564c0,0,0,0,0,0C1.168,1.566,1.167,1.567,1.166,1.569c0,0,0,0,0,0
		C1.164,1.57,1.163,1.572,1.161,1.573l0,0C1.16,1.575,1.159,1.576,1.157,1.577l0,0C1.156,1.579,1.154,1.58,1.153,1.582c0,0,0,0,0,0
		C1.152,1.583,1.15,1.584,1.149,1.585c0,0,0,0,0,0.001C1.147,1.587,1.146,1.589,1.146,1.59c0,0,0,0-0.001,0
		C1.144,1.592,1.143,1.593,1.142,1.594c0,0,0,0-0.001,0C1.14,1.596,1.138,1.597,1.137,1.599c0,0,0,0,0,0
		C1.136,1.6,1.134,1.602,1.133,1.603c0,0,0,0,0,0C1.132,1.604,1.13,1.606,1.129,1.607l0,0C1.127,1.609,1.126,1.61,1.125,1.612l0,0
		c-0.007,0.007-0.013,0.014-0.02,0.021l0,0C1.104,1.635,1.103,1.636,1.101,1.638c0,0,0,0,0,0C1.1,1.639,1.098,1.641,1.097,1.642
		c0,0,0,0.001-0.001,0.001C1.095,1.644,1.094,1.645,1.093,1.646c0,0,0,0-0.001,0.001C1.091,1.648,1.09,1.649,1.089,1.65
		c0,0,0,0-0.001,0.001C1.087,1.652,1.086,1.653,1.085,1.654c0,0,0,0.001-0.001,0.001C1.083,1.657,1.083,1.658,1.082,1.659
		c0,0,0,0.001-0.001,0.001C1.08,1.661,1.079,1.662,1.078,1.663c0,0-0.001,0.001-0.001,0.001C1.076,1.666,1.075,1.667,1.074,1.667
		c0,0-0.001,0.001-0.001,0.001C1.072,1.669,1.071,1.67,1.07,1.671c0,0-0.001,0.001-0.001,0.001C1.068,1.674,1.067,1.675,1.066,1.676
		c0,0-0.001,0.001-0.001,0.001C1.064,1.678,1.063,1.679,1.063,1.68c0,0-0.001,0.001-0.001,0.001C1.06,1.683,1.06,1.684,1.059,1.685
		c0,0-0.001,0.001-0.001,0.001c0,0.001-0.001,0.002-0.002,0.003c0,0-0.001,0.001-0.001,0.001c0,0.001-0.001,0.002-0.002,0.003
		c0,0-0.001,0.001-0.001,0.001C1.049,1.696,1.048,1.697,1.047,1.698c0,0-0.001,0.001-0.001,0.001
		C1.042,1.703,1.038,1.708,1.034,1.712c0,0,0,0,0,0.001C1.033,1.714,1.032,1.715,1.031,1.716c-0.001,0-0.001,0.001-0.002,0.002
		c0,0-0.001,0.001-0.002,0.002c-0.001,0-0.001,0.001-0.002,0.002c0,0-0.001,0.001-0.002,0.002c0,0.001-0.001,0.001-0.002,0.002
		c0,0-0.001,0.001-0.002,0.002c0,0.001-0.001,0.001-0.002,0.002c0,0-0.001,0.001-0.001,0.002C1.015,1.734,1.014,1.735,1.014,1.736
		c-0.001,0-0.001,0.001-0.002,0.002c0,0.001-0.001,0.001-0.002,0.002c0,0-0.001,0.001-0.002,0.002c0,0-0.001,0.001-0.002,0.002
		c0,0-0.001,0.001-0.001,0.002c-0.001,0-0.001,0.001-0.002,0.002c0,0-0.001,0.001-0.001,0.001c0,0.001-0.001,0.002-0.002,0.003
		c0,0-0.001,0.001-0.002,0.001c0,0.001-0.001,0.002-0.002,0.003c0,0-0.001,0.001-0.001,0.001C0.992,1.76,0.992,1.761,0.991,1.762
		c0,0.001-0.001,0.001-0.001,0.002c0,0.001-0.001,0.002-0.002,0.002c0,0.001-0.001,0.001-0.001,0.002
		C0.985,1.769,0.984,1.77,0.983,1.771c0,0-0.001,0.001-0.001,0.002c0,0.001-0.001,0.001-0.002,0.002c0,0,0,0.001-0.001,0.001
		C0.978,1.777,0.977,1.778,0.976,1.779c0,0-0.001,0.001-0.001,0.001C0.974,1.782,0.973,1.783,0.972,1.784c0,0,0,0,0,0.001
		c-0.008,0.01-0.017,0.02-0.024,0.029c0,0,0,0,0,0C0.946,1.815,0.945,1.817,0.943,1.818l0,0C0.942,1.82,0.941,1.821,0.94,1.822
		c0,0,0,0,0,0C0.938,1.824,0.938,1.825,0.937,1.827l0,0C0.935,1.829,0.934,1.83,0.933,1.831c0,0,0,0-0.001,0
		C0.931,1.833,0.93,1.834,0.929,1.835c0,0,0,0,0,0C0.928,1.837,0.927,1.838,0.926,1.839c0,0,0,0.001,0,0.001
		C0.924,1.842,0.923,1.843,0.922,1.844c0,0,0,0-0.001,0C0.92,1.846,0.919,1.847,0.918,1.849c0,0,0,0,0,0
		C0.917,1.851,0.916,1.852,0.915,1.853h0C0.914,1.854,0.913,1.856,0.911,1.857l0,0C0.9,1.871,0.89,1.884,0.879,1.897l0.587,0.466
		c0.262-0.329,0.575-0.619,0.932-0.861L1.976,0.882L1.976,0.882z M0.154,3.202C0.086,3.415,0.042,3.64,0.02,3.875c0,0,0,0,0,0
		c0,0.002,0,0.004,0,0.005v0c0,0.004,0,0.007-0.001,0.011v0c0,0.001,0,0.003,0,0.005c0,0,0,0.001,0,0.001c0,0.002,0,0.003,0,0.005
		l0,0c0,0.002,0,0.004,0,0.006v0c0,0.001,0,0.003,0,0.005c0,0,0,0.001,0,0.001c0,0.001,0,0.003,0,0.004c0,0,0,0.001,0,0.001
		c0,0.003-0.001,0.007-0.001,0.011c0,0,0,0.001,0,0.001c0,0.001,0,0.002,0,0.004c0,0,0,0.001,0,0.001c0,0.001,0,0.003,0,0.004
		c0,0,0,0.001,0,0.001c0,0.002,0,0.003,0,0.005c0,0,0,0.001,0,0.001c0,0.001,0,0.002,0,0.004c0,0,0,0.001,0,0.002s0,0.002,0,0.003
		c0,0,0,0.001,0,0.002c0,0.001,0,0.003,0,0.005c0,0,0,0.001,0,0.001c0,0.001,0,0.002,0,0.004c0,0,0,0.001,0,0.002
		c0,0.001,0,0.002,0,0.003c0,0,0,0.001,0,0.002c0,0.001,0,0.002,0,0.003c0,0,0,0.001,0,0.002c0,0.002,0,0.003,0,0.005
		c0,0.001,0,0.001,0,0.002c0,0.001,0,0.002,0,0.003s0,0.002,0,0.002c0,0.001,0,0.002,0,0.003c0,0.001,0,0.001,0,0.002
		s0,0.002,0,0.002c0,0.002,0,0.003,0,0.005c0,0,0,0.001,0,0.002c0,0.001,0,0.002,0,0.003c0,0,0,0.001,0,0.002s0,0.002,0,0.003
		c0,0,0,0.001,0,0.001c0,0.004,0,0.008-0.001,0.012c0,0,0,0.001,0,0.001c0,0.001,0,0.002,0,0.004c0,0,0,0,0,0.001
		c0,0.004,0,0.008,0,0.013c0,0,0,0,0,0c0,0.001,0,0.002,0,0.004c0,0,0,0,0,0c0,0.006,0,0.012,0,0.018v0
		C-0.004,4.274,0,4.477,0.016,4.686l0.748-0.059c-0.036-0.462,0-0.866,0.105-1.199L0.154,3.202L0.154,3.202z M1.012,5.961
		L0.289,6.159c0.043,0.158,0.09,0.319,0.142,0.48l0,0c0,0.002,0.001,0.004,0.002,0.005c0,0,0,0,0,0c0,0.001,0.001,0.003,0.001,0.005
		c0,0,0,0,0,0.001c0,0.001,0.001,0.003,0.001,0.004c0,0,0,0.001,0,0.001c0,0.001,0.001,0.002,0.001,0.004c0,0,0,0.001,0,0.001
		c0,0.001,0.001,0.003,0.001,0.004c0,0.001,0,0.001,0.001,0.002c0,0.001,0,0.002,0.001,0.003c0,0,0,0.001,0,0.002
		c0,0.001,0.001,0.002,0.001,0.003c0,0.001,0.001,0.001,0.001,0.002c0,0.001,0,0.002,0.001,0.003s0,0.002,0.001,0.003
		c0,0.001,0,0.002,0.001,0.002c0,0.001,0,0.002,0.001,0.003c0,0.001,0,0.002,0,0.002c0,0.001,0.001,0.002,0.001,0.003
		c0,0.001,0,0.001,0.001,0.002c0,0.001,0,0.002,0.001,0.004c0,0,0,0.001,0,0.001c0,0.001,0.001,0.002,0.001,0.004
		c0,0,0,0.001,0,0.002c0,0.001,0,0.002,0.001,0.003s0,0.001,0,0.002c0,0.001,0.001,0.002,0.001,0.004c0,0,0,0.001,0,0.001
		c0,0.001,0.001,0.003,0.001,0.004c0,0,0,0,0,0.001c0,0.001,0.001,0.003,0.001,0.004c0,0,0,0.001,0,0.001
		c0,0.001,0.001,0.003,0.001,0.004c0,0,0,0.001,0,0.001c0,0.001,0.001,0.003,0.001,0.004c0,0,0,0,0,0
		c0.001,0.004,0.002,0.007,0.003,0.011c0,0,0,0,0,0c0,0.002,0.001,0.003,0.001,0.005l0,0c0,0.002,0.001,0.003,0.002,0.005l0,0
		c0.04,0.122,0.081,0.244,0.125,0.368l0,0c0.001,0.004,0.002,0.007,0.004,0.011l0,0c0,0.002,0.001,0.003,0.002,0.005v0
		c0,0.002,0.001,0.003,0.002,0.005c0,0,0,0,0,0c0,0.001,0.001,0.003,0.002,0.005c0,0,0,0,0,0.001c0,0.001,0.001,0.003,0.002,0.004
		c0,0,0,0.001,0,0.001c0,0.001,0.001,0.003,0.001,0.005c0,0,0,0,0,0.001c0,0.001,0.001,0.003,0.001,0.004c0,0,0,0.001,0,0.002
		c0,0.001,0.001,0.002,0.001,0.003c0,0,0,0.001,0,0.002c0,0.001,0.001,0.002,0.001,0.003c0,0.001,0,0.002,0.001,0.002
		c0,0.001,0,0.002,0.001,0.003c0,0.001,0,0.002,0.001,0.002c0,0.001,0,0.002,0.001,0.003S0.62,7.2,0.62,7.201
		c0,0,0,0.001,0.001,0.002c0,0.001,0.001,0.002,0.001,0.004c0,0,0,0.001,0,0.001c0,0.001,0.001,0.003,0.001,0.004
		c0,0,0,0.001,0,0.001c0,0.002,0.001,0.003,0.001,0.005c0,0,0,0,0,0.001C0.669,7.34,0.714,7.46,0.761,7.582l0.701-0.267
		C1.272,6.817,1.125,6.375,1.012,5.961L1.012,5.961z M2.021,8.664L1.335,8.967c0.201,0.454,0.412,0.91,0.626,1.363l0.679-0.319
		C2.428,9.563,2.219,9.111,2.021,8.664L2.021,8.664z M3.283,11.365l-0.678,0.32c0.04,0.083,0.079,0.166,0.117,0.249
		c0,0,0,0.001,0,0.001c0.003,0.007,0.006,0.013,0.009,0.02c0,0.001,0.001,0.002,0.002,0.004s0.002,0.004,0.003,0.006
		c0.001,0.003,0.002,0.006,0.004,0.009l0,0c0.16,0.341,0.314,0.676,0.46,1.004c0.001,0.002,0.001,0.004,0.002,0.005
		c0,0.002,0.001,0.004,0.002,0.006s0.001,0.004,0.002,0.006s0.001,0.003,0.002,0.005c0.001,0.002,0.002,0.004,0.003,0.006
		c0,0.001,0.001,0.002,0.001,0.004c0.001,0.002,0.002,0.005,0.003,0.008c0,0,0,0.001,0.001,0.001
		c0.004,0.011,0.009,0.021,0.013,0.03l0.686-0.303C3.72,12.296,3.504,11.835,3.283,11.365L3.283,11.365z M4.473,13.915l-0.582,0.474
		c0.289,0.355,0.703,0.646,1.202,0.876l0.315-0.681C4.993,14.392,4.678,14.167,4.473,13.915L4.473,13.915z M6.679,14.995
		l-0.162,0.732c0,0,0,0,0.001,0c0.001,0,0.002,0,0.004,0.001c0,0,0.001,0,0.001,0c0.001,0,0.003,0.001,0.004,0.001
		c0,0,0.001,0,0.002,0c0.001,0.001,0.002,0.001,0.003,0.001s0.002,0.001,0.003,0.001c0,0,0.001,0,0.001,0
		c0.438,0.096,0.904,0.164,1.382,0.208c0,0,0,0,0.001,0c0.001,0.001,0.002,0.001,0.003,0.001c0,0,0,0,0.001,0
		c0.002,0,0.004,0,0.006,0c0,0,0.001,0,0.002,0.001c0.001,0,0.002,0,0.003,0c0.001,0,0.002,0,0.004,0c0,0,0.001,0,0.001,0
		c0.002,0.001,0.003,0.001,0.005,0.001c0,0,0.001,0,0.001,0c0.001,0,0.003,0,0.004,0c0,0,0,0,0.001,0
		c0.001,0.001,0.003,0.001,0.005,0.001c0,0,0,0,0,0C7.973,15.944,7.986,15.946,8,15.947L8.064,15.2
		C7.57,15.157,7.104,15.089,6.679,14.995L6.679,14.995z M10.915,15.16c-0.47,0.052-0.949,0.081-1.427,0.088l0.011,0.75
		c0.001,0,0.002,0,0.003,0c0.002,0,0.004,0,0.006,0s0.004,0,0.006,0s0.004,0,0.006,0c0.003,0,0.005-0.001,0.007-0.001
		c0.001,0,0.003,0,0.004,0c0.003,0,0.007,0,0.01,0c0.001,0,0.002,0,0.003,0c0.002,0,0.004,0,0.007,0l0,0c0.005,0,0.009,0,0.014,0
		h0.001c0.484-0.01,0.966-0.04,1.432-0.091L10.915,15.16L10.915,15.16z M13.608,14.533c-0.355,0.153-0.792,0.288-1.296,0.4
		l0.163,0.732c0.478-0.106,0.913-0.235,1.286-0.385l0,0c0.002-0.001,0.003-0.001,0.005-0.002l0,0
		c0.002-0.001,0.003-0.001,0.005-0.002c0,0,0,0,0.001,0c0.001-0.001,0.002-0.001,0.004-0.002l0,0
		c0.002-0.001,0.003-0.001,0.005-0.002l0,0c0.004-0.001,0.007-0.003,0.01-0.004c0.001-0.001,0.003-0.001,0.004-0.002
		c0,0,0,0,0.001,0s0.003-0.001,0.004-0.002h0.001c0.001-0.001,0.003-0.001,0.004-0.002c0,0,0,0,0.001,0
		c0.034-0.014,0.067-0.028,0.101-0.042L13.608,14.533L13.608,14.533z M14.928,12.743c-0.133,0.481-0.3,0.886-0.483,1.17l0.629,0.407
		c0.1-0.152,0.192-0.329,0.278-0.523l0,0c0.002-0.003,0.003-0.005,0.004-0.008l0,0c0.001-0.003,0.003-0.006,0.004-0.009l0,0
		c0-0.001,0.001-0.002,0.002-0.004l0,0c0-0.001,0.001-0.002,0.001-0.004l0,0c0.001-0.001,0.002-0.003,0.002-0.004l0,0
		c0.001-0.002,0.001-0.003,0.002-0.004l0,0c0.001-0.002,0.001-0.003,0.002-0.004V13.76c0-0.001,0.001-0.002,0.001-0.003
		c0.001-0.001,0.001-0.001,0.001-0.001c0-0.001,0.001-0.002,0.001-0.004c0,0,0,0,0.001,0c0.001-0.003,0.002-0.005,0.003-0.008
		v-0.001c0.001-0.001,0.001-0.002,0.002-0.003c0-0.001,0-0.001,0-0.001c0-0.001,0.001-0.002,0.001-0.003
		c0.001-0.001,0.001-0.001,0.001-0.001c0-0.001,0.001-0.003,0.001-0.004c0,0,0.001,0,0.001-0.001s0.001-0.002,0.001-0.003
		c0,0,0,0,0-0.001c0.001-0.001,0.001-0.002,0.002-0.003c0-0.001,0-0.001,0-0.001c0.001-0.001,0.001-0.002,0.002-0.003v-0.001
		c0-0.001,0.001-0.003,0.001-0.004c0.001,0,0.001,0,0.001-0.001s0.001-0.001,0.001-0.003c0,0,0,0,0.001-0.001
		c0-0.001,0.001-0.002,0.001-0.003v-0.001c0.001-0.001,0.001-0.002,0.002-0.003c0-0.001,0-0.001,0-0.001
		c0.001-0.001,0.001-0.002,0.001-0.004c0.001,0,0.001,0,0.001-0.001s0.001-0.002,0.001-0.003c0,0,0,0,0.001,0
		c0-0.002,0-0.003,0.001-0.004c0,0,0-0.001,0.001-0.001c0-0.001,0-0.002,0.001-0.003c0-0.001,0-0.001,0-0.001
		c0.001-0.001,0.001-0.003,0.002-0.004c0,0,0,0,0-0.001c0.001-0.001,0.001-0.002,0.002-0.003c0-0.001,0-0.001,0-0.001
		c0-0.001,0.001-0.002,0.001-0.003c0,0,0-0.001,0.001-0.001c0-0.002,0.001-0.003,0.001-0.004c0,0,0-0.001,0.001-0.001
		c0-0.001,0-0.002,0-0.002c0.001-0.001,0.001-0.002,0.001-0.002c0.001-0.001,0.001-0.002,0.001-0.003
		c0.001-0.001,0.001-0.001,0.001-0.002s0.001-0.001,0.001-0.002c0,0,0-0.001,0.001-0.002c0-0.001,0-0.002,0.001-0.003
		c0,0,0-0.001,0.001-0.002v-0.001c0.001-0.001,0.001-0.002,0.002-0.003c0-0.001,0-0.002,0-0.002
		c0.001-0.001,0.001-0.002,0.001-0.002c0-0.001,0.001-0.002,0.001-0.002c0-0.001,0-0.002,0.001-0.002c0-0.001,0-0.002,0.001-0.003
		c0-0.001,0-0.001,0.001-0.002c0,0,0-0.001,0-0.002c0.001-0.001,0.001-0.002,0.002-0.003c0,0,0-0.001,0-0.002
		c0,0,0.001-0.001,0.001-0.002c0,0,0,0,0.001-0.001c0-0.001,0.001-0.002,0.001-0.003s0-0.002,0.001-0.002c0-0.001,0-0.001,0-0.002
		c0.001-0.001,0.001-0.002,0.001-0.002c0.001-0.001,0.001-0.002,0.001-0.003c0.001-0.001,0.001-0.001,0.001-0.002
		s0.001-0.001,0.001-0.002c0,0,0-0.001,0.001-0.002c0-0.001,0-0.002,0.001-0.003c0,0,0-0.001,0.001-0.002v-0.001
		c0.001-0.001,0.001-0.002,0.001-0.003s0.001-0.002,0.001-0.003l0.001-0.001c0.001-0.003,0.002-0.005,0.003-0.008c0,0,0,0,0-0.001
		c0.001-0.001,0.001-0.002,0.002-0.003c0-0.001,0-0.001,0-0.002c0.001-0.001,0.001-0.001,0.001-0.002s0-0.001,0.001-0.002
		c0-0.001,0.001-0.002,0.001-0.003s0-0.001,0.001-0.002c0,0,0-0.001,0.001-0.002v-0.001c0-0.001,0.001-0.003,0.001-0.004
		c0.001,0,0.001-0.001,0.001-0.002c0,0,0.001-0.001,0.001-0.002V13.56c0.001-0.002,0.001-0.003,0.002-0.004v-0.001
		c0.001-0.001,0.001-0.002,0.001-0.003l0,0c0.001-0.002,0.002-0.003,0.002-0.005l0.001-0.001c0-0.001,0-0.001,0.001-0.002
		c0-0.001,0-0.001,0-0.002c0.001-0.001,0.001-0.002,0.002-0.003c0-0.001,0-0.002,0-0.002c0-0.001,0.001-0.001,0.001-0.002
		s0.001-0.002,0.001-0.003s0.001-0.001,0.001-0.002s0-0.001,0.001-0.002c0-0.001,0-0.001,0-0.002
		c0.001-0.001,0.001-0.002,0.001-0.003c0.001-0.001,0.001-0.001,0.001-0.002s0.001-0.001,0.001-0.002s0.001-0.002,0.001-0.004
		l0.001-0.001c0-0.001,0-0.001,0.001-0.002v-0.001c0.001-0.002,0.001-0.003,0.002-0.005c0,0,0,0,0-0.001
		c0,0,0.001-0.001,0.001-0.002v-0.001c0.001-0.002,0.001-0.003,0.002-0.005l0,0c0.001-0.001,0.001-0.002,0.001-0.003
		c0,0,0,0,0-0.001c0.001-0.001,0.002-0.003,0.002-0.005c0,0,0,0,0.001,0c0-0.001,0-0.002,0.001-0.003l0,0
		c0-0.002,0.001-0.004,0.002-0.005c0-0.001,0-0.001,0-0.001c0-0.001,0.001-0.002,0.001-0.003l0,0
		c0.001-0.002,0.001-0.004,0.002-0.006l0,0c0.001-0.003,0.002-0.006,0.003-0.008c0-0.001,0-0.001,0-0.001
		c0.001-0.002,0.001-0.003,0.002-0.005c0,0,0,0,0-0.001c0.001-0.001,0.001-0.001,0.001-0.002s0.001-0.001,0.001-0.001
		c0.001-0.003,0.002-0.006,0.003-0.008c0-0.001,0-0.001,0-0.001c0-0.002,0.001-0.003,0.002-0.005c0,0,0,0,0-0.001
		s0.001-0.001,0.001-0.002s0-0.001,0-0.002c0.001-0.001,0.001-0.002,0.001-0.003c0.001-0.001,0.001-0.001,0.001-0.002
		s0.001-0.001,0.001-0.002s0-0.001,0.001-0.002c0-0.001,0-0.002,0.001-0.003c0-0.001,0-0.002,0-0.002
		c0.001-0.001,0.001-0.002,0.001-0.002c0-0.001,0.001-0.002,0.001-0.002c0-0.001,0.001-0.002,0.001-0.003s0-0.002,0.001-0.002
		c0-0.001,0-0.002,0-0.002c0.001-0.001,0.001-0.002,0.001-0.003c0.001-0.001,0.001-0.002,0.001-0.002
		c0.001-0.001,0.001-0.002,0.001-0.002c0-0.001,0-0.002,0.001-0.002c0-0.002,0-0.003,0.001-0.004c0,0,0-0.001,0-0.002
		c0.001,0,0.001-0.001,0.001-0.002c0,0,0.001-0.001,0.001-0.002s0.001-0.002,0.001-0.003c0,0,0-0.001,0.001-0.002
		c0,0,0-0.001,0.001-0.002c0-0.001,0-0.001,0-0.002s0.001-0.002,0.001-0.003s0.001-0.001,0.001-0.002s0-0.001,0.001-0.002
		c0-0.001,0-0.002,0.001-0.003c0-0.001,0-0.002,0-0.002c0.001-0.001,0.001-0.002,0.001-0.002c0-0.001,0.001-0.002,0.001-0.003
		c0,0,0-0.001,0.001-0.002c0-0.001,0-0.002,0.001-0.003v-0.001c0.001-0.001,0.001-0.003,0.001-0.004
		c0.001,0,0.001-0.001,0.001-0.001c0-0.001,0-0.002,0.001-0.003c0-0.001,0-0.001,0-0.001c0.001-0.002,0.001-0.003,0.002-0.004
		c0-0.001,0-0.001,0-0.001c0-0.001,0.001-0.002,0.001-0.004c0,0,0,0,0-0.001c0.001-0.001,0.001-0.002,0.002-0.004l0,0
		c0-0.002,0.001-0.003,0.001-0.004l0.001-0.001c0-0.001,0-0.002,0.001-0.004v-0.001c0.001-0.001,0.001-0.002,0.002-0.004l0,0
		c0-0.002,0.001-0.003,0.001-0.004s0-0.001,0-0.001c0.001-0.002,0.001-0.003,0.002-0.004l0,0c0-0.002,0.001-0.003,0.001-0.005
		c0,0,0.001,0,0.001-0.001s0-0.002,0.001-0.003c0-0.001,0-0.001,0-0.001c0.001-0.001,0.001-0.003,0.001-0.004
		c0.001,0,0.001-0.001,0.001-0.001c0.001-0.003,0.002-0.006,0.003-0.009l0,0c0.001-0.003,0.002-0.006,0.003-0.009v-0.001
		c0.036-0.109,0.07-0.224,0.103-0.342L14.928,12.743L14.928,12.743z M15.981,9.971l-0.75,0.023c0.015,0.463-0.003,0.933-0.053,1.395
		l0.745,0.08C15.977,10.984,15.997,10.479,15.981,9.971L15.981,9.971z M15.398,7.045l-0.69,0.293
		c0.161,0.38,0.288,0.812,0.378,1.282l0.736-0.14c-0.024-0.128-0.051-0.255-0.081-0.38v0c-0.001-0.001-0.001-0.003-0.002-0.005v0
		c0-0.001,0-0.003-0.001-0.005l0,0c0-0.002-0.001-0.004-0.001-0.006l0,0c-0.001-0.002-0.001-0.004-0.002-0.005v0
		c0-0.002-0.001-0.003-0.001-0.005v0c-0.001-0.002-0.001-0.003-0.002-0.005v0c0-0.001-0.001-0.003-0.001-0.005c0,0,0,0,0-0.001
		C15.73,8.058,15.73,8.056,15.73,8.055c-0.001,0-0.001,0-0.001-0.001c0-0.001-0.001-0.003-0.001-0.004c0,0,0-0.001,0-0.001
		c-0.001-0.001-0.001-0.003-0.001-0.004c0,0-0.001-0.001-0.001-0.001c0-0.001,0-0.003-0.001-0.004c0,0,0,0,0-0.001
		c0-0.001-0.001-0.002-0.001-0.004c0-0.001,0-0.001-0.001-0.002c0-0.001,0-0.002-0.001-0.004c0-0.001,0-0.001,0-0.001
		c0-0.001-0.001-0.003-0.001-0.004c0,0,0-0.001-0.001-0.001c0-0.001,0-0.003-0.001-0.004c0-0.001,0-0.001,0-0.002
		c0-0.001-0.001-0.002-0.001-0.004c0,0,0-0.001-0.001-0.002c0-0.001,0-0.002,0-0.003c-0.001-0.001-0.001-0.001-0.001-0.002
		s-0.001-0.002-0.001-0.003c0,0,0-0.001-0.001-0.002c0-0.001,0-0.002,0-0.003c-0.001-0.001-0.001-0.002-0.001-0.003
		s-0.001-0.002-0.001-0.003s0-0.001-0.001-0.002c0-0.001,0-0.002,0-0.003c-0.001-0.001-0.001-0.002-0.001-0.003
		S15.71,7.977,15.71,7.976s0-0.002-0.001-0.003c0-0.001,0-0.001,0-0.002c-0.001-0.001-0.001-0.002-0.001-0.003
		c0,0-0.001-0.001-0.001-0.002c0-0.001,0-0.002-0.001-0.004c0,0,0-0.001,0-0.002c-0.001-0.001-0.001-0.002-0.001-0.003
		s-0.001-0.001-0.001-0.002c0-0.001,0-0.003-0.001-0.004c0,0,0-0.001,0-0.002c-0.001-0.001-0.001-0.002-0.001-0.004
		c0,0-0.001-0.001-0.001-0.001c0-0.001,0-0.003-0.001-0.004c0-0.001,0-0.001,0-0.002c-0.001-0.001-0.001-0.003-0.001-0.004
		c0,0-0.001-0.001-0.001-0.002c0-0.001,0-0.002-0.001-0.004c0,0,0-0.001,0-0.001c-0.001-0.002-0.001-0.003-0.001-0.005
		c-0.001,0-0.001,0-0.001,0c0-0.002-0.001-0.003-0.001-0.005c0,0,0,0,0-0.001c-0.001-0.001-0.001-0.003-0.002-0.005c0,0,0,0,0-0.001
		c0-0.001-0.001-0.003-0.001-0.004c0,0,0-0.001,0-0.001C15.69,7.902,15.69,7.9,15.689,7.898v0c0-0.002-0.001-0.003-0.001-0.005l0,0
		c-0.001-0.002-0.001-0.003-0.002-0.005c0,0,0,0,0,0C15.607,7.595,15.512,7.313,15.398,7.045L15.398,7.045z M13.396,4.922
		L13.121,5.62c0.351,0.137,0.664,0.358,0.934,0.657l0.558-0.502C14.418,5.56,14.2,5.37,13.959,5.212l0,0
		c-0.002-0.001-0.003-0.002-0.005-0.003l0,0c-0.002-0.001-0.003-0.002-0.004-0.003l0,0c-0.011-0.006-0.021-0.013-0.03-0.02
		c-0.001,0-0.001,0-0.001,0c-0.001,0-0.003-0.001-0.004-0.002c0,0,0,0-0.001,0c-0.001-0.001-0.002-0.002-0.003-0.002
		s-0.001,0-0.001,0c-0.002-0.001-0.003-0.001-0.004-0.002l-0.001,0c-0.007-0.004-0.014-0.009-0.021-0.013
		c-0.001,0-0.001,0-0.001-0.001c-0.001,0-0.003-0.001-0.004-0.002c0,0-0.001,0-0.001-0.001c-0.001,0-0.002-0.001-0.003-0.002
		c-0.001,0-0.001,0-0.002,0c-0.001-0.001-0.002-0.001-0.003-0.002s-0.001-0.001-0.002-0.001c-0.001,0-0.002-0.001-0.003-0.002
		c0,0-0.001,0-0.001-0.001c-0.002,0-0.003-0.001-0.004-0.002c0,0-0.001,0-0.001-0.001c-0.001,0-0.002-0.001-0.003-0.002
		c-0.001,0-0.001,0-0.001,0c-0.003-0.001-0.005-0.002-0.008-0.004c0,0,0,0-0.001,0s-0.002-0.001-0.003-0.001
		c0,0-0.001-0.001-0.002-0.001c-0.001-0.001-0.001-0.001-0.002-0.002s-0.002,0-0.003-0.001c0,0-0.001-0.001-0.002-0.001
		s-0.002-0.001-0.002-0.001c-0.001,0-0.002-0.001-0.003-0.001s-0.002-0.001-0.002-0.001c-0.001,0-0.002-0.001-0.003-0.001
		s-0.001-0.001-0.002-0.001c-0.001,0-0.002-0.001-0.003-0.001s-0.002-0.001-0.002-0.001c-0.001,0-0.002,0-0.003-0.001
		s-0.002-0.001-0.003-0.002c0,0-0.001,0-0.002-0.001c-0.001-0.001-0.003-0.002-0.004-0.002s-0.001,0-0.002-0.001
		s-0.002-0.001-0.003-0.002s-0.002-0.001-0.002-0.001c-0.001-0.001-0.002-0.001-0.003-0.002s-0.002,0-0.002-0.001
		c-0.001,0-0.002-0.001-0.003-0.002c-0.001,0-0.002,0-0.002-0.001c-0.001,0-0.002-0.001-0.003-0.001s-0.002-0.001-0.002-0.001
		c-0.001-0.001-0.002-0.001-0.004-0.002c0,0-0.001,0-0.001-0.001c-0.002,0-0.003-0.001-0.004-0.002s-0.001,0-0.001-0.001
		c-0.002,0-0.003-0.001-0.005-0.002c0,0,0,0,0,0c-0.004-0.002-0.007-0.004-0.011-0.006l0,0c-0.002-0.001-0.003-0.002-0.005-0.002
		l-0.001,0c-0.001-0.001-0.002-0.001-0.004-0.002l-0.001,0c-0.001-0.001-0.003-0.001-0.004-0.002c0,0-0.001,0-0.001-0.001
		c-0.002,0-0.003-0.001-0.004-0.002s-0.001,0-0.001,0c-0.002-0.001-0.003-0.001-0.005-0.002v0c-0.009-0.004-0.018-0.009-0.026-0.014
		l0,0c-0.002-0.001-0.003-0.002-0.005-0.002c0,0,0,0,0,0c-0.002,0-0.004-0.001-0.005-0.002c-0.001,0,0,0-0.001,0
		C13.602,5.009,13.5,4.963,13.396,4.922L13.396,4.922z M10.694,3.643l-0.44,0.607c0.418,0.303,0.874,0.562,1.436,0.814l0.308-0.684
		c-0.063-0.029-0.125-0.057-0.186-0.085l0,0c-0.006-0.003-0.012-0.005-0.018-0.008c0,0,0,0-0.001,0c0,0-0.001,0-0.002-0.001
		l-0.001,0c-0.001,0-0.001,0-0.002-0.001c-0.001,0-0.001,0-0.002-0.001l-0.001,0c-0.001,0-0.002-0.001-0.003-0.001c0,0,0,0,0,0
		c-0.003-0.001-0.005-0.002-0.007-0.003h-0.001c-0.001,0-0.002-0.001-0.003-0.001l0,0c-0.001,0-0.002-0.001-0.003-0.001v0
		c-0.003-0.001-0.005-0.002-0.007-0.003l0,0c-0.207-0.1-0.393-0.199-0.562-0.298l0,0c-0.001,0-0.002-0.001-0.003-0.001l0,0
		c-0.001,0-0.002-0.001-0.002-0.001c-0.001,0-0.001,0-0.001,0c-0.001,0-0.002-0.001-0.002-0.001h-0.001c0,0-0.001-0.001-0.002-0.001
		c0,0,0,0-0.001,0c-0.001-0.001-0.003-0.002-0.005-0.003c0,0,0,0-0.001,0c0,0-0.001,0-0.002-0.001c0,0,0,0-0.001,0
		c0,0-0.001,0-0.001-0.001c-0.001,0-0.001,0-0.001,0c-0.001,0-0.001-0.001-0.002-0.001c0,0-0.001,0-0.001-0.001c0,0-0.001,0-0.001,0
		c-0.001,0-0.001,0-0.002-0.001l0,0c-0.002-0.001-0.005-0.002-0.007-0.004v0c-0.001,0-0.002-0.001-0.002-0.001
		c-0.001,0-0.001,0-0.001,0C10.991,3.849,10.837,3.746,10.694,3.643L10.694,3.643z M8.458,1.645L7.981,2.223
		C8.4,2.569,8.712,2.867,9.048,3.191l0.521-0.539C9.26,2.354,8.917,2.023,8.458,1.645L8.458,1.645z M5.897,0.134L5.715,0.862
		c0.403,0.101,0.781,0.271,1.124,0.502L7.26,0.744C6.833,0.454,6.372,0.253,5.897,0.134L5.897,0.134z"/>
</g>
<g>
	<path fill="#4D4D4D" d="M5.622,3.023c1.516,0,2.749,1.233,2.749,2.75s-1.233,2.75-2.749,2.75c-1.517,0-2.75-1.233-2.75-2.75
		S4.105,3.023,5.622,3.023 M5.622,2.273c-1.934,0-3.5,1.567-3.5,3.5c0,1.933,1.567,3.5,3.5,3.5c1.933,0,3.499-1.567,3.499-3.5
		C9.121,3.84,7.555,2.273,5.622,2.273L5.622,2.273z"/>
</g>
<path fill="#FBB03B" stroke="#4D4D4D" stroke-width="0.75" stroke-linecap="round" stroke-miterlimit="10" d="M5.644,4.879
	C5.936,4.894,4.839,7.664,5.338,7.74"/>
<circle fill="#4D4D4D" cx="5.705" cy="3.966" r="0.407"/>
<rect x="9.787" y="9.76" transform="matrix(0.8172 -0.5763 0.5763 0.8172 -4.8958 8.2815)" fill="#C1272D" width="1.645" height="4.199"/>
<g>
	<polygon fill="#FFFFFF" points="7.071,7.127 12.255,10.651 8.923,13.116 	"/>
	<path fill="#C1272D" d="M7.745,8.04l3.862,2.625l-0.545,0.402l-1.391,1.032l-0.547,0.403L7.745,8.04 M6.396,6.215l2.325,7.516
		l1.396-1.029l1.393-1.033l1.394-1.03L6.396,6.215L6.396,6.215z"/>
</g>
</svg>
