<?xml version="1.0" encoding="utf-8"?>
<svg version="1.1"
	 xmlns="http://www.w3.org/2000/svg" xmlns:xlink="http://www.w3.org/1999/xlink"
	 x="0px" y="0px" width="16px" height="16px" viewBox="0 0 16 16" enable-background="new 0 0 16 16" xml:space="preserve">
<defs>
</defs>
<g>
	<path fill="#CCCCCC" d="M6.001,11.625c-3.102,0-5.626-2.523-5.626-5.625s2.524-5.625,5.626-5.625c3.102,0,5.624,2.523,5.624,5.625
		S9.103,11.625,6.001,11.625z"/>
	<path fill="#FFFFFF" d="M6.001,0.75c2.895,0,5.249,2.355,5.249,5.25s-2.354,5.25-5.249,5.25C3.105,11.25,0.75,8.895,0.75,6
		S3.105,0.75,6.001,0.75 M6.001,0C2.686,0,0,2.686,0,6c0,3.313,2.686,6,6.001,6C9.314,12,12,9.313,12,6C12,2.686,9.314,0,6.001,0
		L6.001,0z"/>
</g>
<rect x="11.144" y="10.977" transform="matrix(0.8173 -0.5763 0.5763 0.8173 -5.5105 9.4163)" fill="#FFFFFF" width="1.896" height="4.84"/>
<g>
	<polygon fill="#FBB03B" points="7.911,7.804 14.088,12.002 11.302,14.067 10.118,14.938 	"/>
	<path fill="#FFFFFF" d="M8.585,8.715l4.854,3.299l-0.757,0.56l-1.602,1.19l-0.761,0.56L8.585,8.715 M7.236,6.892l2.68,8.662
		l1.609-1.186l1.604-1.191l1.606-1.188L7.236,6.892L7.236,6.892z"/>
</g>
<path fill="#333333" stroke="#333333" stroke-linecap="round" stroke-miterlimit="10" d="M6.039,4.467
	c0.5,0.025-1.38,4.773-0.525,4.905"/>
<circle fill="#333333" cx="6.352" cy="3.036" r="0.75"/>
</svg>
