<?xml version="1.0" encoding="utf-8"?>
<svg version="1.1"
	 xmlns="http://www.w3.org/2000/svg" xmlns:xlink="http://www.w3.org/1999/xlink"
	 x="0px" y="0px" width="16px" height="16px" viewBox="-2.286 0 16 16" enable-background="new -2.286 0 16 16"
	 xml:space="preserve">
<defs>
</defs>
<polygon fill="#FBB03B" points="8.601,0 9.696,0 7.361,6.625 5.602,8.243 5.515,5.716 7.941,0 "/>
<g>
	<polygon fill="#808080" points="0.375,15.625 0.375,0.375 7.446,0.375 5.339,5.644 5.364,8.631 7.51,6.476 9.847,0.375 
		11.054,0.375 11.054,15.625 	"/>
	<path fill="#FFFFFF" d="M10.679,0.75v14.5H0.75V0.75h6.142L5.018,5.436L4.963,5.573l0.001,0.147l0.017,2.016l0.015,1.794
		L6.263,8.26L7.72,6.796l0.112-0.113l0.057-0.148l2.216-5.785H10.679 M11.429,0h-1.84l-2.4,6.267L5.731,7.73L5.714,5.714L8,0H0v16
		h11.429V0L11.429,0z"/>
</g>
<circle fill="#FFFFFF" cx="5.786" cy="11.706" r="1.206"/>
<path fill="none" stroke="#FFFFFF" stroke-width="0.75" stroke-miterlimit="10" d="M1.714,11.762c0,0,1.344-1.339,4.001-1.333
	c2.464,0.004,3.999,1.333,3.999,1.333s-1.105,1.35-3.999,1.333C2.906,13.08,1.714,11.762,1.714,11.762z"/>
</svg>
