<?xml version="1.0" encoding="utf-8"?>
<svg version="1.1"
	 xmlns="http://www.w3.org/2000/svg" xmlns:xlink="http://www.w3.org/1999/xlink"
	 x="0px" y="0px" width="16px" height="16px" viewBox="-0.196 -0.223 16 16" enable-background="new -0.196 -0.223 16 16"
	 xml:space="preserve">
<defs>
</defs>
<path fill="#662D91" stroke="#FFFFFF" stroke-width="0.75" stroke-miterlimit="10" d="M3.583,4.556
	C6.179,4.267,6.509,4.098,7.488,3.11c0.977-0.987,1.89-3.597,4.279-2.449c2.021,0.972,1.844,5.069-0.202,5.34
	C9.519,6.27,7.86,4.787,6.503,6.551C4.33,9.375,1.639,9.66,0.758,8.688C-0.331,7.486,0.991,4.844,3.583,4.556z"/>
<g>
	<polygon fill="#662D91" points="9.28,9.986 8.442,10.823 8.442,8.416 10.849,8.415 10.012,9.251 11.099,10.338 10.366,11.073 	"/>
	<path fill="#FFFFFF" d="M10.245,8.665l-0.232,0.233L9.659,9.251l0.354,0.354l0.733,0.733l-0.38,0.381L9.633,9.986L9.28,9.632
		L8.926,9.986l-0.234,0.233V8.666L10.245,8.665 M11.453,8.165l-3.26,0v3.261l1.087-1.087l1.086,1.087l1.087-1.088l-1.087-1.087
		L11.453,8.165L11.453,8.165z"/>
</g>
<g>
	<polygon fill="#662D91" points="13.144,15.527 13.982,14.689 12.894,13.602 13.628,12.869 14.715,13.956 15.554,13.118 
		15.554,15.527 	"/>
	<path fill="#FFFFFF" d="M13.628,13.222l0.733,0.733l0.354,0.354l0.354-0.354l0.235-0.235v1.557h-1.557l0.234-0.234l0.354-0.354
		l-0.354-0.354l-0.734-0.733L13.628,13.222 M15.804,12.515l-1.089,1.087l-1.087-1.087l-1.088,1.087l1.088,1.087l-1.088,1.088h3.264
		V12.515L15.804,12.515z"/>
</g>
<g>
	<polygon fill="#662D91" points="12.896,10.338 13.983,9.251 13.146,8.415 15.554,8.416 15.554,10.823 14.715,9.985 13.629,11.072 	
		"/>
	<path fill="#FFFFFF" d="M13.75,8.665l1.554,0v1.555l-0.235-0.235l-0.354-0.354l-0.354,0.354l-0.732,0.733l-0.38-0.38l0.733-0.733
		l0.354-0.354l-0.354-0.354L13.75,8.665 M12.542,8.165l1.087,1.086l-1.087,1.087l1.087,1.087l1.086-1.087l1.089,1.088V8.166
		L12.542,8.165L12.542,8.165z"/>
</g>
<g>
	<polygon fill="#662D91" points="8.427,15.525 8.427,13.117 9.264,13.955 10.35,12.867 11.084,13.601 9.999,14.687 10.835,15.525 	
		"/>
	<path fill="#FFFFFF" d="M10.35,13.22l0.381,0.381l-0.732,0.732l-0.354,0.354l0.354,0.354l0.233,0.234H8.677V13.72l0.234,0.234
		l0.354,0.354l0.354-0.354L10.35,13.22 M8.177,12.512v3.263h3.261l-1.086-1.088l1.086-1.086l-1.088-1.088l-1.086,1.088L8.177,12.512
		L8.177,12.512z"/>
</g>
</svg>
