<?xml version="1.0" encoding="utf-8"?>
<svg version="1.1"
	 xmlns="http://www.w3.org/2000/svg" xmlns:xlink="http://www.w3.org/1999/xlink"
	 x="0px" y="0px" width="16px" height="16px" viewBox="0 0 16 16" enable-background="new 0 0 16 16" xml:space="preserve">
<defs>
</defs>
<g>
	<path fill="#FFFFFF" d="M13.695,2.322L13.695,2.322L13.695,2.322C13.695,2.322,13.695,2.322,13.695,2.322L13.695,2.322
		c-0.005,0-0.015,0.006-0.028,0.017c-0.001,0-0.001,0-0.001,0v0l0,0l-0.001,0l0,0c0,0,0,0,0,0c-0.004,0.003-0.008,0.006-0.013,0.01
		l0,0c-0.104,0.084-0.384,0.355-0.765,0.736c-0.086,0.086-0.177,0.178-0.272,0.274l0.532,0.528c0.771-0.777,0.941-0.927,0.975-0.954
		l0,0l0,0l0,0l-0.058-0.072l0.069-0.058c-0.128-0.154-0.262-0.302-0.401-0.445c0,0,0,0,0,0c-0.002-0.002-0.005-0.005-0.007-0.007v0
		c-0.002-0.002-0.005-0.004-0.007-0.007l0,0c-0.002-0.002-0.005-0.005-0.007-0.007l-0.001-0.001
		c-0.002-0.002-0.004-0.004-0.006-0.007c-0.001,0-0.001,0-0.001,0c-0.002-0.002-0.005-0.004-0.007-0.007l0,0l0,0l0,0l0,0l0,0l0,0
		l0,0l0,0l0,0l0,0l-0.002,0.002V2.322L13.695,2.322L13.695,2.322z M13.695,2.324l0.002-0.002l0,0L13.695,2.324L13.695,2.324
		L13.695,2.324z M11.564,4.43c-0.343,0.35-0.698,0.716-1.046,1.076l0.538,0.521c0.348-0.358,0.703-0.724,1.044-1.074L11.564,4.43
		L11.564,4.43z M9.476,6.584C9.423,6.639,9.371,6.693,9.32,6.746C8.958,7.121,8.65,7.442,8.436,7.665l0.541,0.52l1.04-1.08
		L9.476,6.584L9.476,6.584z M9.388,8.097L8.903,8.669c0.109,0.093,0.228,0.192,0.353,0.298C9.258,8.968,9.259,8.969,9.26,8.97
		s0.002,0.002,0.003,0.003c0.001,0,0.001,0.001,0.002,0.001C9.267,8.977,9.27,8.979,9.272,8.981
		c0.135,0.113,0.276,0.233,0.426,0.359c0.113,0.097,0.23,0.195,0.351,0.297l0.484-0.573L9.388,8.097L9.388,8.097z M11.679,10.03
		l-0.482,0.574c0.393,0.33,0.785,0.659,1.149,0.964l0.48-0.575L11.679,10.03L11.679,10.03z M13.976,11.947l-0.477,0.579
		c0.266,0.218,0.47,0.383,0.584,0.471l0,0c0.001,0,0.001,0,0.001,0v0.001c0.001,0,0.001,0,0.002,0.001l0,0l0,0
		c0.002,0.001,0.004,0.003,0.005,0.004l0,0c0.001,0,0.001,0,0.001,0.001c0,0,0,0,0.001,0c0.024,0.019,0.045,0.034,0.061,0.045
		l0.003-0.005l0.03,0.023v-0.001l0.001,0.001c0.002-0.002,0.004-0.005,0.006-0.007V13.06c0.002-0.002,0.004-0.004,0.006-0.007
		l0.001-0.001c0.002-0.002,0.004-0.004,0.005-0.006c0.001-0.001,0.001-0.001,0.001-0.002c0.002-0.002,0.004-0.004,0.006-0.006
		c0-0.001,0-0.001,0.001-0.002c0.002-0.002,0.003-0.004,0.005-0.006c0-0.001,0.001-0.001,0.001-0.002
		c0.002-0.002,0.004-0.004,0.005-0.006c0.001,0,0.001-0.001,0.001-0.001c0.002-0.002,0.004-0.004,0.005-0.006
		c0.001-0.001,0.001-0.001,0.002-0.002c0.001-0.002,0.003-0.004,0.004-0.006c0.001,0,0.001-0.001,0.002-0.001
		c0.001-0.003,0.003-0.005,0.005-0.007l0.001-0.001c0.002-0.002,0.003-0.004,0.005-0.007l0.001-0.001
		c0.002-0.002,0.004-0.004,0.005-0.006c0.001-0.001,0.001-0.002,0.002-0.002c0.001-0.002,0.003-0.004,0.005-0.006
		c0-0.001,0-0.002,0.001-0.002c0.002-0.002,0.003-0.004,0.005-0.007c0,0,0.001,0,0.001-0.001c0.002-0.002,0.003-0.004,0.005-0.006
		c0,0,0.001-0.001,0.001-0.002c0.002-0.002,0.003-0.004,0.005-0.006l0.001-0.001c0.002-0.002,0.003-0.004,0.005-0.006
		c0-0.001,0.001-0.001,0.001-0.002c0.002-0.002,0.004-0.004,0.005-0.006c0.001-0.001,0.001-0.001,0.002-0.002
		c0.001-0.002,0.003-0.004,0.004-0.006c0.001-0.001,0.001-0.001,0.002-0.002c0.001-0.002,0.003-0.004,0.005-0.006
		c0-0.001,0.001-0.001,0.001-0.002c0.002-0.002,0.003-0.004,0.005-0.006c0-0.001,0.001-0.001,0.001-0.002
		c0.002-0.002,0.003-0.004,0.005-0.006l0.001-0.001c0.002-0.002,0.003-0.005,0.005-0.007c0,0,0.001,0,0.001-0.001
		c0.002-0.002,0.003-0.004,0.005-0.006c0-0.001,0.001-0.001,0.001-0.002c0.002-0.002,0.003-0.004,0.005-0.006
		c0.001-0.001,0.001-0.002,0.001-0.002c0.002-0.002,0.004-0.004,0.005-0.006c0.001-0.001,0.001-0.002,0.002-0.002
		c0.001-0.002,0.003-0.004,0.005-0.007c0,0,0,0,0.001-0.001c0.001-0.002,0.003-0.004,0.005-0.007c0,0,0,0,0-0.001
		c0.002-0.002,0.004-0.004,0.006-0.007l0,0c0.002-0.003,0.004-0.005,0.006-0.007c0-0.001,0-0.001,0-0.001
		c0.002-0.002,0.004-0.005,0.006-0.007c0-0.001,0-0.001,0-0.001c0.002-0.003,0.004-0.005,0.006-0.007c0,0,0-0.001,0.001-0.001
		c0.001-0.003,0.003-0.005,0.005-0.007c0,0,0-0.001,0.001-0.001c0.001-0.003,0.003-0.005,0.005-0.007c0-0.001,0-0.001,0.001-0.001
		c0.002-0.003,0.003-0.005,0.005-0.008l0,0c0.004-0.005,0.008-0.01,0.012-0.015v-0.001c0.002-0.002,0.004-0.005,0.006-0.007v-0.001
		c0.002-0.002,0.004-0.005,0.006-0.007v-0.001c0.002-0.002,0.004-0.005,0.006-0.007c0-0.001,0-0.001,0-0.001
		c0.002-0.002,0.004-0.005,0.006-0.007c0-0.001,0-0.001,0-0.001c0.008-0.011,0.016-0.021,0.023-0.031l0,0
		c0.002-0.002,0.004-0.005,0.005-0.008c0.001,0,0.001,0,0.001,0c0.002-0.003,0.003-0.005,0.005-0.008h0.001
		c0.002-0.003,0.003-0.005,0.005-0.008l0,0c0.01-0.014,0.02-0.026,0.029-0.039v-0.001c0.002-0.002,0.003-0.005,0.005-0.008h0.001
		c0.011-0.016,0.022-0.031,0.033-0.047l0,0c0.002-0.003,0.004-0.006,0.006-0.008c0-0.001,0-0.001,0-0.001
		c0.008-0.011,0.015-0.021,0.022-0.031l-0.053-0.037l0.069-0.102l0,0l0,0l0,0C14.564,12.421,14.461,12.347,13.976,11.947
		L13.976,11.947z M15.052,9.674c-0.104,0.44-0.252,0.873-0.437,1.286l0.685,0.306l0,0c0.004-0.009,0.008-0.018,0.012-0.026l0,0
		c0.001-0.002,0.002-0.003,0.003-0.005c0,0,0,0,0-0.001c0.001-0.001,0.001-0.003,0.002-0.004c0,0,0-0.001,0.001-0.001
		c0-0.002,0.001-0.003,0.001-0.004c0.001-0.001,0.001-0.001,0.001-0.002c0.001-0.001,0.001-0.003,0.002-0.004v-0.001
		c0.001-0.001,0.002-0.003,0.002-0.005c0,0,0,0,0.001,0c0.003-0.009,0.007-0.018,0.011-0.026l0.001-0.001
		c0-0.001,0.001-0.003,0.002-0.004c0-0.001,0-0.001,0-0.002c0.001-0.001,0.001-0.002,0.002-0.004v-0.001
		c0.001-0.001,0.002-0.003,0.002-0.004l0.001-0.001c0-0.002,0.001-0.003,0.002-0.004c0-0.001,0-0.001,0-0.002
		c0.001-0.001,0.001-0.002,0.002-0.004v-0.001c0.001-0.001,0.002-0.003,0.002-0.004s0-0.001,0.001-0.001
		c0-0.002,0.001-0.003,0.002-0.005c0,0,0,0,0-0.001c0.003-0.007,0.006-0.014,0.009-0.021v-0.001
		c0.001-0.002,0.002-0.003,0.002-0.005c0.001,0,0.001,0,0.001-0.001s0.001-0.002,0.002-0.004v-0.001
		c0.001-0.002,0.001-0.003,0.002-0.004c0-0.001,0-0.001,0.001-0.002c0-0.001,0.001-0.002,0.001-0.003s0.001-0.002,0.001-0.002
		c0-0.001,0.001-0.003,0.001-0.004c0.001,0,0.001-0.001,0.001-0.001c0.001-0.002,0.001-0.003,0.002-0.004c0-0.001,0-0.001,0-0.002
		c0.001-0.001,0.001-0.002,0.002-0.004c0,0,0-0.001,0.001-0.001c0-0.002,0.001-0.004,0.002-0.005l0,0
		c0.002-0.006,0.004-0.011,0.007-0.017l0,0c0-0.002,0.001-0.003,0.002-0.005v-0.001c0.001-0.001,0.001-0.003,0.002-0.004
		c0-0.001,0-0.001,0-0.001c0.001-0.002,0.002-0.003,0.002-0.005l0.001-0.001c0-0.001,0.001-0.003,0.002-0.004
		c0-0.001,0-0.001,0-0.001c0-0.002,0.001-0.003,0.002-0.005c0,0,0,0,0-0.001c0.001-0.001,0.001-0.003,0.002-0.005l0,0
		c0.001-0.002,0.002-0.003,0.002-0.005c0,0,0,0,0.001,0c0.002-0.008,0.005-0.015,0.008-0.021c0.001,0,0.001-0.001,0.001-0.001
		c0-0.002,0.001-0.003,0.002-0.005l0,0c0-0.002,0.001-0.003,0.002-0.005v-0.001c0.001-0.002,0.001-0.003,0.002-0.004
		c0-0.001,0-0.001,0-0.002c0.001-0.001,0.002-0.002,0.002-0.004c0,0,0-0.001,0.001-0.001c0-0.002,0.001-0.003,0.001-0.005
		c0.001,0,0.001,0,0.001,0c0-0.002,0.001-0.003,0.002-0.005v-0.001c0.001-0.002,0.001-0.003,0.002-0.005l0,0
		c0.003-0.007,0.006-0.015,0.009-0.021l0,0c0.001-0.002,0.001-0.004,0.002-0.006c0,0,0,0,0-0.001
		c0.001-0.001,0.002-0.002,0.002-0.004l0.001-0.001c0,0,0.001-0.003,0.001-0.004s0.001-0.001,0.001-0.002s0.001-0.002,0.001-0.004
		c0.001,0,0.001-0.001,0.001-0.001c0-0.001,0.001-0.003,0.002-0.004c0-0.001,0-0.001,0-0.002c0.001-0.001,0.001-0.003,0.002-0.004
		v-0.001c0.001-0.001,0.001-0.003,0.002-0.005l0,0c0.005-0.011,0.009-0.021,0.013-0.032v-0.001c0.001-0.001,0.002-0.003,0.002-0.005
		l0,0c0.001-0.002,0.002-0.004,0.002-0.005s0-0.001,0.001-0.001c0.126-0.33,0.232-0.671,0.315-1.021L15.052,9.674L15.052,9.674z
		 M15.926,6.868l-0.743,0.101c0.045,0.329,0.067,0.666,0.067,1.001c0,0.12-0.003,0.24-0.009,0.359l0.749,0.036
		c0.002-0.03,0.003-0.061,0.004-0.091c0,0,0-0.001,0-0.001c0-0.001,0-0.003,0.001-0.004c0,0,0-0.001,0-0.002
		c0-0.001,0-0.002,0-0.004c0,0,0-0.001,0-0.002s0-0.002,0-0.003s0-0.002,0-0.003s0-0.002,0-0.003s0-0.002,0-0.003s0-0.001,0-0.002
		s0-0.002,0-0.003c0,0,0,0,0-0.001c0.002-0.054,0.004-0.108,0.004-0.163c0,0,0,0,0,0c0-0.001,0-0.003,0-0.005c0,0,0,0,0,0
		c0-0.001,0-0.003,0-0.005c0,0,0,0,0-0.001c0-0.001,0-0.003,0-0.004L16,8.06c0-0.001,0-0.003,0-0.004V8.054c0-0.002,0-0.003,0-0.005
		c0,0,0,0,0-0.001c0-0.007,0-0.014,0-0.021c0,0,0-0.001,0-0.001c0-0.001,0-0.003,0-0.004c0,0,0-0.001,0-0.001
		c0-0.002,0-0.003,0-0.004c0,0,0-0.001,0-0.002s0-0.002,0-0.003c0,0,0-0.001,0-0.002s0-0.002,0-0.003c0,0,0-0.001,0-0.002
		S16,8,16,7.999c0,0,0-0.001,0-0.002s0-0.002,0-0.002c0-0.002,0-0.003,0-0.004s0-0.002,0-0.003s0-0.002,0-0.003c0,0,0-0.001,0-0.002
		s0-0.002,0-0.003s0-0.001,0-0.002c0-0.002,0-0.004,0-0.006l0,0c0-0.002,0-0.005,0-0.008c0-0.001,0-0.001,0-0.002
		c0-0.002,0-0.004,0-0.006c0,0,0-0.001,0-0.001c0-0.003,0-0.006,0-0.008c0,0,0-0.001,0-0.001c0-0.002,0-0.004,0-0.006
		c0-0.001,0-0.002,0-0.003c0-0.002,0-0.004,0-0.006c0,0,0-0.001,0-0.002c0-0.002,0-0.005,0-0.008c0,0,0-0.001,0-0.001
		c0-0.002,0-0.004,0-0.006c0-0.001,0-0.001,0-0.002c0-0.002,0-0.004,0-0.006c0,0,0-0.001,0-0.001c0-0.003,0-0.005,0-0.008
		c0-0.001,0-0.001,0-0.001c0-0.002,0-0.004,0-0.007c0,0,0-0.001,0-0.002c-0.001-0.002-0.001-0.005-0.001-0.007v0
		c0-0.003,0-0.005,0-0.008c0,0,0-0.001,0-0.002c0-0.002,0-0.004,0-0.006c0-0.001,0-0.001,0-0.002c0-0.005,0-0.01,0-0.016
		c0,0,0-0.001,0-0.002c0-0.002,0-0.004,0-0.006c0,0,0-0.001,0-0.002c0-0.002,0-0.005,0-0.008v0c0-0.002,0-0.005-0.001-0.008
		c0,0,0-0.001,0-0.002c0-0.002,0-0.004,0-0.006c0,0,0-0.001,0-0.001c0-0.002,0-0.005,0-0.008V7.794c0-0.002,0-0.004,0-0.007
		c0,0,0-0.001,0-0.002c0-0.002,0-0.004,0-0.007V7.777c0-0.003,0-0.005,0-0.008l-0.001-0.001c0-0.002,0-0.005,0-0.007
		c0,0,0-0.001,0-0.002c0-0.005,0-0.011,0-0.016V7.742c0-0.002,0-0.004,0-0.007c0,0,0-0.001,0-0.001
		c-0.001-0.005-0.001-0.011-0.001-0.016c0-0.001,0-0.001,0-0.001c0-0.003,0-0.005,0-0.008V7.708c0-0.005-0.001-0.011-0.001-0.016
		c0,0,0-0.001,0-0.002c0-0.002,0-0.004,0-0.007c0,0,0-0.001,0-0.001c0-0.003,0-0.006,0-0.008v0
		c-0.001-0.002-0.001-0.005-0.001-0.008V7.664c0-0.002,0-0.005,0-0.008l0,0c0-0.003,0-0.006,0-0.009c0,0,0,0,0,0
		c-0.001-0.002-0.001-0.005-0.001-0.007V7.638c0-0.005,0-0.011-0.001-0.017v0c0-0.003,0-0.005,0-0.008V7.612
		c0-0.005,0-0.011-0.001-0.017c0,0,0,0,0-0.001c0-0.002,0-0.005,0-0.007c0,0,0,0,0,0c0-0.006-0.001-0.011-0.001-0.017
		c0,0,0,0,0-0.001c0-0.002,0-0.005,0-0.008l0,0c-0.001-0.006-0.001-0.011-0.001-0.017c0,0,0,0,0-0.001
		c-0.001-0.005-0.001-0.011-0.001-0.017c0,0,0,0,0,0c0-0.002-0.001-0.005-0.001-0.008V7.517c0-0.005,0-0.011-0.001-0.017v0
		c0-0.003,0-0.005,0-0.008V7.491c-0.001-0.005-0.001-0.011-0.001-0.017c0,0,0,0,0-0.001c0-0.002-0.001-0.005-0.001-0.007V7.465
		c0-0.005-0.001-0.011-0.001-0.016c0,0,0-0.001,0-0.001c0-0.002,0-0.005,0-0.007c0,0,0,0-0.001-0.001c0-0.002,0-0.005,0-0.008l0,0
		c0-0.002,0-0.005-0.001-0.008c0,0,0-0.001,0-0.001c0-0.002,0-0.005,0-0.007c0,0,0-0.001,0-0.001c0-0.002-0.001-0.005-0.001-0.008
		c0,0,0,0,0-0.001c0-0.002,0-0.005,0-0.007c0-0.001,0-0.001-0.001-0.002c0-0.002,0-0.005,0-0.007v0c0-0.003,0-0.005-0.001-0.008
		c0-0.001,0-0.001,0-0.001c0-0.002,0-0.004,0-0.007c0,0,0-0.001,0-0.002c-0.001-0.005-0.001-0.01-0.002-0.016c0,0,0-0.001,0-0.002
		c0-0.002,0-0.004,0-0.006c0,0,0-0.001,0-0.002c-0.001-0.002-0.001-0.005-0.001-0.007V7.335c0-0.002,0-0.004-0.001-0.007
		c0-0.001,0-0.002,0-0.002c0-0.002,0-0.004,0-0.005c0-0.001,0-0.002,0-0.002c-0.001-0.002-0.001-0.005-0.001-0.007
		c0-0.001,0-0.001,0-0.002c0-0.002-0.001-0.003-0.001-0.005c0-0.001,0-0.002,0-0.003c0-0.001,0-0.003,0-0.005
		c0-0.001-0.001-0.002-0.001-0.003c0-0.002,0-0.005,0-0.007c0-0.001,0-0.002,0-0.003c-0.001-0.001-0.001-0.003-0.001-0.004
		c0-0.001,0-0.002,0-0.003c0-0.001,0-0.003-0.001-0.004c0-0.001,0-0.002,0-0.003c0-0.002,0-0.004,0-0.006
		c-0.001-0.001-0.001-0.002-0.001-0.004c0-0.001,0-0.002,0-0.004c0-0.001,0-0.002,0-0.004c-0.001-0.001-0.001-0.002-0.001-0.003
		c0-0.002,0-0.004,0-0.007c0-0.001-0.001-0.002-0.001-0.003c0-0.001,0-0.003,0-0.004c0-0.001,0-0.002,0-0.003
		c0-0.001-0.001-0.003-0.001-0.004c0-0.001,0-0.001,0-0.002c0-0.003-0.001-0.006-0.001-0.01V7.21c0-0.002,0-0.003-0.001-0.005
		c0,0,0-0.001,0-0.001c0-0.006-0.001-0.012-0.001-0.018V7.185c-0.001-0.002-0.001-0.004-0.001-0.005V7.178
		c-0.001-0.006-0.001-0.012-0.002-0.018l0,0C15.95,7.062,15.938,6.964,15.926,6.868L15.926,6.868z M14.982,4.038l-0.655,0.366
		c0.221,0.395,0.405,0.813,0.548,1.242l0.712-0.237C15.427,4.93,15.224,4.472,14.982,4.038L14.982,4.038z"/>
</g>
<g>
	<path fill="#FFFFFF" d="M2.114,2.497C1.776,2.865,1.473,3.264,1.208,3.69l0.637,0.396c0.11-0.176,0.227-0.348,0.352-0.515
		c0.13,0.12,0.292,0.271,0.495,0.461l0.512-0.548C2.663,2.978,2.262,2.609,2.146,2.519l0,0l0,0l0,0l0,0l0,0l0,0l0,0L2.143,2.523
		L2.114,2.497L2.114,2.497z M2.143,2.523l0.004-0.005l0,0L2.143,2.523L2.143,2.523L2.143,2.523z M0.541,5.03
		c-0.078,0.2-0.147,0.404-0.208,0.611l0,0c0,0.002-0.001,0.004-0.001,0.005c0,0,0,0,0,0C0.329,5.651,0.328,5.655,0.327,5.659l0,0
		C0.325,5.666,0.323,5.673,0.32,5.681l0,0c0,0.002-0.001,0.003-0.001,0.005l0,0c0,0.002-0.001,0.004-0.001,0.005v0
		c0,0.002-0.001,0.003-0.002,0.005v0c0,0.001-0.001,0.003-0.001,0.005c0,0,0,0,0,0c0,0.002-0.001,0.003-0.001,0.005v0
		c0,0.001-0.001,0.003-0.001,0.005c0,0,0,0,0,0c0,0.002-0.001,0.003-0.001,0.005v0c0,0.001-0.001,0.003-0.001,0.005c0,0,0,0,0,0.001
		c0,0.001-0.001,0.003-0.001,0.005l0,0c0,0.002-0.001,0.003-0.001,0.005c0,0,0,0,0,0.001c0,0.001-0.001,0.003-0.001,0.005v0
		c0,0.001-0.001,0.003-0.001,0.005c0,0,0,0,0,0C0.301,5.75,0.3,5.752,0.3,5.754l0,0c0,0.001-0.001,0.003-0.001,0.005l0,0
		c0,0.002-0.001,0.004-0.001,0.006l0,0c0,0.002-0.001,0.003-0.001,0.005v0c0,0.001-0.001,0.003-0.001,0.005c0,0,0,0,0,0
		c0,0.002-0.001,0.003-0.001,0.005c0,0,0,0,0,0c0,0.001-0.001,0.003-0.001,0.005l0,0c0,0.002-0.001,0.004-0.001,0.005v0
		c0,0.002-0.001,0.003-0.001,0.005l0,0c0,0.002-0.001,0.004-0.001,0.005v0C0.283,5.813,0.281,5.82,0.279,5.828l0,0
		C0.222,6.039,0.173,6.254,0.133,6.472l0.738,0.135C0.953,6.162,1.077,5.722,1.24,5.301L0.541,5.03L0.541,5.03z M0.75,7.962L0,7.964
		c0.001,0.51,0.05,1.008,0.141,1.491l0.737-0.14C0.794,8.873,0.751,8.417,0.75,7.962L0.75,7.962z M1.254,10.62l-0.698,0.274l0,0
		c0,0.002,0.001,0.003,0.002,0.005l0,0.001c0,0.001,0.001,0.003,0.001,0.005c0,0,0,0,0,0.001c0,0.001,0.001,0.003,0.002,0.004
		c0,0.001,0,0.001,0,0.001c0,0.002,0.001,0.003,0.001,0.005l0,0.001c0,0.002,0.001,0.003,0.002,0.005c0,0,0,0,0,0.001
		c0.001,0.001,0.001,0.003,0.002,0.005l0,0c0,0.002,0.001,0.004,0.002,0.005l0,0c0.006,0.015,0.012,0.029,0.018,0.044l0,0
		c0.001,0.002,0.001,0.004,0.002,0.005c0,0.001,0,0.001,0,0.001c0,0.002,0.001,0.003,0.002,0.005c0,0,0,0,0,0.001
		c0.001,0.001,0.001,0.003,0.002,0.005l0,0c0.009,0.021,0.018,0.044,0.027,0.065l0,0c0.001,0.004,0.003,0.007,0.004,0.011l0,0
		c0.031,0.072,0.062,0.145,0.094,0.216h0c0.022,0.05,0.045,0.1,0.069,0.148c0,0,0,0,0,0.001c0.001,0.001,0.002,0.003,0.002,0.005
		l0,0c0.001,0.002,0.002,0.003,0.002,0.005c0,0,0,0,0,0c0.008,0.018,0.017,0.035,0.025,0.053l0,0
		c0.002,0.004,0.003,0.007,0.005,0.011c0,0,0,0,0,0c0,0.002,0.001,0.004,0.002,0.005c0,0,0,0,0,0.001
		c0.001,0.001,0.001,0.003,0.002,0.005l0,0c0.009,0.018,0.018,0.034,0.026,0.052c0,0,0,0,0,0.001
		c0.001,0.001,0.001,0.003,0.002,0.004v0.001c0.001,0.002,0.001,0.003,0.002,0.005c0,0,0,0,0,0.001
		c0.001,0.001,0.001,0.003,0.002,0.004v0.001c0.001,0.001,0.002,0.003,0.002,0.005h0c0.009,0.018,0.018,0.035,0.026,0.052l0,0
		c0.001,0.002,0.002,0.004,0.002,0.005s0,0,0,0.001s0.001,0.003,0.002,0.005l0,0c0.001,0.002,0.002,0.003,0.002,0.005h0
		c0.001,0.002,0.001,0.004,0.002,0.005l0,0.001c0,0.002,0.001,0.003,0.002,0.005l0,0c0.008,0.016,0.016,0.031,0.024,0.046
		c0,0.001,0,0,0,0.001c0.001,0.001,0.001,0.003,0.002,0.005l0,0c0.001,0.002,0.002,0.003,0.003,0.005l0,0
		c0.002,0.004,0.003,0.007,0.005,0.011l0,0c0.001,0.002,0.002,0.003,0.003,0.005l0,0c0.001,0.002,0.002,0.003,0.003,0.005l0,0
		c0.007,0.014,0.015,0.027,0.022,0.041c0,0,0,0,0,0.001c0.082,0.15,0.168,0.298,0.259,0.442l0.635-0.399
		C1.625,11.449,1.419,11.041,1.254,10.62L1.254,10.62z M2.656,12.583c-0.478,0.504-0.584,0.601-0.601,0.615l0.146,0.168l-0.01,0.009
		l-0.136-0.177l0.136,0.177L2.143,13.42c0.006,0.007,0.013,0.014,0.019,0.021c0,0.001,0,0.001,0,0.001
		c0.001,0.001,0.003,0.003,0.004,0.004c0,0,0,0,0,0.001c0.003,0.002,0.005,0.005,0.008,0.008c0,0,0,0.001,0,0.001
		c0.001,0.001,0.002,0.002,0.003,0.003c0,0.001,0.001,0.001,0.001,0.002c0.001,0.001,0.002,0.002,0.003,0.003
		s0.001,0.002,0.002,0.002c0.001,0.002,0.001,0.002,0.002,0.003c0.001,0.002,0.003,0.004,0.004,0.005
		c0.001,0.001,0.001,0.002,0.002,0.002c0.001,0.002,0.002,0.003,0.003,0.004c0,0.001,0.001,0.001,0.002,0.002
		c0.001,0.001,0.002,0.002,0.003,0.004l0.001,0.001c0.002,0.002,0.003,0.004,0.005,0.006c0,0,0,0,0.001,0
		c0.001,0.002,0.003,0.004,0.004,0.005c0,0.001,0.001,0.001,0.001,0.002c0.001,0.001,0.002,0.003,0.004,0.004
		c0,0.001,0.001,0.001,0.001,0.001c0.004,0.004,0.007,0.008,0.011,0.012c0,0,0,0,0.001,0.001c0.001,0.001,0.003,0.003,0.004,0.005
		c0,0,0,0,0.001,0c0.003,0.004,0.007,0.008,0.011,0.012h0c0.001,0.002,0.003,0.004,0.005,0.006c0,0,0,0,0.001,0.001
		c0.005,0.005,0.011,0.011,0.016,0.017c0,0,0,0,0.001,0c0.001,0.002,0.003,0.004,0.005,0.006h0c0.003,0.004,0.007,0.008,0.011,0.012
		c0,0,0,0,0,0c0.002,0.002,0.003,0.004,0.005,0.006h0c0.003,0.004,0.007,0.008,0.011,0.012c0,0,0,0,0,0
		c0.002,0.002,0.003,0.004,0.005,0.005c0,0.001,0.001,0.001,0.001,0.001c0.004,0.004,0.007,0.008,0.011,0.011
		c0,0.001,0,0.001,0,0.001c0.002,0.002,0.003,0.003,0.005,0.005l0.001,0.001c0.001,0.002,0.003,0.003,0.004,0.005
		c0,0,0,0,0.001,0.001c0.001,0.002,0.003,0.003,0.005,0.005l0,0.001c0.001,0.001,0.003,0.003,0.005,0.005l0.001,0.001
		c0.001,0.001,0.003,0.003,0.004,0.004c0,0.001,0.001,0.001,0.001,0.002c0.004,0.003,0.007,0.007,0.011,0.01
		c0,0.001,0.001,0.001,0.001,0.002c0.001,0.001,0.002,0.002,0.004,0.004l0.001,0.001c0.002,0.002,0.003,0.004,0.005,0.005l0,0.001
		c0.001,0.002,0.003,0.003,0.005,0.005c0,0.001,0.001,0.001,0.001,0.002c0.001,0.001,0.002,0.002,0.004,0.003
		c0,0.001,0.001,0.002,0.001,0.002c0.001,0.001,0.002,0.003,0.004,0.004c0,0.001,0.001,0.001,0.001,0.002
		c0.001,0.001,0.003,0.003,0.005,0.005c0.001,0,0.001,0.001,0.002,0.001c0.001,0.002,0.002,0.003,0.003,0.004
		s0.001,0.001,0.002,0.002c0.001,0.001,0.002,0.002,0.003,0.003c0,0.001,0.001,0.002,0.002,0.002
		c0.001,0.002,0.003,0.004,0.005,0.005c0.001,0.001,0.001,0.002,0.002,0.002c0.001,0.001,0.002,0.002,0.003,0.003
		c0,0.001,0.001,0.002,0.002,0.003s0.002,0.002,0.003,0.003c0,0,0.001,0.001,0.002,0.002c0.001,0.001,0.003,0.003,0.004,0.004
		c0,0.001,0.001,0.002,0.002,0.002c0.001,0.001,0.002,0.003,0.004,0.004c0.001,0.001,0.001,0.002,0.002,0.002
		c0.001,0.001,0.002,0.002,0.003,0.003c0,0.001,0.001,0.002,0.002,0.003c0.001,0.001,0.002,0.002,0.004,0.003
		c0,0.001,0.001,0.001,0.002,0.002c0.001,0.001,0.003,0.003,0.004,0.005c0.001,0,0.001,0.001,0.002,0.002s0.002,0.002,0.003,0.003
		c0,0,0.001,0.001,0.002,0.002s0.002,0.002,0.003,0.003c0,0.001,0.001,0.002,0.002,0.002c0.001,0.002,0.003,0.003,0.005,0.005
		c0,0.001,0.001,0.001,0.002,0.002s0.002,0.002,0.003,0.003s0.001,0.002,0.002,0.002c0.001,0.001,0.002,0.003,0.003,0.004
		c0,0,0.001,0.001,0.002,0.002c0.001,0.001,0.003,0.003,0.005,0.005c0,0,0.001,0,0.001,0.001c0.001,0.001,0.002,0.002,0.004,0.004
		c0,0,0.001,0.001,0.002,0.002C2.5,13.781,2.5,13.782,2.502,13.783c0,0.001,0.001,0.001,0.001,0.002
		c0.002,0.002,0.003,0.003,0.005,0.005l0-0.001L2.51,13.79v-0.001l0.03-0.032l0.007,0.007C2.636,13.687,2.873,13.444,3.2,13.1
		L2.656,12.583L2.656,12.583z M4.694,10.396c-0.346,0.375-0.693,0.749-1.018,1.099l0.549,0.511c0.325-0.35,0.672-0.726,1.019-1.101
		L4.694,10.396L4.694,10.396z M6.722,8.188L5.708,9.293l0.552,0.508c0.383-0.417,0.734-0.8,1.014-1.105L6.722,8.188L6.722,8.188z
		 M6.472,6.578L5.955,7.121L7.04,8.156l0.518-0.542C7.295,7.362,6.914,6.998,6.472,6.578L6.472,6.578z M4.297,4.512L3.782,5.057
		l1.087,1.031l0.516-0.544C5.022,5.199,4.652,4.848,4.297,4.512L4.297,4.512z"/>
</g>
<g>
	<path fill="#FFFFFF" d="M6.093,10.267c-0.061,0.074-0.123,0.148-0.184,0.224c-0.254,0.308-0.514,0.624-0.769,0.935l0.58,0.476
		l0.952-1.156L6.093,10.267L6.093,10.267z M4.189,12.586c-0.074,0.091-0.146,0.18-0.217,0.266c-0.294,0.362-0.545,0.675-0.725,0.901
		l0.588,0.466c0.22-0.279,0.55-0.688,0.935-1.159L4.189,12.586L4.189,12.586z M4.169,14.116l-0.407,0.63
		c0.015,0.01,0.029,0.02,0.044,0.028l0,0c0.001,0.001,0.003,0.002,0.005,0.003c0,0.001,0,0.001,0,0.001
		c0.003,0.002,0.007,0.004,0.01,0.006l0,0c0.007,0.004,0.013,0.008,0.02,0.013c0,0,0,0,0.001,0c0.001,0.001,0.002,0.002,0.004,0.003
		c0,0,0,0,0.001,0c0.001,0.001,0.002,0.002,0.004,0.003c0,0,0,0,0.001,0.001c0.001,0,0.002,0.001,0.004,0.002c0,0,0,0,0.001,0.001
		c0.001,0,0.002,0.001,0.003,0.002c0,0,0.001,0,0.001,0.001c0.001,0.001,0.002,0.001,0.004,0.002l0.001,0.001
		c0.001,0.001,0.003,0.002,0.004,0.003h0c0.003,0.002,0.006,0.004,0.009,0.006c0,0,0.001,0.001,0.001,0.001
		c0.001,0.001,0.002,0.001,0.003,0.002c0,0,0.001,0.001,0.002,0.001c0.001,0.001,0.002,0.001,0.003,0.002
		c0,0,0.001,0.001,0.001,0.001c0.001,0.001,0.002,0.001,0.003,0.002c0.001,0,0.001,0.001,0.002,0.001
		c0,0.001,0.001,0.001,0.002,0.002c0,0,0.001,0.001,0.002,0.001c0,0.001,0.001,0.001,0.002,0.002c0,0,0.001,0.001,0.001,0.001
		c0.001,0.001,0.002,0.001,0.003,0.002c0.001,0,0.002,0.001,0.002,0.001c0.001,0.001,0.002,0.001,0.002,0.002
		c0.001,0,0.002,0.001,0.003,0.001c0,0.001,0,0.001,0,0.001c0.006,0.003,0.011,0.007,0.017,0.01c0,0.001,0.001,0.001,0.001,0.001
		c0.001,0.001,0.002,0.001,0.004,0.002l0.001,0.001c0.001,0.001,0.002,0.001,0.003,0.002c0,0,0.001,0.001,0.001,0.001
		c0.001,0.001,0.002,0.001,0.003,0.002c0,0,0,0,0.001,0.001c0.001,0,0.002,0.001,0.003,0.002c0,0,0,0,0.001,0
		c0.001,0.001,0.002,0.002,0.004,0.003l0,0c0.007,0.004,0.015,0.009,0.022,0.013c0,0.001,0,0.001,0,0.001
		c0.001,0.001,0.003,0.001,0.004,0.002c0,0,0,0.001,0,0.001c0.001,0,0.002,0.001,0.004,0.002h0c0.001,0.001,0.003,0.002,0.004,0.003
		l0,0c0.001,0.001,0.003,0.002,0.004,0.003c0,0,0,0,0,0c0.012,0.007,0.024,0.015,0.036,0.021l0,0c0.188,0.11,0.38,0.214,0.577,0.31
		c0,0,0,0,0,0c0.012,0.006,0.025,0.012,0.038,0.018c0,0,0,0.001,0,0.001c0.001,0,0.003,0.001,0.004,0.002c0,0,0,0,0,0
		c0.001,0.001,0.003,0.001,0.004,0.002l0,0c0.016,0.008,0.032,0.016,0.048,0.022l0,0c0.002,0.001,0.003,0.002,0.005,0.003l0,0
		c0.002,0,0.003,0.001,0.005,0.002l0,0c0.016,0.008,0.032,0.015,0.048,0.022h0c0.013,0.006,0.025,0.012,0.038,0.017l0,0.001
		c0.001,0,0.003,0.001,0.004,0.002h0c0.094,0.042,0.188,0.082,0.284,0.121l0.28-0.695C4.954,14.572,4.549,14.362,4.169,14.116
		L4.169,14.116z M6.669,15.123l-0.142,0.736c0.024,0.005,0.048,0.009,0.072,0.014c0,0,0,0,0,0c0.002,0,0.003,0.001,0.005,0.001
		h0.001c0.001,0,0.002,0.001,0.004,0.001c0,0,0.001,0,0.001,0c0.001,0,0.002,0.001,0.004,0.001h0.001
		c0.001,0,0.002,0.001,0.004,0.001c0,0,0.001,0,0.001,0c0.001,0,0.002,0.001,0.004,0.001c0,0,0.001,0,0.001,0
		c0.001,0,0.002,0.001,0.003,0.001s0.002,0,0.003,0s0.002,0.001,0.002,0.001c0.001,0,0.002,0,0.003,0s0.002,0.001,0.003,0.001
		s0.002,0,0.003,0s0.001,0.001,0.002,0.001s0.002,0,0.003,0s0.002,0.001,0.002,0.001c0.001,0,0.003,0,0.004,0
		s0.001,0.001,0.002,0.001c0.001,0,0.002,0,0.004,0l0.001,0.001c0.001,0,0.003,0,0.004,0c0,0,0.001,0.001,0.001,0.001
		c0.002,0,0.003,0,0.005,0c0,0.001,0,0.001,0,0.001c0.302,0.052,0.609,0.086,0.922,0.103l0,0c0.002,0,0.004,0,0.006,0l0,0
		c0.002,0,0.004,0.001,0.006,0.001c0,0,0,0,0,0c0.001,0,0.003,0,0.005,0c0,0,0,0,0.001,0c0.001,0,0.003,0,0.005,0c0,0,0,0,0.001,0
		c0.001,0,0.003,0,0.005,0.001h0.001c0.001,0,0.003,0,0.005,0h0.001c0.001,0,0.003,0,0.005,0h0c0.002,0,0.004,0,0.005,0c0,0,0,0,0,0
		c0.02,0.001,0.039,0.002,0.059,0.003h0c0.002,0,0.003,0,0.005,0h0.001c0.001,0,0.003,0,0.004,0c0,0,0.001,0,0.001,0
		c0.001,0,0.003,0.001,0.004,0.001c0,0,0.001,0,0.001,0c0.001,0,0.003,0,0.004,0c0,0,0.001,0,0.001,0c0.001,0,0.003,0,0.004,0h0.001
		c0.001,0,0.003,0,0.004,0h0.001c0.001,0,0.003,0,0.004,0h0.001c0.001,0.001,0.002,0.001,0.004,0.001c0,0,0.001,0,0.001,0
		c0.002,0,0.003,0,0.005,0c0,0,0,0,0,0c0.002,0,0.004,0,0.005,0c0,0,0.001,0,0.001,0c0.002,0,0.003,0,0.005,0c0,0,0,0,0,0
		c0.002,0,0.004,0,0.005,0c0,0,0,0,0.001,0c0.008,0.001,0.016,0.001,0.023,0.001c0,0,0.001,0,0.001,0c0.001,0,0.003,0,0.004,0
		s0.001,0,0.002,0c0.001,0,0.003,0,0.004,0s0.001,0,0.002,0c0.001,0,0.002,0.001,0.004,0.001c0,0,0.001,0,0.002,0s0.002,0,0.003,0
		c0,0,0.001,0,0.002,0s0.002,0,0.003,0c0,0,0.001,0,0.001,0c0.002,0,0.003,0,0.004,0c0,0,0.001,0,0.001,0c0.002,0,0.003,0,0.004,0
		s0.002,0,0.002,0c0.001,0,0.002,0,0.003,0s0.001,0,0.002,0c0.001,0,0.002,0,0.003,0s0.001,0,0.002,0s0.002,0,0.003,0
		c0,0,0.001,0,0.002,0c0.001,0.001,0.002,0.001,0.003,0.001s0.002,0,0.003,0s0.002,0,0.003,0s0.002,0,0.003,0s0.002,0,0.003,0
		s0.002,0,0.002,0c0.001,0,0.002,0,0.003,0s0.001,0,0.002,0c0.001,0,0.002,0,0.004,0c0,0,0.001,0,0.002,0s0.002,0,0.004,0
		c0,0,0.001,0,0.002,0c0.002,0,0.004,0,0.005,0h0c0.001,0,0.003,0,0.005,0c0.001,0,0.002,0,0.003,0s0.002,0,0.003,0s0.002,0,0.003,0
		s0.002,0,0.003,0s0.001,0,0.002,0c0.001,0,0.002,0,0.003,0C7.92,16,7.92,16,7.921,16s0.002,0,0.003,0c0,0,0.001,0,0.002,0
		s0.002,0,0.003,0c0,0,0.001,0,0.002,0s0.002,0,0.003,0s0.002,0,0.003,0s0.002,0,0.003,0s0.002,0,0.003,0s0.002,0,0.003,0
		s0.002,0,0.002,0c0.002,0,0.003,0,0.004,0s0.002,0,0.002,0c0.001,0,0.003,0,0.004,0c0,0,0.001,0,0.002,0s0.002,0,0.003,0
		s0.001,0,0.002,0s0.002,0,0.003,0c0,0,0.001,0,0.002,0s0.002,0,0.003,0s0.001,0,0.001,0c0.002,0,0.003,0,0.004,0
		c0,0,0.001,0,0.002,0s0.002,0,0.003,0c0,0,0.001,0,0.002,0c0.001,0,0.003,0,0.004,0s0.001,0,0.002,0C7.998,16,8,16,8.001,16h0.001
		c0.002,0,0.004,0,0.006,0v-0.75C7.558,15.25,7.107,15.207,6.669,15.123L6.669,15.123z M10.663,14.734
		c-0.418,0.17-0.854,0.299-1.297,0.386l0.144,0.735c0.083-0.016,0.166-0.033,0.248-0.053c0.001,0,0,0,0.001,0s0.003,0,0.005-0.001
		c0,0,0,0,0.001,0c0.002,0,0.003-0.001,0.005-0.001h0.001C9.772,15.8,9.773,15.8,9.775,15.799h0.001
		c0.002,0,0.003-0.001,0.005-0.001h0.001c0.002-0.001,0.003-0.001,0.005-0.001l0.001-0.001c0.002,0,0.003,0,0.005-0.001
		c0,0,0,0,0.001,0s0.003-0.001,0.005-0.001l0,0c0.003-0.001,0.006-0.002,0.01-0.002c0-0.001,0.001-0.001,0.002-0.001
		c0,0,0.001,0,0.002-0.001c0.002,0,0.002,0,0.004,0c0.001-0.001,0.001-0.001,0.002-0.001c0.002,0,0.003-0.001,0.004-0.001
		s0.001,0,0.002,0c0.001-0.001,0.003-0.001,0.004-0.001s0.002-0.001,0.002-0.001c0.002,0,0.003,0,0.004-0.001
		c0.001,0,0.002,0,0.002,0c0.002-0.001,0.003-0.001,0.004-0.001s0.002-0.001,0.003-0.001s0.002,0,0.004-0.001c0,0,0.001,0,0.002,0
		c0.001-0.001,0.003-0.001,0.004-0.001s0.001-0.001,0.001-0.001c0.002,0,0.004-0.001,0.006-0.001c0,0,0,0,0.001,0
		c0.002-0.001,0.004-0.001,0.006-0.002l0,0c0.285-0.069,0.564-0.154,0.837-0.255l0,0c0.002,0,0.004-0.001,0.006-0.002
		c0,0,0,0,0.001,0c0.001-0.001,0.003-0.001,0.005-0.002c0,0,0,0,0.001,0c0.001-0.001,0.003-0.002,0.005-0.002c0,0,0,0,0.001-0.001
		c0.002,0,0.003-0.001,0.005-0.001c0-0.001,0-0.001,0.001-0.001s0.003-0.001,0.005-0.002c0,0,0,0,0.001,0
		c0.001-0.001,0.003-0.001,0.005-0.002l0,0c0.006-0.002,0.012-0.005,0.018-0.007c0.001,0,0.001,0,0.002,0
		c0.001-0.001,0.003-0.001,0.004-0.002c0.001,0,0.001,0,0.002-0.001c0.001,0,0.002-0.001,0.004-0.001
		c0.001,0,0.001-0.001,0.002-0.001c0.001-0.001,0.002-0.001,0.003-0.001c0.001-0.001,0.002-0.001,0.003-0.001
		c0.001-0.001,0.002-0.001,0.003-0.001c0.001-0.001,0.002-0.001,0.003-0.002c0.001,0,0.002,0,0.003-0.001
		c0.001,0,0.002,0,0.003-0.001c0.001,0,0.002,0,0.002-0.001c0.002,0,0.003-0.001,0.004-0.001s0.001-0.001,0.002-0.001
		s0.003-0.001,0.004-0.001c0-0.001,0.001-0.001,0.001-0.001c0.002,0,0.003-0.001,0.005-0.002l0,0
		c0.047-0.018,0.094-0.036,0.141-0.055L10.663,14.734L10.663,14.734z M12.928,13.265c-0.327,0.313-0.686,0.598-1.063,0.843
		l0.409,0.629c0.234-0.152,0.461-0.317,0.679-0.494l0,0c0.002-0.001,0.003-0.002,0.005-0.004l0,0
		c0.001-0.001,0.003-0.002,0.004-0.003s0.001-0.001,0.001-0.001c0.002-0.001,0.003-0.002,0.004-0.003
		c0-0.001,0.001-0.001,0.001-0.001c0.001-0.001,0.003-0.002,0.004-0.003c0-0.001,0.001-0.001,0.001-0.001
		c0.001-0.001,0.002-0.002,0.004-0.003c0,0,0-0.001,0.001-0.001c0.001-0.001,0.002-0.002,0.003-0.003
		c0.001,0,0.001-0.001,0.002-0.001c0.001-0.001,0.002-0.002,0.003-0.003c0.001,0,0.001-0.001,0.002-0.001
		c0.001-0.001,0.002-0.002,0.003-0.003l0.001-0.001c0.002-0.001,0.002-0.002,0.004-0.003l0.001-0.001
		c0.001-0.001,0.002-0.002,0.003-0.003c0.001,0,0.001-0.001,0.002-0.001c0.001-0.001,0.002-0.002,0.003-0.003
		c0.001,0,0.001-0.001,0.002-0.001c0.001-0.001,0.002-0.002,0.003-0.002c0-0.001,0.001-0.001,0.002-0.002
		c0-0.001,0.001-0.001,0.002-0.002c0.002-0.001,0.004-0.003,0.006-0.005c0.001,0,0.001,0,0.001,0
		c0.001-0.002,0.002-0.003,0.003-0.004c0.001,0,0.001,0,0.002-0.001c0.001,0,0.002-0.001,0.003-0.002
		c0-0.001,0.001-0.001,0.001-0.001c0.001-0.001,0.002-0.002,0.004-0.003c0-0.001,0-0.001,0.001-0.001
		c0.001-0.001,0.002-0.002,0.003-0.003s0.001-0.001,0.002-0.001c0.001-0.001,0.002-0.002,0.003-0.003s0.001-0.001,0.001-0.001
		c0.001-0.001,0.003-0.002,0.004-0.003l0.001-0.001c0.001-0.001,0.002-0.002,0.004-0.003c0,0,0-0.001,0.001-0.001
		c0.001-0.001,0.002-0.002,0.003-0.003l0.001-0.001c0.001-0.001,0.003-0.002,0.004-0.003c0,0,0,0,0.001-0.001
		s0.002-0.002,0.004-0.003l0,0c0.002-0.002,0.003-0.003,0.004-0.004h0.001c0.001-0.001,0.003-0.003,0.004-0.004l0,0
		c0.128-0.108,0.253-0.221,0.374-0.337L12.928,13.265L12.928,13.265z M11.932,11.683l-0.52,0.54
		c0.401,0.387,0.771,0.744,1.069,1.039l0.526-0.535c-0.289-0.284-0.644-0.628-1.029-1C11.963,11.712,11.947,11.697,11.932,11.683
		L11.932,11.683z M9.76,9.612l-0.516,0.544l1.086,1.032l0.518-0.543c-0.021-0.021-0.044-0.042-0.065-0.063
		c-0.005-0.005-0.01-0.009-0.014-0.014c-0.001,0-0.001-0.001-0.001-0.001C10.423,10.24,10.08,9.916,9.76,9.612L9.76,9.612z
		 M8.004,7.955c0,0-0.183,0.221-0.479,0.579l0,0C7.388,8.699,7.227,8.894,7.048,9.11l0.578,0.478l0.446-0.539l0.083,0.078
		L8.67,8.582C8.629,8.543,8.589,8.505,8.551,8.47l0,0C8.213,8.151,8.004,7.955,8.004,7.955L8.004,7.955z"/>
</g>
<g>
	<path fill="#FFFFFF" d="M8.008,0C8.006,0,8.004,0,8.002,0c0,0-0.001,0-0.002,0C7.999,0,7.998,0,7.996,0C7.995,0,7.994,0,7.993,0
		S7.991,0,7.99,0c0,0-0.001,0-0.002,0S7.985,0,7.984,0S7.982,0,7.981,0S7.979,0,7.978,0S7.976,0,7.975,0C7.974,0,7.973,0,7.972,0
		S7.97,0,7.969,0S7.966,0,7.965,0S7.963,0,7.962,0S7.96,0,7.959,0C7.958,0,7.958,0,7.956,0C7.955,0,7.954,0,7.953,0S7.951,0,7.95,0
		S7.948,0,7.947,0S7.945,0,7.944,0C7.943,0,7.942,0,7.941,0S7.939,0,7.938,0S7.936,0,7.935,0S7.933,0,7.932,0
		C7.931,0,7.929,0,7.928,0S7.927,0,7.926,0S7.923,0,7.922,0c0,0-0.001,0-0.001,0C7.918,0,7.917,0,7.916,0c0,0-0.001,0-0.001,0
		C7.912,0,7.911,0,7.909,0c0,0-0.001,0-0.002,0C7.906,0,7.904,0,7.902,0c0,0,0,0-0.001,0c-0.002,0-0.004,0-0.006,0h0
		c-0.004,0-0.008,0-0.012,0c0,0,0,0,0,0c-0.002,0-0.004,0-0.006,0h0c-0.002,0-0.004,0-0.005,0c0,0-0.001,0-0.001,0
		c-0.001,0-0.003,0-0.005,0H7.863c-0.001,0-0.003,0-0.004,0c-0.001,0-0.001,0-0.002,0c-0.001,0-0.003,0-0.004,0c0,0-0.001,0-0.002,0
		c-0.001,0-0.003,0-0.004,0c0,0-0.001,0-0.001,0c-0.001,0-0.003,0-0.004,0c-0.001,0-0.001,0-0.001,0c-0.002,0-0.003,0-0.005,0
		c0,0-0.001,0-0.002,0c-0.001,0-0.003,0-0.004,0s-0.001,0-0.001,0c-0.002,0-0.003,0-0.005,0c0,0-0.001,0-0.002,0
		c-0.001,0-0.003,0-0.004,0c0,0-0.001,0-0.001,0c-0.001,0-0.003,0-0.005,0c0,0-0.001,0-0.001,0c-0.002,0-0.003,0-0.005,0l-0.001,0
		c-0.002,0-0.004,0-0.005,0c0,0,0,0,0,0c-0.002,0-0.004,0-0.006,0l0,0c-0.017,0-0.034,0.001-0.05,0.001l0,0
		c-0.002,0-0.004,0-0.006,0h0c-0.002,0-0.004,0-0.006,0c0,0,0,0,0,0c-0.002,0-0.004,0-0.006,0l0,0c-0.002,0-0.004,0-0.006,0l0,0
		c-0.002,0-0.004,0-0.006,0h0C7.332,0.02,6.962,0.061,6.602,0.126c0,0,0,0,0,0c-0.002,0-0.003,0.001-0.005,0.001
		c0,0-0.001,0-0.002,0s-0.002,0-0.003,0c-0.001,0-0.002,0-0.002,0c-0.002,0-0.003,0-0.004,0c-0.001,0-0.002,0-0.003,0.001
		c-0.001,0-0.002,0-0.003,0c-0.001,0-0.002,0-0.003,0c-0.001,0-0.002,0-0.003,0s-0.002,0-0.003,0c0,0-0.001,0-0.002,0
		c-0.001,0-0.002,0-0.004,0c0,0-0.001,0-0.002,0c-0.001,0-0.002,0-0.004,0.001c0,0-0.001,0-0.001,0c-0.001,0-0.003,0-0.004,0.001
		c0,0-0.001,0-0.001,0c-0.001,0-0.003,0-0.004,0l-0.001,0c-0.001,0-0.003,0-0.005,0.001h0C6.532,0.14,6.525,0.141,6.517,0.142
		L6.66,0.879C7.101,0.793,7.555,0.75,8.008,0.75V0L8.008,0L8.008,0z M5.081,0.567C5.003,0.599,4.925,0.632,4.848,0.666
		c0,0-0.001,0-0.002,0.001S4.843,0.668,4.842,0.668c0,0-0.001,0-0.002,0.001c-0.001,0-0.002,0.001-0.003,0.001
		S4.835,0.672,4.834,0.672c-0.001,0-0.002,0.001-0.003,0.001S4.83,0.674,4.829,0.675c-0.001,0-0.001,0-0.002,0.001
		S4.824,0.677,4.823,0.677c-0.001,0-0.001,0-0.002,0.001c-0.001,0-0.002,0.001-0.004,0.001c0,0-0.001,0-0.001,0
		C4.814,0.681,4.813,0.682,4.811,0.683h0C4.807,0.684,4.803,0.686,4.8,0.688l0,0C4.798,0.688,4.796,0.689,4.794,0.69l0,0
		C4.792,0.691,4.791,0.691,4.789,0.692l0,0C4.532,0.809,4.283,0.938,4.041,1.081l0,0c-0.001,0-0.003,0.001-0.004,0.002
		c0,0,0,0-0.001,0c-0.001,0-0.002,0.001-0.003,0.002c0,0-0.001,0-0.001,0C4.029,1.088,4.028,1.088,4.027,1.089
		c-0.001,0-0.001,0-0.002,0C4.024,1.091,4.023,1.091,4.022,1.092S4.021,1.093,4.02,1.093c-0.001,0-0.002,0.001-0.003,0.001
		c0,0-0.001,0.001-0.001,0.001c-0.001,0-0.002,0.001-0.003,0.001S4.011,1.099,4.01,1.099S4.008,1.1,4.007,1.101
		c0,0-0.001,0.001-0.001,0.001C4.004,1.103,4.003,1.103,4.002,1.104C4.001,1.104,4,1.104,4,1.105c0,0-0.001,0-0.001,0
		C3.997,1.107,3.996,1.108,3.994,1.108c0,0-0.001,0-0.001,0C3.992,1.11,3.99,1.111,3.989,1.111c0,0-0.001,0-0.001,0
		C3.987,1.113,3.985,1.114,3.984,1.115l-0.001,0c-0.001,0-0.002,0.001-0.004,0.002c0,0,0,0-0.001,0
		C3.977,1.119,3.975,1.12,3.974,1.121c0,0,0,0,0,0C3.972,1.122,3.97,1.123,3.969,1.124l0,0C3.967,1.125,3.965,1.126,3.963,1.127l0,0
		C3.893,1.17,3.822,1.214,3.753,1.259l0.408,0.629c0.379-0.247,0.784-0.457,1.201-0.625L5.081,0.567L5.081,0.567z M3.092,1.832
		l-0.501,0.37L2.579,2.189C2.572,2.196,2.564,2.203,2.557,2.21C2.556,2.211,2.556,2.212,2.555,2.212S2.553,2.214,2.553,2.214
		C2.551,2.215,2.55,2.217,2.549,2.218c0,0,0,0-0.001,0C2.538,2.229,2.526,2.24,2.515,2.25v0C2.511,2.254,2.507,2.258,2.504,2.262
		c0,0-0.001,0-0.001,0.001C2.501,2.264,2.5,2.265,2.5,2.266c0,0.001-0.001,0.001-0.002,0.002c0,0-0.001,0.001-0.002,0.002
		C2.493,2.272,2.492,2.274,2.49,2.275l0,0l0,0l0,0l0,0l0,0l0,0l0,0l0,0l0,0l0.026,0.027L2.511,2.307
		C2.54,2.342,2.599,2.408,2.683,2.498c0,0,0,0,0,0c0,0,0.001,0,0.001,0.001c0,0,0,0,0,0s0.001,0,0.001,0.001c0,0,0,0,0,0.001
		c0.001,0.001,0.002,0.002,0.003,0.003c0,0,0,0,0,0c0,0,0.001,0.001,0.001,0.001l0,0c0,0,0.001,0.001,0.001,0.001
		C2.759,2.58,2.841,2.667,2.936,2.766c0,0.001,0.001,0.001,0.001,0.002c0,0,0,0,0,0c0.001,0,0.001,0.001,0.001,0.001l0,0
		c0.002,0.002,0.003,0.003,0.005,0.005c0,0,0,0,0,0C3.082,2.92,3.246,3.091,3.429,3.28l0.54-0.521
		C3.248,2.013,3.115,1.861,3.092,1.832L3.092,1.832z M2.591,2.202l0.501-0.37L2.612,2.224L2.591,2.202L2.591,2.202z M5.011,3.833
		L4.474,4.356C4.58,4.464,4.687,4.574,4.795,4.685c0.001,0.001,0.003,0.003,0.004,0.004c0.004,0.005,0.009,0.009,0.014,0.014
		c0,0.001,0.001,0.001,0.002,0.002c0.002,0.002,0.004,0.004,0.006,0.006C4.825,4.716,4.83,4.72,4.833,4.724
		c0.001,0.001,0.002,0.002,0.003,0.004C4.841,4.732,4.845,4.736,4.85,4.74c0.001,0.001,0.002,0.002,0.003,0.004
		c0.004,0.004,0.009,0.009,0.014,0.014c0,0,0.001,0.001,0.002,0.002c0.097,0.099,0.194,0.199,0.292,0.298
		C5.162,5.06,5.162,5.06,5.163,5.061C5.167,5.066,5.172,5.07,5.177,5.075c0.001,0.001,0.002,0.002,0.004,0.004
		C5.182,5.08,5.183,5.082,5.185,5.083c0.113,0.115,0.226,0.231,0.338,0.346l0.536-0.525L5.011,3.833L5.011,3.833z M7.109,5.974
		L6.574,6.5c0.418,0.426,0.787,0.8,1.052,1.069L8.16,7.042L7.109,5.974L7.109,5.974z M9.049,5.722L8.069,6.857l0.567,0.49
		c0.07-0.081,0.145-0.167,0.224-0.259c0,0,0.001-0.001,0.002-0.002c0-0.001,0.001-0.001,0.001-0.001
		c0.138-0.16,0.29-0.335,0.45-0.521c0,0,0.001-0.001,0.001-0.002C9.316,6.56,9.318,6.558,9.319,6.556
		C9.416,6.445,9.515,6.33,9.617,6.211L9.049,5.722L9.049,5.722z M10.998,3.447c-0.311,0.365-0.642,0.752-0.973,1.139l0.569,0.488
		c0.331-0.386,0.664-0.775,0.975-1.14L10.998,3.447L10.998,3.447z M12.546,1.583l0.245,0.166l0,0L12.546,1.583
		c-0.013,0.02-0.103,0.145-0.585,0.724l0.576,0.48c0.051-0.061,0.1-0.12,0.146-0.175c0,0,0.001-0.001,0.001-0.001v0
		c0.25-0.302,0.424-0.519,0.483-0.607l-0.01-0.007l0,0l0.01,0.007l0,0l-0.01-0.007l0.032-0.037l0,0
		c-0.002-0.001-0.003-0.003-0.005-0.004c0,0-0.001,0-0.001-0.001c-0.001-0.001-0.003-0.002-0.004-0.003L13.179,1.95
		c-0.002-0.001-0.003-0.002-0.004-0.003c0,0-0.001,0-0.001-0.001c-0.002-0.001-0.003-0.002-0.005-0.004c0,0-0.001,0-0.001-0.001
		c-0.002-0.001-0.003-0.002-0.004-0.003c-0.001,0-0.001,0-0.002-0.001c-0.001-0.001-0.002-0.002-0.003-0.003
		c-0.001,0-0.001-0.001-0.002-0.001c-0.001-0.001-0.003-0.002-0.004-0.004c0,0,0,0,0,0c-0.002-0.001-0.004-0.002-0.005-0.004
		c-0.001,0-0.001-0.001-0.002-0.001c-0.001-0.001-0.002-0.002-0.003-0.003c-0.001,0-0.001,0-0.002-0.001
		c-0.001-0.001-0.002-0.002-0.004-0.003c0,0,0,0-0.001-0.001c-0.001-0.001-0.003-0.003-0.005-0.004c0,0,0,0,0,0
		c-0.002-0.001-0.003-0.002-0.005-0.004l-0.001-0.001c-0.001-0.001-0.003-0.002-0.004-0.003c0,0-0.001,0-0.001,0
		c-0.002-0.001-0.003-0.003-0.004-0.004c-0.001,0-0.001,0-0.001,0c-0.002-0.001-0.003-0.003-0.005-0.004
		c0,0-0.001-0.001-0.001-0.001c-0.002-0.001-0.003-0.002-0.004-0.003c-0.001,0-0.001-0.001-0.002-0.001
		c-0.001-0.001-0.002-0.002-0.003-0.003c-0.001,0-0.001-0.001-0.002-0.001c-0.001-0.001-0.003-0.002-0.004-0.004
		c-0.001,0-0.001,0-0.001,0c-0.002-0.001-0.003-0.002-0.004-0.004c-0.001,0-0.001,0-0.002-0.001
		c-0.001-0.001-0.002-0.002-0.003-0.003c-0.001,0-0.001-0.001-0.002-0.001c-0.001-0.001-0.003-0.002-0.004-0.003l-0.001-0.001
		c-0.002-0.001-0.003-0.003-0.005-0.004l-0.001-0.001c-0.001-0.001-0.003-0.002-0.004-0.003c0,0-0.001-0.001-0.001-0.001
		c-0.002-0.001-0.003-0.002-0.004-0.003l-0.002-0.001c-0.003-0.003-0.006-0.005-0.009-0.008c-0.001,0-0.001-0.001-0.002-0.001
		c-0.001-0.001-0.002-0.001-0.003-0.002c-0.001,0-0.001-0.001-0.002-0.001c-0.001-0.001-0.002-0.002-0.003-0.003
		c-0.001,0-0.002-0.001-0.002-0.001c-0.002-0.001-0.003-0.003-0.005-0.004c0,0-0.001-0.001-0.002-0.002
		c-0.001,0-0.002-0.001-0.003-0.002c0-0.001-0.001-0.001-0.002-0.002c-0.001-0.001-0.002-0.001-0.003-0.002
		c0,0-0.001-0.001-0.002-0.001c-0.001-0.001-0.002-0.002-0.003-0.002c-0.001-0.001-0.003-0.002-0.004-0.003
		c-0.001,0-0.001-0.001-0.002-0.002s-0.002-0.001-0.003-0.002c-0.001,0-0.001-0.001-0.002-0.001s-0.002-0.001-0.003-0.002
		c0-0.001-0.001-0.001-0.002-0.002C13.004,1.801,13,1.798,12.997,1.795c-0.001,0-0.001-0.001-0.002-0.001
		c-0.001-0.001-0.002-0.002-0.003-0.002c0,0-0.001-0.001-0.002-0.002s-0.002-0.001-0.003-0.002c0,0,0,0-0.001,0
		c-0.004-0.003-0.007-0.006-0.011-0.009c0,0-0.001,0-0.001,0c-0.001-0.001-0.003-0.002-0.004-0.003c0,0,0,0,0,0
		c-0.041-0.033-0.081-0.065-0.122-0.098l-0.058,0.073L12.546,1.583L12.546,1.583z M10.197,0.311l-0.21,0.72
		c0.433,0.126,0.855,0.295,1.258,0.502l0.343-0.667c-0.251-0.129-0.51-0.246-0.775-0.348l0,0c-0.002,0-0.003-0.001-0.005-0.002l0,0
		c-0.002,0-0.004-0.001-0.005-0.002c0,0,0,0-0.001,0c-0.001,0-0.003-0.001-0.004-0.002c-0.001,0-0.001,0-0.001,0
		c-0.001,0-0.003-0.001-0.005-0.002l0,0c-0.002,0-0.004-0.001-0.005-0.002l0,0c-0.002,0-0.004-0.001-0.005-0.002h-0.001
		c-0.019-0.007-0.037-0.014-0.056-0.021l0,0c-0.002-0.001-0.004-0.001-0.005-0.002c-0.001,0-0.001,0-0.001,0
		c-0.002-0.001-0.003-0.001-0.005-0.002l0,0c-0.002,0-0.003-0.001-0.005-0.002l0,0c-0.002,0-0.004-0.001-0.005-0.002h-0.001
		c-0.001,0-0.003-0.001-0.005-0.002l0,0c-0.014-0.005-0.027-0.01-0.041-0.015c0,0,0,0,0,0c-0.002,0-0.003-0.001-0.005-0.001
		c0,0,0,0-0.001,0c-0.001-0.001-0.003-0.001-0.004-0.002h-0.001c-0.002,0-0.003-0.001-0.005-0.002l0,0
		c-0.002,0-0.003-0.001-0.005-0.001c0,0,0,0-0.001,0c-0.001,0-0.003-0.001-0.004-0.001c-0.001,0-0.001,0-0.001,0
		c-0.002,0-0.003-0.001-0.005-0.001c0,0,0,0-0.001,0s-0.003-0.001-0.004-0.001h-0.001c-0.001,0-0.003-0.001-0.004-0.002
		c-0.001,0-0.001,0-0.002,0c-0.001,0-0.002-0.001-0.004-0.001v0c-0.002,0-0.004-0.001-0.005-0.001l0,0
		C10.6,0.44,10.593,0.438,10.586,0.435c0,0,0,0-0.001,0c-0.001,0-0.002-0.001-0.004-0.001c0,0-0.001,0-0.001,0
		c-0.001,0-0.002-0.001-0.004-0.001c0,0-0.001,0-0.002,0c-0.001,0-0.002-0.001-0.003-0.001c-0.001,0-0.001,0-0.002-0.001
		s-0.002,0-0.003-0.001s-0.002,0-0.003-0.001c0,0-0.002,0-0.003-0.001c-0.001,0-0.001,0-0.002,0c-0.001,0-0.002-0.001-0.003-0.001
		c-0.001,0-0.002,0-0.003,0c-0.001,0-0.002-0.001-0.003-0.001c-0.001,0-0.001,0-0.002-0.001s-0.002,0-0.003-0.001
		s-0.002,0-0.003-0.001c-0.001,0-0.002,0-0.003-0.001c-0.001,0-0.001,0-0.002-0.001c-0.001,0-0.002,0-0.003-0.001
		c-0.001,0-0.002,0-0.003,0c-0.001,0-0.002-0.001-0.003-0.001c-0.001,0-0.002-0.001-0.002-0.001c-0.001,0-0.002,0-0.003-0.001
		s-0.002,0-0.002,0c-0.002-0.001-0.003-0.001-0.004-0.001s-0.003-0.001-0.004-0.001c-0.001,0-0.001,0-0.002,0
		c-0.002,0-0.003-0.001-0.005-0.001l-0.001,0c-0.002,0-0.003-0.001-0.004-0.001c-0.001,0-0.001,0-0.002,0
		c-0.001,0-0.003-0.001-0.004-0.001l-0.001,0c-0.002,0-0.003-0.001-0.005-0.001l-0.001,0c-0.001,0-0.003,0-0.004-0.001
		s-0.001,0-0.002,0c-0.001,0-0.002-0.001-0.004-0.001c0,0-0.001,0-0.002,0c-0.001,0-0.002-0.001-0.003-0.001
		c-0.001,0-0.002,0-0.002,0c-0.001,0-0.003-0.001-0.004-0.001c0,0-0.001,0-0.002,0s-0.002,0-0.004-0.001c0,0-0.001,0-0.001,0
		c-0.002,0-0.003-0.001-0.005-0.001c0,0,0,0-0.001,0c-0.001,0-0.003-0.001-0.005-0.001v0c-0.002,0-0.004-0.001-0.006-0.001l0,0
		C10.363,0.361,10.28,0.335,10.197,0.311L10.197,0.311z M8.008,0v0.75c0.219,0,0.436,0.01,0.649,0.029l0.068-0.747
		C8.623,0.023,8.519,0.016,8.414,0.01l0,0c-0.002,0-0.003,0-0.005,0h0c-0.001,0-0.003,0-0.005,0c0,0,0,0-0.001,0
		c-0.001,0-0.003,0-0.004,0c0,0-0.001,0-0.001,0c-0.001,0-0.003,0-0.004,0c0,0-0.001,0-0.001,0c-0.001,0-0.003,0-0.004,0
		c0,0-0.001,0-0.001,0c-0.001,0-0.002,0-0.004,0H8.38c-0.001,0-0.003,0-0.004,0c-0.001,0-0.001,0-0.002,0c-0.001,0-0.002,0-0.003,0
		s-0.001,0-0.002,0s-0.002,0-0.003,0s-0.001,0-0.002,0s-0.002,0-0.003,0s-0.002,0-0.002,0c-0.001,0-0.003,0-0.003,0
		c-0.002,0-0.002,0-0.003,0s-0.002,0-0.003,0s-0.002,0-0.003,0s-0.002,0-0.003,0s-0.002,0-0.002,0c-0.001,0-0.003,0-0.004,0
		c0,0-0.001,0-0.002,0s-0.002,0-0.003,0s-0.002,0-0.003,0s-0.002,0-0.002,0c-0.002,0-0.003,0-0.004,0s-0.001,0-0.002,0
		c-0.001,0-0.002,0-0.003,0s-0.002,0-0.003,0s-0.002,0-0.003,0s-0.002,0-0.003,0c-0.001,0-0.002,0-0.002,0c-0.001,0-0.002,0-0.003,0
		s-0.002,0-0.003,0s-0.002,0-0.003,0s-0.002,0-0.003,0c-0.001,0-0.002,0-0.003,0s-0.002,0-0.003,0c0,0-0.001,0-0.002,0
		c-0.001,0-0.002,0-0.004,0c0,0-0.001,0-0.001,0c-0.001,0-0.003,0-0.004,0c0,0-0.001,0-0.001,0c-0.001,0-0.003,0-0.004,0H8.269
		c-0.001,0-0.003,0-0.004,0H8.263c-0.002,0-0.003,0-0.005,0l0,0c-0.014,0-0.027-0.001-0.041-0.001c0,0,0,0,0,0
		c-0.001,0-0.003,0-0.005,0H8.21c-0.002,0-0.003,0-0.005,0c0,0-0.001,0-0.001,0c-0.001,0-0.003,0-0.004,0c0,0-0.001,0-0.001,0
		c-0.002,0-0.003,0-0.004,0s-0.001,0-0.002,0s-0.002,0-0.003,0H8.187c-0.001,0-0.002,0-0.004,0c0,0-0.001,0-0.001,0
		c-0.001,0-0.003,0-0.004,0s-0.001,0-0.002,0s-0.002,0-0.003,0s-0.001,0-0.002,0s-0.002,0-0.003,0c0,0-0.001,0-0.001,0
		c-0.002,0-0.003,0-0.004,0c0,0-0.001,0-0.001,0c-0.002,0-0.003,0-0.004,0s-0.002,0-0.002,0c-0.001,0-0.003,0-0.004,0
		c-0.001,0-0.001,0-0.002,0s-0.002,0-0.003,0c0,0-0.001,0-0.002,0s-0.002,0-0.003,0s-0.002,0-0.002,0c-0.002,0-0.003,0-0.004,0
		s-0.001,0-0.002,0s-0.002,0-0.003,0c0,0-0.001,0-0.002,0s-0.002,0-0.003,0c0,0-0.001,0-0.002,0C8.116,0,8.115,0,8.114,0
		S8.112,0,8.111,0S8.109,0,8.108,0S8.106,0,8.106,0C8.104,0,8.104,0,8.103,0c0,0-0.001,0-0.002,0S8.098,0,8.097,0
		c0,0-0.001,0-0.002,0S8.092,0,8.091,0S8.089,0,8.089,0C8.088,0,8.086,0,8.085,0S8.083,0,8.083,0C8.082,0,8.081,0,8.08,0
		S8.078,0,8.077,0S8.075,0,8.074,0c0,0-0.001,0-0.002,0C8.07,0,8.069,0,8.068,0S8.066,0,8.066,0C8.064,0,8.063,0,8.063,0
		C8.062,0,8.061,0,8.06,0S8.058,0,8.057,0c0,0-0.001,0-0.002,0S8.052,0,8.051,0c0,0-0.001,0-0.002,0S8.046,0,8.045,0
		S8.043,0,8.043,0C8.042,0,8.041,0,8.04,0S8.038,0,8.037,0C8.036,0,8.035,0,8.034,0c0,0-0.001,0-0.002,0S8.029,0,8.028,0
		S8.026,0,8.025,0S8.023,0,8.021,0c0,0-0.001,0-0.001,0C8.018,0,8.017,0,8.015,0c0,0,0,0-0.001,0C8.012,0,8.01,0,8.008,0L8.008,0z"
		/>
</g>
</svg>
