<?xml version="1.0" encoding="utf-8"?>
<svg version="1.1"
	 xmlns="http://www.w3.org/2000/svg" xmlns:xlink="http://www.w3.org/1999/xlink"
	 x="0px" y="0px" width="16px" height="16px" viewBox="0 0 16 16" enable-background="new 0 0 16 16" xml:space="preserve">
<defs>
</defs>
<g>
	<path fill="#333333" d="M4.221,15.25C3.043,13.151-0.89,5.681,0.772,2.301c0.354-0.719,1.27-1.926,3.423-1.926
		c2.079,0.014,3.03,1.079,3.467,1.971C9.332,5.745,5.401,13.162,4.221,15.25z"/>
	<path fill="#FFFFFF" d="M4.195,0l0.037,0.75c1.849,0.012,2.703,0.964,3.095,1.761c1.353,2.754-1.367,8.806-3.105,11.979
		c-1.737-3.192-4.46-9.282-3.113-12.022C1.495,1.684,2.343,0.75,4.195,0.75V0 M4.195,0C2.168,0,0.998,0.995,0.436,2.136
		C-1.612,6.301,4.219,16,4.219,16S10.057,6.368,8,2.18C7.433,1.027,6.287,0.014,4.237,0C4.223,0,4.209,0,4.195,0L4.195,0z"/>
</g>
<circle fill="#FFFFFF" stroke="#FFFFFF" stroke-width="0.75" stroke-miterlimit="10" cx="4.313" cy="4.252" r="1.784"/>
<g>
	<path fill="#CCCCCC" d="M12.499,15.625c-1.723,0-3.124-1.402-3.124-3.126c0-1.723,1.401-3.124,3.124-3.124
		c1.724,0,3.126,1.401,3.126,3.124C15.625,14.223,14.223,15.625,12.499,15.625z"/>
	<path fill="#FFFFFF" d="M12.499,9.75c1.517,0,2.751,1.233,2.751,2.749c0,1.517-1.234,2.751-2.751,2.751
		c-1.516,0-2.749-1.234-2.749-2.751C9.75,10.983,10.983,9.75,12.499,9.75 M12.499,9C10.566,9,9,10.566,9,12.499
		C9,14.433,10.566,16,12.499,16C14.434,16,16,14.433,16,12.499C16,10.566,14.434,9,12.499,9L12.499,9z"/>
</g>
<polyline fill="none" stroke="#333333" stroke-width="0.75" stroke-linecap="round" stroke-miterlimit="10" points="10.678,12.046 
	12.479,14.338 14.348,12.046 "/>
<line fill="none" stroke="#333333" stroke-width="0.75" stroke-linecap="round" stroke-miterlimit="10" x1="12.479" y1="14.241" x2="12.479" y2="10.407"/>
</svg>
