<?xml version="1.0" encoding="utf-8"?>
<svg version="1.1"
	 xmlns="http://www.w3.org/2000/svg" xmlns:xlink="http://www.w3.org/1999/xlink"
	 x="0px" y="0px" width="16px" height="16px" viewBox="0 0 16 16" enable-background="new 0 0 16 16" xml:space="preserve">
<defs>
</defs>
<g>
	<rect x="0.375" y="0.375" fill="#333333" width="15.25" height="15.25"/>
	<path fill="#FFFFFF" d="M15.25,0.75v14.5H0.75V0.75H15.25 M16,0H0v16h16V0L16,0z"/>
</g>
<path fill="#FFFFFF" d="M10.893,3.068h0.945l1.726,4.43h-0.948l-0.366-1.006h-1.771l-0.388,1.006H9.118L10.893,3.068z M11.974,5.745
	l-0.598-1.644l-0.61,1.644H11.974z"/>
<path fill="#FFFFFF" d="M6.868,3.806h0.788l1.438,3.692H8.303L7.999,6.66H6.522L6.2,7.498H5.39L6.868,3.806z M7.77,6.038
	l-0.499-1.37l-0.509,1.37H7.77z"/>
<path fill="#FFFFFF" d="M3.589,4.544H4.22l1.15,2.954H4.737L4.493,6.827H3.313L3.055,7.498H2.406L3.589,4.544z M4.311,6.33
	L3.911,5.233L3.504,6.33H4.311z"/>
<g>
	<path fill="#E6E6E6" d="M12.499,15.625c-1.723,0-3.124-1.402-3.124-3.126c0-1.723,1.401-3.124,3.124-3.124
		c1.724,0,3.126,1.401,3.126,3.124C15.625,14.223,14.223,15.625,12.499,15.625z"/>
	<path fill="#FFFFFF" d="M12.499,9.75c1.517,0,2.751,1.233,2.751,2.749c0,1.517-1.234,2.751-2.751,2.751
		c-1.516,0-2.749-1.234-2.749-2.751C9.75,10.983,10.983,9.75,12.499,9.75 M12.499,9C10.566,9,9,10.566,9,12.499
		C9,14.433,10.566,16,12.499,16C14.434,16,16,14.433,16,12.499C16,10.566,14.434,9,12.499,9L12.499,9z"/>
</g>
<polyline fill="none" stroke="#333333" stroke-width="0.75" stroke-linecap="round" stroke-miterlimit="10" points="14.316,12.269 
	12.596,10.515 10.809,12.269 "/>
<line fill="none" stroke="#333333" stroke-width="0.75" stroke-linecap="round" stroke-miterlimit="10" x1="12.596" y1="10.589" x2="12.595" y2="14.479"/>
</svg>
