<?xml version="1.0" encoding="utf-8"?>
<svg version="1.1"
	 xmlns="http://www.w3.org/2000/svg" xmlns:xlink="http://www.w3.org/1999/xlink"
	 x="0px" y="0px" width="16px" height="16px" viewBox="0 -2.93 16 16" enable-background="new 0 -2.93 16 16" xml:space="preserve">
<defs>
</defs>
<g>
	<path fill="#D9E021" d="M13.86,9.765c0.325-1.646,0.072-2.993-0.75-4.007C11.663,3.976,8.814,3.71,7.245,3.71
		c-0.671,0-1.113,0.048-1.113,0.048L5.797,3.794l0,1.755L0.84,3.078l4.957-2.472v1.876l0.427-0.059
		c0.005-0.001,0.559-0.077,1.384-0.077c2.961,0,7.94,0.893,8.018,6.871c0.001,0.071-0.031,0.302-0.072,0.548H13.86z"/>
	<path fill="#FFFFFF" d="M5.422,1.212v0.839l0.001,0.86l0.852-0.118c0.005,0,0.538-0.073,1.333-0.073
		c2.822,0,7.569,0.845,7.643,6.491c-0.001,0.031-0.008,0.095-0.02,0.178h-0.926c0.219-1.56-0.084-2.858-0.903-3.868
		c-1.545-1.903-4.521-2.187-6.157-2.187c-0.68,0-1.134,0.048-1.153,0.05L5.422,3.458v0.673v0.813L1.681,3.078L5.422,1.212 M6.172,0
		L0,3.078l6.172,3.078V4.131c0,0,0.426-0.046,1.073-0.046c2.278,0,7.306,0.567,6.229,5.7c-0.021,0.094-0.161,0.355-0.161,0.355
		h2.556c0,0,0.134-0.727,0.132-0.928c-0.084-6.459-5.685-7.241-8.393-7.241c-0.866,0-1.436,0.08-1.436,0.08V0L6.172,0z"/>
</g>
</svg>
