<?xml version="1.0" encoding="utf-8"?>
<svg version="1.1"
	 xmlns="http://www.w3.org/2000/svg" xmlns:xlink="http://www.w3.org/1999/xlink"
	 x="0px" y="0px" width="16px" height="16px" viewBox="0 0 16 16" enable-background="new 0 0 16 16" xml:space="preserve">
<defs>
</defs>
<g>
	<rect fill="#00A99D" width="16" height="16"/>
	<path fill="#FFFFFF" d="M13,0h-1.5v0.75H13V0L13,0z M10,0H8.5v0.75H10V0L10,0z M7,0H5.5v0.75H7V0L7,0z M4,0H2.5v0.75H4V0L4,0z M1,0
		H0v0.75h1V0L1,0z M0.75,2H0v1.5h0.75V2L0.75,2z M0.75,5H0v1.5h0.75V5L0.75,5z M0.75,8H0v1.5h0.75V8L0.75,8z M0.75,11H0v1.5h0.75V11
		L0.75,11z M0.75,14H0v1.5h0.75V14L0.75,14z M2.5,15.25H1V16h1.5V15.25L2.5,15.25z M5.5,15.25H4V16h1.5V15.25L5.5,15.25z M8.5,15.25
		H7V16h1.5V15.25L8.5,15.25z M11.5,15.25H10V16h1.5V15.25L11.5,15.25z M14.5,15.25H13V16h1.5V15.25L14.5,15.25z M16,14.5h-0.75V16
		H16V14.5L16,14.5z M16,11.5h-0.75V13H16V11.5L16,11.5z M16,8.5h-0.75V10H16V8.5L16,8.5z M16,5.5h-0.75V7H16V5.5L16,5.5z M16,2.5
		h-0.75V4H16V2.5L16,2.5z M16,0h-1.5v0.75h0.75V1H16V0L16,0z"/>
</g>
<path d="M2.646,3.487v1.225H1.516V3.745c0-0.523,0.063-0.902,0.188-1.137C1.867,2.296,2.127,2.06,2.482,1.899L2.74,2.31
	c-0.215,0.09-0.373,0.224-0.475,0.401s-0.158,0.437-0.17,0.776H2.646z M4.463,3.487v1.225H3.332V3.745
	c0-0.523,0.063-0.902,0.188-1.137C3.684,2.296,3.942,2.06,4.299,1.899l0.258,0.41c-0.216,0.09-0.374,0.224-0.475,0.401
	c-0.103,0.178-0.158,0.437-0.17,0.776H4.463z"/>
<path d="M5.115,8.101V6.899h1.201v1.201H5.115z"/>
<path d="M7.449,8.101V6.899H8.65v1.201H7.449z"/>
<path d="M9.783,8.101V6.899h1.201v1.201H9.783z"/>
<path d="M11.537,3.183V1.958h1.131v0.967c0,0.523-0.061,0.9-0.182,1.131c-0.168,0.316-0.43,0.555-0.785,0.715l-0.258-0.416
	c0.211-0.086,0.368-0.222,0.472-0.407s0.161-0.44,0.173-0.765H11.537z M13.354,3.183V1.958h1.131v0.967
	c0,0.523-0.061,0.9-0.182,1.131c-0.168,0.316-0.43,0.555-0.785,0.715L13.26,4.354c0.211-0.086,0.368-0.222,0.472-0.407
	s0.161-0.44,0.173-0.765H13.354z"/>
<path d="M1.172,12.695l0.944-0.105c0.057,0.367,0.173,0.639,0.346,0.812c0.174,0.173,0.408,0.26,0.703,0.26
	c0.313,0,0.548-0.077,0.708-0.231c0.158-0.153,0.237-0.334,0.237-0.54c0-0.132-0.033-0.244-0.099-0.338
	c-0.067-0.092-0.184-0.173-0.35-0.242c-0.114-0.046-0.373-0.127-0.777-0.243c-0.521-0.15-0.885-0.335-1.095-0.554
	c-0.295-0.308-0.443-0.683-0.443-1.125c0-0.285,0.07-0.553,0.208-0.8c0.139-0.249,0.339-0.438,0.6-0.566
	c0.262-0.13,0.577-0.195,0.946-0.195c0.604,0,1.058,0.154,1.363,0.461c0.304,0.309,0.464,0.718,0.479,1.233l-0.97,0.049
	c-0.042-0.287-0.131-0.494-0.267-0.62C3.569,9.825,3.364,9.761,3.09,9.761c-0.282,0-0.502,0.068-0.662,0.203
	c-0.104,0.086-0.154,0.202-0.154,0.347c0,0.133,0.048,0.246,0.144,0.34c0.123,0.119,0.42,0.244,0.892,0.373
	c0.472,0.131,0.822,0.265,1.049,0.403c0.226,0.139,0.403,0.329,0.531,0.568c0.127,0.241,0.191,0.538,0.191,0.892
	c0,0.319-0.076,0.62-0.229,0.9c-0.153,0.279-0.369,0.488-0.649,0.623c-0.279,0.137-0.628,0.205-1.046,0.205
	c-0.608,0-1.074-0.164-1.4-0.49C1.43,13.798,1.236,13.321,1.172,12.695z"/>
<path d="M7.125,14.516L5.406,8.922h1.052l1.217,4.14l1.177-4.14h1.03l-1.722,5.594H7.125z"/>
<path d="M12.615,12.459v-0.942h2.092v2.228c-0.203,0.229-0.498,0.431-0.883,0.605c-0.387,0.175-0.777,0.261-1.174,0.261
	c-0.503,0-0.94-0.122-1.314-0.367s-0.656-0.597-0.843-1.054c-0.188-0.456-0.282-0.952-0.282-1.49c0-0.582,0.104-1.1,0.314-1.553
	c0.21-0.452,0.518-0.8,0.922-1.041c0.309-0.186,0.692-0.279,1.151-0.279c0.597,0,1.063,0.146,1.398,0.437
	c0.336,0.291,0.552,0.693,0.647,1.207l-0.964,0.211c-0.067-0.275-0.195-0.492-0.382-0.651c-0.188-0.159-0.42-0.238-0.7-0.238
	c-0.425,0-0.762,0.156-1.013,0.469c-0.25,0.313-0.375,0.777-0.375,1.393c0,0.665,0.127,1.162,0.38,1.495
	c0.255,0.331,0.587,0.497,0.997,0.497c0.203,0,0.407-0.046,0.611-0.139c0.205-0.093,0.381-0.205,0.528-0.338v-0.71H12.615z"/>
</svg>
