<?xml version="1.0" encoding="utf-8"?>
<svg version="1.1"
	 xmlns="http://www.w3.org/2000/svg" xmlns:xlink="http://www.w3.org/1999/xlink"
	 x="0px" y="0px" width="16px" height="16px" viewBox="-0.2 -1.264 16 16" enable-background="new -0.2 -1.264 16 16"
	 xml:space="preserve">
<defs>
</defs>
<g>
	<polygon fill="#662D91" points="9.275,8.945 8.438,9.782 8.438,7.375 10.845,7.375 10.008,8.211 11.095,9.298 10.361,10.032 	"/>
	<path fill="#FFFFFF" d="M10.24,7.625l-0.232,0.233L9.654,8.211l0.354,0.354l0.733,0.733l-0.38,0.381L9.629,8.945L9.275,8.592
		L8.922,8.945L8.688,9.179V7.625L10.24,7.625 M11.448,7.125l-3.26,0v3.261l1.087-1.087l1.086,1.087l1.087-1.088l-1.087-1.087
		L11.448,7.125L11.448,7.125z"/>
</g>
<g>
	<polygon fill="#662D91" points="13.14,14.486 13.978,13.648 12.89,12.562 13.624,11.828 14.711,12.915 15.55,12.077 15.55,14.486 	
		"/>
	<path fill="#FFFFFF" d="M13.624,12.182l0.733,0.733l0.354,0.354l0.354-0.354L15.3,12.68v1.557h-1.557l0.234-0.234l0.354-0.354
		l-0.354-0.354l-0.734-0.733L13.624,12.182 M15.8,11.475l-1.089,1.087l-1.087-1.087l-1.088,1.087l1.088,1.087l-1.088,1.088H15.8
		V11.475L15.8,11.475z"/>
</g>
<g>
	<polygon fill="#662D91" points="12.892,9.298 13.979,8.211 13.142,7.375 15.55,7.375 15.55,9.782 14.711,8.944 13.625,10.031 	"/>
	<path fill="#FFFFFF" d="M13.746,7.625l1.554,0V9.18l-0.235-0.235l-0.354-0.354l-0.354,0.354l-0.732,0.733l-0.38-0.38l0.733-0.733
		l0.354-0.354l-0.354-0.354L13.746,7.625 M12.538,7.125l1.087,1.086l-1.087,1.087l1.087,1.087l1.086-1.087l1.089,1.088V7.125
		L12.538,7.125L12.538,7.125z"/>
</g>
<g>
	<polygon fill="#662D91" points="8.422,14.484 8.422,12.076 9.26,12.914 10.346,11.826 11.08,12.561 9.994,13.646 10.831,14.484 	
		"/>
	<path fill="#FFFFFF" d="M10.346,12.18l0.381,0.381l-0.732,0.732l-0.354,0.354L9.994,14l0.233,0.234H8.672V12.68l0.234,0.234
		l0.354,0.354l0.354-0.354L10.346,12.18 M8.172,11.472v3.263h3.261l-1.086-1.088l1.086-1.086l-1.088-1.088L9.26,12.561L8.172,11.472
		L8.172,11.472z"/>
</g>
<g>
	<circle fill="#662D91" cx="2.5" cy="7.237" r="2.124"/>
	<path fill="#FFFFFF" d="M2.5,5.488c0.965,0,1.75,0.785,1.75,1.749c0,0.965-0.785,1.749-1.75,1.749c-0.965,0-1.75-0.784-1.75-1.749
		C0.75,6.273,1.535,5.488,2.5,5.488 M2.5,4.738C1.12,4.738,0,5.857,0,7.237s1.12,2.499,2.5,2.499c1.38,0,2.5-1.119,2.5-2.499
		S3.88,4.738,2.5,4.738L2.5,4.738z"/>
</g>
<g>
	<path fill="#662D91" d="M6.824,4.624c-1.172,0-2.126-0.953-2.126-2.124s0.954-2.125,2.126-2.125c1.171,0,2.124,0.953,2.124,2.125
		S7.995,4.624,6.824,4.624z"/>
	<path fill="#FFFFFF" d="M6.824,0.75c0.964,0,1.749,0.785,1.749,1.75c0,0.964-0.784,1.749-1.749,1.749
		c-0.965,0-1.751-0.785-1.751-1.749C5.073,1.535,5.858,0.75,6.824,0.75 M6.824,0C5.443,0,4.323,1.12,4.323,2.5
		c0,1.381,1.12,2.499,2.501,2.499c1.379,0,2.499-1.118,2.499-2.499C9.322,1.12,8.203,0,6.824,0L6.824,0z"/>
</g>
<g>
	<circle fill="#662D91" cx="13.1" cy="4.049" r="2.124"/>
	<path fill="#FFFFFF" d="M13.1,2.3c0.965,0,1.75,0.785,1.75,1.75c0,0.964-0.785,1.749-1.75,1.749s-1.75-0.784-1.75-1.749
		C11.35,3.084,12.135,2.3,13.1,2.3 M13.1,1.55c-1.381,0-2.5,1.119-2.5,2.5s1.119,2.499,2.5,2.499c1.379,0,2.5-1.118,2.5-2.499
		S14.479,1.55,13.1,1.55L13.1,1.55z"/>
</g>
</svg>
