<?xml version="1.0" encoding="utf-8"?>
<svg version="1.1"
	 xmlns="http://www.w3.org/2000/svg" xmlns:xlink="http://www.w3.org/1999/xlink"
	 x="0px" y="0px" width="16px" height="16px" viewBox="0 0 16 16" enable-background="new 0 0 16 16" xml:space="preserve">
<defs>
</defs>
<rect display="none" fill="#4D4D4D" width="16" height="16"/>
<g>
	<path fill="#333333" d="M0.402,10.768c0.218-2.388,1.42-6.191,3.36-6.32c3.879-0.255,4.5-3.029,4.596-4.073h7.132l-3.242,10.393
		H0.402z"/>
	<path fill="#FFFFFF" d="M14.98,0.75l-3.009,9.643H0.818c0.303-2.44,1.461-5.471,2.969-5.57C7.274,4.593,8.475,2.371,8.708,0.75
		H14.98 M16,0H8c0,0,0.188,3.781-4.263,4.074C1.391,4.229,0.118,8.655,0,11.143h12.523L16,0L16,0z"/>
</g>
<line fill="#CCCCCC" stroke="#FFFFFF" stroke-width="0.75" stroke-miterlimit="10" x1="7.257" y1="3.039" x2="14.857" y2="3.039"/>
<line fill="#CCCCCC" stroke="#FFFFFF" stroke-width="0.75" stroke-miterlimit="10" x1="2.042" y1="5.811" x2="13.732" y2="5.811"/>
<line fill="#CCCCCC" stroke="#FFFFFF" stroke-width="0.75" stroke-miterlimit="10" x1="0.934" y1="8.469" x2="12.884" y2="8.469"/>
<path fill="none" stroke="#FFFFFF" stroke-width="0.75" stroke-miterlimit="10" d="M2.825,10.468c0,0,0.847-3.967,4.128-4.891
	c2.385-0.672,3.064-4.853,3.303-5.007"/>
<path fill="none" stroke="#FFFFFF" stroke-width="0.75" stroke-miterlimit="10" d="M6.344,10.892c0,0,1.543-3.851,3.172-4.776
	c0.986-0.561,2.434-4.622,2.607-5.43"/>
<line fill="#CCCCCC" stroke="#FFFFFF" stroke-width="0.75" stroke-miterlimit="10" x1="10.343" y1="10.584" x2="13.948" y2="0.57"/>
<line fill="none" stroke="#FFFFFF" stroke-width="0.75" stroke-linecap="round" stroke-miterlimit="10" x1="10.735" y1="10.749" x2="14.235" y2="14.249"/>
<line fill="none" stroke="#FFFFFF" stroke-width="0.75" stroke-linecap="round" stroke-miterlimit="10" x1="14.235" y1="10.749" x2="10.735" y2="14.249"/>
<line fill="none" stroke="#FFFFFF" stroke-width="0.75" stroke-linecap="round" stroke-miterlimit="10" x1="12.51" y1="10.165" x2="12.51" y2="14.832"/>
<line fill="none" stroke="#FFFFFF" stroke-width="0.75" stroke-linecap="round" stroke-miterlimit="10" x1="10.225" y1="12.499" x2="14.892" y2="12.499"/>
<g>
	<path fill="#E6E6E6" d="M12.499,15.625c-1.723,0-3.124-1.402-3.124-3.125s1.401-3.125,3.124-3.125c1.724,0,3.126,1.402,3.126,3.125
		S14.223,15.625,12.499,15.625z"/>
	<path fill="#FFFFFF" d="M12.499,9.75c1.517,0,2.751,1.234,2.751,2.75s-1.234,2.75-2.751,2.75c-1.516,0-2.749-1.234-2.749-2.75
		S10.983,9.75,12.499,9.75 M12.499,9C10.566,9,9,10.566,9,12.5s1.566,3.5,3.499,3.5C14.434,16,16,14.434,16,12.5S14.434,9,12.499,9
		L12.499,9z"/>
</g>
<line fill="none" stroke="#333333" stroke-width="0.75" stroke-linecap="round" stroke-miterlimit="10" x1="10.959" y1="11.021" x2="13.918" y2="13.979"/>
<line fill="none" stroke="#333333" stroke-width="0.75" stroke-linecap="round" stroke-miterlimit="10" x1="13.918" y1="11.021" x2="10.959" y2="13.979"/>
<line fill="none" stroke="#333333" stroke-width="0.75" stroke-linecap="round" stroke-miterlimit="10" x1="12.459" y1="10.527" x2="12.459" y2="14.473"/>
<line fill="none" stroke="#333333" stroke-width="0.75" stroke-linecap="round" stroke-miterlimit="10" x1="10.527" y1="12.5" x2="14.473" y2="12.5"/>
</svg>
