<?xml version="1.0" encoding="utf-8"?>
<svg version="1.1"
	 xmlns="http://www.w3.org/2000/svg" xmlns:xlink="http://www.w3.org/1999/xlink"
	 x="0px" y="0px" width="16px" height="16px" viewBox="-0.036 0.037 16 16" enable-background="new -0.036 0.037 16 16"
	 xml:space="preserve">
<defs>
</defs>
<g>
	<path fill="#0071BC" d="M3.738,8.412c-1.856,0-3.149-0.837-3.149-1.588s1.293-1.588,3.149-1.588c1.854,0,3.146,0.837,3.146,1.588
		S5.592,8.412,3.738,8.412z"/>
	<path fill="#FFFFFF" d="M3.738,5.61c1.692,0,2.771,0.719,2.771,1.213S5.43,8.037,3.738,8.037c-1.693,0-2.774-0.719-2.774-1.213
		S2.044,5.61,3.738,5.61 M3.738,4.86c-1.945,0-3.524,0.879-3.524,1.963c0,1.083,1.579,1.963,3.524,1.963
		c1.944,0,3.521-0.881,3.521-1.963C7.259,5.739,5.682,4.86,3.738,4.86L3.738,4.86z"/>
</g>
<g>
	<path fill="#0071BC" d="M12.192,8.412c-1.856,0-3.15-0.837-3.15-1.588s1.294-1.588,3.15-1.588c1.854,0,3.146,0.837,3.146,1.588
		S14.047,8.412,12.192,8.412z"/>
	<path fill="#FFFFFF" d="M12.192,5.61c1.691,0,2.771,0.719,2.771,1.213s-1.08,1.213-2.771,1.213c-1.668,0-2.774-0.73-2.774-1.213
		C9.418,6.329,10.498,5.61,12.192,5.61 M12.192,4.86c-1.945,0-3.525,0.879-3.525,1.963c0,1.083,1.58,1.963,3.525,1.963
		c1.944,0,3.521-0.881,3.521-1.963C15.714,5.739,14.137,4.86,12.192,4.86L12.192,4.86z"/>
</g>
<line fill="none" stroke="#FFFFFF" stroke-width="0.75" stroke-miterlimit="10" x1="6.667" y1="6.863" x2="9.269" y2="6.863"/>
<line fill="none" stroke="#FFFFFF" stroke-width="0.75" stroke-linecap="round" stroke-miterlimit="10" x1="0.375" y1="6.804" x2="4.795" y2="0.375"/>
<line fill="none" stroke="#FFFFFF" stroke-width="0.75" stroke-linecap="round" stroke-miterlimit="10" x1="15.55" y1="6.804" x2="11.13" y2="0.375"/>
<g>
	<polygon fill="#29ABE2" points="6.986,15.662 6.986,12.957 4.813,12.957 7.963,9.807 11.115,12.957 8.94,12.957 8.94,15.662 	"/>
	<path fill="#FFFFFF" d="M7.963,10.337l2.246,2.245H9.315h-0.75v0.75v1.955H7.361v-1.955v-0.75h-0.75H5.718L7.963,10.337
		 M7.963,9.276l-4.056,4.056h2.704v2.705h2.704v-2.705h2.705L7.963,9.276L7.963,9.276z"/>
</g>
</svg>
