<?xml version="1.0" encoding="utf-8"?>
<svg version="1.1"
	 xmlns="http://www.w3.org/2000/svg" xmlns:xlink="http://www.w3.org/1999/xlink"
	 x="0px" y="0px" width="16px" height="16px" viewBox="-0.5 -1.8 16 16" enable-background="new -0.5 -1.8 16 16"
	 xml:space="preserve">
<defs>
</defs>
<g>
	<polygon fill="#662D91" points="8.976,8.409 8.138,9.246 8.138,6.839 10.545,6.838 9.708,7.675 10.795,8.762 10.062,9.496 	"/>
	<path fill="#FFFFFF" d="M9.94,7.088L9.708,7.321L9.354,7.675l0.354,0.354l0.733,0.733l-0.38,0.381L9.329,8.409L8.976,8.056
		L8.622,8.409L8.388,8.643V7.089L9.94,7.088 M11.148,6.588l-3.26,0V9.85l1.087-1.087l1.086,1.087l1.087-1.088l-1.087-1.087
		L11.148,6.588L11.148,6.588z"/>
</g>
<g>
	<polygon fill="#662D91" points="12.84,13.95 13.678,13.112 12.59,12.025 13.324,11.292 14.411,12.379 15.25,11.541 15.25,13.95 	
		"/>
	<path fill="#FFFFFF" d="M13.324,11.646l0.733,0.733l0.354,0.354l0.354-0.354L15,12.144V13.7h-1.557l0.234-0.234l0.354-0.354
		l-0.354-0.354l-0.734-0.733L13.324,11.646 M15.5,10.938l-1.089,1.087l-1.087-1.087l-1.088,1.087l1.088,1.087L12.236,14.2H15.5
		V10.938L15.5,10.938z"/>
</g>
<g>
	<polygon fill="#662D91" points="12.592,8.762 13.679,7.675 12.842,6.838 15.25,6.839 15.25,9.246 14.411,8.408 13.325,9.495 	"/>
	<path fill="#FFFFFF" d="M13.446,7.088l1.554,0v1.555l-0.235-0.235l-0.354-0.354l-0.354,0.354l-0.732,0.733l-0.38-0.38l0.733-0.733
		l0.354-0.354l-0.354-0.354L13.446,7.088 M12.238,6.588l1.087,1.086l-1.087,1.087l1.087,1.087l1.086-1.087L15.5,9.85V6.589
		L12.238,6.588L12.238,6.588z"/>
</g>
<g>
	<polygon fill="#662D91" points="8.123,13.948 8.123,11.54 8.96,12.378 10.046,11.29 10.78,12.024 9.694,13.11 10.531,13.948 	"/>
	<path fill="#FFFFFF" d="M10.046,11.644l0.381,0.381l-0.732,0.732L9.341,13.11l0.354,0.354l0.233,0.234H8.373v-1.555l0.234,0.234
		l0.354,0.354l0.354-0.354L10.046,11.644 M7.873,10.936v3.263h3.261l-1.086-1.088l1.086-1.086l-1.088-1.088L8.96,12.024
		L7.873,10.936L7.873,10.936z"/>
</g>
<polyline fill="none" stroke="#FFFFFF" stroke-width="0.75" stroke-linecap="round" stroke-miterlimit="10" points="1.459,1.343 
	5.189,13.16 7.73,1.605 12.953,1.605 "/>
<g>
	<circle fill="#662D91" cx="1.501" cy="1.5" r="1.125"/>
	<path fill="#FFFFFF" d="M1.501,0.75c0.413,0,0.749,0.337,0.749,0.752c0,0.413-0.336,0.749-0.749,0.749
		c-0.415,0-0.751-0.336-0.751-0.749C0.75,1.087,1.087,0.75,1.501,0.75 M1.501,0C0.672,0,0,0.672,0,1.502C0,2.329,0.672,3,1.501,3
		C2.33,3,3,2.329,3,1.502C3,0.672,2.33,0,1.501,0L1.501,0z"/>
</g>
<g>
	<circle fill="#662D91" cx="7.756" cy="1.5" r="1.125"/>
	<path fill="#FFFFFF" d="M7.756,0.75c0.415,0,0.752,0.337,0.752,0.752c0,0.413-0.337,0.749-0.752,0.749
		c-0.413,0-0.748-0.336-0.748-0.749C7.008,1.087,7.343,0.75,7.756,0.75 M7.756,0C6.928,0,6.258,0.672,6.258,1.502
		c0,0.827,0.67,1.499,1.498,1.499c0.832,0,1.502-0.672,1.502-1.499C9.258,0.672,8.588,0,7.756,0L7.756,0z"/>
</g>
<g>
	<circle fill="#662D91" cx="12.756" cy="1.499" r="1.124"/>
	<path fill="#FFFFFF" d="M12.756,0.75c0.415,0,0.752,0.336,0.752,0.75c0,0.412-0.337,0.748-0.752,0.748
		c-0.412,0-0.748-0.335-0.748-0.748C12.008,1.086,12.344,0.75,12.756,0.75 M12.756,0c-0.828,0-1.498,0.671-1.498,1.5
		c0,0.826,0.67,1.498,1.498,1.498c0.834,0,1.502-0.671,1.502-1.498C14.258,0.671,13.59,0,12.756,0L12.756,0z"/>
</g>
</svg>
