<?xml version="1.0" encoding="utf-8"?>
<svg version="1.1"
	 xmlns="http://www.w3.org/2000/svg" xmlns:xlink="http://www.w3.org/1999/xlink"
	 x="0px" y="0px" width="16px" height="16px" viewBox="0 0 16 16" enable-background="new 0 0 16 16" xml:space="preserve">
<defs>
</defs>
<g>
	<rect x="0.375" y="0.375" fill="#333333" width="15.25" height="15.25"/>
	<path fill="#FFFFFF" d="M15.25,0.75v14.5H0.75V0.75H15.25 M16,0H0v16h16V0L16,0z"/>
</g>
<g>
	<path fill="#00A99D" d="M5.801,14.26c-0.287,0-0.508-0.094-0.6-0.186L5.167,4.215c0-0.045,0.206-0.237,0.639-0.237
		c0.288,0,0.509,0.093,0.601,0.186l0.031,9.86C6.438,14.068,6.226,14.26,5.801,14.26z"/>
	<path fill="#FFFFFF" d="M5.808,4.353c0.115,0,0.201,0.02,0.258,0.041l-0.004,9.451c-0.057,0.021-0.145,0.041-0.26,0.041
		c-0.116,0-0.204-0.02-0.261-0.041l0.001-9.45C5.6,4.374,5.688,4.353,5.805,4.353H5.808 M5.808,3.603c-0.001,0-0.002,0-0.003,0
		c-0.561,0-1.011,0.274-1.013,0.612l-0.001,9.807c-0.001,0.34,0.452,0.613,1.01,0.613c0.561,0,1.012-0.273,1.012-0.611l0.004-9.807
		C6.818,3.877,6.367,3.603,5.808,3.603L5.808,3.603z"/>
</g>
<g>
	<polygon fill="#00A99D" points="2.049,6.172 2.049,2.01 10.507,2.01 13.949,4.09 10.507,6.172 	"/>
	<path fill="#FFFFFF" d="M10.402,2.385l2.822,1.706l-2.822,1.707H2.424V2.385H10.402 M10.611,1.635H1.674v4.912h8.938l4.063-2.457
		L10.611,1.635L10.611,1.635z"/>
</g>
</svg>
