<?xml version="1.0" encoding="utf-8"?>
<svg version="1.1"
	 xmlns="http://www.w3.org/2000/svg" xmlns:xlink="http://www.w3.org/1999/xlink"
	 x="0px" y="0px" width="16px" height="16px" viewBox="0 0 16 16" enable-background="new 0 0 16 16" xml:space="preserve">
<defs>
</defs>
<g>
	<path fill="#FBB03B" d="M11.132,8.388c0.248-1.025,0.682-3.426-0.228-4.933C10.262,2.39,9.15,1.826,7.692,1.826
		c-1.151,0-2.238,0.342-2.759,0.535L4.49,1.564c0.558-0.373,1.984-1.189,3.774-1.189c1.333,0,2.616,0.448,3.814,1.332
		c2.646,1.951,2.011,5.659,1.774,6.682H11.132z"/>
	<path fill="#FFFFFF" d="M8.265,0.75c1.251,0,2.46,0.423,3.592,1.258c2.255,1.663,1.932,4.763,1.692,6.005h-1.946
		c0.252-1.228,0.488-3.317-0.377-4.751C10.51,2.077,9.289,1.451,7.692,1.451c-1.012,0-1.977,0.251-2.585,0.452L4.99,1.692
		C5.635,1.311,6.828,0.75,8.265,0.75 M8.265,0C5.785,0,4,1.454,4,1.454l0.765,1.377c0,0,1.42-0.63,2.927-0.63
		c1.084,0,2.214,0.326,2.892,1.448c1.081,1.793,0.06,5.114,0.06,5.114h3.501c0,0,1.479-4.909-1.843-7.358
		C10.875,0.353,9.485,0,8.265,0L8.265,0z"/>
</g>
<g>
	<polygon fill="#FBB03B" points="9.764,8.157 15.178,8.157 12.47,11.278 	"/>
	<path fill="#FFFFFF" d="M14.356,8.532l-1.887,2.174l-1.885-2.174h0.71h2.353H14.356 M16,7.782h-2.353h-2.353H8.942l3.528,4.069
		L16,7.782L16,7.782z"/>
</g>
<g>
	<path fill="#FBB03B" d="M7.734,15.625c-1.333,0-2.616-0.447-3.814-1.331c-2.646-1.951-2.01-5.659-1.773-6.682h2.721
		c-0.248,1.025-0.682,3.426,0.227,4.932c0.644,1.066,1.754,1.631,3.212,1.631c1.152,0,2.239-0.343,2.76-0.535l0.442,0.797
		C10.952,14.809,9.525,15.625,7.734,15.625z"/>
	<path fill="#FFFFFF" d="M4.397,7.987c-0.251,1.228-0.488,3.317,0.377,4.751c0.715,1.185,1.937,1.812,3.533,1.812
		c1.012,0,1.978-0.252,2.585-0.453l0.118,0.214c-0.64,0.381-1.826,0.939-3.276,0.939c-1.251,0-2.459-0.423-3.591-1.258
		c-2.255-1.663-1.931-4.764-1.692-6.005H4.397 M5.356,7.237h-3.5c0,0-1.479,4.909,1.842,7.358C5.125,15.647,6.514,16,7.734,16
		C10.214,16,12,14.546,12,14.546l-0.765-1.377c0,0-1.421,0.631-2.928,0.631c-1.084,0-2.213-0.326-2.891-1.449
		C4.334,10.558,5.356,7.237,5.356,7.237L5.356,7.237z"/>
</g>
<g>
	<polygon fill="#FBB03B" points="0.822,7.844 3.53,4.722 6.237,7.844 	"/>
	<path fill="#FFFFFF" d="M3.53,5.294l1.885,2.175h-0.71H2.352H1.644L3.53,5.294 M3.53,4.149L0,8.219h2.352h2.353h2.353L3.53,4.149
		L3.53,4.149z"/>
</g>
</svg>
