<?xml version="1.0" encoding="utf-8"?>
<svg version="1.1"
	 xmlns="http://www.w3.org/2000/svg" xmlns:xlink="http://www.w3.org/1999/xlink"
	 x="0px" y="0px" width="16px" height="16px" viewBox="0 0 16 16" enable-background="new 0 0 16 16" xml:space="preserve">
<defs>
</defs>
<g>
	<path fill="#CCCCCC" d="M8,15.625c-4.205,0-7.625-3.421-7.625-7.625c0-4.205,3.42-7.625,7.625-7.625
		c4.204,0,7.625,3.42,7.625,7.625C15.625,12.204,12.204,15.625,8,15.625z"/>
	<path fill="#FFFFFF" d="M8,0.75c3.998,0,7.25,3.252,7.25,7.25c0,3.998-3.252,7.25-7.25,7.25c-3.998,0-7.25-3.252-7.25-7.25
		C0.75,4.002,4.002,0.75,8,0.75 M8,0C3.583,0,0,3.58,0,8c0,4.417,3.583,8,8,8c4.419,0,8-3.583,8-8C16,3.58,12.419,0,8,0L8,0z"/>
</g>
<g>
	<g>
		<path fill="#FFFFFF" d="M9.893,1.345C8.286,0.797,5.445,0.306,4.661,2.386C3.797,4.675,7.075,6.584,8.619,7.404
			c1.795,0.954,5.007,3.611,2.437,5.546c-2.279,1.716-5.387,0.029-6.753-1.971c-0.461-0.675-2.314,0.038-1.775,0.826
			c2.25,3.293,8.258,4.651,10.859,0.893c1.184-1.709,0.324-3.613-1.116-4.861C10.831,6.59,8.988,5.972,7.597,4.678
			C7.101,4.216,6.732,3.643,6.544,2.994C6.146,1.619,8.182,2.385,8.76,2.583C9.529,2.845,11.035,1.735,9.893,1.345L9.893,1.345z"/>
	</g>
</g>
<g>
	<polygon fill="#2BA341" points="11.642,11.159 8.802,6.542 8.802,5.375 15.625,5.375 15.625,6.542 12.787,11.159 12.787,14.822 
		11.642,15.394 	"/>
	<path fill="#333333" d="M15.25,5.75v0.687l-2.727,4.437l-0.111,0.181v0.212v3.324l-0.396,0.197v-3.521v-0.212l-0.111-0.181
		L9.178,6.436V5.75H9.76H15.25 M16,5H9.76H8.427v1.649l2.839,4.617V16l1.896-0.946v-3.788L16,6.648V5L16,5z"/>
</g>
<line fill="#2BA341" stroke="#333333" stroke-width="0.25" stroke-miterlimit="10" x1="8.561" y1="6.438" x2="15.956" y2="6.438"/>
</svg>
