<?xml version="1.0" encoding="utf-8"?>
<svg version="1.1"
	 xmlns="http://www.w3.org/2000/svg" xmlns:xlink="http://www.w3.org/1999/xlink"
	 x="0px" y="0px" width="16px" height="16px" viewBox="-1.215 0 16 16" enable-background="new -1.215 0 16 16"
	 xml:space="preserve">
<defs>
</defs>
<g>
	<path fill="#00A99D" d="M4.931,15.625c-0.554,0-1.177-0.091-1.961-0.287c-0.755-0.189-1.678-1.009-2.256-1.606
		c1.02-0.251,2.948-0.861,3.696-2.016c0.79-1.22,2.008-1.793,2.244-1.896c1.176-0.509,1.434-1.265,1.86-2.519
		c0.368-1.082,2.396-5.737,2.901-6.892l1.791,0.245c-0.77,1.676-3.346,7.304-3.637,8.11c-0.139,0.383-0.213,0.969-0.298,1.647
		c-0.169,1.335-0.4,3.163-1.257,3.906C6.941,15.246,6.048,15.625,4.931,15.625z"/>
	<path fill="#FFFFFF" d="M11.645,0.82l1.01,0.138c-0.947,2.068-3.165,6.924-3.438,7.68C9.065,9.06,8.988,9.664,8.9,10.365
		c-0.161,1.274-0.382,3.021-1.13,3.669c-0.999,0.864-1.821,1.216-2.839,1.216c-0.522,0-1.116-0.088-1.87-0.276
		c-0.477-0.119-1.086-0.569-1.613-1.051c1.107-0.333,2.598-0.954,3.277-2.004c0.731-1.129,1.86-1.659,2.078-1.754
		c1.33-0.575,1.638-1.484,2.074-2.763C9.211,6.418,11.005,2.286,11.645,0.82 M11.185,0c0,0-2.597,5.92-3.019,7.16
		S7.535,9.031,6.505,9.477c-0.365,0.158-1.591,0.771-2.41,2.035C3.156,12.961,0,13.502,0,13.502s1.552,1.867,2.878,2.199
		C3.655,15.896,4.323,16,4.931,16c1.224,0,2.204-0.425,3.33-1.398c1.404-1.217,1.265-4.609,1.662-5.709
		c0.334-0.925,3.836-8.541,3.836-8.541L11.185,0L11.185,0z"/>
</g>
<path fill="none" stroke="#FFFFFF" stroke-width="0.25" stroke-miterlimit="10" d="M1.458,13.962c0,0,5.304-1.063,5.666-2.129"/>
<path fill="none" stroke="#FFFFFF" stroke-width="0.25" stroke-miterlimit="10" d="M1.572,14.494c0,0,4.96-0.342,5.779-1.064"/>
</svg>
