<?xml version="1.0" encoding="utf-8"?>
<svg version="1.1"
	 xmlns="http://www.w3.org/2000/svg" xmlns:xlink="http://www.w3.org/1999/xlink"
	 x="0px" y="0px" width="16px" height="16px" viewBox="0 0 16 16" enable-background="new 0 0 16 16" xml:space="preserve">
<defs>
</defs>
<g>
	<rect x="0.25" y="0.25" fill="#666666" width="15.5" height="15.5"/>
	<path fill="#FFFFFF" d="M15.5,0.5v15h-15v-15H15.5 M16,0H0v16h16V0L16,0z"/>
</g>
<g>
	<polygon fill="#EED303" points="3.685,2.2 9.729,2.175 8.922,5.517 11.727,9.514 9.41,11.357 3.864,10.09 2.635,6.644 	"/>
	<path fill="#FFFFFF" d="M9.729,2.175l-1.5,0.006l0.003,0.75l0.543-0.002L8.709,3.203l0.729,0.176c0,0,0.05-0.209,0.109-0.454l0,0
		L9.729,2.175L9.729,2.175z M6.729,2.188l-1.5,0.006l0.003,0.75l1.5-0.006L6.729,2.188L6.729,2.188z M3.729,2.2l0,0.01L3.685,2.2
		l0,0l0,0L3.35,3.617L4.08,3.79l0.335-1.417l0,0l0,0l0,0L3.729,2.21V2.2L3.729,2.2z M3.005,5.077L2.824,5.844
		C2.741,6.196,2.66,6.537,2.66,6.537l0.73,0.173l0.345-1.46L3.005,5.077L3.005,5.077z M3.808,7.701L3.102,7.953l0.504,1.413
		l0.707-0.252L3.808,7.701L3.808,7.701z M4.744,9.521l-0.167,0.731l0.106,0.024c0.001,0,0.002,0,0.003,0.001h0.001
		c0,0,0.001,0,0.002,0l0.003,0.001C4.695,10.28,4.697,10.28,4.7,10.281h0.003c0.002,0.001,0.005,0.002,0.008,0.002l0.001,0.001
		c0.363,0.082,1.327,0.303,1.327,0.303l0.167-0.731L4.744,9.521L4.744,9.521z M7.668,10.19l-0.167,0.73c0,0,0.143,0.033,0.339,0.078
		h0.003C7.848,11,7.852,11.001,7.855,11.002l0,0c0.004,0.001,0.009,0.002,0.014,0.003l0.002,0.001c0,0,0.001,0,0.002,0l0.001,0.001
		c0.001,0,0.001,0,0.002,0l0.001,0.001c0,0,0.001,0,0.002,0l0.003,0.001l0,0l0.007,0.001c0,0,0.001,0.001,0.001,0.001l1.072,0.245
		l0.167-0.731L7.668,10.19L7.668,10.19z M10.932,9.188l-1.173,0.935l0.467,0.586c0,0,0.083-0.065,0.204-0.162l0,0
		c0.007-0.006,0.014-0.011,0.021-0.017l0.007-0.006c0.001-0.001,0.003-0.002,0.004-0.003l0.002-0.002
		c0.002-0.001,0.003-0.002,0.004-0.003l0.001-0.001c0.001-0.001,0.002-0.001,0.003-0.002l0.004-0.004l0,0l0.003-0.002l0,0
		l0.921-0.732L10.932,9.188L10.932,9.188z M10.244,7.4L9.63,7.831l0.861,1.229l0.614-0.431L10.244,7.4L10.244,7.4z M8.357,4.662
		l-0.164,0.68L8.114,5.67l0.195,0.277l0.46,0.656l0.613-0.431L8.922,5.517l0,0l0,0l0,0l0.164-0.68L8.357,4.662L8.357,4.662z"/>
</g>
<rect x="10.223" y="9.638" transform="matrix(0.8174 -0.5761 0.5761 0.8174 -4.9028 8.6348)" fill="#FFFFFF" width="1.89" height="4.825"/>
<g>
	<polygon fill="#333333" points="7.002,6.478 13.156,10.66 10.38,12.719 9.201,13.587 	"/>
	<path fill="#FFFFFF" d="M7.677,7.389l4.832,3.284l-0.753,0.557l-1.598,1.187l-0.755,0.557L7.677,7.389 M6.328,5.565l2.671,8.637
		l1.605-1.183l1.6-1.188l1.602-1.185L6.328,5.565L6.328,5.565z"/>
</g>
</svg>
