<?xml version="1.0" encoding="utf-8"?>
<svg version="1.1"
	 xmlns="http://www.w3.org/2000/svg" xmlns:xlink="http://www.w3.org/1999/xlink"
	 x="0px" y="0px" width="16px" height="16px" viewBox="-1.5 -1.5 16 16" enable-background="new -1.5 -1.5 16 16"
	 xml:space="preserve">
<defs>
</defs>
<g>
	<rect fill="#808080" width="11" height="11"/>
	<path fill="#FFFFFF" d="M11,0H9.5v0.75h0.75V2H11V0L11,0z M8,0H6.5v0.75H8V0L8,0z M5,0H3.5v0.75H5V0L5,0z M2,0H0.5v0.75H2V0L2,0z
		 M0.75,1H0v1.5h0.75V1L0.75,1z M0.75,4H0v1.5h0.75V4L0.75,4z M0.75,7H0v1.5h0.75V7L0.75,7z M0.75,10H0v1h0.75l0,0l0,0l0,0V10
		L0.75,10z M3.5,10.25H2V11h1.5V10.25L3.5,10.25z M6.5,10.25H5V11h1.5V10.25L6.5,10.25z M9.5,10.25H8V11h1.5V10.25L9.5,10.25z
		 M11,9.5h-0.75V11H11V9.5L11,9.5z M11,6.5h-0.75V8H11V6.5L11,6.5z M11,3.5h-0.75V5H11V3.5L11,3.5z"/>
</g>
<g>
	<path fill="#C1272D" d="M11,14.125c-1.723,0-3.125-1.402-3.125-3.125S9.277,7.875,11,7.875S14.125,9.277,14.125,11
		S12.723,14.125,11,14.125z"/>
	<path fill="#FFFFFF" d="M11,8.25c1.517,0,2.75,1.233,2.75,2.75s-1.233,2.75-2.75,2.75S8.25,12.517,8.25,11S9.483,8.25,11,8.25
		 M11,7.5c-1.935,0-3.5,1.565-3.5,3.5c0,1.934,1.565,3.5,3.5,3.5s3.5-1.566,3.5-3.5C14.5,9.065,12.935,7.5,11,7.5L11,7.5z"/>
</g>
<line fill="#C1272D" stroke="#FFFFFF" stroke-width="0.75" stroke-miterlimit="10" x1="9.22" y1="13.472" x2="12.679" y2="8.574"/>
</svg>
