<?xml version="1.0" encoding="utf-8"?>
<svg version="1.1"
	 xmlns="http://www.w3.org/2000/svg" xmlns:xlink="http://www.w3.org/1999/xlink"
	 x="0px" y="0px" width="16px" height="16px" viewBox="-0.739 -0.125 16 16" enable-background="new -0.739 -0.125 16 16"
	 xml:space="preserve">
<defs>
</defs>
<path fill="#65A2C4" stroke="#FFFFFF" stroke-width="0.75" stroke-miterlimit="10" d="M14.146,1.319v13.112
	c0,0.52-3.083,0.943-6.886,0.943s-6.886-0.424-6.886-0.943V1.319"/>
<ellipse fill="#29ABE2" stroke="#FFFFFF" stroke-width="0.75" stroke-miterlimit="10" cx="7.261" cy="1.319" rx="6.886" ry="0.944"/>
<path fill="none" stroke="#FFFFFF" stroke-width="0.75" stroke-miterlimit="10" d="M14.146,10.06c0,0.523-3.083,0.945-6.886,0.945
	s-6.886-0.422-6.886-0.945"/>
<path fill="none" stroke="#FFFFFF" stroke-width="0.75" stroke-miterlimit="10" d="M14.146,5.69c0,0.521-3.083,0.944-6.886,0.944"/>
<path fill="none" stroke="#FFFFFF" stroke-width="0.75" stroke-miterlimit="10" d="M7.261,6.634c-3.803,0-6.886-0.423-6.886-0.944"
	/>
<path fill="#333333" d="M5.083,6.852C4.782,7.277,4.588,7.834,4.595,8.54l0.002,0.283l0.789,0.775l-2.96,3.012l-0.098-0.096
	l2.954-3.008l-0.67-0.462c-0.231-0.16-0.486-0.414-0.525-0.521C3.944,7.932,4.467,7.331,5.083,6.852z M8.508,9.302
	c-0.345,0.721-0.951,1.579-1.87,1.59c-0.208-0.006-0.566-0.318-0.777-0.621L5.39,9.604l0.687,0.672l0.283-0.001
	C7.375,10.266,8.067,9.854,8.508,9.302z"/>
<path fill="#333333" d="M2.435,13.58l2.864-2.916c0,0,0.614,0.89,1.249,0.91c0.034,0.001,0.065,0,0.096,0
	c2.139-0.021,2.895-3.077,2.895-3.077L8.465,7.443c0,0,0.019,2.13-2.111,2.149L5.279,8.538C5.261,6.407,7.391,6.39,7.391,6.39
	L6.796,5.801c0,0-0.119-0.117-0.477-0.466l0,0l0,0c0-0.001,0-0.001,0-0.001l0,0l0,0l0,0C6.317,5.333,6.317,5.333,6.317,5.333
	s-3.36,1.419-2.895,3.361C3.528,9.134,4.225,9.61,4.225,9.61l-2.864,2.914L2.435,13.58L2.435,13.58z M6.796,5.801
	c0,0-0.425-0.417-0.475-0.462L6.796,5.801L6.796,5.801z M6.321,5.339L6.321,5.339C6.321,5.336,6.321,5.336,6.321,5.339L6.321,5.339z
	 M6.321,5.336L6.321,5.336L6.321,5.336L6.321,5.336z M6.319,5.335L6.317,5.333L6.319,5.335L6.319,5.335L6.319,5.335L6.319,5.335
	C6.319,5.333,6.319,5.333,6.319,5.335L6.319,5.335L6.319,5.335L6.319,5.335L6.319,5.335z"/>
</svg>
