<?xml version="1.0" encoding="utf-8"?>
<svg version="1.1"
	 xmlns="http://www.w3.org/2000/svg" xmlns:xlink="http://www.w3.org/1999/xlink"
	 x="0px" y="0px" width="16px" height="16px" viewBox="0 -1 16 16" enable-background="new 0 -1 16 16" xml:space="preserve">
<defs>
</defs>
<g>
	<path fill="#00A99D" d="M1.154,14.625c-0.43,0-0.779-0.28-0.779-0.625V5c0-0.345,0.35-0.625,0.779-0.625h2.308
		c0.429,0,0.779,0.28,0.779,0.625v9c0,0.345-0.35,0.625-0.779,0.625H1.154z"/>
	<path fill="#FFFFFF" d="M3.462,4.75C3.69,4.75,3.866,4.884,3.866,5v9c0,0.115-0.176,0.25-0.404,0.25H1.154
		c-0.228,0-0.404-0.135-0.404-0.25V5c0-0.116,0.177-0.25,0.404-0.25H3.462 M3.462,4H1.154C0.517,4,0,4.448,0,5v9
		c0,0.553,0.517,1,1.154,1h2.308c0.637,0,1.154-0.447,1.154-1V5C4.616,4.448,4.1,4,3.462,4L3.462,4z"/>
</g>
<g>
	<path fill="#00776B" d="M6.846,14.625c-0.429,0-0.779-0.28-0.779-0.625V3c0-0.345,0.35-0.625,0.779-0.625h2.308
		c0.429,0,0.778,0.28,0.778,0.625v11c0,0.345-0.35,0.625-0.778,0.625H6.846z"/>
	<path fill="#FFFFFF" d="M9.154,2.75c0.228,0,0.403,0.134,0.403,0.25v11c0,0.118-0.173,0.25-0.403,0.25H6.846
		c-0.228,0-0.404-0.135-0.404-0.25V3c0-0.116,0.176-0.25,0.404-0.25H9.154 M9.154,2H6.846C6.209,2,5.692,2.448,5.692,3v11
		c0,0.553,0.517,1,1.154,1h2.308c0.638,0,1.153-0.447,1.153-1V3C10.308,2.448,9.792,2,9.154,2L9.154,2z"/>
</g>
<g>
	<path fill="#00423C" d="M12.538,14.625c-0.43,0-0.779-0.28-0.779-0.625V1c0-0.345,0.35-0.625,0.779-0.625h2.309
		c0.429,0,0.778,0.28,0.778,0.625v13c0,0.345-0.35,0.625-0.778,0.625H12.538z"/>
	<path fill="#FFFFFF" d="M14.847,0.75c0.228,0,0.403,0.134,0.403,0.25v13c0,0.115-0.176,0.25-0.403,0.25h-2.309
		c-0.228,0-0.404-0.135-0.404-0.25V1c0-0.116,0.177-0.25,0.404-0.25H14.847 M14.847,0h-2.309c-0.638,0-1.154,0.448-1.154,1v13
		c0,0.553,0.517,1,1.154,1h2.309C15.483,15,16,14.553,16,14V1C16,0.448,15.483,0,14.847,0L14.847,0z"/>
</g>
</svg>
