<?xml version="1.0" encoding="utf-8"?>
<svg version="1.1"
	 xmlns="http://www.w3.org/2000/svg" xmlns:xlink="http://www.w3.org/1999/xlink"
	 x="0px" y="0px" width="16px" height="16px" viewBox="0 0 16 16" enable-background="new 0 0 16 16" xml:space="preserve">
<defs>
</defs>
<g>
	<path fill="#0E6B99" d="M8,15.625c-4.205,0-7.625-3.42-7.625-7.624c0-4.205,3.42-7.626,7.625-7.626
		c4.204,0,7.625,3.421,7.625,7.626C15.625,12.205,12.204,15.625,8,15.625z"/>
	<path fill="#FFFFFF" d="M8,0.75c3.998,0,7.25,3.253,7.25,7.251c0,3.997-3.252,7.249-7.25,7.249c-3.998,0-7.25-3.252-7.25-7.249
		C0.75,4.003,4.002,0.75,8,0.75 M8,0C3.583,0,0,3.583,0,8.001C0,12.417,3.583,16,8,16c4.419,0,8-3.583,8-7.999
		C16,3.583,12.419,0,8,0L8,0z"/>
</g>
<polyline fill="none" stroke="#FFFFFF" stroke-width="0.75" stroke-linecap="round" stroke-miterlimit="10" points="4.408,4.496 
	7.233,13.444 9.156,4.695 13.111,4.695 "/>
<g>
	<circle fill="#29ABE2" cx="4.616" cy="4.615" r="0.811"/>
	<path fill="#FFFFFF" d="M4.616,4.179c0.24,0,0.435,0.196,0.435,0.438c0,0.24-0.195,0.435-0.435,0.435
		c-0.241,0-0.438-0.195-0.438-0.435C4.179,4.375,4.375,4.179,4.616,4.179 M4.616,3.429c-0.656,0-1.188,0.531-1.188,1.188
		c0,0.654,0.531,1.185,1.188,1.185c0.655,0,1.185-0.531,1.185-1.185C5.801,3.96,5.271,3.429,4.616,3.429L4.616,3.429z"/>
</g>
<g>
	<circle fill="#29ABE2" cx="9.361" cy="4.615" r="0.811"/>
	<path fill="#FFFFFF" d="M9.361,4.179c0.245,0,0.438,0.192,0.438,0.438c0,0.24-0.196,0.435-0.438,0.435
		c-0.24,0-0.435-0.195-0.435-0.435C8.926,4.375,9.121,4.179,9.361,4.179 M9.361,3.429c-0.654,0-1.185,0.531-1.185,1.188
		c0,0.654,0.531,1.185,1.185,1.185c0.659,0,1.188-0.531,1.188-1.185C10.549,3.96,10.021,3.429,9.361,3.429L9.361,3.429z"/>
</g>
<g>
	<circle fill="#29ABE2" cx="12.526" cy="4.615" r="0.811"/>
	<path fill="#FFFFFF" d="M12.526,4.179c0.245,0,0.438,0.192,0.438,0.438c0,0.24-0.196,0.435-0.438,0.435s-0.438-0.195-0.438-0.435
		C12.089,4.375,12.285,4.179,12.526,4.179 M12.526,3.429c-0.656,0-1.188,0.531-1.188,1.188c0,0.654,0.531,1.185,1.188,1.185
		c0.659,0,1.188-0.531,1.188-1.185C13.714,3.96,13.186,3.429,12.526,3.429L12.526,3.429z"/>
</g>
<g>
	<path fill="#E6E6E6" d="M12.5,15.625c-1.723,0-3.125-1.402-3.125-3.126c0-1.723,1.402-3.124,3.125-3.124s3.125,1.401,3.125,3.124
		C15.625,14.223,14.223,15.625,12.5,15.625z"/>
	<path fill="#FFFFFF" d="M12.5,9.75c1.517,0,2.75,1.233,2.75,2.749c0,1.517-1.233,2.751-2.75,2.751s-2.75-1.234-2.75-2.751
		C9.75,10.983,10.983,9.75,12.5,9.75 M12.5,9C10.566,9,9,10.566,9,12.499C9,14.433,10.566,16,12.5,16s3.5-1.567,3.5-3.501
		C16,10.566,14.434,9,12.5,9L12.5,9z"/>
</g>
<line fill="none" stroke="#333333" stroke-width="0.75" stroke-linecap="round" stroke-miterlimit="10" x1="10.959" y1="11.021" x2="13.918" y2="13.979"/>
<line fill="none" stroke="#333333" stroke-width="0.75" stroke-linecap="round" stroke-miterlimit="10" x1="13.918" y1="11.021" x2="10.959" y2="13.979"/>
<line fill="none" stroke="#333333" stroke-width="0.75" stroke-linecap="round" stroke-miterlimit="10" x1="12.459" y1="10.527" x2="12.459" y2="14.473"/>
<line fill="none" stroke="#333333" stroke-width="0.75" stroke-linecap="round" stroke-miterlimit="10" x1="10.527" y1="12.5" x2="14.473" y2="12.5"/>
</svg>
