<?xml version="1.0" encoding="utf-8"?>
<svg version="1.1"
	 xmlns="http://www.w3.org/2000/svg" xmlns:xlink="http://www.w3.org/1999/xlink"
	 x="0px" y="0px" width="16px" height="16px" viewBox="0 0 16 16" enable-background="new 0 0 16 16" xml:space="preserve">
<defs>
</defs>
<g>
	<rect x="0.25" y="0.25" fill="#CCCCCC" width="15.5" height="15.5"/>
	<path fill="#FFFFFF" d="M15.5,0.5v15h-15v-15H15.5 M16,0H0v16h16V0L16,0z"/>
</g>
<g>
	<rect x="2" y="2" fill="#FFFFFF" width="9.587" height="3.5"/>
	<path fill="#F7931E" d="M11.587,2h-1.5v0.75h0.75v1.424h0.75V2L11.587,2z M8.587,2h-1.5v0.75h1.5V2L8.587,2z M5.587,2h-1.5v0.75
		h1.5V2L5.587,2z M2.75,2H2v0.75l0,0c0,0.097,0,0.163,0,0.163h0.75V2L2.75,2z M2.75,4.413H2V5.5h0.75l0,0l0,0l0,0V4.413L2.75,4.413z
		 M5.413,4.75h-1.5V5.5h1.5V4.75L5.413,4.75z M8.413,4.75h-1.5V5.5h1.5V4.75L8.413,4.75z M11.413,4.75h-1.5V5.5h1.5V4.75
		L11.413,4.75z"/>
</g>
<g>
	<rect x="2" y="6.41" fill="#FFFFFF" width="9.585" height="3.5"/>
	<path fill="#FBB03B" d="M11.585,6.41h-1.5v0.75h0.75v1.42h0.75V6.41L11.585,6.41z M8.585,6.41h-1.5v0.75h1.5V6.41L8.585,6.41z
		 M5.585,6.41h-1.5v0.75h1.5V6.41L5.585,6.41z M2.75,6.41H2v0.75l0,0c0,0.098,0,0.165,0,0.165h0.75V6.41L2.75,6.41z M2.75,8.825H2
		V9.91h0.75l0,0l0,0l0,0V8.825L2.75,8.825z M5.415,9.16h-1.5v0.75h1.5V9.16L5.415,9.16z M8.415,9.16h-1.5v0.75h1.5V9.16L8.415,9.16z
		 M11.415,9.16h-1.5v0.75h1.5V9.16L11.415,9.16z"/>
</g>
<g>
	<rect x="2" y="10.821" fill="#FFFFFF" width="9.588" height="3.5"/>
	<path fill="#FCEE21" d="M11.588,10.821h-1.5v0.75h0.75v1.426h0.75V10.821L11.588,10.821z M8.588,10.821h-1.5v0.75h1.5V10.821
		L8.588,10.821z M5.588,10.821h-1.5v0.75h1.5V10.821L5.588,10.821z M2.75,10.821H2v0.75l0,0c0,0.097,0,0.162,0,0.162h0.75V10.821
		L2.75,10.821z M2.75,13.233H2v1.088h0.75l0,0l0,0l0,0V13.233L2.75,13.233z M5.412,13.571h-1.5v0.75h1.5V13.571L5.412,13.571z
		 M8.412,13.571h-1.5v0.75h1.5V13.571L8.412,13.571z M11.412,13.571h-1.5v0.75h1.5V13.571L11.412,13.571z"/>
</g>
<rect x="11.296" y="10.072" transform="matrix(0.8172 -0.5763 0.5763 0.8172 -4.9578 9.3368)" fill="#333333" width="1.889" height="4.825"/>
<g>
	<polygon fill="#FFFFFF" points="8.075,6.911 14.229,11.094 11.453,13.152 10.274,14.021 	"/>
	<path fill="#333333" d="M8.75,7.823l4.831,3.284l-0.752,0.556l-1.598,1.187l-0.755,0.557L8.75,7.823 M7.4,5.999l2.672,8.637
		l1.604-1.183l1.6-1.188l1.601-1.185L7.4,5.999L7.4,5.999z"/>
</g>
</svg>
