<?xml version="1.0" encoding="utf-8"?>
<svg version="1.1"
	 xmlns="http://www.w3.org/2000/svg" xmlns:xlink="http://www.w3.org/1999/xlink"
	 x="0px" y="0px" width="16px" height="16px" viewBox="-1 0 16 16" enable-background="new -1 0 16 16" xml:space="preserve">
<defs>
</defs>
<g>
	<polygon fill="#662D91" points="2.326,4.538 0.806,3.056 2.906,2.751 3.846,0.847 4.786,2.751 6.886,3.056 5.366,4.538 5.725,6.63 
		3.846,5.642 1.967,6.63 	"/>
	<path fill="#FFFFFF" d="M3.846,1.695l0.516,1.046l0.174,0.354l0.39,0.057L6.08,3.318L5.246,4.132L4.963,4.407L5.03,4.796
		l0.197,1.149L4.195,5.402L3.846,5.219L3.497,5.402L2.465,5.945l0.197-1.149l0.066-0.389L2.446,4.132L1.612,3.318l1.153-0.167
		l0.39-0.057L3.33,2.741L3.846,1.695 M3.846,0L2.657,2.409L0,2.794l1.923,1.875L1.469,7.316l2.377-1.25l2.377,1.25L5.769,4.669
		l1.923-1.875L5.035,2.409L3.846,0L3.846,0z"/>
</g>
<g>
	<path fill="#C09EDD" d="M8.476,15.337c-0.962-2.645-0.342-2.929,0.569-3.345c0.555-0.254,1.241-0.568,1.658-1.4
		c0.416,0.832,1.104,1.146,1.657,1.4c0.911,0.416,1.531,0.7,0.57,3.344c-0.729-0.638-1.477-0.961-2.227-0.961
		C9.953,14.375,9.206,14.698,8.476,15.337z"/>
	<path fill="#FFFFFF" d="M10.703,11.289c0.457,0.566,1.04,0.833,1.501,1.044c0.716,0.327,1.153,0.527,0.547,2.383
		C12.084,14.24,11.398,14,10.704,14c-0.695,0-1.381,0.24-2.049,0.716c-0.607-1.855-0.17-2.056,0.546-2.383
		C9.663,12.122,10.246,11.855,10.703,11.289 M10.703,8.685c0,4.79-4.847,1.059-2.377,7.315c0.793-0.833,1.586-1.25,2.378-1.25
		s1.584,0.417,2.376,1.25C15.549,9.743,10.703,13.475,10.703,8.685L10.703,8.685z"/>
</g>
<path fill="none" stroke="#FFFFFF" stroke-width="0.5" stroke-miterlimit="10" d="M6.822,4c2.256,0.055,4.038,1.993,3.981,4.335"/>
<polygon stroke="#FFFFFF" stroke-width="0.5" stroke-miterlimit="10" points="11.201,7.367 12.287,7.371 10.646,9.32 9.023,7.358 
	10.096,7.363 "/>
</svg>
