<?xml version="1.0" encoding="utf-8"?>
<svg version="1.1"
	 xmlns="http://www.w3.org/2000/svg" xmlns:xlink="http://www.w3.org/1999/xlink"
	 x="0px" y="0px" width="16px" height="16px" viewBox="0 0 16 16" enable-background="new 0 0 16 16" xml:space="preserve">
<defs>
</defs>
<g>
	<polygon fill="#FBB03B" points="6.728,11.071 3.216,12.768 4.854,9.201 1.155,7.933 4.854,6.661 3.215,3.095 6.728,4.79 8,1.139 
		9.272,4.79 12.784,3.095 11.146,6.661 14.846,7.933 11.146,9.201 12.784,12.768 9.272,11.071 8,14.724 	"/>
	<path fill="#FFFFFF" d="M8,2.278l0.78,2.238l0.276,0.794l0.758-0.366l2.194-1.059l-1.03,2.242l-0.346,0.753l0.783,0.27l2.274,0.782
		l-2.273,0.78l-0.784,0.269l0.346,0.754l1.029,2.24l-2.193-1.06l-0.758-0.365L8.78,11.345L8,13.584l-0.78-2.239l-0.276-0.794
		l-0.758,0.365l-2.194,1.06l1.03-2.24l0.346-0.754L4.583,8.712L2.31,7.933l2.274-0.782l0.784-0.27L5.021,6.128l-1.03-2.242
		l2.195,1.059l0.757,0.366L7.22,4.517L8,2.278 M8,0L6.512,4.27L2.439,2.305l1.9,4.137L0,7.934l4.34,1.488l-1.9,4.137l4.072-1.967
		L8,15.863l1.488-4.271l4.072,1.967l-1.9-4.137L16,7.934l-4.34-1.492l1.9-4.137L9.488,4.27L8,0L8,0z"/>
</g>
<g>
	<polygon fill="#FBB03B" points="7.053,10.338 4.432,11.604 5.654,8.944 2.905,8.001 5.654,7.056 4.432,4.395 7.053,5.659 8,2.943 
		8.946,5.659 11.568,4.395 10.346,7.056 13.095,8.001 10.346,8.944 11.567,11.604 8.946,10.338 8,13.056 	"/>
	<path fill="#FBB03B" d="M8,4.083l0.454,1.303L8.73,6.179l0.758-0.365l1.304-0.629l-0.614,1.338L9.832,7.276l0.783,0.27l1.325,0.456
		l-1.324,0.454L9.832,8.724l0.346,0.754l0.613,1.335l-1.303-0.63L8.73,9.817l-0.277,0.794L8,11.916l-0.454-1.305L7.269,9.817
		l-0.758,0.365l-1.303,0.63l0.614-1.335l0.346-0.754L5.384,8.455L4.06,8.001l1.325-0.456l0.783-0.27L5.822,6.523L5.208,5.186
		l1.304,0.629l0.757,0.365l0.276-0.793L8,4.083 M8,1.804L6.837,5.139L3.656,3.604l1.485,3.231L1.75,8.002l3.391,1.162l-1.485,3.231
		l3.182-1.537L8,14.196l1.162-3.338l3.182,1.537l-1.484-3.231l3.391-1.162l-3.391-1.166l1.484-3.231L9.162,5.139L8,1.804L8,1.804z"
		/>
</g>
<g>
	<polygon fill="#FFFFFF" points="7.782,8.479 7.163,8.769 7.452,8.149 6.837,7.932 7.452,7.714 7.163,7.095 7.782,7.384 8,6.769 
		8.218,7.384 8.837,7.095 8.548,7.714 9.163,7.932 8.548,8.149 8.837,8.769 8.218,8.479 8,9.095 	"/>
	<polygon fill="#FFFFFF" points="8,5.646 7.566,6.869 6.385,6.316 6.938,7.498 5.715,7.932 6.938,8.365 6.385,9.547 7.566,8.994 
		8,10.217 8.434,8.994 9.615,9.547 9.063,8.365 10.285,7.932 9.063,7.498 9.615,6.316 8.434,6.869 8,5.646 	"/>
</g>
</svg>
