<?xml version="1.0" encoding="utf-8"?>
<svg version="1.1"
	 xmlns="http://www.w3.org/2000/svg" xmlns:xlink="http://www.w3.org/1999/xlink"
	 x="0px" y="0px" width="16px" height="16px" viewBox="-0.568 -0.504 16 16" enable-background="new -0.568 -0.504 16 16"
	 xml:space="preserve">
<defs>
</defs>
<g>
	<path fill="#4D4D4D" d="M9.598,9.731C9.493,9.724,9.266,9.582,9.02,9.36h0.069c0.926-0.009,1.688-0.191,2.313-0.466
		C10.907,9.379,10.308,9.72,9.598,9.731z M5.504,5.91C5.398,5.8,5.326,5.71,5.306,5.667C5.209,5.262,5.363,4.832,5.643,4.418
		C5.545,4.864,5.499,5.337,5.504,5.835L5.504,5.91z"/>
	<path fill="#FFFFFF" d="M6.767,2.763C5.646,3.632,4.696,4.726,4.956,5.802C5.026,5.995,5.49,6.457,5.91,6.749l1.217,0.839
		l-5.37,5.468l0.178,0.174l5.381-5.475L5.883,6.346L5.879,5.831C5.866,4.548,6.218,3.535,6.767,2.763L6.767,2.763z M12.99,7.216
		c-0.801,1.003-2.059,1.753-3.902,1.77L8.574,8.987l-1.25-1.222l0.856,1.21c0.385,0.552,1.035,1.119,1.412,1.131
		C11.264,10.086,12.363,8.524,12.99,7.216L12.99,7.216z"/>
</g>
<g>
	<path fill="#4D4D4D" d="M0.53,13.069L5.787,7.72L5.418,7.467C4.974,7.163,4.227,6.501,4.113,6.023
		c-0.676-2.819,3.75-5.077,4.816-5.575L9.063,0.58l-0.001,0C9.546,1.064,9.89,1.431,9.892,1.433l0.366,0.363
		C9.623,1.823,8.806,2,8.184,2.627c-0.594,0.6-0.89,1.489-0.88,2.644l0.001,0.155L9.48,7.561l0.155-0.001
		c1.274-0.011,2.216-0.396,2.798-1.146c0.478-0.614,0.615-1.353,0.631-1.949l1.379,1.398c-0.285,0.961-1.694,5.078-4.846,5.107
		l-0.109,0.001c-0.837-0.025-1.741-1.086-2.022-1.492L7.208,9.105l-5.261,5.356L0.53,13.069z"/>
	<path fill="#FFFFFF" d="M8.849,0.897c0.259,0.26,0.474,0.481,0.613,0.628C8.851,1.668,8.326,1.951,7.917,2.364
		c-0.667,0.673-1,1.652-0.988,2.911l0.003,0.311l0.222,0.218L9.107,7.72l0.222,0.217L9.64,7.934
		c1.394-0.012,2.434-0.446,3.091-1.291c0.331-0.426,0.516-0.904,0.613-1.362l0.676,0.686c-0.376,1.179-1.704,4.603-4.418,4.628
		H9.537H9.451c-0.53-0.017-1.3-0.788-1.677-1.329L7.259,8.518L6.622,9.166l-4.68,4.766l-0.881-0.866l4.681-4.763l0.628-0.639
		l-0.74-0.506C5.209,6.87,4.557,6.27,4.478,5.936C3.956,3.763,7.123,1.731,8.849,0.897 M9.01,0c0,0-6.108,2.58-5.262,6.11
		c0.191,0.8,1.458,1.666,1.458,1.666L0,13.074l1.951,1.918l5.206-5.301c0,0,1.116,1.617,2.271,1.653
		c0.021,0.001,0.041,0.001,0.061,0.001c0.039,0,0.075-0.001,0.113-0.001c3.889-0.036,5.262-5.591,5.262-5.591l-2.265-2.296
		c0,0,0.905,3.693-2.966,3.726L7.679,5.268c-0.024-2.69,1.708-3.101,2.766-3.101c0.466,0,0.802,0.079,0.802,0.079l-1.082-1.069
		c0,0-0.348-0.372-0.838-0.861L9.016,0.012c0.027,0.025,0.116,0.111,0.227,0.219C9.169,0.158,9.093,0.082,9.014,0.005
		c0-0.003,0-0.003,0-0.003C9.01,0,9.01,0,9.01,0L9.01,0z M9.014,0.005L9.01,0L9.014,0.005c0-0.001,0-0.002,0-0.002
		S9.014,0.003,9.014,0.005L9.014,0.005z M9.016,0.012c0-0.002,0-0.003,0-0.003S9.016,0.01,9.016,0.012L9.016,0.012z M9.242,0.231
		C9.271,0.259,9.3,0.288,9.327,0.315l0.552,0.537C9.877,0.85,9.5,0.481,9.242,0.231L9.242,0.231z M9.879,0.853L9.879,0.853
		L9.879,0.853z"/>
</g>
</svg>
