<?xml version="1.0" encoding="utf-8"?>
<svg version="1.1"
	 xmlns="http://www.w3.org/2000/svg" xmlns:xlink="http://www.w3.org/1999/xlink"
	 x="0px" y="0px" width="16px" height="16px" viewBox="0 0 16 16" enable-background="new 0 0 16 16" xml:space="preserve">
<defs>
</defs>
<polygon fill="#00A99D" stroke="#FFFFFF" stroke-width="0.75" stroke-miterlimit="10" points="7.517,10.92 7.517,7.5 10.936,7.5 
	9.795,8.639 10.936,9.779 9.795,10.92 8.657,9.781 "/>
<polygon fill="#00A99D" stroke="#FFFFFF" stroke-width="0.75" stroke-miterlimit="10" points="15.5,12.063 15.5,15.484 
	12.076,15.484 13.219,14.342 12.076,13.203 13.219,12.063 14.357,13.203 "/>
<polygon fill="#00A99D" stroke="#FFFFFF" stroke-width="0.75" stroke-miterlimit="10" points="12.078,7.5 15.5,7.5 15.5,10.92 
	14.357,9.779 13.219,10.92 12.078,9.779 13.219,8.639 "/>
<polygon fill="#00A99D" stroke="#FFFFFF" stroke-width="0.75" stroke-miterlimit="10" points="10.92,15.482 7.5,15.482 7.5,12.059 
	8.64,13.201 9.779,12.061 10.92,13.201 9.781,14.34 "/>
<g>
	<path fill="#00A99D" d="M5.08,15.625c-0.262,0-0.511-0.062-0.686-0.167c-0.113-0.068-0.183-0.149-0.183-0.212L4.213,3.175
		c0-0.132,0.332-0.378,0.872-0.378c0.405,0,0.684,0.137,0.801,0.254C5.917,3.083,5.955,3.13,5.954,3.176L5.95,15.246
		C5.95,15.379,5.619,15.625,5.08,15.625z"/>
	<path fill="#FFFFFF" d="M5.087,3.172c0.242,0,0.413,0.063,0.492,0.112L5.575,15.138c-0.079,0.049-0.25,0.112-0.494,0.112
		c-0.243,0-0.415-0.064-0.494-0.113L4.588,3.286c0.079-0.049,0.251-0.114,0.497-0.114H5.087 M5.087,2.422c-0.001,0-0.002,0-0.003,0
		c-0.689,0-1.245,0.337-1.247,0.753l-0.001,12.07C3.835,15.663,4.393,15.999,5.08,16c0.69,0,1.245-0.336,1.245-0.754L6.329,3.178
		C6.332,2.76,5.775,2.422,5.087,2.422L5.087,2.422z"/>
</g>
<g>
	<polygon fill="#00A99D" points="0.375,5.67 0.375,0.375 10.896,0.375 15.275,3.022 10.896,5.67 	"/>
	<path fill="#FFFFFF" d="M10.791,0.75l3.76,2.272l-3.76,2.273H0.75V0.75H10.791 M11,0H0v6.045h11l5-3.023L11,0L11,0z"/>
</g>
</svg>
