<?xml version="1.0" encoding="utf-8"?>
<svg version="1.1"
	 xmlns="http://www.w3.org/2000/svg" xmlns:xlink="http://www.w3.org/1999/xlink"
	 x="0px" y="0px" width="16px" height="16px" viewBox="0 0 16 16" enable-background="new 0 0 16 16" xml:space="preserve">
<defs>
</defs>
<g>
	<path fill="#E6E6E6" d="M1.231,15.75c-0.541,0-0.981-0.44-0.981-0.981V1.231c0-0.541,0.44-0.981,0.981-0.981h13.538
		c0.541,0,0.981,0.44,0.981,0.981v13.538c0,0.541-0.44,0.981-0.981,0.981H1.231z"/>
	<path fill="#FFFFFF" d="M14.769,0.5c0.403,0,0.731,0.328,0.731,0.731v13.538c0,0.403-0.328,0.731-0.731,0.731H1.231
		c-0.403,0-0.731-0.328-0.731-0.731V1.231C0.5,0.828,0.828,0.5,1.231,0.5H14.769 M14.769,0H1.231C0.551,0,0,0.551,0,1.231v13.538
		C0,15.45,0.551,16,1.231,16h13.538C15.45,16,16,15.45,16,14.769V1.231C16,0.551,15.45,0,14.769,0L14.769,0z"/>
</g>
<polyline fill="none" stroke="#4D4D4D" stroke-width="0.75" stroke-linecap="round" stroke-miterlimit="10" points="2.459,2.343 
	6.171,13.62 8.73,2.605 13.953,2.605 "/>
<g>
	<circle fill="#CDA2F2" cx="2.501" cy="2.5" r="1.125"/>
	<path fill="#4D4D4D" d="M2.501,1.75c0.413,0,0.749,0.337,0.749,0.752c0,0.413-0.336,0.749-0.749,0.749
		c-0.415,0-0.751-0.336-0.751-0.749C1.75,2.087,2.087,1.75,2.501,1.75 M2.501,1C1.672,1,1,1.672,1,2.502C1,3.329,1.672,4,2.501,4
		C3.33,4,4,3.329,4,2.502C4,1.672,3.33,1,2.501,1L2.501,1z"/>
</g>
<g>
	<circle fill="#CDA2F2" cx="8.756" cy="2.5" r="1.125"/>
	<path fill="#4D4D4D" d="M8.756,1.75c0.415,0,0.752,0.337,0.752,0.752c0,0.413-0.337,0.749-0.752,0.749
		c-0.413,0-0.748-0.336-0.748-0.749C8.008,2.087,8.343,1.75,8.756,1.75 M8.756,1C7.928,1,7.258,1.672,7.258,2.502
		c0,0.827,0.67,1.499,1.498,1.499c0.832,0,1.502-0.672,1.502-1.499C10.258,1.672,9.588,1,8.756,1L8.756,1z"/>
</g>
<g>
	<circle fill="#CDA2F2" cx="13.756" cy="2.499" r="1.124"/>
	<path fill="#4D4D4D" d="M13.756,1.75c0.415,0,0.752,0.336,0.752,0.75c0,0.412-0.337,0.748-0.752,0.748
		c-0.412,0-0.748-0.335-0.748-0.748C13.008,2.086,13.344,1.75,13.756,1.75 M13.756,1c-0.828,0-1.498,0.671-1.498,1.5
		c0,0.826,0.67,1.498,1.498,1.498c0.834,0,1.502-0.671,1.502-1.498C15.258,1.671,14.59,1,13.756,1L13.756,1z"/>
</g>
<g display="none">
	<path display="inline" fill="#662D91" d="M11.25,14.747c-0.332-0.018-0.996-0.138-1.642-0.753
		c-0.712-0.679-0.778-1.922-0.773-2.433h0.874C9.651,12,9.585,12.834,9.788,13.446c0.269,0.808,1.057,1.031,1.462,1.093V14.747z"/>
	<path display="inline" fill="#FFFFFF" d="M9.429,11.812c-0.045,0.483-0.06,1.168,0.122,1.714c0.003,0.009,0.006,0.018,0.009,0.025
		c-0.363-0.532-0.454-1.269-0.472-1.739H9.429 M10.001,11.312H8.594c0,0-0.166,1.903,0.841,2.863c0.776,0.74,1.581,0.825,1.91,0.825
		c0.099,0,0.154-0.008,0.154-0.008v-0.68c0,0-1.166-0.018-1.475-0.945C9.76,12.568,10.001,11.312,10.001,11.312L10.001,11.312z"/>
</g>
<g display="none">
	<polygon display="inline" fill="#662D91" points="8.548,11.561 9.301,10.693 10.053,11.561 	"/>
	<polygon display="inline" fill="#FFFFFF" points="9.301,10.312 8,11.811 8.866,11.811 9.734,11.811 10.601,11.811 9.301,10.312 	
		"/>
</g>
<g display="none">
	<path display="inline" fill="#662D91" d="M13.291,11.438c0.058-0.438,0.124-1.271-0.079-1.884
		c-0.269-0.809-1.056-1.032-1.462-1.093V8.253c0.333,0.018,0.996,0.139,1.641,0.754c0.713,0.679,0.779,1.921,0.774,2.432H13.291z"/>
	<path display="inline" fill="#FFFFFF" d="M13.44,9.452c0.363,0.532,0.454,1.267,0.472,1.736h-0.341
		c0.045-0.483,0.06-1.167-0.122-1.712C13.446,9.468,13.443,9.46,13.44,9.452 M11.652,8C11.556,8,11.5,8.008,11.5,8.008v0.681
		c0,0,1.166,0.017,1.475,0.945c0.266,0.798,0.024,2.055,0.024,2.055h1.407c0,0,0.165-1.902-0.843-2.862
		C12.787,8.085,11.981,8,11.652,8L11.652,8z"/>
</g>
<g display="none">
	<polygon display="inline" fill="#662D91" points="12.947,11.439 14.452,11.439 13.699,12.307 	"/>
	<polygon display="inline" fill="#FFFFFF" points="15,11.189 14.134,11.189 13.266,11.189 12.399,11.189 13.699,12.688 15,11.189 	
		"/>
</g>
</svg>
