<?xml version="1.0" encoding="utf-8"?>
<svg version="1.1"
	 xmlns="http://www.w3.org/2000/svg" xmlns:xlink="http://www.w3.org/1999/xlink"
	 x="0px" y="0px" width="16px" height="16px" viewBox="0 0 16 16" enable-background="new 0 0 16 16" xml:space="preserve">
<defs>
</defs>
<g>
	<path fill="#CCCCCC" d="M2.502,14.873c-0.317,0-0.592-0.065-0.816-0.195c-0.608-0.353-0.929-1.086-0.88-2.012
		C0.87,11.452,1.637,9.725,3.59,8.852c3.334-1.489,3.722-1.881,4.623-3.646C8.42,4.799,8.58,4.296,8.749,3.765
		c0.519-1.631,1.056-3.318,3.019-3.318c0.178,0,0.365,0.013,0.565,0.042c1.544,0.216,2.625,1.964,2.858,3.5
		c0.201,1.329-0.184,2.36-1.029,2.758c-0.864,0.408-1.766,0.515-2.638,0.618c-1.535,0.182-3.123,0.37-3.853,2.39
		C6.457,13.114,4.152,14.873,2.502,14.873z"/>
	<path fill="#FFFFFF" d="M11.768,0.821L11.768,0.821c0.161,0,0.334,0.013,0.514,0.038c1.364,0.191,2.326,1.783,2.539,3.185
		c0.065,0.433,0.201,1.882-0.818,2.362c-0.809,0.381-1.68,0.485-2.521,0.584C9.908,7.177,8.127,7.388,7.318,9.626
		c-1.292,3.575-3.588,4.872-4.816,4.872c-0.247,0-0.464-0.05-0.628-0.145c-0.482-0.28-0.735-0.888-0.694-1.667
		c0.063-1.197,0.88-2.74,2.563-3.492C7.026,7.728,7.564,7.3,8.547,5.376c0.221-0.435,0.385-0.951,0.559-1.498
		C9.693,2.032,10.196,0.821,11.768,0.821 M11.768,0.071c-2.951,0-3.089,3.392-3.889,4.965C7.022,6.713,6.667,7.067,3.437,8.51
		c-3.223,1.439-3.841,5.39-1.939,6.492c0.281,0.163,0.623,0.246,1.004,0.246c1.701,0,4.184-1.663,5.522-5.367
		c1.025-2.835,3.775-1.606,6.298-2.796c2.53-1.191,1.067-6.548-1.938-6.968C12.166,0.085,11.961,0.071,11.768,0.071L11.768,0.071z"
		/>
</g>
<g>
	<path fill="#662D91" d="M1.586,7.068c-0.569,0-0.972-0.113-1.076-0.303c-0.142-0.26-0.173-0.545-0.088-0.824
		c0.132-0.434,0.522-0.83,1.128-1.146c0.849-0.442,1.688-1.934,2.189-3.182c0.312-0.775,0.89-1.238,1.547-1.238
		c0.593,0,1.286,0.418,1.404,1.335c0.171,1.32-0.589,3.575-1.825,4.503C4.349,6.601,2.771,7.068,1.586,7.068z"/>
	<path fill="#FFFFFF" d="M5.287,0.75L5.287,0.75c0.449,0,0.942,0.312,1.032,1.008c0.155,1.195-0.56,3.315-1.679,4.155
		C4.231,6.22,2.735,6.693,1.586,6.693c-0.551,0-0.733-0.111-0.747-0.111c0,0,0,0,0,0c-0.093-0.171-0.113-0.35-0.058-0.532
		c0.1-0.331,0.435-0.658,0.942-0.923c1.183-0.616,2.108-2.739,2.364-3.375C4.343,1.116,4.78,0.75,5.287,0.75 M5.286,0
		C4.562,0,3.801,0.453,3.391,1.474c-0.566,1.41-1.366,2.652-2.014,2.989c-1.332,0.694-1.62,1.708-1.195,2.483
		c0.197,0.359,0.741,0.498,1.404,0.498c1.247,0,2.916-0.489,3.504-0.931c1.388-1.042,2.155-3.441,1.972-4.851
		C6.927,0.615,6.131,0,5.286,0L5.286,0z"/>
</g>
<g>
	<path fill="#E6E6E6" d="M12.5,15.625c-1.723,0-3.125-1.402-3.125-3.125c0-1.724,1.402-3.125,3.125-3.125s3.125,1.401,3.125,3.125
		C15.625,14.223,14.223,15.625,12.5,15.625z"/>
	<path fill="#FFFFFF" d="M12.5,9.75c1.517,0,2.75,1.232,2.75,2.75c0,1.516-1.233,2.75-2.75,2.75s-2.75-1.234-2.75-2.75
		C9.75,10.982,10.983,9.75,12.5,9.75 M12.5,9C10.565,9,9,10.564,9,12.5c0,1.934,1.565,3.5,3.5,3.5s3.5-1.566,3.5-3.5
		C16,10.564,14.435,9,12.5,9L12.5,9z"/>
</g>
<line fill="#333333" stroke="#333333" stroke-width="0.75" stroke-linecap="round" stroke-miterlimit="10" x1="12.498" y1="10.553" x2="12.498" y2="14.447"/>
<line fill="#333333" stroke="#333333" stroke-width="0.75" stroke-linecap="round" stroke-miterlimit="10" x1="10.555" y1="12.5" x2="14.445" y2="12.5"/>
</svg>
