<?xml version="1.0" encoding="utf-8"?>
<svg version="1.1"
	 xmlns="http://www.w3.org/2000/svg" xmlns:xlink="http://www.w3.org/1999/xlink"
	 x="0px" y="0px" width="16px" height="16px" viewBox="0 0 16 16" enable-background="new 0 0 16 16" xml:space="preserve">
<defs>
</defs>
<g>
	<rect fill="#00A99D" width="16" height="16"/>
	<path fill="#FFFFFF" d="M13,0h-1.5v0.75H13V0L13,0z M10,0H8.5v0.75H10V0L10,0z M7,0H5.5v0.75H7V0L7,0z M4,0H2.5v0.75H4V0L4,0z M1,0
		H0v0.75h1V0L1,0z M0.75,2H0v1.5h0.75V2L0.75,2z M0.75,5H0v1.5h0.75V5L0.75,5z M0.75,8H0v1.5h0.75V8L0.75,8z M0.75,11H0v1.5h0.75V11
		L0.75,11z M0.75,14H0v1.5h0.75V14L0.75,14z M2.5,15.25H1V16h1.5V15.25L2.5,15.25z M5.5,15.25H4V16h1.5V15.25L5.5,15.25z M8.5,15.25
		H7V16h1.5V15.25L8.5,15.25z M11.5,15.25H10V16h1.5V15.25L11.5,15.25z M14.5,15.25H13V16h1.5V15.25L14.5,15.25z M16,14.5h-0.75V16
		H16V14.5L16,14.5z M16,11.5h-0.75V13H16V11.5L16,11.5z M16,8.5h-0.75V10H16V8.5L16,8.5z M16,5.5h-0.75V7H16V5.5L16,5.5z M16,2.5
		h-0.75V4H16V2.5L16,2.5z M16,0h-1.5v0.75h0.75V1H16V0L16,0z"/>
</g>
<path d="M2.171,6.328L1.419,6.192C1.503,5.89,1.648,5.666,1.855,5.521s0.513-0.218,0.92-0.218c0.37,0,0.645,0.043,0.826,0.13
	c0.182,0.088,0.309,0.199,0.382,0.334s0.11,0.382,0.11,0.741L4.084,7.476c0,0.275,0.014,0.479,0.04,0.608
	C4.151,8.215,4.2,8.355,4.273,8.505h-0.82C3.432,8.45,3.405,8.368,3.374,8.26C3.36,8.211,3.351,8.179,3.344,8.162
	C3.203,8.3,3.051,8.403,2.89,8.473C2.729,8.541,2.557,8.575,2.374,8.575c-0.322,0-0.576-0.088-0.762-0.263
	C1.426,8.138,1.333,7.917,1.333,7.649c0-0.177,0.042-0.335,0.126-0.473c0.085-0.14,0.203-0.245,0.355-0.319
	C1.968,6.784,2.188,6.72,2.474,6.665C2.861,6.592,3.13,6.524,3.28,6.461V6.378c0-0.158-0.04-0.272-0.118-0.34
	C3.083,5.97,2.935,5.937,2.716,5.937c-0.147,0-0.262,0.028-0.345,0.087C2.289,6.081,2.222,6.183,2.171,6.328z M3.28,7.001
	C3.173,7.036,3.005,7.079,2.775,7.127c-0.229,0.05-0.38,0.098-0.451,0.146C2.216,7.349,2.162,7.446,2.162,7.564
	c0,0.116,0.043,0.216,0.13,0.301c0.086,0.084,0.197,0.126,0.33,0.126c0.15,0,0.292-0.049,0.428-0.147
	c0.1-0.074,0.167-0.166,0.198-0.273C3.269,7.499,3.28,7.365,3.28,7.166V7.001z"/>
<path d="M6.553,8.505V4.182h0.829v1.557C7.637,5.447,7.94,5.303,8.29,5.303c0.381,0,0.696,0.138,0.946,0.413
	c0.25,0.276,0.375,0.674,0.375,1.19c0,0.535-0.128,0.947-0.383,1.235C8.975,8.431,8.666,8.575,8.301,8.575
	c-0.178,0-0.355-0.045-0.529-0.134S7.448,8.22,7.322,8.045v0.46H6.553z M7.376,6.871c0,0.324,0.05,0.563,0.153,0.72
	c0.144,0.22,0.334,0.33,0.572,0.33c0.183,0,0.339-0.078,0.467-0.234s0.193-0.402,0.193-0.739c0-0.357-0.065-0.615-0.195-0.773
	S8.271,5.937,8.069,5.937c-0.199,0-0.364,0.077-0.496,0.23C7.441,6.322,7.376,6.557,7.376,6.871z"/>
<path d="M14.687,6.299l-0.815,0.147c-0.028-0.163-0.09-0.286-0.188-0.369c-0.099-0.082-0.225-0.123-0.379-0.123
	c-0.205,0-0.371,0.071-0.495,0.213c-0.121,0.143-0.183,0.382-0.183,0.716c0,0.372,0.062,0.634,0.186,0.788
	C12.938,7.823,13.104,7.9,13.314,7.9c0.157,0,0.287-0.045,0.388-0.135c0.099-0.089,0.172-0.243,0.211-0.461l0.815,0.138
	C14.645,7.816,14.481,8.1,14.242,8.29C14,8.48,13.68,8.575,13.278,8.575c-0.458,0-0.824-0.145-1.098-0.434
	c-0.271-0.288-0.408-0.689-0.408-1.2c0-0.517,0.137-0.92,0.41-1.207c0.274-0.288,0.643-0.432,1.109-0.432
	c0.383,0,0.684,0.082,0.911,0.245C14.428,5.713,14.588,5.963,14.687,6.299z"/>
<path d="M5.115,11.101V9.899h1.201v1.201H5.115z"/>
<path d="M7.449,11.101V9.899H8.65v1.201H7.449z"/>
<path d="M9.783,11.101V9.899h1.201v1.201H9.783z"/>
</svg>
