<?xml version="1.0" encoding="utf-8"?>
<svg version="1.1"
	 xmlns="http://www.w3.org/2000/svg" xmlns:xlink="http://www.w3.org/1999/xlink"
	 x="0px" y="0px" width="16px" height="16px" viewBox="-0.826 -0.25 16 16" enable-background="new -0.826 -0.25 16 16"
	 xml:space="preserve">
<defs>
</defs>
<g>
	<rect x="0.375" y="0.375" fill="#9E005D" width="13.75" height="4.035"/>
	<path fill="#FFFFFF" d="M13.75,0.75v3.285h-13V0.75H13.75 M14.5,0h-0.75h-13H0v0.75v3.285v0.75h0.75h13h0.75v-0.75V0.75V0L14.5,0z"
		/>
</g>
<g>
	<rect x="0.375" y="4.383" fill="#FF92D8" width="13.75" height="10.742"/>
	<path fill="#FFFFFF" d="M13.75,4.758v9.992h-13V4.758H13.75 M14.5,4.008h-0.75h-13H0v0.75v9.992v0.75h0.75h13h0.75v-0.75V4.758
		V4.008L14.5,4.008z"/>
</g>
<line fill="#FFFFFF" stroke="#000000" stroke-miterlimit="10" x1="2.174" y1="2.35" x2="5.314" y2="2.35"/>
<line fill="#FFFFFF" stroke="#FFFFFF" stroke-miterlimit="10" x1="6.847" y1="2.35" x2="12.417" y2="2.35"/>
<line fill="#FFFFFF" stroke="#000000" stroke-miterlimit="10" x1="2.174" y1="7.25" x2="5.314" y2="7.25"/>
<line fill="#FFFFFF" stroke="#FFFFFF" stroke-miterlimit="10" x1="6.847" y1="7.25" x2="12.417" y2="7.25"/>
<line fill="#FFFFFF" stroke="#000000" stroke-miterlimit="10" x1="2.174" y1="9.75" x2="5.314" y2="9.75"/>
<line fill="#FFFFFF" stroke="#FFFFFF" stroke-miterlimit="10" x1="6.847" y1="9.75" x2="12.417" y2="9.75"/>
<line fill="#FFFFFF" stroke="#000000" stroke-miterlimit="10" x1="2.174" y1="12.25" x2="5.314" y2="12.25"/>
<line fill="#FFFFFF" stroke="#FFFFFF" stroke-miterlimit="10" x1="6.847" y1="12.25" x2="12.417" y2="12.25"/>
<g>
	<path fill="#F9CDEB" d="M11.673,15.375c-1.723,0-3.124-1.402-3.124-3.126c0-1.723,1.401-3.124,3.124-3.124
		c1.724,0,3.126,1.401,3.126,3.124C14.799,13.973,13.396,15.375,11.673,15.375z"/>
	<path fill="#FFFFFF" d="M11.673,9.5c1.517,0,2.751,1.233,2.751,2.749c0,1.517-1.234,2.751-2.751,2.751
		c-1.516,0-2.749-1.234-2.749-2.751C8.924,10.733,10.157,9.5,11.673,9.5 M11.673,8.75c-1.933,0-3.499,1.566-3.499,3.499
		c0,1.934,1.566,3.501,3.499,3.501c1.935,0,3.501-1.567,3.501-3.501C15.174,10.316,13.607,8.75,11.673,8.75L11.673,8.75z"/>
</g>
<line fill="none" stroke="#9E005D" stroke-width="0.75" stroke-linecap="round" stroke-miterlimit="10" x1="10.133" y1="10.771" x2="13.092" y2="13.729"/>
<line fill="none" stroke="#9E005D" stroke-width="0.75" stroke-linecap="round" stroke-miterlimit="10" x1="13.092" y1="10.771" x2="10.133" y2="13.729"/>
<line fill="none" stroke="#9E005D" stroke-width="0.75" stroke-linecap="round" stroke-miterlimit="10" x1="11.633" y1="10.277" x2="11.633" y2="14.223"/>
<line fill="none" stroke="#9E005D" stroke-width="0.75" stroke-linecap="round" stroke-miterlimit="10" x1="9.701" y1="12.25" x2="13.646" y2="12.25"/>
</svg>
