<?xml version="1.0" encoding="utf-8"?>
<svg version="1.1"
	 xmlns="http://www.w3.org/2000/svg" xmlns:xlink="http://www.w3.org/1999/xlink"
	 x="0px" y="0px" width="16px" height="16px" viewBox="0 0 16 16" enable-background="new 0 0 16 16" xml:space="preserve">
<defs>
</defs>
<g>
	<path fill="#CCCCCC" d="M8,15.625c-4.205,0-7.625-3.421-7.625-7.625c0-4.205,3.42-7.625,7.625-7.625
		c4.204,0,7.625,3.42,7.625,7.625C15.625,12.204,12.204,15.625,8,15.625z"/>
	<path fill="#FFFFFF" d="M8,0.75c3.998,0,7.25,3.252,7.25,7.25c0,3.998-3.252,7.25-7.25,7.25c-3.998,0-7.25-3.252-7.25-7.25
		C0.75,4.002,4.002,0.75,8,0.75 M8,0C3.582,0,0,3.582,0,8c0,4.418,3.582,8,8,8c4.417,0,8-3.582,8-8C16,3.582,12.417,0,8,0L8,0z"/>
</g>
<g>
	<path fill="#333333" d="M8,2.75c2.895,0,5.25,2.355,5.25,5.25c0,2.895-2.355,5.25-5.25,5.25c-2.895,0-5.25-2.355-5.25-5.25
		C2.75,5.105,5.105,2.75,8,2.75 M8,2C4.687,2,2,4.686,2,8c0,3.313,2.687,6,6,6s6-2.687,6-6C14,4.686,11.313,2,8,2L8,2z"/>
</g>
<path fill="#333333" d="M9.673,8.832l1.037,0.135c-0.113,0.715-0.403,1.274-0.87,1.679s-1.04,0.606-1.72,0.606
	c-0.852,0-1.536-0.278-2.054-0.835S5.29,9.063,5.29,8.023c0-0.672,0.111-1.26,0.334-1.764s0.562-0.882,1.017-1.134
	s0.95-0.378,1.485-0.378c0.676,0,1.229,0.171,1.658,0.513s0.705,0.827,0.826,1.456L9.585,6.875C9.487,6.457,9.314,6.143,9.066,5.932
	S8.519,5.615,8.167,5.615c-0.531,0-0.963,0.19-1.295,0.571S6.374,7.17,6.374,7.994c0,0.836,0.16,1.443,0.48,1.822
	s0.738,0.568,1.254,0.568c0.414,0,0.76-0.127,1.037-0.381S9.599,9.359,9.673,8.832z"/>
<g>
	<path fill="#E6E6E6" d="M12.5,15.625c-1.723,0-3.125-1.402-3.125-3.125s1.402-3.125,3.125-3.125s3.125,1.402,3.125,3.125
		S14.223,15.625,12.5,15.625z"/>
	<path fill="#FFFFFF" d="M12.5,9.75c1.517,0,2.75,1.233,2.75,2.75s-1.233,2.75-2.75,2.75s-2.75-1.233-2.75-2.75
		S10.983,9.75,12.5,9.75 M12.5,9C10.565,9,9,10.565,9,12.5c0,1.934,1.565,3.5,3.5,3.5s3.5-1.566,3.5-3.5C16,10.565,14.435,9,12.5,9
		L12.5,9z"/>
</g>
<line fill="#333333" stroke="#333333" stroke-width="0.75" stroke-miterlimit="10" x1="12.498" y1="10.148" x2="12.498" y2="14.852"/>
<line fill="#333333" stroke="#333333" stroke-width="0.75" stroke-miterlimit="10" x1="10.15" y1="12.5" x2="14.85" y2="12.5"/>
</svg>
