<?xml version="1.0" encoding="utf-8"?>
<svg version="1.1"
	 xmlns="http://www.w3.org/2000/svg" xmlns:xlink="http://www.w3.org/1999/xlink"
	 x="0px" y="0px" width="16px" height="16px" viewBox="0 0 16 16" enable-background="new 0 0 16 16" xml:space="preserve">
<defs>
</defs>
<g>
	<rect x="0.375" y="0.375" fill="#666666" width="15.25" height="15.25"/>
	<path fill="#FFFFFF" d="M15.25,0.75v14.5H0.75V0.75H15.25 M16,0H0v16h16V0L16,0z"/>
</g>
<path fill="#EED303" stroke="#FFFFFF" stroke-width="0.75" stroke-miterlimit="10" stroke-dasharray="1.5" d="M6.542,2.96
	c1.52,1.051,1.239,1.46,3.011,2.069c1.771,0.609,1.57,4.019,0.807,4.892c-0.763,0.874-5.079,1.142-5.688-0.365
	c-0.727-1.8-2.257-4.184-1.671-5.511C3.588,2.717,5.336,2.126,6.542,2.96z"/>
<rect x="10.223" y="9.638" transform="matrix(0.8174 -0.5761 0.5761 0.8174 -4.9028 8.6348)" fill="#FFFFFF" width="1.89" height="4.825"/>
<g>
	<polygon fill="#333333" points="7.002,6.478 13.156,10.66 10.38,12.719 9.201,13.587 	"/>
	<path fill="#FFFFFF" d="M7.677,7.389l4.832,3.284l-0.753,0.557l-1.598,1.187l-0.755,0.557L7.677,7.389 M6.328,5.565l2.671,8.637
		l1.605-1.183l1.6-1.188l1.602-1.185L6.328,5.565L6.328,5.565z"/>
</g>
</svg>
