<?xml version="1.0" encoding="utf-8"?>
<svg version="1.1"
	 xmlns="http://www.w3.org/2000/svg" xmlns:xlink="http://www.w3.org/1999/xlink"
	 x="0px" y="0px" width="16px" height="16px" viewBox="-0.665 -0.569 16 16" enable-background="new -0.665 -0.569 16 16"
	 xml:space="preserve">
<defs>
</defs>
<g>
	<path fill="#CCCCCC" d="M2.021,14.409c-0.307,0-0.573-0.063-0.79-0.188c-0.589-0.342-0.9-1.052-0.853-1.949
		c0.062-1.181,0.808-2.86,2.706-3.709c3.25-1.452,3.628-1.834,4.507-3.555C7.795,4.609,7.952,4.119,8.117,3.6
		c0.504-1.585,1.026-3.225,2.931-3.225c0.172,0,0.354,0.013,0.549,0.041c1.499,0.209,2.549,1.908,2.775,3.4
		c0.196,1.29-0.176,2.291-0.996,2.676c-0.84,0.396-1.718,0.5-2.566,0.601C9.311,7.27,7.761,7.454,7.048,9.428
		C5.866,12.698,3.625,14.409,2.021,14.409z"/>
	<path fill="#FFFFFF" d="M11.048,0.75L11.048,0.75c0.155,0,0.322,0.012,0.497,0.037c1.319,0.185,2.25,1.727,2.456,3.085
		c0.064,0.418,0.195,1.819-0.784,2.281c-0.785,0.37-1.632,0.47-2.451,0.567C9.229,6.902,7.487,7.108,6.695,9.3
		c-1.254,3.473-3.482,4.733-4.673,4.733c-0.237,0-0.445-0.048-0.602-0.138c-0.463-0.269-0.706-0.854-0.666-1.605
		c0.061-1.16,0.853-2.657,2.485-3.386c3.203-1.432,3.729-1.85,4.688-3.728c0.216-0.425,0.377-0.929,0.546-1.463
		C9.044,1.923,9.53,0.75,11.048,0.75 M11.048,0C8.174,0,8.039,3.305,7.259,4.836C6.424,6.47,6.079,6.814,2.933,8.22
		c-3.14,1.403-3.741,5.251-1.889,6.325c0.273,0.158,0.606,0.239,0.978,0.239c1.657,0,4.075-1.62,5.379-5.229
		c0.998-2.762,3.677-1.565,6.136-2.724C16,5.671,14.575,0.453,11.648,0.044C11.436,0.014,11.236,0,11.048,0L11.048,0z"/>
</g>
<g>
	<path fill="#662D91" d="M11.518,5.747c-0.438,0-1.489-0.083-1.821-0.86c-0.555-1.299-0.291-2.275,0.783-2.9
		c0.354-0.206,0.685-0.311,0.981-0.311c0.515,0,0.953,0.318,1.304,0.945c0.297,0.534,0.883,2.086,0.034,2.85
		C12.692,5.568,12.207,5.747,11.518,5.747z"/>
	<path fill="#FFFFFF" d="M11.461,2.052c0.374,0,0.693,0.247,0.976,0.752c0.302,0.541,0.725,1.837,0.128,2.375
		c-0.076,0.052-0.466,0.193-1.047,0.193c-0.283,0-1.226-0.045-1.477-0.632c-0.705-1.654,0.298-2.237,0.627-2.429
		C10.965,2.139,11.231,2.052,11.461,2.052 M11.461,1.302c-0.333,0-0.722,0.101-1.17,0.361C8.994,2.417,8.759,3.646,9.352,5.035
		c0.349,0.817,1.303,1.087,2.166,1.087c0.682,0,1.308-0.169,1.532-0.372c1.022-0.92,0.412-2.646,0.042-3.311
		C12.939,2.166,12.436,1.302,11.461,1.302L11.461,1.302z"/>
</g>
<g>
	<path fill="#E6E6E6" d="M11.835,15.056c-1.723,0-3.125-1.401-3.125-3.125c0-1.723,1.402-3.125,3.125-3.125s3.125,1.402,3.125,3.125
		C14.96,13.655,13.558,15.056,11.835,15.056z"/>
	<path fill="#FFFFFF" d="M11.835,9.181c1.517,0,2.75,1.234,2.75,2.75c0,1.518-1.233,2.75-2.75,2.75s-2.75-1.232-2.75-2.75
		C9.085,10.416,10.318,9.181,11.835,9.181 M11.835,8.431c-1.935,0-3.5,1.566-3.5,3.5s1.565,3.5,3.5,3.5s3.5-1.566,3.5-3.5
		S13.77,8.431,11.835,8.431L11.835,8.431z"/>
</g>
<line fill="#333333" stroke="#333333" stroke-width="0.75" stroke-linecap="round" stroke-miterlimit="10" x1="11.833" y1="9.984" x2="11.833" y2="13.878"/>
<line fill="#333333" stroke="#333333" stroke-width="0.75" stroke-linecap="round" stroke-miterlimit="10" x1="9.89" y1="11.931" x2="13.78" y2="11.931"/>
</svg>
