<?xml version="1.0" encoding="utf-8"?>
<svg version="1.1"
	 xmlns="http://www.w3.org/2000/svg" xmlns:xlink="http://www.w3.org/1999/xlink"
	 x="0px" y="0px" width="16px" height="16px" viewBox="0 0 16 16" enable-background="new 0 0 16 16" xml:space="preserve">
<defs>
</defs>
<g>
	<path fill="#333333" d="M1.48,15.625c-0.176,0-0.461-0.097-0.735-0.371c-0.182-0.182-0.311-0.401-0.354-0.602
		c-0.031-0.142-0.016-0.256,0.042-0.313l9.072-9.074C9.55,5.219,9.628,5.209,9.685,5.209c0.177,0,0.463,0.097,0.737,0.371
		c0.273,0.273,0.371,0.56,0.371,0.736c0,0.056-0.011,0.133-0.058,0.18l-9.074,9.071C1.614,15.615,1.537,15.625,1.48,15.625z"/>
	<path fill="#FFFFFF" d="M9.713,5.586c0.095,0.013,0.271,0.087,0.443,0.259c0.183,0.182,0.247,0.358,0.26,0.44l-8.965,8.962
		c-0.095-0.013-0.269-0.087-0.441-0.259c-0.182-0.182-0.246-0.357-0.258-0.439L9.713,5.586 M9.685,4.834
		C9.508,4.834,9.352,4.888,9.238,5l-9.071,9.073c-0.314,0.313-0.173,0.96,0.312,1.446c0.312,0.312,0.688,0.48,1,0.48
		c0.177,0,0.333-0.054,0.447-0.167l9.072-9.07c0.315-0.313,0.176-0.961-0.313-1.448C10.374,5.003,9.998,4.834,9.685,4.834
		L9.685,4.834z"/>
</g>
<g>
	<path fill="#FBB03B" d="M11,9.627c-2.55,0-4.625-2.075-4.625-4.625C6.375,2.45,8.45,0.375,11,0.375c2.55,0,4.625,2.075,4.625,4.626
		C15.625,7.552,13.55,9.627,11,9.627z"/>
	<path fill="#FFFFFF" d="M11,0.75c2.344,0,4.25,1.907,4.25,4.251c0,2.344-1.906,4.25-4.25,4.25c-2.343,0-4.25-1.907-4.25-4.25
		C6.75,2.657,8.657,0.75,11,0.75 M11,0C8.237,0,6,2.24,6,5.001c0,2.763,2.237,5,5,5s5-2.238,5-5C16,2.24,13.763,0,11,0L11,0z"/>
</g>
<path fill="#1A1A1A" d="M11.663,7.696h-0.799V3.436c-0.19,0.154-0.443,0.307-0.756,0.46c-0.313,0.155-0.593,0.27-0.841,0.347V3.595
	c0.448-0.175,0.837-0.388,1.171-0.638c0.335-0.25,0.573-0.493,0.71-0.728h0.515V7.696z"/>
</svg>
