<?xml version="1.0" encoding="utf-8"?>
<svg version="1.1"
	 xmlns="http://www.w3.org/2000/svg" xmlns:xlink="http://www.w3.org/1999/xlink"
	 x="0px" y="0px" width="16px" height="16px" viewBox="0 -1.75 16 16" enable-background="new 0 -1.75 16 16" xml:space="preserve">
<defs>
</defs>
<g>
	<path fill="#E6E6E6" d="M1.167,7.374c-0.437,0-0.792-0.355-0.792-0.792V5.414c0-0.437,0.355-0.792,0.792-0.792h2.334
		c0.437,0,0.792,0.355,0.792,0.792v1.167c0,0.437-0.355,0.792-0.792,0.792H1.167z"/>
	<path fill="#FFFFFF" d="M3.501,4.998c0.229,0,0.417,0.187,0.417,0.417v1.167c0,0.23-0.187,0.417-0.417,0.417H1.167
		c-0.23,0-0.417-0.188-0.417-0.417V5.414c0-0.229,0.187-0.417,0.417-0.417H3.501 M3.501,4.248H1.167C0.522,4.248,0,4.77,0,5.414
		v1.167c0,0.644,0.522,1.167,1.167,1.167h2.334c0.644,0,1.167-0.523,1.167-1.167V5.414C4.668,4.77,4.146,4.248,3.501,4.248
		L3.501,4.248z"/>
</g>
<g>
	<path fill="#CCCCCC" d="M6.833,7.374c-0.437,0-0.792-0.355-0.792-0.792V5.414c0-0.437,0.355-0.792,0.792-0.792h2.335
		c0.437,0,0.791,0.355,0.791,0.792v1.167c0,0.437-0.354,0.792-0.791,0.792H6.833z"/>
	<path fill="#FFFFFF" d="M9.168,4.998c0.229,0,0.416,0.187,0.416,0.417v1.167c0,0.23-0.187,0.417-0.416,0.417H6.833
		c-0.23,0-0.417-0.188-0.417-0.417V5.414c0-0.229,0.187-0.417,0.417-0.417H9.168 M9.168,4.248H6.833
		c-0.646,0-1.167,0.522-1.167,1.167v1.167c0,0.646,0.521,1.167,1.167,1.167h2.335c0.644,0,1.166-0.521,1.166-1.167V5.414
		C10.334,4.77,9.812,4.248,9.168,4.248L9.168,4.248z"/>
</g>
<g>
	<path fill="#666666" d="M12.498,7.374c-0.437,0-0.791-0.355-0.791-0.792V5.414c0-0.437,0.354-0.792,0.791-0.792h2.335
		c0.437,0,0.792,0.355,0.792,0.792v1.167c0,0.437-0.355,0.792-0.792,0.792H12.498z"/>
	<path fill="#FFFFFF" d="M14.833,4.998c0.229,0,0.417,0.187,0.417,0.417v1.167c0,0.23-0.188,0.417-0.417,0.417h-2.335
		c-0.229,0-0.416-0.188-0.416-0.417V5.414c0-0.229,0.187-0.417,0.416-0.417H14.833 M14.833,4.248h-2.335
		c-0.645,0-1.166,0.522-1.166,1.167v1.167c0,0.644,0.521,1.167,1.166,1.167h2.335C15.477,7.749,16,7.225,16,6.581V5.414
		C16,4.77,15.477,4.248,14.833,4.248L14.833,4.248z"/>
</g>
<g>
	<path fill="#999999" d="M5.833,3.126c-0.437,0-0.792-0.355-0.792-0.792V1.167c0-0.437,0.355-0.792,0.792-0.792h2.335
		c0.436,0,0.791,0.355,0.791,0.792v1.167c0,0.437-0.355,0.792-0.791,0.792H5.833z"/>
	<path fill="#FFFFFF" d="M8.168,0.75c0.229,0,0.416,0.187,0.416,0.417v1.167c0,0.23-0.187,0.417-0.416,0.417H5.833
		c-0.23,0-0.417-0.188-0.417-0.417V1.167c0-0.229,0.187-0.417,0.417-0.417H8.168 M8.168,0H5.833C5.188,0,4.666,0.522,4.666,1.167
		v1.167c0,0.646,0.521,1.167,1.167,1.167h2.335c0.644,0,1.166-0.521,1.166-1.167V1.167C9.334,0.522,8.812,0,8.168,0L8.168,0z"/>
</g>
<g>
	<path fill="#999999" d="M1.224,12.601c-0.468,0-0.849-0.355-0.849-0.793v-1.166c0-0.437,0.381-0.792,0.849-0.792h13.553
		c0.468,0,0.848,0.355,0.848,0.792v1.166c0,0.438-0.38,0.793-0.848,0.793H1.224z"/>
	<path fill="#FFFFFF" d="M14.777,10.225c0.261,0,0.473,0.188,0.473,0.417v1.166c0,0.23-0.212,0.418-0.473,0.418H1.224
		c-0.261,0-0.474-0.188-0.474-0.418v-1.166c0-0.229,0.213-0.417,0.474-0.417H14.777 M14.777,9.475H1.224
		C0.547,9.475,0,9.998,0,10.642v1.166c0,0.646,0.547,1.168,1.224,1.168h13.553c0.675,0,1.223-0.521,1.223-1.168v-1.166
		C16,9.998,15.452,9.475,14.777,9.475L14.777,9.475z"/>
</g>
</svg>
