<?xml version="1.0" encoding="utf-8"?>
<svg version="1.1"
	 xmlns="http://www.w3.org/2000/svg" xmlns:xlink="http://www.w3.org/1999/xlink"
	 x="0px" y="0px" width="16px" height="16px" viewBox="0 0 16 16" enable-background="new 0 0 16 16" xml:space="preserve">
<defs>
</defs>
<g>
	<rect x="0.375" y="0.375" fill="#B3B3B3" width="15.25" height="15.25"/>
	<path fill="#FFFFFF" d="M15.25,0.75v14.5H0.75V0.75H15.25 M16,0H0v16h16V0L16,0z"/>
</g>
<g>
	<path fill="#666666" d="M6.326,14.304c-0.358,0-0.56-0.148-0.576-0.205L5.751,4.87c0.013-0.044,0.213-0.201,0.58-0.202
		c0.359,0,0.561,0.148,0.577,0.205l-0.004,9.23C6.887,14.155,6.685,14.304,6.326,14.304z"/>
	<path fill="#666666" d="M6.332,5.043c0.084,0,0.151,0.012,0.2,0.026l-0.004,8.833c-0.049,0.014-0.117,0.026-0.202,0.026
		c-0.084,0-0.152-0.013-0.201-0.026l0.001-8.832c0.049-0.015,0.118-0.027,0.204-0.027H6.332 M6.332,4.293H6.331
		c-0.528,0-0.952,0.258-0.954,0.577l-0.001,9.231c-0.001,0.319,0.425,0.577,0.951,0.577c0.528,0,0.952-0.258,0.952-0.575
		l0.004-9.231C7.284,4.552,6.858,4.293,6.332,4.293L6.332,4.293z"/>
</g>
<g>
	<polygon fill="#666666" points="2.816,6.69 2.816,2.816 10.75,2.816 13.954,4.753 10.75,6.69 	"/>
	<path fill="#666666" d="M10.646,3.191l2.584,1.562l-2.584,1.563H3.191V3.191H10.646 M10.854,2.441H2.441v4.624h8.413l3.824-2.313
		L10.854,2.441L10.854,2.441z"/>
</g>
<g>
	<path fill="#00A99D" d="M5.385,13.362c-0.359,0-0.56-0.148-0.576-0.205L4.81,3.929c0.015-0.051,0.217-0.201,0.58-0.201
		c0.36,0,0.561,0.148,0.577,0.205l-0.004,9.23C5.946,13.214,5.743,13.362,5.385,13.362z"/>
	<path fill="#FFFFFF" d="M5.392,4.103c0.083,0,0.15,0.012,0.199,0.026l-0.003,8.833c-0.049,0.014-0.117,0.026-0.203,0.026
		c-0.084,0-0.152-0.013-0.201-0.026L5.185,4.13c0.049-0.015,0.118-0.027,0.204-0.027H5.392 M5.392,3.353c-0.001,0-0.002,0-0.003,0
		c-0.528,0-0.952,0.258-0.954,0.576L4.434,13.16c0,0.319,0.425,0.577,0.951,0.577c0.528,0,0.953-0.258,0.953-0.575l0.003-9.231
		C6.343,3.611,5.917,3.353,5.392,3.353L5.392,3.353z"/>
</g>
<g>
	<polygon fill="#00A99D" points="1.875,5.749 1.875,1.875 9.809,1.875 13.013,3.812 9.809,5.749 	"/>
	<path fill="#FFFFFF" d="M9.704,2.25l2.584,1.562L9.704,5.374H2.25V2.25H9.704 M9.913,1.5H1.5v4.624h8.413l3.824-2.313L9.913,1.5
		L9.913,1.5z"/>
</g>
</svg>
