<?xml version="1.0" encoding="utf-8"?>
<svg version="1.1"
	 xmlns="http://www.w3.org/2000/svg" xmlns:xlink="http://www.w3.org/1999/xlink"
	 x="0px" y="0px" width="16px" height="16px" viewBox="0 0 16 16" enable-background="new 0 0 16 16" xml:space="preserve">
<defs>
</defs>
<g>
	<path fill="#00A99D" d="M14.117,12.547c-0.846-0.68-3.5-2.916-5.457-4.575c1.736-1.809,4.227-4.379,5.01-5.131
		c1.262,1.404,1.955,3.214,1.955,5.129C15.625,9.622,15.092,11.234,14.117,12.547z"/>
	<path fill="#FFFFFF" d="M13.645,3.389c1.04,1.291,1.605,2.893,1.605,4.581c0,1.438-0.425,2.845-1.208,4.032
		c-1.008-0.826-3.166-2.645-4.835-4.058C10.733,6.356,12.722,4.304,13.645,3.389 M13.695,2.322C13.558,2.322,8.114,8,8.114,8
		s5.972,5.067,6.073,5.067h0.001C15.32,11.684,16,9.906,16,7.97c0-2.205-0.881-4.201-2.303-5.647
		C13.697,2.322,13.696,2.322,13.695,2.322L13.695,2.322z"/>
</g>
<g>
	<path fill="#00544C" d="M2.517,13.27c-1.365-1.419-2.142-3.341-2.142-5.326c0-1.812,0.629-3.546,1.777-4.921
		c0.815,0.737,3.38,3.174,5.259,4.969C5.719,9.842,3.283,12.486,2.517,13.27z"/>
	<path fill="#FFFFFF" d="M2.197,3.57c0.975,0.902,3.081,2.903,4.689,4.438c-1.493,1.632-3.456,3.762-4.362,4.713
		C1.39,11.406,0.75,9.701,0.75,7.943C0.75,6.353,1.259,4.826,2.197,3.57 M2.114,2.497L2.114,2.497C0.802,3.926,0,5.84,0,7.943
		c0,2.306,0.965,4.386,2.509,5.847c0,0,0,0,0.001,0c0.113,0,5.425-5.816,5.425-5.816S2.209,2.497,2.114,2.497L2.114,2.497z"/>
</g>
<g>
	<path fill="#03776C" d="M8.008,15.625c-1.64,0-3.24-0.547-4.542-1.546c0.668-0.851,2.91-3.573,4.572-5.578
		c1.838,1.73,4.456,4.218,5.2,4.985C11.83,14.867,9.984,15.625,8.008,15.625z"/>
	<path fill="#FFFFFF" d="M8.072,9.048c1.618,1.526,3.716,3.521,4.627,4.428c-1.301,1.149-2.942,1.774-4.691,1.774
		c-1.431,0-2.83-0.438-4.005-1.244C4.82,12.988,6.651,10.764,8.072,9.048 M8.004,7.955c0,0-5.102,6.15-5.051,6.193
		C4.323,15.304,6.085,16,8.008,16c2.259,0,4.296-0.96,5.738-2.497C13.82,13.421,8.004,7.955,8.004,7.955L8.004,7.955z"/>
</g>
<g>
	<path fill="#AFEFE8" d="M8.044,7.459C6.217,5.605,3.754,3.093,3.01,2.3c1.38-1.244,3.141-1.925,4.998-1.925
		c1.701,0,3.347,0.583,4.673,1.647C12.01,2.858,9.685,5.565,8.044,7.459z"/>
	<path fill="#FFFFFF" d="M8.008,0.75c1.489,0,2.933,0.47,4.137,1.335c-0.817,0.989-2.677,3.153-4.119,4.821
		C6.465,5.322,4.458,3.273,3.554,2.328C4.816,1.306,6.373,0.75,8.008,0.75 M8.008,0C5.861,0,3.914,0.868,2.49,2.275
		C2.446,2.319,8.062,8.011,8.062,8.011s5.196-5.992,5.127-6.052C11.803,0.739,9.992,0,8.008,0L8.008,0z"/>
</g>
</svg>
