<?xml version="1.0" encoding="utf-8"?>
<svg version="1.1"
	 xmlns="http://www.w3.org/2000/svg" xmlns:xlink="http://www.w3.org/1999/xlink"
	 x="0px" y="0px" width="16px" height="16px" viewBox="-0.665 -0.569 16 16" enable-background="new -0.665 -0.569 16 16"
	 xml:space="preserve">
<defs>
</defs>
<g>
	<path fill="#CCCCCC" d="M2.022,14.409c-0.308,0-0.573-0.064-0.79-0.189c-0.589-0.342-0.9-1.053-0.853-1.95
		c0.063-1.181,0.809-2.859,2.706-3.707c3.25-1.453,3.628-1.834,4.507-3.556C7.795,4.608,7.951,4.119,8.116,3.6
		c0.505-1.585,1.026-3.225,2.932-3.225c0.172,0,0.354,0.013,0.549,0.041c1.499,0.209,2.549,1.909,2.775,3.401
		c0.195,1.29-0.177,2.29-0.997,2.675c-0.84,0.396-1.718,0.5-2.565,0.601C9.311,7.27,7.761,7.454,7.047,9.427
		C5.866,12.698,3.625,14.409,2.022,14.409z"/>
	<path fill="#FFFFFF" d="M11.048,0.75L11.048,0.75c0.155,0,0.322,0.012,0.497,0.037c1.319,0.185,2.25,1.728,2.456,3.086
		c0.063,0.418,0.194,1.819-0.786,2.28c-0.784,0.37-1.631,0.47-2.45,0.567C9.229,6.902,7.487,7.109,6.694,9.3
		c-1.254,3.473-3.481,4.733-4.672,4.733c-0.237,0-0.445-0.049-0.602-0.139c-0.463-0.269-0.706-0.854-0.667-1.606
		c0.061-1.159,0.853-2.656,2.485-3.385c3.203-1.431,3.729-1.849,4.688-3.728c0.216-0.425,0.376-0.929,0.546-1.462
		C9.043,1.923,9.53,0.75,11.048,0.75 M11.048,0c-2.875,0-3.01,3.305-3.789,4.836C6.424,6.47,6.078,6.814,2.933,8.219
		c-3.139,1.402-3.741,5.25-1.889,6.324c0.273,0.158,0.606,0.24,0.978,0.24c1.657,0,4.075-1.621,5.378-5.229
		c0.999-2.762,3.677-1.565,6.135-2.724c2.465-1.16,1.04-6.378-1.887-6.787C11.436,0.014,11.235,0,11.048,0L11.048,0z"/>
</g>
<g>
	<path fill="#E6E6E6" d="M11.834,15.056c-1.723,0-3.124-1.402-3.124-3.126c0-1.723,1.401-3.124,3.124-3.124
		c1.724,0,3.126,1.401,3.126,3.124C14.96,13.654,13.558,15.056,11.834,15.056z"/>
	<path fill="#FFFFFF" d="M11.834,9.181c1.517,0,2.751,1.233,2.751,2.749c0,1.517-1.234,2.751-2.751,2.751
		c-1.516,0-2.749-1.234-2.749-2.751C9.085,10.415,10.318,9.181,11.834,9.181 M11.834,8.431c-1.933,0-3.499,1.566-3.499,3.499
		c0,1.934,1.566,3.501,3.499,3.501c1.935,0,3.501-1.567,3.501-3.501C15.335,9.998,13.769,8.431,11.834,8.431L11.834,8.431z"/>
</g>
<line fill="none" stroke="#333333" stroke-width="0.75" stroke-linecap="round" stroke-miterlimit="10" x1="9.89" y1="11.93" x2="13.78" y2="11.93"/>
<g>
	<path fill="#D3AFF2" d="M10.296,2.043c1.636-0.951,2.415,0.38,2.605,0.722c0.344,0.618,0.913,2.225-0.039,3.08
		c-0.475,0.427-2.859,0.695-3.44-0.666C8.87,3.888,9.089,2.745,10.296,2.043z"/>
	<path fill="none" stroke="#4D4D4D" stroke-width="0.5" stroke-miterlimit="10" stroke-dasharray="0.9915,0.9915" d="M10.296,2.043
		c1.636-0.951,2.415,0.38,2.605,0.722c0.344,0.618,0.913,2.225-0.039,3.08c-0.475,0.427-2.859,0.695-3.44-0.666
		C8.87,3.888,9.089,2.745,10.296,2.043z"/>
</g>
</svg>
