<?xml version="1.0" encoding="utf-8"?>
<svg version="1.1"
	 xmlns="http://www.w3.org/2000/svg" xmlns:xlink="http://www.w3.org/1999/xlink"
	 x="0px" y="0px" width="16px" height="16px" viewBox="0 0 16 16" enable-background="new 0 0 16 16" xml:space="preserve">
<defs>
</defs>
<g>
	<path fill="#333333" d="M1,15.625c-0.345,0-0.625-0.28-0.625-0.625V1c0-0.345,0.28-0.625,0.625-0.625h14
		c0.345,0,0.625,0.28,0.625,0.625v14c0,0.345-0.28,0.625-0.625,0.625H1z"/>
	<path fill="#FFFFFF" d="M15,0.75c0.138,0,0.25,0.112,0.25,0.25v14c0,0.138-0.112,0.25-0.25,0.25H1c-0.138,0-0.25-0.112-0.25-0.25V1
		c0-0.138,0.112-0.25,0.25-0.25H15 M15,0H1C0.448,0,0,0.448,0,1v14c0,0.553,0.448,1,1,1h14c0.553,0,1-0.447,1-1V1
		C16,0.448,15.553,0,15,0L15,0z"/>
</g>
<path fill="#FFFFFF" d="M4.197,13l3-5l-3-5h7.414v2.878l-1.445-1.187h-2.95L9.215,8l-1.999,3.315h2.95l1.637-1.445V13H4.197z"/>
</svg>
