<?xml version="1.0" encoding="utf-8"?>
<svg version="1.1"
	 xmlns="http://www.w3.org/2000/svg" xmlns:xlink="http://www.w3.org/1999/xlink"
	 x="0px" y="0px" width="16px" height="16px" viewBox="0 0 16 16" enable-background="new 0 0 16 16" xml:space="preserve">
<defs>
</defs>
<g>
	<polygon fill="#333333" points="0.53,14.229 4.239,10.52 2.845,9.125 6.874,9.125 6.875,13.155 5.48,11.761 1.771,15.47 	"/>
	<path fill="#FFFFFF" d="M6.499,9.5l0,2.75L6.01,11.761l-0.53-0.53l-0.53,0.53l-3.179,3.179l-0.71-0.71l3.179-3.18l0.53-0.53
		l-0.53-0.53L3.75,9.5H6.499 M7.249,8.75H1.94l1.769,1.77L0,14.229L1.771,16l3.709-3.709l1.77,1.77L7.249,8.75L7.249,8.75z"/>
</g>
<g>
	<polygon fill="#333333" points="9.126,6.875 9.125,2.845 10.52,4.239 14.229,0.53 15.47,1.771 11.761,5.48 13.154,6.875 	"/>
	<path fill="#FFFFFF" d="M14.229,1.061l0.71,0.71l-3.179,3.18l-0.53,0.53l0.53,0.53L12.25,6.5H9.501L9.5,3.75l0.49,0.489l0.529,0.53
		l0.531-0.53L14.229,1.061 M14.229,0l-3.71,3.709l-1.77-1.77L8.751,7.25h5.31l-1.77-1.77L16,1.771L14.229,0L14.229,0z"/>
</g>
<circle fill="#FFFFFF" stroke="#FFFFFF" stroke-width="0.75" stroke-miterlimit="10" cx="8" cy="8" r="1.036"/>
</svg>
