<?xml version="1.0" encoding="utf-8"?>
<svg version="1.1"
	 xmlns="http://www.w3.org/2000/svg" xmlns:xlink="http://www.w3.org/1999/xlink"
	 x="0px" y="0px" width="16px" height="16px" viewBox="-0.058 -0.746 16 16" enable-background="new -0.058 -0.746 16 16"
	 xml:space="preserve">
<defs>
</defs>
<g>
	<path fill="#29ABE2" d="M7.942,12.879c-3.102,0-5.625-2.522-5.625-5.624c0-3.102,2.523-5.626,5.625-5.626s5.625,2.524,5.625,5.626
		C13.567,10.356,11.043,12.879,7.942,12.879z"/>
	<path fill="#FFFFFF" d="M7.942,2.004c2.895,0,5.25,2.355,5.25,5.251c0,2.895-2.355,5.249-5.25,5.249
		c-2.895,0-5.25-2.354-5.25-5.249C2.692,4.359,5.047,2.004,7.942,2.004 M7.942,1.254c-3.313,0-6,2.687-6,6.001
		c0,3.312,2.687,5.999,6,5.999s6-2.688,6-5.999C13.942,3.94,11.255,1.254,7.942,1.254L7.942,1.254z"/>
</g>
<path fill="none" stroke="#FFFFFF" stroke-width="0.75" stroke-miterlimit="10" d="M2.371,6.396c0,0,1.885-1.736,5.571-1.714
	c3.68,0.022,5.572,1.714,5.572,1.714"/>
<path fill="none" stroke="#FFFFFF" stroke-width="0.75" stroke-miterlimit="10" d="M2.371,8.111c0,0,1.885,1.679,5.571,1.715
	c3.973,0.037,5.572-1.715,5.572-1.715"/>
<path fill="none" stroke="#FFFFFF" stroke-width="0.75" stroke-miterlimit="10" d="M7.084,1.511c0,0-1.707,1.908-1.714,5.743
	c-0.007,3.579,1.714,5.5,1.714,5.5"/>
<path fill="none" stroke="#FFFFFF" stroke-width="0.75" stroke-miterlimit="10" d="M8.799,1.511c0,0,1.698,2.069,1.715,5.743
	c0.015,3.676-1.715,5.631-1.715,5.631"/>
<path fill="#0071BC" stroke="#FFFFFF" stroke-width="0.75" stroke-miterlimit="10" d="M7.527,7.797
	C3.478,7.758,0.442,5.915,0.442,5.915c0.25-0.841,2.451-4.214,4.147-5.452C5.072,0.11,4.483,0.94,7.885,0.94
	c3.301,0,2.841-0.768,3.295-0.478c1.786,1.141,4.083,4.771,4.262,5.452C15.442,5.914,11.891,7.838,7.527,7.797z"/>
<path fill="none" stroke="#FFFFFF" stroke-width="0.75" stroke-miterlimit="10" d="M6.943,0.874c0,0-1.875,2.377-1.883,6.592"/>
<path fill="none" stroke="#FFFFFF" stroke-width="0.75" stroke-miterlimit="10" d="M8.827,0.874c0,0,1.865,2.555,1.883,6.592"/>
<path fill="none" stroke="#FFFFFF" stroke-width="0.75" stroke-miterlimit="10" d="M2.206,2.82c0,0,1.63,1.551,5.679,1.527
	c4.042-0.025,5.661-1.496,5.661-1.496"/>
<g>
	<path fill="#333333" d="M12.442,14.879c-1.723,0-3.125-1.402-3.125-3.125s1.402-3.125,3.125-3.125s3.125,1.402,3.125,3.125
		S14.165,14.879,12.442,14.879z"/>
	<path fill="#FFFFFF" d="M12.442,9.004c1.518,0,2.75,1.233,2.75,2.75s-1.232,2.75-2.75,2.75c-1.516,0-2.75-1.233-2.75-2.75
		S10.926,9.004,12.442,9.004 M12.442,8.254c-1.934,0-3.5,1.565-3.5,3.5c0,1.934,1.566,3.5,3.5,3.5c1.936,0,3.5-1.566,3.5-3.5
		C15.942,9.819,14.377,8.254,12.442,8.254L12.442,8.254z"/>
</g>
<g>
	<polygon fill="#FBB03B" points="12.223,12.301 11.599,12.603 11.89,11.969 11.267,11.754 11.89,11.54 11.599,10.906 12.223,11.208 
		12.442,10.582 12.661,11.208 13.286,10.906 12.995,11.541 13.618,11.754 12.995,11.969 13.286,12.604 12.661,12.301 12.442,12.926 
			"/>
	<polygon fill="#FFFFFF" points="12.443,9.444 12.008,10.688 10.823,10.115 11.376,11.32 10.112,11.755 11.376,12.188 
		10.823,13.394 12.008,12.821 12.443,14.063 12.875,12.821 14.061,13.394 13.508,12.188 14.772,11.755 13.508,11.32 14.061,10.115 
		12.875,10.688 12.443,9.444 	"/>
</g>
<g>
	<polygon fill="#FFFFFF" points="12.319,12.086 11.954,12.262 12.124,11.893 11.776,11.773 12.124,11.654 11.954,11.285 
		12.319,11.463 12.442,11.109 12.565,11.463 12.93,11.285 12.761,11.654 13.108,11.773 12.76,11.893 12.93,12.262 12.565,12.086 
		12.442,12.438 	"/>
	<polygon fill="#FFFFFF" points="12.443,9.97 12.104,10.941 11.177,10.493 11.61,11.435 10.622,11.774 11.61,12.113 11.177,13.055 
		12.104,12.606 12.443,13.579 12.781,12.606 13.708,13.055 13.275,12.113 14.262,11.774 13.275,11.435 13.708,10.493 12.781,10.941 
		12.443,9.97 	"/>
</g>
<g>
	<polygon fill="#333333" points="12.443,11.089 12.569,11.444 12.914,11.284 12.752,11.628 13.109,11.754 12.752,11.881 
		12.914,12.225 12.569,12.063 12.443,12.42 12.317,12.063 11.972,12.225 12.133,11.881 11.778,11.754 12.133,11.628 11.972,11.284 
		12.317,11.444 	"/>
	<polygon fill="#333333" points="12.443,11.089 12.317,11.444 11.972,11.284 12.133,11.628 11.778,11.754 12.133,11.881 
		11.972,12.225 12.317,12.063 12.443,12.42 12.569,12.063 12.914,12.225 12.752,11.881 13.109,11.754 12.752,11.628 12.914,11.284 
		12.569,11.444 12.443,11.089 	"/>
</g>
</svg>
