<?xml version="1.0" encoding="utf-8"?>
<svg version="1.1"
	 xmlns="http://www.w3.org/2000/svg" xmlns:xlink="http://www.w3.org/1999/xlink"
	 x="0px" y="0px" width="16px" height="16px" viewBox="0 0 16 16" enable-background="new 0 0 16 16" xml:space="preserve">
<defs>
</defs>
<line fill="none" stroke="#FFFFFF" stroke-width="0.75" stroke-linecap="round" stroke-miterlimit="10" x1="1.373" y1="11.299" x2="15.753" y2="19.218"/>
<circle fill="#FFFFFF" cx="6.099" cy="13.989" r="1.327"/>
<circle fill="#FFFFFF" cx="11.001" cy="16.63" r="1.327"/>
<circle fill="#FFFFFF" cx="1.327" cy="11.322" r="1.327"/>
<g>
	<path fill="#333333" d="M2.655,9.313c-1.094-1.976-2.932-6-2.044-7.805c0.254-0.517,0.813-1.134,2.027-1.134
		c1.236,0.008,1.799,0.636,2.057,1.162C5.586,3.351,3.75,7.35,2.655,9.313z"/>
	<path fill="#FFFFFF" d="M2.638,0L2.66,0.75c0.819,0.005,1.391,0.326,1.698,0.952c0.685,1.393-0.509,4.55-1.703,6.828
		C1.462,6.238,0.265,3.063,0.947,1.674C1.155,1.252,1.617,0.75,2.638,0.75V0 M2.638,0C1.364,0,0.627,0.625,0.274,1.343
		c-1.288,2.619,2.379,8.72,2.379,8.72s3.672-6.058,2.378-8.692C4.675,0.646,3.955,0.009,2.665,0C2.656,0,2.647,0,2.638,0L2.638,0z"
		/>
</g>
<circle fill="#FFFFFF" stroke="#FFFFFF" stroke-width="0.75" stroke-miterlimit="10" cx="2.713" cy="2.674" r="1.122"/>
<g>
	<path fill="#333333" d="M8.089,11.944C6.996,9.97,5.157,5.945,6.045,4.141c0.254-0.517,0.813-1.133,2.027-1.133
		c1.238,0.008,1.799,0.635,2.056,1.161C11.021,5.984,9.184,9.982,8.089,11.944z"/>
	<path fill="#FFFFFF" d="M8.072,2.632l0.022,0.75c0.82,0.005,1.391,0.325,1.698,0.952c0.685,1.393-0.509,4.549-1.702,6.826
		C6.896,8.868,5.7,5.692,6.381,4.306c0.208-0.421,0.669-0.924,1.69-0.924V2.632 M8.072,2.632c-1.274,0-2.01,0.625-2.363,1.343
		c-1.289,2.62,2.379,8.719,2.379,8.719s3.672-6.057,2.377-8.691C10.109,3.278,9.39,2.641,8.099,2.632
		C8.09,2.632,8.081,2.632,8.072,2.632L8.072,2.632z"/>
</g>
<circle fill="#FFFFFF" stroke="#FFFFFF" stroke-width="0.75" stroke-miterlimit="10" cx="8.146" cy="5.306" r="1.122"/>
<g>
	<path fill="#333333" d="M13.366,15.1c-1.093-1.975-2.932-5.999-2.044-7.804c0.254-0.517,0.813-1.134,2.027-1.134
		c1.237,0.008,1.799,0.636,2.056,1.161C16.298,9.139,14.461,13.138,13.366,15.1z"/>
	<path fill="#FFFFFF" d="M13.35,5.787l0.021,0.75c0.819,0.005,1.391,0.326,1.698,0.952c0.685,1.393-0.509,4.55-1.702,6.826
		c-1.194-2.291-2.392-5.466-1.709-6.854c0.208-0.421,0.67-0.924,1.691-0.924V5.787 M13.35,5.787c-1.274,0-2.012,0.626-2.364,1.343
		c-1.288,2.62,2.38,8.719,2.38,8.719s3.672-6.058,2.377-8.691c-0.355-0.725-1.076-1.362-2.366-1.371
		C13.367,5.787,13.358,5.787,13.35,5.787L13.35,5.787z"/>
</g>
<circle fill="#FFFFFF" stroke="#FFFFFF" stroke-width="0.75" stroke-miterlimit="10" cx="13.424" cy="8.461" r="1.122"/>
</svg>
