<?xml version="1.0" encoding="utf-8"?>
<svg version="1.1"
	 xmlns="http://www.w3.org/2000/svg" xmlns:xlink="http://www.w3.org/1999/xlink"
	 x="0px" y="0px" width="16px" height="16px" viewBox="0 0 16 16" enable-background="new 0 0 16 16" xml:space="preserve">
<defs>
</defs>
<g>
	<path fill="#808080" d="M8,15.625c-4.205,0-7.625-3.42-7.625-7.625c0-4.205,3.42-7.626,7.625-7.626
		c4.204,0,7.625,3.421,7.625,7.626C15.625,12.206,12.204,15.625,8,15.625z"/>
	<path fill="#FFFFFF" d="M8,0.75c3.998,0,7.25,3.253,7.25,7.251c0,3.998-3.252,7.25-7.25,7.25c-3.998,0-7.25-3.252-7.25-7.25
		C0.75,4.003,4.002,0.75,8,0.75 M8,0C3.582,0,0,3.581,0,8.001c0,4.416,3.582,8,8,8s8-3.584,8-8C16,3.581,12.418,0,8,0L8,0z"/>
</g>
<g>
	<g>
		<path fill="#1A1A1A" d="M9.893,1.346c-1.606-0.548-4.447-1.04-5.232,1.041C3.797,4.676,7.075,6.582,8.619,7.402
			c1.796,0.954,5.008,3.613,2.438,5.548c-2.279,1.716-5.388,0.029-6.754-1.971c-0.461-0.675-2.314,0.038-1.775,0.826
			c2.25,3.293,8.259,4.65,10.86,0.893c1.184-1.71,0.324-3.614-1.116-4.862c-1.439-1.248-3.283-1.865-4.674-3.159
			C7.101,4.216,6.732,3.643,6.544,2.994C6.146,1.619,8.182,2.386,8.76,2.583C9.529,2.846,11.035,1.736,9.893,1.346L9.893,1.346z"/>
	</g>
</g>
<g>
	<path fill="#E6E6E6" d="M12.5,15.625c-1.723,0-3.125-1.402-3.125-3.126c0-1.723,1.402-3.124,3.125-3.124s3.125,1.401,3.125,3.124
		C15.625,14.223,14.223,15.625,12.5,15.625z"/>
	<path fill="#FFFFFF" d="M12.5,9.75c1.517,0,2.75,1.233,2.75,2.749c0,1.517-1.233,2.751-2.75,2.751c-1.516,0-2.75-1.234-2.75-2.751
		C9.75,10.984,10.984,9.75,12.5,9.75 M12.5,9C10.566,9,9,10.567,9,12.5C9,14.433,10.566,16,12.5,16S16,14.433,16,12.5
		C16,10.567,14.434,9,12.5,9L12.5,9z"/>
</g>
<line fill="none" stroke="#333333" stroke-width="0.75" stroke-linecap="round" stroke-miterlimit="10" x1="10.959" y1="11.022" x2="13.918" y2="13.979"/>
<line fill="none" stroke="#333333" stroke-width="0.75" stroke-linecap="round" stroke-miterlimit="10" x1="13.918" y1="11.022" x2="10.959" y2="13.979"/>
<line fill="none" stroke="#333333" stroke-width="0.75" stroke-linecap="round" stroke-miterlimit="10" x1="12.459" y1="10.528" x2="12.459" y2="14.473"/>
<line fill="none" stroke="#333333" stroke-width="0.75" stroke-linecap="round" stroke-miterlimit="10" x1="10.527" y1="12.5" x2="14.473" y2="12.5"/>
</svg>
