<?xml version="1.0" encoding="utf-8"?>
<svg version="1.1"
	 xmlns="http://www.w3.org/2000/svg" xmlns:xlink="http://www.w3.org/1999/xlink"
	 x="0px" y="0px" width="16px" height="16px" viewBox="0 0 16 16" enable-background="new 0 0 16 16" xml:space="preserve">
<defs>
</defs>
<rect display="none" fill="#4D4D4D" width="16" height="16"/>
<path fill="none" stroke="#FFFFFF" stroke-width="0.75" stroke-miterlimit="10" d="M3,14C3,7.919,7.92,3,14,3"/>
<g>
	<rect x="1.852" y="13.543" fill="#662D91" width="2.25" height="1.982"/>
	<path fill="#FFFFFF" d="M3.727,13.918v1.232h-1.5v-1.232H3.727 M4.477,13.168h-3V15.9h3V13.168L4.477,13.168z"/>
</g>
<g>
	<rect x="13.275" y="2.039" fill="#662D91" width="2.25" height="1.982"/>
	<path fill="#FFFFFF" d="M15.15,2.414v1.232h-1.5V2.414H15.15 M15.9,1.664h-3v2.732h3V1.664L15.9,1.664z"/>
</g>
<g>
	<rect x="5.236" y="5.195" fill="#662D91" width="2.25" height="1.982"/>
	<path fill="#FFFFFF" d="M7.111,5.57v1.232h-1.5V5.57H7.111 M7.861,4.82h-3v2.732h3V4.82L7.861,4.82z"/>
</g>
<path fill="#333333" d="M15.236,14.346c0.056,0.727-0.28,1.027-0.991,0.947H9.48c-0.779,0.063-1.07-0.34-0.952-0.947v-2.838
	c-0.088-0.639,0.165-1.021,0.952-0.947h4.765c0.727-0.09,1.071,0.25,0.991,0.947V14.346z"/>
<path fill="none" stroke="#FFFFFF" stroke-width="0.75" stroke-miterlimit="10" d="M8.121,11.678v-0.5c0-0.553,0.447-1,0.999-1h1.5"
	/>
<path fill="none" stroke="#FFFFFF" stroke-width="0.75" stroke-miterlimit="10" d="M15.62,11.678v-0.5c0-0.553-0.447-1-1-1h-1.5"/>
<path fill="none" stroke="#FFFFFF" stroke-width="0.75" stroke-miterlimit="10" d="M10.62,15.678h-1.5c-0.552,0-0.999-0.447-0.999-1
	v-0.5"/>
<path fill="none" stroke="#FFFFFF" stroke-width="0.75" stroke-miterlimit="10" d="M15.62,14.178v0.5c0,0.553-0.447,1-1,1h-1.5"/>
<circle fill="#FFFFFF" stroke="#FFFFFF" stroke-width="0.75" stroke-miterlimit="10" cx="11.87" cy="12.928" r="1.283"/>
</svg>
