<?xml version="1.0" encoding="utf-8"?>
<svg version="1.1"
	 xmlns="http://www.w3.org/2000/svg" xmlns:xlink="http://www.w3.org/1999/xlink"
	 x="0px" y="0px" width="16px" height="16px" viewBox="0 0 16 16" enable-background="new 0 0 16 16" xml:space="preserve">
<defs>
</defs>
<g>
	<rect x="1.143" y="0.949" fill="#333333" width="13.714" height="13.714"/>
	<path fill="#FFFFFF" d="M11.857,0.949h-1.5v0.75h1.5V0.949L11.857,0.949z M8.857,0.949h-1.5v0.75h1.5V0.949L8.857,0.949z
		 M5.857,0.949h-1.5v0.75h1.5V0.949L5.857,0.949z M2.857,0.949h-1.5v0.75h1.5V0.949L2.857,0.949z M1.893,2.234h-0.75v1.5h0.75V2.234
		L1.893,2.234z M1.893,5.234h-0.75v1.5h0.75V5.234L1.893,5.234z M1.893,8.234h-0.75v1.5h0.75V8.234L1.893,8.234z M1.893,11.234
		h-0.75v1.5h0.75V11.234L1.893,11.234z M2.214,13.913H1.143v0.321l0,0v-0.321v0.321l0,0v0.429h0.75l0,0l0,0l0,0l0,0
		c0.18,0,0.321,0,0.321,0V13.913L2.214,13.913z M5.214,13.913h-1.5v0.75h1.5V13.913L5.214,13.913z M8.214,13.913h-1.5v0.75h1.5
		V13.913L8.214,13.913z M11.214,13.913h-1.5v0.75h1.5V13.913L11.214,13.913z M14.214,13.913h-1.5v0.75h1.5V13.913L14.214,13.913z
		 M14.857,12.307h-0.75v1.5h0.75V12.307L14.857,12.307z M14.857,9.307h-0.75v1.5h0.75V9.307L14.857,9.307z M14.857,6.306h-0.75v1.5
		h0.75V6.306L14.857,6.306z M14.857,3.306h-0.75v1.5h0.75V3.306L14.857,3.306z M14.857,0.949h-1.5v0.75h0.75v0.107h0.75V0.949
		L14.857,0.949z"/>
</g>
<rect x="8.684" y="7.586" transform="matrix(0.8172 -0.5763 0.5763 0.8172 -4.0022 7.377)" fill="#FFFFFF" width="1.889" height="4.825"/>
<g>
	<polygon fill="#666666" points="5.462,4.425 11.617,8.608 8.841,10.666 7.661,11.534 	"/>
	<path fill="#FFFFFF" d="M6.137,5.336l4.832,3.284l-0.752,0.556L8.62,10.363L7.864,10.92L6.137,5.336 M4.788,3.513l2.671,8.637
		l1.605-1.183l1.6-1.188l1.601-1.185L4.788,3.513L4.788,3.513z"/>
</g>
<g>
	<rect x="0.375" y="0.375" fill="#666666" width="2.679" height="2.372"/>
	<path fill="#FFFFFF" d="M2.679,0.75v1.622H0.75V0.75H2.679 M3.429,0H0v3.122h3.429V0L3.429,0z"/>
</g>
<g>
	<rect x="12.946" y="0.375" fill="#666666" width="2.679" height="2.372"/>
	<path fill="#FFFFFF" d="M15.25,0.75v1.622h-1.929V0.75H15.25 M16,0h-3.429v3.122H16V0L16,0z"/>
</g>
<g>
	<rect x="12.946" y="13.058" fill="#666666" width="2.679" height="2.373"/>
	<path fill="#FFFFFF" d="M15.25,13.433v1.623h-1.929v-1.623H15.25 M16,12.683h-3.429v3.123H16V12.683L16,12.683z"/>
</g>
<g>
	<rect x="0.375" y="13.058" fill="#666666" width="2.679" height="2.373"/>
	<path fill="#FFFFFF" d="M2.679,13.433v1.623H0.75v-1.623H2.679 M3.429,12.683H0v3.123h3.429V12.683L3.429,12.683z"/>
</g>
</svg>
