<?xml version="1.0" encoding="utf-8"?>
<svg version="1.1"
	 xmlns="http://www.w3.org/2000/svg" xmlns:xlink="http://www.w3.org/1999/xlink"
	 x="0px" y="0px" width="16px" height="16px" viewBox="-0.5 -0.5 16 16" enable-background="new -0.5 -0.5 16 16"
	 xml:space="preserve">
<defs>
</defs>
<g>
	<path fill="#00A99D" d="M4.762,14.625c-0.371,0-0.626-0.124-0.732-0.23c-0.022-0.021-0.058-0.064-0.058-0.102L3.973,2.977
		c0-0.112,0.311-0.331,0.795-0.332c0.373,0,0.627,0.125,0.733,0.231C5.522,2.898,5.559,2.94,5.559,2.977L5.554,14.295
		C5.554,14.408,5.246,14.625,4.762,14.625z"/>
	<path fill="#00A99D" d="M4.77,3.021c0.195,0,0.338,0.046,0.414,0.086L5.179,14.164c-0.076,0.039-0.221,0.086-0.417,0.086
		c-0.195,0-0.34-0.047-0.415-0.086L4.348,3.108c0.076-0.04,0.221-0.087,0.419-0.087H4.77 M4.77,2.271c-0.001,0-0.002,0-0.003,0
		c-0.647,0-1.167,0.316-1.169,0.707L3.597,14.292C3.596,14.685,4.118,15,4.762,15c0.647,0,1.167-0.315,1.167-0.705L5.934,2.979
		C5.936,2.587,5.415,2.271,4.77,2.271L4.77,2.271z"/>
</g>
<g>
	<polygon fill="#00A99D" points="0.375,5.293 0.375,0.375 10.208,0.375 14.275,2.833 10.208,5.293 	"/>
	<path fill="#00A99D" d="M10.104,0.75l3.447,2.083l-3.447,2.084H0.75V0.75H10.104 M10.313,0H0v5.668h10.313L15,2.833L10.313,0
		L10.313,0z"/>
</g>
<g>
	<path fill="#333333" d="M4.745,14.057c-0.208,0-0.354-0.072-0.416-0.135L4.3,5.001c0-0.042,0.165-0.179,0.45-0.179
		c0.209,0,0.356,0.073,0.418,0.135l0.026,8.922C5.194,13.913,5.044,14.057,4.745,14.057z"/>
	<path fill="#FFFFFF" d="M4.751,5.197c0.027,0,0.051,0.002,0.071,0.005l-0.003,8.474c-0.021,0.004-0.046,0.006-0.074,0.006
		c-0.026,0-0.05-0.002-0.071-0.005l0-8.474C4.696,5.199,4.721,5.197,4.75,5.197H4.751 M4.751,4.447
		C4.75,4.447,4.75,4.447,4.751,4.447c-0.458,0-0.825,0.248-0.826,0.554l0,8.876c-0.001,0.307,0.367,0.555,0.821,0.555
		c0.457,0,0.824-0.248,0.824-0.553l0.003-8.876C5.574,4.696,5.206,4.447,4.751,4.447L4.751,4.447z"/>
</g>
<g>
	<polygon fill="#333333" points="1.125,4.887 1.125,0.725 9.583,0.725 13.025,2.806 9.583,4.887 	"/>
	<path fill="#FFFFFF" d="M9.479,1.1l2.822,1.706L9.479,4.512H1.5V1.1H9.479 M9.688,0.35H0.75v4.912h8.938l4.063-2.457L9.688,0.35
		L9.688,0.35z"/>
</g>
</svg>
