<?xml version="1.0" encoding="utf-8"?>
<svg version="1.1"
	 xmlns="http://www.w3.org/2000/svg" xmlns:xlink="http://www.w3.org/1999/xlink"
	 x="0px" y="0px" width="16px" height="16px" viewBox="-1 -1 16 16" enable-background="new -1 -1 16 16" xml:space="preserve">
<defs>
</defs>
<g>
	<rect x="0.375" y="0.375" fill="#006837" width="7.25" height="13.25"/>
	<path fill="#FFFFFF" d="M7.25,0.75v12.5h-6.5V0.75H7.25 M8,0H0v14h8V0L8,0z"/>
</g>
<g>
	<polygon fill="#006837" points="8.604,1.063 13.378,6.986 8.604,12.913 	"/>
	<path fill="#FFFFFF" d="M8.979,2.125l3.918,4.861L8.979,11.85V2.125 M8.229,0v13.977l5.631-6.99L8.229,0L8.229,0z"/>
</g>
<path fill="#FFFFFF" d="M2.469,12.213L1.03,11.616v-0.375l1.439-0.599v0.449L1.594,11.43l0.875,0.337V12.213z"/>
<path fill="#FFFFFF" d="M2.762,11.346h0.55v0.517h-0.55V11.346z"/>
<path fill="#FFFFFF" d="M3.625,11.346h0.55v0.517h-0.55V11.346z"/>
<path fill="#FFFFFF" d="M4.488,11.346h0.55v0.517h-0.55V11.346z"/>
<path fill="#FFFFFF" d="M5.331,11.767l0.875-0.337l-0.875-0.338v-0.449l1.439,0.599v0.375l-1.439,0.597V11.767z"/>
<g>
	<rect x="1.848" y="2.165" fill="#FFFFFF" width="4.183" height="1.5"/>
</g>
<g>
	<rect x="1.848" y="8.165" fill="#FFFFFF" width="4.183" height="1.5"/>
</g>
<g>
	<rect x="1.848" y="5.165" fill="#FFFFFF" width="4.183" height="1.5"/>
</g>
</svg>
