<?xml version="1.0" encoding="utf-8"?>
<svg version="1.1"
	 xmlns="http://www.w3.org/2000/svg" xmlns:xlink="http://www.w3.org/1999/xlink"
	 x="0px" y="0px" width="16px" height="16px" viewBox="0 0 16 16" enable-background="new 0 0 16 16" xml:space="preserve">
<defs>
</defs>
<g>
	<path fill="#00A99D" d="M5.08,15.625c-0.262,0-0.511-0.062-0.686-0.167c-0.113-0.068-0.183-0.149-0.183-0.212L4.213,3.175
		c0-0.132,0.332-0.378,0.872-0.378c0.405,0,0.684,0.137,0.801,0.254C5.917,3.083,5.955,3.13,5.954,3.176L5.95,15.246
		C5.95,15.379,5.619,15.625,5.08,15.625z"/>
	<path fill="#FFFFFF" d="M5.087,3.172c0.242,0,0.413,0.063,0.492,0.112L5.575,15.138c-0.079,0.049-0.25,0.112-0.494,0.112
		c-0.243,0-0.415-0.064-0.494-0.113L4.588,3.286c0.079-0.049,0.251-0.114,0.497-0.114H5.087 M5.087,2.422c-0.001,0-0.002,0-0.003,0
		c-0.689,0-1.245,0.337-1.247,0.753l-0.001,12.07C3.835,15.663,4.393,15.999,5.08,16c0.69,0,1.245-0.336,1.245-0.754L6.329,3.178
		C6.332,2.76,5.775,2.422,5.087,2.422L5.087,2.422z"/>
</g>
<g>
	<polygon fill="#00A99D" points="0.375,5.67 0.375,0.375 10.896,0.375 15.275,3.022 10.896,5.67 	"/>
	<path fill="#FFFFFF" d="M10.791,0.75l3.76,2.272l-3.76,2.273H0.75V0.75H10.791 M11,0H0v6.045h11l5-3.023L11,0L11,0z"/>
</g>
<path d="M1.915,2.992L1.393,2.897c0.059-0.21,0.16-0.366,0.303-0.467s0.356-0.151,0.639-0.151c0.257,0,0.448,0.03,0.574,0.091
	c0.126,0.061,0.214,0.138,0.266,0.232c0.051,0.093,0.077,0.265,0.077,0.515L3.245,3.789c0,0.191,0.01,0.332,0.028,0.423
	C3.291,4.303,3.325,4.4,3.376,4.504h-0.57c-0.015-0.038-0.033-0.095-0.055-0.17C2.741,4.3,2.735,4.277,2.73,4.266
	C2.632,4.362,2.527,4.434,2.415,4.481C2.303,4.529,2.184,4.553,2.056,4.553c-0.224,0-0.4-0.061-0.529-0.183
	C1.397,4.249,1.333,4.096,1.333,3.91c0-0.123,0.029-0.232,0.088-0.329c0.059-0.097,0.141-0.17,0.247-0.222
	c0.106-0.051,0.259-0.096,0.458-0.134c0.269-0.051,0.456-0.098,0.56-0.142V3.026c0-0.11-0.027-0.189-0.082-0.236
	c-0.055-0.047-0.158-0.071-0.31-0.071c-0.103,0-0.182,0.02-0.24,0.061C1.997,2.82,1.951,2.891,1.915,2.992z M2.686,3.459
	C2.612,3.483,2.495,3.513,2.335,3.547c-0.16,0.034-0.264,0.068-0.313,0.101C1.946,3.701,1.909,3.769,1.909,3.851
	c0,0.081,0.03,0.15,0.09,0.209c0.06,0.059,0.137,0.088,0.229,0.088c0.104,0,0.203-0.034,0.297-0.103
	c0.07-0.052,0.116-0.115,0.138-0.19c0.015-0.049,0.022-0.143,0.022-0.281V3.459z"/>
<path d="M4.96,4.504V1.5h0.576v1.082C5.713,2.38,5.924,2.279,6.167,2.279c0.265,0,0.484,0.096,0.658,0.288
	c0.173,0.192,0.26,0.468,0.26,0.827c0,0.372-0.089,0.658-0.266,0.858S6.428,4.553,6.175,4.553c-0.124,0-0.247-0.031-0.368-0.093
	S5.582,4.306,5.495,4.185v0.319H4.96z M5.532,3.369c0,0.226,0.035,0.392,0.106,0.5c0.1,0.153,0.232,0.229,0.397,0.229
	c0.127,0,0.235-0.054,0.325-0.163c0.089-0.109,0.134-0.28,0.134-0.514c0-0.249-0.045-0.428-0.135-0.538S6.154,2.719,6.013,2.719
	c-0.138,0-0.253,0.054-0.344,0.161C5.577,2.987,5.532,3.15,5.532,3.369z"/>
<path d="M10.611,2.971l-0.566,0.103c-0.02-0.113-0.063-0.199-0.131-0.256C9.846,2.76,9.758,2.731,9.65,2.731
	c-0.143,0-0.258,0.05-0.344,0.148C9.223,2.979,9.18,3.145,9.18,3.377c0,0.258,0.043,0.44,0.129,0.547
	c0.088,0.106,0.203,0.16,0.35,0.16c0.109,0,0.199-0.031,0.27-0.093c0.068-0.062,0.119-0.169,0.146-0.321l0.566,0.096
	c-0.059,0.26-0.172,0.456-0.338,0.588c-0.168,0.132-0.391,0.199-0.67,0.199c-0.318,0-0.572-0.101-0.762-0.301
	C8.682,4.051,8.587,3.773,8.587,3.418c0-0.359,0.095-0.639,0.285-0.839c0.191-0.2,0.447-0.3,0.771-0.3
	c0.266,0,0.475,0.057,0.633,0.171C10.432,2.564,10.543,2.738,10.611,2.971z"/>
</svg>
