<?xml version="1.0" encoding="utf-8"?>
<svg version="1.1"
	 xmlns="http://www.w3.org/2000/svg" xmlns:xlink="http://www.w3.org/1999/xlink"
	 x="0px" y="0px" width="16px" height="16px" viewBox="-0.125 -0.609 16 16" enable-background="new -0.125 -0.609 16 16"
	 xml:space="preserve">
<defs>
</defs>
<path fill="#E6E6E6" stroke="#FFFFFF" stroke-width="0.75" stroke-miterlimit="10" d="M7.518,14.406
	c-3.944,0-7.143-3.14-7.143-7.016c0-3.874,3.198-7.015,7.143-7.015"/>
<path fill="#333333" stroke="#FFFFFF" stroke-width="0.75" stroke-miterlimit="10" d="M8.232,0.375L8.232,0.375
	c3.946,0,7.143,3.141,7.143,7.015c0,3.876-3.197,7.016-7.143,7.016"/>
<g>
	<path fill="#E6E6E6" d="M12.374,15.016c-1.723,0-3.124-1.402-3.124-3.126c0-1.723,1.401-3.124,3.124-3.124
		c1.724,0,3.126,1.401,3.126,3.124C15.5,13.613,14.098,15.016,12.374,15.016z"/>
	<path fill="#FFFFFF" d="M12.374,9.141c1.517,0,2.751,1.233,2.751,2.749c0,1.517-1.234,2.751-2.751,2.751
		c-1.516,0-2.749-1.234-2.749-2.751C9.625,10.374,10.858,9.141,12.374,9.141 M12.374,8.391c-1.933,0-3.499,1.566-3.499,3.499
		c0,1.934,1.566,3.501,3.499,3.501c1.935,0,3.501-1.567,3.501-3.501C15.875,9.957,14.309,8.391,12.374,8.391L12.374,8.391z"/>
</g>
<polyline fill="none" stroke="#333333" stroke-width="0.75" stroke-linecap="round" stroke-miterlimit="10" points="10.684,12.116 
	12.404,13.87 14.191,12.116 "/>
<line fill="none" stroke="#333333" stroke-width="0.75" stroke-linecap="round" stroke-miterlimit="10" x1="12.404" y1="13.796" x2="12.405" y2="9.905"/>
</svg>
