<?xml version="1.0" encoding="utf-8"?>
<svg version="1.1"
	 xmlns="http://www.w3.org/2000/svg" xmlns:xlink="http://www.w3.org/1999/xlink"
	 x="0px" y="0px" width="16px" height="16px" viewBox="0 0 16 16" enable-background="new 0 0 16 16" xml:space="preserve">
<defs>
</defs>
<g>
	<path fill="#0071BC" d="M8,15.75c-4.273,0-7.75-3.477-7.75-7.749C0.25,3.727,3.727,0.25,8,0.25s7.75,3.477,7.75,7.751
		C15.75,12.273,12.273,15.75,8,15.75z"/>
	<path fill="#FFFFFF" d="M8,0.5c4.136,0,7.5,3.365,7.5,7.501c0,4.135-3.364,7.499-7.5,7.499s-7.5-3.364-7.5-7.499
		C0.5,3.865,3.864,0.5,8,0.5 M8,0C3.583,0,0,3.583,0,8.001C0,12.417,3.583,16,8,16c4.419,0,8-3.583,8-7.999C16,3.583,12.419,0,8,0
		L8,0z"/>
</g>
<path fill="#FFFFFF" d="M2.288,8.483V3.879h1.585c0.358,0,0.631,0.022,0.819,0.066c0.265,0.061,0.49,0.17,0.676,0.33
	C5.611,4.48,5.793,4.743,5.913,5.062c0.12,0.32,0.181,0.684,0.181,1.095c0,0.349-0.041,0.659-0.123,0.929s-0.187,0.494-0.314,0.67
	C5.529,7.933,5.389,8.072,5.238,8.173c-0.152,0.102-0.335,0.18-0.55,0.23c-0.215,0.052-0.461,0.079-0.74,0.079H2.288z M2.897,7.94
	h0.982c0.304,0,0.542-0.028,0.715-0.085c0.172-0.056,0.311-0.136,0.413-0.238c0.144-0.145,0.257-0.339,0.336-0.582
	C5.426,6.79,5.465,6.494,5.465,6.147c0-0.482-0.078-0.852-0.236-1.11c-0.158-0.259-0.35-0.432-0.577-0.52
	C4.489,4.455,4.227,4.423,3.864,4.423H2.897V7.94z"/>
<path fill="#FFFFFF" d="M6.908,8.483V3.879h1.727c0.351,0,0.633,0.046,0.847,0.14c0.211,0.092,0.376,0.236,0.497,0.43
	c0.122,0.194,0.182,0.396,0.182,0.608c0,0.196-0.056,0.382-0.16,0.556c-0.106,0.173-0.269,0.313-0.483,0.42
	c0.279,0.082,0.49,0.221,0.644,0.418c0.149,0.196,0.224,0.429,0.224,0.697c0,0.215-0.047,0.416-0.14,0.601
	c-0.09,0.185-0.201,0.329-0.336,0.429c-0.134,0.1-0.301,0.177-0.504,0.228C9.203,8.457,8.956,8.483,8.662,8.483H6.908z M7.516,5.813
	h0.995c0.27,0,0.463-0.018,0.583-0.053c0.153-0.046,0.27-0.123,0.349-0.229C9.52,5.425,9.562,5.291,9.562,5.129
	c0-0.152-0.037-0.287-0.112-0.402C9.377,4.609,9.271,4.53,9.136,4.488c-0.135-0.043-0.369-0.064-0.7-0.064h-0.92V5.813z M7.516,7.94
	h1.146c0.197,0,0.334-0.007,0.415-0.022c0.14-0.025,0.259-0.067,0.353-0.125c0.094-0.06,0.17-0.145,0.233-0.256
	c0.059-0.111,0.09-0.241,0.09-0.387c0-0.172-0.045-0.322-0.133-0.448C9.532,6.574,9.41,6.486,9.255,6.434
	C9.099,6.383,8.874,6.357,8.58,6.357H7.516V7.94z"/>
<path fill="#FFFFFF" d="M13.962,7.94v0.543H10.92c-0.005-0.135,0.019-0.267,0.064-0.392c0.08-0.208,0.204-0.412,0.375-0.613
	c0.17-0.201,0.415-0.434,0.737-0.697c0.5-0.41,0.839-0.736,1.017-0.975c0.173-0.24,0.263-0.466,0.263-0.679
	c0-0.225-0.08-0.413-0.24-0.568c-0.159-0.154-0.371-0.23-0.629-0.23c-0.271,0-0.487,0.081-0.649,0.245
	c-0.166,0.164-0.248,0.389-0.251,0.678l-0.581-0.06c0.042-0.433,0.192-0.764,0.45-0.991c0.261-0.227,0.608-0.34,1.047-0.34
	c0.441,0,0.792,0.123,1.048,0.368c0.258,0.245,0.386,0.549,0.386,0.91c0,0.184-0.038,0.366-0.113,0.543
	c-0.074,0.178-0.2,0.366-0.377,0.562c-0.172,0.198-0.463,0.468-0.869,0.811c-0.34,0.285-0.557,0.479-0.651,0.58
	c-0.099,0.102-0.179,0.204-0.24,0.306H13.962z"/>
<g>
	<path fill="#E6E6E6" d="M12.5,15.625c-1.723,0-3.125-1.402-3.125-3.125s1.402-3.125,3.125-3.125s3.125,1.402,3.125,3.125
		S14.223,15.625,12.5,15.625z"/>
	<path fill="#FFFFFF" d="M12.5,9.75c1.517,0,2.75,1.233,2.75,2.75s-1.233,2.75-2.75,2.75s-2.75-1.233-2.75-2.75
		S10.983,9.75,12.5,9.75 M12.5,9C10.565,9,9,10.565,9,12.5c0,1.934,1.565,3.5,3.5,3.5s3.5-1.566,3.5-3.5C16,10.565,14.435,9,12.5,9
		L12.5,9z"/>
</g>
<line fill="#333333" stroke="#333333" stroke-width="0.75" stroke-linecap="round" stroke-miterlimit="10" x1="12.498" y1="10.553" x2="12.498" y2="14.447"/>
<line fill="#333333" stroke="#333333" stroke-width="0.75" stroke-linecap="round" stroke-miterlimit="10" x1="10.555" y1="12.5" x2="14.445" y2="12.5"/>
</svg>
