<?xml version="1.0" encoding="utf-8"?>
<svg version="1.1"
	 xmlns="http://www.w3.org/2000/svg" xmlns:xlink="http://www.w3.org/1999/xlink"
	 x="0px" y="0px" width="16px" height="16px" viewBox="0 0 16 16" enable-background="new 0 0 16 16" xml:space="preserve">
<defs>
</defs>
<g>
	<path fill="#0071BC" d="M7.416,14.25c-0.039,0-0.079-0.012-0.122-0.036C6.761,13.909,5.77,12.58,5.921,11.82
		c0.175-0.871,0.542-2.489,0.813-3.03C6.96,8.337,7.916,7.308,8.642,7.308c0.122,0,0.229,0.03,0.326,0.09
		c0.628,0.389,1.86,1.375,2.031,2.327c0.056,0.314-0.012,0.589-0.209,0.842c-0.511,0.652-0.943,1.005-1.325,1.315
		c-0.357,0.292-0.667,0.543-0.909,0.947l-0.14,0.238C8.124,13.566,7.724,14.25,7.416,14.25z"/>
	<path fill="#FFFFFF" d="M8.642,7.558L8.642,7.558c0.075,0,0.137,0.017,0.195,0.053c0.692,0.428,1.773,1.355,1.917,2.159
		c0.044,0.243-0.007,0.447-0.159,0.643c-0.494,0.631-0.915,0.974-1.286,1.276c-0.361,0.293-0.701,0.57-0.966,1.013L8.2,12.94
		c-0.192,0.329-0.593,1.015-0.782,1.057c-0.51-0.292-1.367-1.545-1.251-2.127c0.223-1.114,0.566-2.518,0.791-2.968
		C7.158,8.501,8.057,7.558,8.642,7.558 M8.642,7.058c-0.866,0-1.89,1.138-2.131,1.62c-0.285,0.57-0.658,2.216-0.834,3.093
		c-0.175,0.88,0.878,2.307,1.493,2.659C7.253,14.479,7.335,14.5,7.416,14.5c0.51,0,0.958-0.878,1.355-1.542
		c0.46-0.768,1.206-0.945,2.217-2.238c1.011-1.296-0.965-2.963-1.888-3.534C8.956,7.097,8.802,7.058,8.642,7.058L8.642,7.058z"/>
</g>
<g>
	<path fill="#0071BC" d="M6.252,14.207c-0.798,0-1.046-0.098-1.387-0.393c-0.826-0.714-0.879-1.473-0.881-1.505l-0.016-0.284
		l-0.28,0.051c-0.01,0.002-0.247,0.046-0.592,0.046c-0.954,0-2.185-0.303-2.634-1.74c-0.951-3.05,1.541-4.816,2.403-5.323
		c0.05,0.094,0.128,0.195,0.246,0.297c0.137,0.117,0.25,0.304,0.325,0.453c-0.64,0.37-2.453,1.624-1.996,3.738
		c0.146,0.674,0.669,1.045,1.474,1.045c0.72,0,1.443-0.287,1.473-0.299c0.085-0.058,0.591-0.544,1.031-0.859
		C5.778,9.171,6.381,8.73,7.244,8.73c0.717,0,1.479,0.3,2.268,0.894c0.836,0.631,0.61,1.706,0.476,2.139
		c-0.355,1.134-1.443,2.366-2.758,2.418C6.836,14.196,6.518,14.207,6.252,14.207z"/>
	<path fill="#FFFFFF" d="M2.796,5.395c0.044,0.05,0.094,0.101,0.153,0.151C3,5.589,3.048,5.649,3.093,5.715
		C2.077,6.354,0.787,7.709,1.196,9.6c0.171,0.79,0.797,1.242,1.718,1.242c0.768,0,1.534-0.305,1.566-0.317l0.091-0.036l0.07-0.068
		c0.005-0.005,0.496-0.478,0.923-0.783l0.073-0.053C5.925,9.373,6.462,8.979,7.244,8.98c0.662,0,1.374,0.284,2.117,0.843
		c0.709,0.535,0.507,1.482,0.387,1.864c-0.329,1.053-1.328,2.196-2.529,2.243c-0.388,0.016-0.704,0.026-0.967,0.026
		c-0.768,0-0.945-0.091-1.223-0.331c-0.737-0.638-0.793-1.305-0.794-1.326l-0.027-0.573l-0.564,0.104
		c-0.002,0-0.225,0.041-0.546,0.041c-0.87,0-1.991-0.271-2.395-1.564C-0.132,7.637,1.856,5.999,2.796,5.395 M3.033,4.683
		c0,0-4.007,1.932-2.809,5.773c0.519,1.661,2.009,1.916,2.873,1.916c0.38,0,0.639-0.05,0.639-0.05s0.04,0.88,0.967,1.682
		c0.409,0.354,0.727,0.453,1.55,0.453c0.269,0,0.59-0.011,0.987-0.026c2.357-0.093,4.199-3.667,2.423-5.007
		C8.717,8.712,7.907,8.48,7.244,8.48c-1.021,0-1.692,0.55-1.971,0.75c-0.461,0.33-0.979,0.83-0.979,0.83s-0.7,0.281-1.38,0.281
		c-0.55,0-1.086-0.184-1.229-0.848C1.171,7.118,3.757,5.92,3.757,5.92S3.582,5.429,3.274,5.166C2.974,4.908,3.033,4.683,3.033,4.683
		L3.033,4.683z"/>
</g>
<g>
	<path fill="#0071BC" d="M11.12,15.75c-0.72,0-2.46-1.092-2.707-1.602c-0.118-0.246,0.354-0.838,0.697-1.27
		c0.302-0.378,0.612-0.769,0.746-1.122c0.627-1.651-0.304-2.389-0.751-2.742C9.067,8.984,9.021,8.948,8.983,8.916
		c0.231-0.228,0.372-0.449,0.487-0.63c0.188-0.298,0.293-0.462,0.674-0.518c0.095-0.014,0.254-0.022,0.459-0.022
		c0.191,0,4.679,0.028,5.14,2.478c0.127,0.674-1.25,2.93-2.454,4.024l-0.182,0.166c-0.562,0.516-1.33,1.223-1.914,1.33L11.12,15.75z
		"/>
	<path fill="#FFFFFF" d="M10.604,7.996c1.545,0,4.556,0.475,4.895,2.274c0.101,0.539-1.18,2.705-2.378,3.793l-0.182,0.167
		c-0.509,0.468-1.277,1.175-1.818,1.271c-0.611,0-2.277-1.036-2.475-1.438c-0.011-0.185,0.426-0.733,0.661-1.028
		c0.313-0.393,0.636-0.799,0.784-1.188c0.65-1.714-0.253-2.563-0.742-2.957c0.144-0.171,0.245-0.331,0.333-0.469
		c0.183-0.289,0.231-0.366,0.497-0.404C10.211,8.01,10.337,7.996,10.604,7.996 M10.604,7.496c-0.221,0-0.393,0.01-0.495,0.024
		C9.302,7.637,9.401,8.209,8.725,8.816c-0.396,0.35,1.731,0.658,0.898,2.852c-0.307,0.81-1.741,1.952-1.435,2.589
		C8.479,14.86,10.316,16,11.12,16c0.042,0,0.082-0.003,0.118-0.01c0.724-0.133,1.613-1.007,2.219-1.558
		c1.184-1.075,2.689-3.417,2.532-4.255C15.563,7.913,12.038,7.496,10.604,7.496L10.604,7.496z"/>
</g>
<path fill="#0071BC" stroke="#FFFFFF" stroke-width="0.5" stroke-miterlimit="10" d="M6.101,10.077
	c0.023,0.023,0.166-0.118,0.474-0.118s0.617,0.096,0.735,0.166"/>
<g>
	<path fill="#E6E6E6" d="M5.838,6.625c-1.723,0-3.125-1.402-3.125-3.125c0-1.723,1.402-3.125,3.125-3.125
		c1.723,0,3.125,1.402,3.125,3.125C8.963,5.223,7.561,6.625,5.838,6.625z"/>
	<path fill="#FFFFFF" d="M5.838,0.75c1.517,0,2.75,1.233,2.75,2.75s-1.233,2.75-2.75,2.75s-2.75-1.233-2.75-2.75
		S4.322,0.75,5.838,0.75 M5.838,0c-1.935,0-3.5,1.565-3.5,3.5c0,1.934,1.565,3.5,3.5,3.5s3.5-1.566,3.5-3.5
		C9.338,1.565,7.773,0,5.838,0L5.838,0z"/>
</g>
<line fill="#333333" stroke="#333333" stroke-width="0.75" stroke-linecap="round" stroke-miterlimit="10" x1="5.836" y1="1.553" x2="5.836" y2="5.447"/>
<line fill="#333333" stroke="#333333" stroke-width="0.75" stroke-linecap="round" stroke-miterlimit="10" x1="3.893" y1="3.5" x2="7.784" y2="3.5"/>
</svg>
