<?xml version="1.0" encoding="utf-8"?>
<svg version="1.1"
	 xmlns="http://www.w3.org/2000/svg" xmlns:xlink="http://www.w3.org/1999/xlink"
	 x="0px" y="0px" width="16px" height="16px" viewBox="-0.036 0.037 16 16" enable-background="new -0.036 0.037 16 16"
	 xml:space="preserve">
<defs>
</defs>
<g>
	<path fill="#0071BC" d="M3.738,8.412c-1.856,0-3.149-0.837-3.149-1.588s1.293-1.588,3.149-1.588c1.854,0,3.146,0.837,3.146,1.588
		S5.592,8.412,3.738,8.412z"/>
	<path fill="#FFFFFF" d="M3.738,5.61c1.692,0,2.771,0.719,2.771,1.213S5.43,8.037,3.738,8.037c-1.693,0-2.774-0.719-2.774-1.213
		S2.044,5.61,3.738,5.61 M3.738,4.86c-1.945,0-3.524,0.879-3.524,1.963c0,1.083,1.579,1.963,3.524,1.963
		c1.944,0,3.521-0.881,3.521-1.963C7.259,5.739,5.682,4.86,3.738,4.86L3.738,4.86z"/>
</g>
<g>
	<path fill="#0071BC" d="M12.192,8.412c-1.856,0-3.15-0.837-3.15-1.588s1.294-1.588,3.15-1.588c1.854,0,3.146,0.837,3.146,1.588
		S14.047,8.412,12.192,8.412z"/>
	<path fill="#FFFFFF" d="M12.192,5.61c1.691,0,2.771,0.719,2.771,1.213s-1.08,1.213-2.771,1.213c-1.668,0-2.774-0.73-2.774-1.213
		C9.418,6.329,10.498,5.61,12.192,5.61 M12.192,4.86c-1.945,0-3.525,0.879-3.525,1.963c0,1.083,1.58,1.963,3.525,1.963
		c1.944,0,3.521-0.881,3.521-1.963C15.714,5.739,14.137,4.86,12.192,4.86L12.192,4.86z"/>
</g>
<line fill="none" stroke="#FFFFFF" stroke-width="0.75" stroke-miterlimit="10" x1="6.667" y1="6.863" x2="9.269" y2="6.863"/>
<line fill="none" stroke="#FFFFFF" stroke-width="0.75" stroke-linecap="round" stroke-miterlimit="10" x1="0.375" y1="6.804" x2="4.795" y2="0.375"/>
<line fill="none" stroke="#FFFFFF" stroke-width="0.75" stroke-linecap="round" stroke-miterlimit="10" x1="15.55" y1="6.804" x2="11.13" y2="0.375"/>
<g>
	<path fill="#E6E6E6" d="M12.464,15.662c-1.723,0-3.125-1.402-3.125-3.125s1.402-3.125,3.125-3.125s3.125,1.402,3.125,3.125
		S14.187,15.662,12.464,15.662z"/>
	<path fill="#FFFFFF" d="M12.464,9.787c1.517,0,2.75,1.233,2.75,2.75s-1.233,2.75-2.75,2.75s-2.75-1.233-2.75-2.75
		S10.947,9.787,12.464,9.787 M12.464,9.037c-1.935,0-3.5,1.565-3.5,3.5c0,1.934,1.565,3.5,3.5,3.5s3.5-1.566,3.5-3.5
		C15.964,10.603,14.398,9.037,12.464,9.037L12.464,9.037z"/>
</g>
<line fill="#333333" stroke="#333333" stroke-width="0.75" stroke-linecap="round" stroke-miterlimit="10" x1="12.462" y1="10.59" x2="12.462" y2="14.484"/>
<line fill="#333333" stroke="#333333" stroke-width="0.75" stroke-linecap="round" stroke-miterlimit="10" x1="10.519" y1="12.537" x2="14.409" y2="12.537"/>
</svg>
