<?xml version="1.0" encoding="utf-8"?>
<svg version="1.1"
	 xmlns="http://www.w3.org/2000/svg" xmlns:xlink="http://www.w3.org/1999/xlink"
	 x="0px" y="0px" width="16px" height="16px" viewBox="0.161 0 16 16" enable-background="new 0.161 0 16 16" xml:space="preserve">
<defs>
</defs>
<line fill="none" stroke="#B3B3B3" stroke-width="0.75" stroke-miterlimit="10" x1="4.286" y1="3.641" x2="4.286" y2="15.615"/>
<line fill="none" stroke="#B3B3B3" stroke-width="0.75" stroke-miterlimit="10" x1="12.518" y1="11.873" x2="0.544" y2="11.873"/>
<line fill="none" stroke="#B3B3B3" stroke-width="0.75" stroke-miterlimit="10" x1="12.518" y1="7.383" x2="0.544" y2="7.383"/>
<line fill="none" stroke="#B3B3B3" stroke-width="0.75" stroke-miterlimit="10" x1="8.776" y1="3.641" x2="8.776" y2="15.615"/>
<line fill="none" stroke="#FFFFFF" stroke-width="0.75" stroke-miterlimit="10" x1="1.936" y1="5.183" x2="7.071" y2="16"/>
<line fill="none" stroke="#FFFFFF" stroke-width="0.75" stroke-miterlimit="10" x1="12.903" y1="9.089" x2="2.086" y2="14.225"/>
<line fill="none" stroke="#FFFFFF" stroke-width="0.75" stroke-miterlimit="10" x1="10.977" y1="5.032" x2="0.161" y2="10.167"/>
<line fill="none" stroke="#FFFFFF" stroke-width="0.75" stroke-miterlimit="10" x1="5.992" y1="3.257" x2="11.127" y2="14.074"/>
<path fill="#D9E021" d="M15.098,6.28c0.278,0.193,0.461,0.314,0.546,0.364c0.128,0.072,0.3,0.156,0.517,0.251l-0.62,1.249
	c-0.312-0.151-0.619-0.33-0.925-0.539c-0.305-0.208-0.518-0.365-0.639-0.47c-0.492,0.213-1.108,0.32-1.85,0.32
	c-1.095,0-1.959-0.285-2.592-0.856C8.789,5.924,8.415,4.975,8.415,3.752c0-1.187,0.327-2.109,0.981-2.767
	C10.05,0.329,10.963,0,12.137,0c1.197,0,2.121,0.321,2.772,0.964c0.649,0.643,0.976,1.563,0.976,2.759
	C15.885,4.789,15.623,5.641,15.098,6.28z M13.391,5.139c0.178-0.318,0.266-0.793,0.266-1.426c0-0.728-0.134-1.248-0.404-1.559
	c-0.271-0.311-0.645-0.467-1.12-0.467c-0.442,0-0.802,0.159-1.077,0.477c-0.275,0.318-0.412,0.814-0.412,1.49
	c0,0.787,0.134,1.339,0.402,1.658c0.27,0.318,0.638,0.477,1.106,0.477c0.151,0,0.294-0.015,0.429-0.044
	c-0.188-0.18-0.482-0.351-0.886-0.512l0.35-0.801c0.196,0.036,0.35,0.08,0.46,0.133c0.109,0.052,0.323,0.19,0.642,0.413
	C13.221,5.029,13.303,5.083,13.391,5.139z"/>
<g>
	<path fill="#39B54A" d="M9.603,15.625c-1.466,0-2.633-0.646-3.125-0.969l0.326-0.588c0.462,0.168,1.363,0.44,2.314,0.44
		c1.257,0,2.216-0.487,2.772-1.409c0.76-1.26,0.428-3.242,0.215-4.154h2.188c0.204,0.916,0.684,3.959-1.49,5.562
		C11.797,15.249,10.721,15.625,9.603,15.625z"/>
	<path fill="#FFFFFF" d="M13.989,9.32c0.199,1.082,0.409,3.545-1.408,4.885c-0.939,0.693-1.941,1.045-2.978,1.045
		c-1.123,0-2.067-0.414-2.619-0.726c0.527,0.167,1.313,0.359,2.135,0.359c1.396,0,2.466-0.55,3.094-1.59
		c0.72-1.194,0.563-2.902,0.359-3.974H13.989 M14.586,8.57H11.62c0,0,0.866,2.816-0.05,4.336c-0.574,0.951-1.531,1.228-2.451,1.228
		c-1.278,0-2.483-0.534-2.483-0.534l-0.648,1.168c0,0,1.514,1.232,3.615,1.232c1.035,0,2.213-0.299,3.423-1.191
		C15.841,12.732,14.586,8.57,14.586,8.57L14.586,8.57z"/>
</g>
<g>
	<polygon fill="#39B54A" points="10.998,9.027 13.168,6.525 15.339,9.027 	"/>
	<path fill="#FFFFFF" d="M13.168,7.097l1.349,1.555h-0.351h-1.994H11.82L13.168,7.097 M13.168,5.953l-2.992,3.45h1.996h1.994h1.994
		L13.168,5.953L13.168,5.953z"/>
</g>
</svg>
