<?xml version="1.0" encoding="utf-8"?>
<svg version="1.1"
	 xmlns="http://www.w3.org/2000/svg" xmlns:xlink="http://www.w3.org/1999/xlink"
	 x="0px" y="0px" width="16px" height="16px" viewBox="-0.75 -0.25 16 16" enable-background="new -0.75 -0.25 16 16"
	 xml:space="preserve">
<defs>
</defs>
<g>
	<rect x="0.375" y="0.375" fill="#CCCCCC" width="13.75" height="2.75"/>
	<path fill="#FFFFFF" d="M13.75,0.75v2h-13v-2H13.75 M14.5,0h-0.75h-13H0v0.75v2V3.5h0.75h13h0.75V2.75v-2V0L14.5,0z"/>
</g>
<g>
	<rect x="0.375" y="3.375" fill="#666666" width="3.75" height="11.75"/>
	<path fill="#FFFFFF" d="M3.75,3.75v11h-3v-11H3.75 M4.5,3H3.75h-3H0v0.75v11v0.75h0.75h3H4.5v-0.75v-11V3L4.5,3z"/>
</g>
<g>
	<rect x="4.375" y="3.375" fill="#FFFFFF" width="9.75" height="11.75"/>
	<path fill="#FFFFFF" d="M13.75,3.75v11h-9v-11H13.75 M14.5,3h-0.75h-9H4v0.75v11v0.75h0.75h9h0.75v-0.75v-11V3L14.5,3z"/>
</g>
<g>
	<path fill="#FBB03B" d="M9.412,8.17l0.036,0.103l0.276,0.794l0.758-0.366l0.158-0.076l-0.08,0.173l-0.346,0.753l0.783,0.27
		l0.104,0.036l-0.104,0.036l-0.784,0.269l0.346,0.754l0.079,0.172l-0.157-0.076l-0.758-0.365L9.448,11.44l-0.036,0.104L9.376,11.44
		L9.1,10.646l-0.758,0.365l-0.158,0.076l0.08-0.172l0.346-0.754L7.825,9.894L7.721,9.857l0.104-0.036l0.784-0.27L8.264,8.799
		l-0.08-0.173l0.158,0.076L9.1,9.067l0.276-0.794L9.412,8.17 M9.412,5.892L8.668,8.026L6.632,7.044l0.95,2.068l-2.17,0.746
		l2.17,0.744l-0.95,2.068l2.036-0.983l0.744,2.136l0.744-2.136l2.036,0.983l-0.95-2.068l2.17-0.744l-2.17-0.746l0.95-2.068
		l-2.036,0.982L9.412,5.892L9.412,5.892z"/>
</g>
<g>
	<polygon fill="#FFFFFF" points="9.412,8.715 9.629,9.326 10.22,9.05 9.943,9.641 10.555,9.857 9.943,10.074 10.22,10.665 
		9.629,10.389 9.412,11 9.195,10.389 8.604,10.665 8.881,10.074 8.27,9.857 8.881,9.641 8.604,9.05 9.195,9.326 	"/>
	<polygon fill="#FFFFFF" points="9.412,8.715 9.195,9.326 8.604,9.05 8.881,9.641 8.27,9.857 8.881,10.074 8.604,10.665 
		9.195,10.389 9.412,11 9.629,10.389 10.22,10.665 9.943,10.074 10.555,9.857 9.943,9.641 10.22,9.05 9.629,9.326 9.412,8.715 	"/>
</g>
</svg>
