<?xml version="1.0" encoding="utf-8"?>
<svg version="1.1"
	 xmlns="http://www.w3.org/2000/svg" xmlns:xlink="http://www.w3.org/1999/xlink"
	 x="0px" y="0px" width="16px" height="16px" viewBox="0 -2.716 16 16" enable-background="new 0 -2.716 16 16"
	 xml:space="preserve">
<defs>
</defs>
<g>
	<rect x="0.375" y="0.375" fill="#333333" width="15.238" height="3.784"/>
	<path fill="#FFFFFF" d="M15.238,0.75v3.034H0.75V0.75H15.238 M15.988,0h-0.75H0.75H0v0.75v3.034v0.75h0.75h14.488h0.75v-0.75V0.75
		V0L15.988,0z"/>
</g>
<g>
	<rect x="0.762" y="0.75" fill="#E6E6E6" width="1.811" height="3.034"/>
</g>
<g>
	<rect x="4.987" y="0.75" fill="#E6E6E6" width="1.811" height="3.034"/>
</g>
<g>
	<rect x="9.213" y="0.75" fill="#E6E6E6" width="1.811" height="3.034"/>
</g>
<g>
	<rect x="13.439" y="0.75" fill="#E6E6E6" width="1.811" height="3.034"/>
</g>
<g>
	<path fill="#E6E6E6" d="M12.5,12.909c-1.723,0-3.125-1.402-3.125-3.125s1.402-3.125,3.125-3.125s3.125,1.402,3.125,3.125
		S14.223,12.909,12.5,12.909z"/>
	<path fill="#FFFFFF" d="M12.5,7.034c1.517,0,2.75,1.233,2.75,2.75s-1.233,2.75-2.75,2.75s-2.75-1.233-2.75-2.75
		S10.983,7.034,12.5,7.034 M12.5,6.284c-1.935,0-3.5,1.565-3.5,3.5c0,1.934,1.565,3.5,3.5,3.5s3.5-1.566,3.5-3.5
		C16,7.85,14.435,6.284,12.5,6.284L12.5,6.284z"/>
</g>
<line fill="#333333" stroke="#333333" stroke-width="0.75" stroke-miterlimit="10" x1="12.498" y1="7.433" x2="12.498" y2="12.136"/>
<line fill="#333333" stroke="#333333" stroke-width="0.75" stroke-miterlimit="10" x1="10.15" y1="9.784" x2="14.85" y2="9.784"/>
</svg>
