<?xml version="1.0" encoding="utf-8"?>
<svg version="1.1"
	 xmlns="http://www.w3.org/2000/svg" xmlns:xlink="http://www.w3.org/1999/xlink"
	 x="0px" y="0px" width="16px" height="16px" viewBox="0 0 16 16" enable-background="new 0 0 16 16" xml:space="preserve">
<defs>
</defs>
<rect display="none" fill="#4D4D4D" width="16" height="16"/>
<g>
	<path fill="#0071BC" d="M3.2,15.625c-1.558,0-2.825-1.268-2.825-2.825V3.2c0-1.558,1.267-2.825,2.825-2.825h9.6
		c1.558,0,2.825,1.267,2.825,2.825v9.6c0,1.558-1.268,2.825-2.825,2.825H3.2z"/>
	<path fill="#FFFFFF" d="M12.8,0.75c1.351,0,2.45,1.099,2.45,2.45v9.6c0,1.351-1.1,2.45-2.45,2.45H3.2c-1.351,0-2.45-1.1-2.45-2.45
		V3.2c0-1.351,1.099-2.45,2.45-2.45H12.8 M12.8,0H3.2C1.433,0,0,1.433,0,3.2v9.6C0,14.567,1.433,16,3.2,16h9.6
		c1.768,0,3.2-1.433,3.2-3.2V3.2C16,1.433,14.567,0,12.8,0L12.8,0z"/>
</g>
<polyline fill="none" stroke="#FFFFFF" stroke-width="0.75" stroke-linecap="round" stroke-miterlimit="10" points="3.265,3.353 
	6.09,12.302 8.014,3.552 11.969,3.552 "/>
<g>
	<circle fill="#29ABE2" cx="3.473" cy="3.472" r="0.812"/>
	<path fill="#FFFFFF" d="M3.473,3.036c0.24,0,0.436,0.196,0.436,0.438c0,0.24-0.195,0.436-0.436,0.436
		c-0.241,0-0.438-0.195-0.438-0.436C3.036,3.232,3.232,3.036,3.473,3.036 M3.473,2.286c-0.656,0-1.188,0.531-1.188,1.188
		c0,0.654,0.531,1.186,1.188,1.186c0.655,0,1.186-0.531,1.186-1.186C4.659,2.817,4.128,2.286,3.473,2.286L3.473,2.286z"/>
</g>
<g>
	<circle fill="#29ABE2" cx="8.219" cy="3.472" r="0.812"/>
	<path fill="#FFFFFF" d="M8.219,3.036c0.241,0,0.438,0.196,0.438,0.438c0,0.24-0.196,0.436-0.438,0.436
		c-0.24,0-0.435-0.195-0.435-0.436C7.784,3.232,7.979,3.036,8.219,3.036 M8.219,2.286c-0.655,0-1.185,0.531-1.185,1.188
		c0,0.654,0.53,1.186,1.185,1.186c0.658,0,1.188-0.531,1.188-1.186C9.406,2.817,8.877,2.286,8.219,2.286L8.219,2.286z"/>
</g>
<g>
	<circle fill="#29ABE2" cx="11.384" cy="3.472" r="0.812"/>
	<path fill="#FFFFFF" d="M11.384,3.036c0.241,0,0.438,0.196,0.438,0.438c0,0.24-0.196,0.436-0.438,0.436s-0.438-0.195-0.438-0.436
		C10.946,3.232,11.143,3.036,11.384,3.036 M11.384,2.286c-0.656,0-1.188,0.531-1.188,1.188c0,0.654,0.531,1.186,1.188,1.186
		c0.658,0,1.188-0.531,1.188-1.186C12.571,2.817,12.042,2.286,11.384,2.286L11.384,2.286z"/>
</g>
<g>
	<path fill="#E6E6E6" d="M12.5,15.625c-1.723,0-3.125-1.402-3.125-3.125s1.402-3.125,3.125-3.125s3.125,1.402,3.125,3.125
		S14.223,15.625,12.5,15.625z"/>
	<path fill="#FFFFFF" d="M12.5,9.75c1.517,0,2.75,1.233,2.75,2.75s-1.233,2.75-2.75,2.75s-2.75-1.233-2.75-2.75
		S10.983,9.75,12.5,9.75 M12.5,9C10.565,9,9,10.565,9,12.5c0,1.934,1.565,3.5,3.5,3.5s3.5-1.566,3.5-3.5C16,10.565,14.435,9,12.5,9
		L12.5,9z"/>
</g>
<line fill="#333333" stroke="#333333" stroke-width="0.75" stroke-linecap="round" stroke-miterlimit="10" x1="12.498" y1="10.553" x2="12.498" y2="14.447"/>
<line fill="#333333" stroke="#333333" stroke-width="0.75" stroke-linecap="round" stroke-miterlimit="10" x1="10.555" y1="12.5" x2="14.445" y2="12.5"/>
</svg>
