<?xml version="1.0" encoding="utf-8"?>
<svg version="1.1"
	 xmlns="http://www.w3.org/2000/svg" xmlns:xlink="http://www.w3.org/1999/xlink"
	 x="0px" y="0px" width="16px" height="16px" viewBox="0 0 16 16" enable-background="new 0 0 16 16" xml:space="preserve">
<defs>
</defs>
<g>
	<path fill="#F4C9CC" d="M1.231,15.625c-0.472,0-0.856-0.384-0.856-0.856V1.231c0-0.472,0.384-0.856,0.856-0.856h13.537
		c0.473,0,0.856,0.384,0.856,0.856v13.537c0,0.473-0.384,0.856-0.856,0.856H1.231z"/>
	<path fill="#FFFFFF" d="M14.769,0.75c0.266,0,0.481,0.216,0.481,0.481v13.537c0,0.266-0.216,0.481-0.481,0.481H1.231
		c-0.266,0-0.481-0.216-0.481-0.481V1.231c0-0.266,0.216-0.481,0.481-0.481H14.769 M14.769,0H1.231C0.552,0,0,0.552,0,1.231v13.537
		C0,15.45,0.552,16,1.231,16h13.537C15.45,16,16,15.45,16,14.769V1.231C16,0.552,15.45,0,14.769,0L14.769,0z"/>
</g>
<g>
	<rect x="7.804" y="3.833" fill="#C1272D" width="6.106" height="2.678"/>
	<path fill="#FFFFFF" d="M13.535,4.208v1.928H8.179V4.208H13.535 M14.285,3.458H7.429v3.428h6.856V3.458L14.285,3.458z"/>
</g>
<g>
	<rect x="7.804" y="9.547" fill="#C1272D" width="6.106" height="2.678"/>
	<path fill="#FFFFFF" d="M13.535,9.922v1.928H8.179V9.922H13.535 M14.285,9.172H7.429V12.6h6.856V9.172L14.285,9.172z"/>
</g>
<line fill="none" stroke="#4D4D4D" stroke-width="0.5" stroke-miterlimit="10" x1="3" y1="5.25" x2="7" y2="5.25"/>
<line fill="none" stroke="#4D4D4D" stroke-width="0.5" stroke-miterlimit="10" x1="3" y1="11" x2="7" y2="11"/>
</svg>
