<?xml version="1.0" encoding="utf-8"?>
<svg version="1.1"
	 xmlns="http://www.w3.org/2000/svg" xmlns:xlink="http://www.w3.org/1999/xlink"
	 x="0px" y="0px" width="16px" height="16px" viewBox="-2.285 0 16 16" enable-background="new -2.285 0 16 16"
	 xml:space="preserve">
<defs>
</defs>
<polygon fill="#FBB03B" points="8.506,0 9.837,0 7.361,6.625 5.602,8.243 5.515,5.716 7.765,0 "/>
<g>
	<polygon fill="#808080" points="0.375,15.625 0.375,0.375 7.446,0.375 5.339,5.644 5.364,8.631 7.511,6.476 9.848,0.375 
		11.055,0.375 11.055,15.625 	"/>
	<path fill="#FFFFFF" d="M10.68,0.75v14.5H0.75V0.75h6.143L5.019,5.436L4.964,5.573l0.001,0.148l0.017,2.016l0.015,1.794L6.263,8.26
		l1.458-1.463l0.112-0.113L7.89,6.535l2.216-5.785H10.68 M11.43,0H9.59l-2.4,6.267L5.731,7.73L5.715,5.714L8,0H0v16h11.43V0L11.43,0
		z"/>
</g>
<g>
	<path fill="#E6E6E6" d="M10.214,15.625c-1.723,0-3.124-1.402-3.124-3.127c0-1.723,1.401-3.123,3.124-3.123
		c1.724,0,3.126,1.4,3.126,3.123C13.34,14.223,11.938,15.625,10.214,15.625z"/>
	<path fill="#FFFFFF" d="M10.214,9.75c1.517,0,2.751,1.232,2.751,2.748c0,1.518-1.234,2.752-2.751,2.752
		c-1.516,0-2.749-1.234-2.749-2.752C7.465,10.982,8.698,9.75,10.214,9.75 M10.214,9c-1.933,0-3.499,1.567-3.499,3.499
		c0,1.934,1.566,3.502,3.499,3.502c1.935,0,3.501-1.568,3.501-3.502C13.715,10.566,12.148,9,10.214,9L10.214,9z"/>
</g>
<line fill="none" stroke="#333333" stroke-width="0.75" stroke-linecap="round" stroke-miterlimit="10" x1="8.674" y1="11.021" x2="11.633" y2="13.979"/>
<line fill="none" stroke="#333333" stroke-width="0.75" stroke-linecap="round" stroke-miterlimit="10" x1="11.633" y1="11.021" x2="8.674" y2="13.979"/>
<line fill="none" stroke="#333333" stroke-width="0.75" stroke-linecap="round" stroke-miterlimit="10" x1="10.174" y1="10.527" x2="10.174" y2="14.473"/>
<line fill="none" stroke="#333333" stroke-width="0.75" stroke-linecap="round" stroke-miterlimit="10" x1="8.242" y1="12.5" x2="12.188" y2="12.5"/>
</svg>
