<?xml version="1.0" encoding="utf-8"?>
<svg version="1.1"
	 xmlns="http://www.w3.org/2000/svg" xmlns:xlink="http://www.w3.org/1999/xlink"
	 x="0px" y="0px" width="16px" height="16px" viewBox="0 0 16 16" enable-background="new 0 0 16 16" xml:space="preserve">
<defs>
</defs>
<g>
	<path fill="#0071BC" d="M8,15.625c-4.205,0-7.625-3.421-7.625-7.625c0-4.205,3.42-7.625,7.625-7.625
		c4.204,0,7.625,3.42,7.625,7.625C15.625,12.204,12.204,15.625,8,15.625z"/>
	<path fill="#FFFFFF" d="M8,0.75c3.998,0,7.25,3.252,7.25,7.25c0,3.998-3.252,7.25-7.25,7.25c-3.998,0-7.25-3.252-7.25-7.25
		C0.75,4.002,4.002,0.75,8,0.75 M8,0C3.583,0,0,3.581,0,8c0,4.419,3.583,8,8,8c4.417,0,8-3.581,8-8C16,3.581,12.417,0,8,0L8,0z"/>
</g>
<g>
	
		<rect x="4.503" y="3.3" transform="matrix(-0.1618 0.9868 -0.9868 -0.1618 11.4604 0.8433)" fill="#FFFFFF" width="1.739" height="3.977"/>
	<path fill="#FFFFFF" d="M3.756,4.396l3.432,0.563l-0.2,1.222L3.556,5.619L3.756,4.396 M3.344,3.822L2.982,6.032L7.4,6.755
		l0.362-2.208L3.344,3.822L3.344,3.822z"/>
</g>
<g>
	
		<rect x="10.026" y="4.205" transform="matrix(-0.1617 0.9868 -0.9868 -0.1617 18.77 -3.5563)" fill="#FFFFFF" width="1.739" height="3.978"/>
	<path fill="#FFFFFF" d="M9.279,5.301l3.433,0.563l-0.2,1.223L9.079,6.524L9.279,5.301 M8.867,4.727L8.505,6.937l4.42,0.725
		l0.361-2.21L8.867,4.727L8.867,4.727z"/>
</g>
<g>
	
		<rect x="7.271" y="4.874" transform="matrix(-0.1618 0.9868 -0.9868 -0.1618 15.1246 -1.36)" fill="#29ABE2" width="1.739" height="1.739"/>
	<path fill="#FFFFFF" d="M7.628,5.032l1.223,0.201L8.651,6.455l-1.223-0.2L7.628,5.032 M7.216,4.458L6.854,6.667l2.209,0.362
		L9.426,4.82L7.216,4.458L7.216,4.458z"/>
</g>
<g>
	
		<rect x="7.559" y="6.53" transform="matrix(-0.1615 0.9869 -0.9869 -0.1615 16.4417 0.829)" fill="#FFFFFF" width="0.62" height="1.739"/>
	<path fill="#FFFFFF" d="M7.267,7.24l1.223,0.201L8.47,7.559l-1.222-0.2L7.267,7.24 M6.854,6.666L6.673,7.771l2.208,0.361
		l0.183-1.104L6.854,6.666L6.854,6.666z"/>
</g>
<g>
	<path fill="#FFFFFF" d="M6.817,8.302l1.747,0.286l1.56,2.645l-5.627-0.922L6.817,8.302 M6.667,7.771l-3.304,2.861l7.735,1.267
		L8.876,8.132L6.667,7.771L6.667,7.771z"/>
</g>
</svg>
