<?xml version="1.0" encoding="utf-8"?>
<svg version="1.1"
	 xmlns="http://www.w3.org/2000/svg" xmlns:xlink="http://www.w3.org/1999/xlink"
	 x="0px" y="0px" width="16px" height="16px" viewBox="0 -2.197 16 16" enable-background="new 0 -2.197 16 16"
	 xml:space="preserve">
<defs>
</defs>
<g>
	<polygon fill="#F15A24" points="7.589,0.661 4.587,4.661 1.554,0.661 	"/>
</g>
<g>
	<polygon fill="#CCCCCC" points="0.375,13.428 0.375,0.464 0.956,0.464 4.571,5.286 8.188,0.464 15.625,0.464 15.625,13.428 	"/>
	<path fill="#FFFFFF" d="M15.25,0.839v12.214H0.75V0.839h0.018l3.203,4.271l0.6,0.8l0.6-0.8l3.204-4.271H15.25 M16,0.089H8
		L4.571,4.661L1.143,0.089H0v13.714h16V0.089L16,0.089z"/>
</g>
<line fill="none" stroke="#F15A24" stroke-width="0.75" stroke-miterlimit="10" x1="2" y1="7.303" x2="14" y2="7.303"/>
<line fill="none" stroke="#F15A24" stroke-width="0.75" stroke-miterlimit="10" x1="2" y1="9.303" x2="14" y2="9.303"/>
<line fill="none" stroke="#F15A24" stroke-width="0.75" stroke-miterlimit="10" x1="2" y1="11.303" x2="14" y2="11.303"/>
<line fill="none" stroke="#FFFFFF" stroke-width="0.75" stroke-miterlimit="10" x1="1.143" y1="0.375" x2="8" y2="0.375"/>
</svg>
