<?xml version="1.0" encoding="utf-8"?>
<svg version="1.1"
	 xmlns="http://www.w3.org/2000/svg" xmlns:xlink="http://www.w3.org/1999/xlink"
	 x="0px" y="0px" width="16px" height="16px" viewBox="-2 0 16 16" enable-background="new -2 0 16 16" xml:space="preserve">
<defs>
</defs>
<g>
	<rect x="2.613" y="0.375" fill="#597237" width="9.32" height="13.348"/>
	<path fill="#E6E6E6" d="M11.558,0.75v2.271v10.327h-8.57V0.75h6.299H11.558 M12.308,0H9.287H2.238v14.098h10.07V3.021V0L12.308,0z"
		/>
</g>
<g>
	<rect x="0.375" y="2.277" fill="#D9E021" width="9.32" height="13.348"/>
	<path fill="#FFFFFF" d="M9.32,2.652v2.271V15.25H0.75V2.652h6.299H9.32 M10.07,1.902H7.049H0V16h10.07V4.923V1.902L10.07,1.902z"/>
</g>
<rect x="9.391" y="9.501" transform="matrix(0.8172 -0.5763 0.5763 0.8172 -4.9773 8.1345)" fill="#333333" width="1.889" height="4.825"/>
<g>
	<polygon fill="#FFFFFF" points="6.17,6.341 12.324,10.523 9.548,12.582 8.369,13.45 	"/>
	<path fill="#333333" d="M6.845,7.253l4.831,3.284l-0.752,0.556l-1.598,1.187l-0.755,0.557L6.845,7.253 M5.495,5.429l2.672,8.637
		l1.604-1.183l1.6-1.188l1.601-1.185L5.495,5.429L5.495,5.429z"/>
</g>
</svg>
