<?xml version="1.0" encoding="utf-8"?>
<svg version="1.1"
	 xmlns="http://www.w3.org/2000/svg" xmlns:xlink="http://www.w3.org/1999/xlink"
	 x="0px" y="0px" width="16px" height="16px" viewBox="0 -2.93 16 16" enable-background="new 0 -2.93 16 16" xml:space="preserve">
<defs>
</defs>
<g>
	<path fill="#D9E021" d="M0.447,9.765C0.406,9.519,0.374,9.29,0.375,9.218c0.077-5.979,5.057-6.872,8.018-6.872
		c0.825,0,1.378,0.076,1.384,0.077l0.427,0.059V0.606l4.957,2.472L10.203,5.55V3.794L9.868,3.758c0,0-0.441-0.048-1.113-0.048
		c-1.57,0-4.418,0.266-5.865,2.048C2.066,6.773,1.814,8.121,2.14,9.765H0.447z"/>
	<path fill="#FFFFFF" d="M10.578,1.212l3.741,1.866l-3.741,1.866V4.131V3.458l-0.67-0.072c-0.019-0.002-0.474-0.05-1.153-0.05
		c-1.636,0-4.611,0.284-6.156,2.187c-0.82,1.01-1.123,2.31-0.903,3.868H0.769C0.758,9.312,0.751,9.252,0.75,9.222
		c0.073-5.656,4.82-6.501,7.643-6.501c0.795,0,1.327,0.072,1.332,0.073l0.854,0.118v-0.86V1.212 M9.828,0v2.051
		c0,0-0.57-0.08-1.436-0.08C5.685,1.971,0.083,2.753,0,9.212c-0.003,0.201,0.132,0.928,0.132,0.928h2.555
		c0,0-0.141-0.262-0.161-0.355c-1.078-5.132,3.951-5.7,6.229-5.7c0.647,0,1.073,0.046,1.073,0.046v2.025L16,3.078L9.828,0L9.828,0z"
		/>
</g>
</svg>
