<?xml version="1.0" encoding="utf-8"?>
<svg version="1.1"
	 xmlns="http://www.w3.org/2000/svg" xmlns:xlink="http://www.w3.org/1999/xlink"
	 x="0px" y="0px" width="16px" height="16px" viewBox="0 0 16 16" enable-background="new 0 0 16 16" xml:space="preserve">
<defs>
</defs>
<path fill="#333333" d="M15.236,14.346c0.056,0.727-0.28,1.027-0.991,0.947H9.48c-0.779,0.063-1.07-0.34-0.952-0.947v-2.838
	c-0.088-0.639,0.165-1.021,0.952-0.947h4.765c0.727-0.09,1.071,0.25,0.991,0.947V14.346z"/>
<path fill="none" stroke="#FFFFFF" stroke-width="0.75" stroke-miterlimit="10" d="M8.121,11.678v-0.5c0-0.553,0.447-1,0.999-1h1.5"
	/>
<path fill="none" stroke="#FFFFFF" stroke-width="0.75" stroke-miterlimit="10" d="M15.62,11.678v-0.5c0-0.553-0.447-1-1-1h-1.5"/>
<path fill="none" stroke="#FFFFFF" stroke-width="0.75" stroke-miterlimit="10" d="M10.62,15.678h-1.5c-0.552,0-0.999-0.447-0.999-1
	v-0.5"/>
<path fill="none" stroke="#FFFFFF" stroke-width="0.75" stroke-miterlimit="10" d="M15.62,14.178v0.5c0,0.553-0.447,1-1,1h-1.5"/>
<circle fill="#FFFFFF" stroke="#FFFFFF" stroke-width="0.75" stroke-miterlimit="10" cx="11.87" cy="12.928" r="1.283"/>
<line fill="none" stroke="#FFFFFF" stroke-width="0.75" stroke-miterlimit="10" x1="4.5" y1="0" x2="4.5" y2="16"/>
<line fill="none" stroke="#FFFFFF" stroke-width="0.75" stroke-miterlimit="10" x1="16" y1="6.5" x2="0" y2="6.5"/>
<rect x="2.5" y="5.5" stroke="#FFFFFF" stroke-width="0.75" stroke-miterlimit="10" width="4" height="2"/>
</svg>
