<?xml version="1.0" encoding="utf-8"?>
<svg version="1.1"
	 xmlns="http://www.w3.org/2000/svg" xmlns:xlink="http://www.w3.org/1999/xlink"
	 x="0px" y="0px" width="16px" height="16px" viewBox="0 0 16 16" enable-background="new 0 0 16 16" xml:space="preserve">
<defs>
</defs>
<g>
	<path fill="#CCCCCC" d="M6.076,11.399c-1.127,0-1.942-0.771-1.95-0.779l-0.137-0.132l-0.189,0.032
		c-0.01,0.002-0.083,0.012-0.198,0.012c-0.311,0-0.909-0.076-1.429-0.585C1.385,9.181,1.484,8.446,1.489,8.415l0.027-0.184
		L1.387,8.092c-0.27-0.277-0.978-1.149-1.01-1.85C0.339,5.446,1.039,4.583,1.311,4.318l0.12-0.117L1.424,4.033
		c0-0.013-0.047-1.283,0.571-1.917c0.533-0.545,1.579-0.771,1.937-0.813l0.127-0.015L4.15,1.2c0.009-0.008,0.863-0.825,1.786-0.825
		c0.944,0,1.797,0.836,1.806,0.845l0.135,0.134l0.19-0.03c0.013-0.002,0.198-0.03,0.469-0.03c0.49,0,1.184,0.088,1.701,0.509
		c0.48,0.391,0.499,1.593,0.468,1.983l-0.013,0.159l0.106,0.121c0.008,0.008,0.743,0.85,0.766,1.922
		c0.017,0.798-0.583,1.667-0.815,1.934l-0.108,0.125l0.02,0.164c0.003,0.031,0.071,0.838-0.696,1.683
		c-0.469,0.515-1.541,0.64-1.915,0.645l-0.154,0.002l-0.109,0.111C7.778,10.659,7.039,11.399,6.076,11.399z"/>
	<path fill="#FFFFFF" d="M5.936,0.75c0.651,0,1.334,0.532,1.54,0.734l0.273,0.27l0.377-0.059c0.001,0,0.167-0.026,0.41-0.026
		c0.352,0,1.01,0.055,1.465,0.425c0.255,0.208,0.379,1.042,0.331,1.661l-0.023,0.32l0.21,0.239c0.006,0.008,0.652,0.754,0.671,1.682
		c0.014,0.67-0.519,1.442-0.724,1.681l-0.204,0.251l0.024,0.313c0.002,0.028,0.044,0.692-0.6,1.401
		c-0.345,0.378-1.256,0.516-1.643,0.522l-0.309,0.008l-0.216,0.216c-0.006,0.007-0.645,0.637-1.443,0.637
		c-0.967,0-1.684-0.669-1.688-0.672l-0.277-0.257l-0.367,0.054c-0.017,0.003-0.068,0.008-0.143,0.008
		c-0.253,0-0.742-0.063-1.168-0.479C1.798,9.06,1.857,8.489,1.857,8.484l0.065-0.378L1.656,7.831
		c-0.337-0.347-0.881-1.09-0.905-1.606c-0.03-0.648,0.584-1.403,0.822-1.638l0.241-0.235L1.798,4.015
		C1.788,3.781,1.835,2.817,2.263,2.378c0.451-0.462,1.39-0.664,1.711-0.702l0.255-0.029l0.184-0.179
		C4.604,1.282,5.292,0.75,5.936,0.75 M5.936,0C4.842,0,3.889,0.931,3.889,0.931S2.469,1.094,1.726,1.854
		C0.983,2.616,1.049,4.049,1.049,4.049s-1.101,1.072-1.047,2.21c0.046,1.001,1.117,2.095,1.117,2.095S0.956,9.286,1.91,10.216
		c0.614,0.6,1.318,0.691,1.691,0.691c0.164,0,0.263-0.018,0.263-0.018s0.908,0.885,2.211,0.885c1.142,0,1.978-0.86,1.978-0.86
		s1.507-0.02,2.188-0.768c0.904-0.995,0.791-1.978,0.791-1.978s0.93-1.07,0.907-2.188c-0.025-1.233-0.86-2.164-0.86-2.164
		s0.14-1.699-0.605-2.304C9.86,1.014,9.057,0.919,8.536,0.919c-0.317,0-0.529,0.035-0.529,0.035S7.054,0,5.936,0L5.936,0z"/>
</g>
<circle fill="#333333" stroke="#333333" stroke-width="0.75" stroke-miterlimit="10" cx="5.97" cy="5.887" r="2.747"/>
<g>
	<polygon fill="#FFFFFF" points="5.075,4.293 7.622,5.765 5.075,7.235 	"/>
	<path fill="#FFFFFF" d="M5.45,4.943l1.422,0.821L5.45,6.585V4.943 M4.7,3.644v4.241l3.672-2.12L4.7,3.644L4.7,3.644z"/>
</g>
<rect x="12.419" y="11.074" transform="matrix(0.8175 -0.576 0.576 0.8175 -5.3285 10.1593)" fill="#FFFFFF" width="1.889" height="4.825"/>
<g>
	<polygon fill="#333333" points="9.198,7.913 15.353,12.095 12.576,14.154 11.397,15.022 	"/>
	<path fill="#FFFFFF" d="M9.873,8.824l4.831,3.284l-0.752,0.557l-1.597,1.187L11.6,14.407L9.873,8.824 M8.523,7l2.672,8.636
		l1.604-1.182l1.6-1.188L16,12.082L8.523,7L8.523,7z"/>
</g>
</svg>
