<?xml version="1.0" encoding="utf-8"?>
<svg version="1.1"
	 xmlns="http://www.w3.org/2000/svg" xmlns:xlink="http://www.w3.org/1999/xlink"
	 x="0px" y="0px" width="16px" height="16px" viewBox="0 0 16 16" enable-background="new 0 0 16 16" xml:space="preserve">
<defs>
</defs>
<g>
	<rect x="0.375" y="0.375" fill="#333333" width="15.25" height="15.25"/>
	<path fill="#FFFFFF" d="M15.25,0.75v14.5H0.75V0.75H15.25 M16,0H0v16h16V0L16,0z"/>
</g>
<path fill="#FFFFFF" d="M6.853,7.498H5.879L5.492,6.492H3.721L3.355,7.498H2.407l1.726-4.43h0.946L6.853,7.498z M5.205,5.745
	l-0.61-1.644L3.997,5.745H5.205z"/>
<path fill="#FFFFFF" d="M10.581,7.498H9.771L9.448,6.66H7.972L7.667,7.498H6.876l1.438-3.692h0.788L10.581,7.498z M9.209,6.038
	L8.7,4.667l-0.499,1.37H9.209z"/>
<path fill="#FFFFFF" d="M13.564,7.498h-0.648l-0.258-0.671h-1.181l-0.244,0.671h-0.633l1.15-2.954h0.631L13.564,7.498z M12.467,6.33
	L12.06,5.233L11.66,6.33H12.467z"/>
<g>
	<path fill="#E6E6E6" d="M12.499,15.625c-1.723,0-3.124-1.402-3.124-3.126c0-1.723,1.401-3.124,3.124-3.124
		c1.724,0,3.126,1.401,3.126,3.124C15.625,14.223,14.223,15.625,12.499,15.625z"/>
	<path fill="#FFFFFF" d="M12.499,9.75c1.517,0,2.751,1.233,2.751,2.749c0,1.517-1.234,2.751-2.751,2.751
		c-1.516,0-2.749-1.234-2.749-2.751C9.75,10.983,10.983,9.75,12.499,9.75 M12.499,9C10.566,9,9,10.566,9,12.499
		C9,14.433,10.566,16,12.499,16C14.434,16,16,14.433,16,12.499C16,10.566,14.434,9,12.499,9L12.499,9z"/>
</g>
<polyline fill="none" stroke="#333333" stroke-width="0.75" stroke-linecap="round" stroke-miterlimit="10" points="10.809,12.726 
	12.529,14.479 14.316,12.726 "/>
<line fill="none" stroke="#333333" stroke-width="0.75" stroke-linecap="round" stroke-miterlimit="10" x1="12.529" y1="14.405" x2="12.53" y2="10.515"/>
</svg>
