<?xml version="1.0" encoding="utf-8"?>
<svg version="1.1"
	 xmlns="http://www.w3.org/2000/svg" xmlns:xlink="http://www.w3.org/1999/xlink"
	 x="0px" y="0px" width="16px" height="16px" viewBox="0.086 -1.5 16 16" enable-background="new 0.086 -1.5 16 16"
	 xml:space="preserve">
<defs>
</defs>
<g>
	<path fill="#D095EF" d="M3.36,11.719c-0.294,0-0.534-0.273-0.534-0.609V1.26c0-0.336,0.24-0.61,0.534-0.61h8.183
		c0.294,0,0.533,0.274,0.533,0.61v9.85c0,0.336-0.239,0.609-0.533,0.609H3.36z"/>
	<path fill="#FFFFFF" d="M11.543,1.024c0.074,0,0.158,0.101,0.158,0.235v9.85c0,0.138-0.083,0.234-0.158,0.234H3.36
		c-0.075,0-0.159-0.101-0.159-0.234V1.26c0-0.135,0.084-0.235,0.159-0.235H11.543 M11.543,0.274H3.36
		c-0.501,0-0.909,0.441-0.909,0.985v9.85c0,0.545,0.408,0.984,0.909,0.984h8.183c0.502,0,0.908-0.439,0.908-0.984V1.26
		C12.451,0.715,12.045,0.274,11.543,0.274L11.543,0.274z"/>
</g>
<polyline fill="none" stroke="#FFFFFF" stroke-width="0.75" stroke-miterlimit="10" points="0.336,11.206 4.93,1.969 14.52,0.539 
	"/>
<g>
	<rect x="2.453" y="0.375" fill="#662D91" width="4.916" height="3.518"/>
	<path fill="#FFFFFF" d="M6.993,0.75v2.768H2.828V0.75H6.993 M7.743,0H2.078v4.268h5.666V0L7.743,0z"/>
</g>
<line fill="none" stroke="#FFFFFF" stroke-width="0.5" stroke-miterlimit="10" x1="2.469" y1="0.328" x2="7.228" y2="3.75"/>
<line fill="none" stroke="#FFFFFF" stroke-width="0.5" stroke-miterlimit="10" x1="7.228" y1="0.328" x2="2.469" y2="3.75"/>
<g>
	<polygon fill="#662D91" points="9.667,7.856 7.313,9.978 6.226,8.77 11.092,4.384 13.098,4.764 10.876,6.767 15.556,11.923 
		14.349,13.011 	"/>
	<path fill="#FFFFFF" d="M11.204,4.787l1.081,0.205l-1.381,1.245l-0.56,0.504l0.506,0.557l4.174,4.599l-0.649,0.585l-4.18-4.601
		L9.693,7.327L9.139,7.828l-1.797,1.62L6.755,8.797L11.204,4.787 M10.979,3.981L5.696,8.742l0.482,0.535l1.108,1.23l2.354-2.123
		l4.682,5.154l1.764-1.59l-4.68-5.156l2.504-2.257L10.979,3.981L10.979,3.981z"/>
</g>
</svg>
