<?xml version="1.0" encoding="utf-8"?>
<svg version="1.1"
	 xmlns="http://www.w3.org/2000/svg" xmlns:xlink="http://www.w3.org/1999/xlink"
	 x="0px" y="0px" width="16px" height="16px" viewBox="-0.75 0 16 16" enable-background="new -0.75 0 16 16" xml:space="preserve">
<defs>
</defs>
<line fill="#333333" stroke="#333333" stroke-width="0.75" stroke-miterlimit="10" x1="11.748" y1="10.148" x2="11.748" y2="14.852"/>
<line fill="#333333" stroke="#333333" stroke-width="0.75" stroke-miterlimit="10" x1="9.4" y1="12.5" x2="14.1" y2="12.5"/>
<g>
	<path fill="#E6E6E6" d="M11.75,15.625c-1.723,0-3.125-1.402-3.125-3.125s1.402-3.125,3.125-3.125s3.125,1.402,3.125,3.125
		S13.473,15.625,11.75,15.625z"/>
	<path fill="#FFFFFF" d="M11.75,9.75c1.517,0,2.75,1.233,2.75,2.75s-1.233,2.75-2.75,2.75S9,14.017,9,12.5S10.233,9.75,11.75,9.75
		 M11.75,9c-1.935,0-3.5,1.565-3.5,3.5c0,1.934,1.565,3.5,3.5,3.5s3.5-1.566,3.5-3.5C15.25,10.565,13.685,9,11.75,9L11.75,9z"/>
</g>
<line fill="#333333" stroke="#333333" stroke-width="0.75" stroke-linecap="round" stroke-miterlimit="10" x1="11.748" y1="10.553" x2="11.748" y2="14.447"/>
<line fill="#333333" stroke="#333333" stroke-width="0.75" stroke-linecap="round" stroke-miterlimit="10" x1="9.805" y1="12.5" x2="13.695" y2="12.5"/>
<path fill="#0071BC" stroke="#FFFFFF" stroke-width="0.25" stroke-linecap="round" stroke-miterlimit="10" d="M1.108,12.7
	c0,0,0.655-5.604,3.638-8.067c2.441-2.016,6.846-2.869,7.5-3.75c0.656-0.881-1.684,2.509-2.326,2.734
	C4.429,5.537,1.108,12.7,1.108,12.7z"/>
<path fill="#0071BC" stroke="#FFFFFF" stroke-width="0.25" stroke-linecap="round" stroke-miterlimit="10" d="M1.063,14.101
	c0,0,1.942,0.474,2.688-0.023c0.746-0.496,1.854-3.434,4.7-5.49c3.932-2.838,5.627-4.226,5.672-6.123
	c0.037-1.537-1.221-1.83-1.424-2.101c-0.203-0.271-1.176,2.237-1.965,2.711c-3.536,2.121-4.683,1.364-8.067,7.095
	C2.009,11.283,1.063,14.101,1.063,14.101z"/>
<path fill="none" stroke="#FFFFFF" stroke-width="0.5" stroke-linecap="round" stroke-miterlimit="10" d="M0.25,15.75
	c0,0,3.28-9.099,8.156-11.388c2.215-1.039,3.502-2.327,4.158-4.112"/>
<path fill="none" stroke="#FFFFFF" stroke-width="0.25" stroke-linecap="round" stroke-miterlimit="10" d="M9.311,2.374
	c0,0.317-0.344,1.491-0.564,1.83"/>
<path fill="none" stroke="#FFFFFF" stroke-width="0.25" stroke-linecap="round" stroke-miterlimit="10" d="M7.231,3.3
	C6.93,4.505,6.935,4.453,6.757,5.221"/>
<path fill="none" stroke="#FFFFFF" stroke-width="0.25" stroke-linecap="round" stroke-miterlimit="10" d="M5.018,4.43
	c0,0-0.588,2.823-0.498,3.298"/>
<path fill="none" stroke="#FFFFFF" stroke-width="0.25" stroke-linecap="round" stroke-miterlimit="10" d="M10.461,3.277
	c0,0,3.254-1.311,3.504-1.74"/>
<path fill="none" stroke="#FFFFFF" stroke-width="0.25" stroke-linecap="round" stroke-miterlimit="10" d="M7.91,4.792
	c0,0,5.243-0.044,5.715-0.723"/>
<path fill="none" stroke="#FFFFFF" stroke-width="0.25" stroke-linecap="round" stroke-miterlimit="10" d="M5.898,6.192
	c0.588,0,5.219,0.113,5.831-0.067"/>
<path fill="none" stroke="#FFFFFF" stroke-width="0.25" stroke-linecap="round" stroke-miterlimit="10" d="M4.588,7.639
	c0,0,3.932,0.565,4.563,0.43"/>
<path fill="none" stroke="#FFFFFF" stroke-width="0.25" stroke-linecap="round" stroke-miterlimit="10" d="M1.356,12.971
	c0,0,2.756,0.384,3.073,0.248"/>
<path fill="none" stroke="#FFFFFF" stroke-width="0.25" stroke-linecap="round" stroke-miterlimit="10" d="M3.07,6.693
	c0,0-0.535,2.824-0.453,3.297"/>
<path fill="none" stroke="#FFFFFF" stroke-width="0.25" stroke-linecap="round" stroke-miterlimit="10" d="M3.3,9.536
	c0,0,3.096,0.362,3.729,0.227"/>
<path fill="none" stroke="#FFFFFF" stroke-width="0.25" stroke-linecap="round" stroke-miterlimit="10" d="M2.283,11.457
	c-0.423-0.018,2.667,0.354,3.231,0.112"/>
</svg>
